0
SECTION
2
HEADER
9
$INSUNITS
70
4
0
ENDSEC
0
SECTION
2
ENTITIES
0
LINE
8
EM_BOUNDARY
10
-1.5
20
-4
30
0
11
31.5
21
-4
31
0
0
LINE
8
EM_BOUNDARY
10
31.5
20
-4
30
0
11
31.5
21
4
31
0
0
LINE
8
EM_BOUNDARY
10
31.5
20
4
30
0
11
-1.5
21
4
31
0
0
LINE
8
EM_BOUNDARY
10
-1.5
20
4
30
0
11
-1.5
21
-4
31
0
0
LINE
8
cond
10
0
20
1.975
30
0
11
6.9
21
0.36195
31
0
0
LINE
8
cond
10
6.9
20
0.36195
30
0
11
6.9
21
4
31
0
0
LINE
8
cond
10
6.9
20
4
30
0
11
0
21
4
31
0
0
LINE
8
cond
10
0
20
4
30
0
11
0
21
1.975
31
0
0
LINE
8
cond
10
0
20
-1.975
30
0
11
0
21
-4
31
0
0
LINE
8
cond
10
0
20
-4
30
0
11
6.9
21
-4
31
0
0
LINE
8
cond
10
6.9
20
-4
30
0
11
6.9
21
-0.36195
31
0
0
LINE
8
cond
10
6.9
20
-0.36195
30
0
11
0
21
-1.975
31
0
0
LINE
8
cond
10
6.9
20
0.36195
30
0
11
30
21
0.36195
31
0
0
LINE
8
cond
10
30
20
0.36195
30
0
11
30
21
4
31
0
0
LINE
8
cond
10
30
20
4
30
0
11
6.9
21
4
31
0
0
LINE
8
cond
10
6.9
20
4
30
0
11
6.9
21
0.36195
31
0
0
LINE
8
cond
10
6.9
20
-4
30
0
11
30
21
-4
31
0
0
LINE
8
cond
10
30
20
-4
30
0
11
30
21
-0.36195
31
0
0
LINE
8
cond
10
30
20
-0.36195
30
0
11
6.9
21
-0.36195
31
0
0
LINE
8
cond
10
6.9
20
-0.36195
30
0
11
6.9
21
-4
31
0
0
LINE
8
cond
10
0
20
-0.475
30
0
11
2.8
21
-0.475
31
0
0
LINE
8
cond
10
2.8
20
-0.475
30
0
11
2.8
21
0.475
31
0
0
LINE
8
cond
10
2.8
20
0.475
30
0
11
0
21
0.475
31
0
0
LINE
8
cond
10
0
20
0.475
30
0
11
0
21
-0.475
31
0
0
LINE
8
cond
10
2.8
20
-0.45
30
0
11
3.3
21
-0.45
31
0
0
LINE
8
cond
10
3.3
20
-0.45
30
0
11
3.3
21
0.45
31
0
0
LINE
8
cond
10
3.3
20
0.45
30
0
11
2.8
21
0.45
31
0
0
LINE
8
cond
10
2.8
20
0.45
30
0
11
2.8
21
-0.45
31
0
0
LINE
8
cond
10
3.3
20
-0.45
30
0
11
6.9
21
-0.15875
31
0
0
LINE
8
cond
10
6.9
20
-0.15875
30
0
11
6.9
21
0.15875
31
0
0
LINE
8
cond
10
6.9
20
0.15875
30
0
11
3.3
21
0.45
31
0
0
LINE
8
cond
10
3.3
20
0.45
30
0
11
3.3
21
-0.45
31
0
0
LINE
8
cond
10
6.9
20
-0.15875
30
0
11
29.5
21
-0.15875
31
0
0
LINE
8
cond
10
29.5
20
-0.15875
30
0
11
29.5
21
0.15875
31
0
0
LINE
8
cond
10
29.5
20
0.15875
30
0
11
6.9
21
0.15875
31
0
0
LINE
8
cond
10
6.9
20
0.15875
30
0
11
6.9
21
-0.15875
31
0
0
LINE
8
cond
10
29.5
20
-0.15875
30
0
11
30
21
-0.15875
31
0
0
LINE
8
cond
10
30
20
-0.15875
30
0
11
30
21
0.15875
31
0
0
LINE
8
cond
10
30
20
0.15875
30
0
11
29.5
21
0.15875
31
0
0
LINE
8
cond
10
29.5
20
0.15875
30
0
11
29.5
21
-0.15875
31
0
0
LINE
8
pcvia1
10
0.95
20
2.9875
30
0
11
0.948717
21
3.007079
31
0
0
LINE
8
pcvia1
10
0.948717
20
3.007079
30
0
11
0.944889
21
3.026323
31
0
0
LINE
8
pcvia1
10
0.944889
20
3.026323
30
0
11
0.938582
21
3.044903
31
0
0
LINE
8
pcvia1
10
0.938582
20
3.044903
30
0
11
0.929904
21
3.0625
31
0
0
LINE
8
pcvia1
10
0.929904
20
3.0625
30
0
11
0.919003
21
3.078814
31
0
0
LINE
8
pcvia1
10
0.919003
20
3.078814
30
0
11
0.906066
21
3.093566
31
0
0
LINE
8
pcvia1
10
0.906066
20
3.093566
30
0
11
0.891314
21
3.106503
31
0
0
LINE
8
pcvia1
10
0.891314
20
3.106503
30
0
11
0.875
21
3.117404
31
0
0
LINE
8
pcvia1
10
0.875
20
3.117404
30
0
11
0.857403
21
3.126082
31
0
0
LINE
8
pcvia1
10
0.857403
20
3.126082
30
0
11
0.838823
21
3.132389
31
0
0
LINE
8
pcvia1
10
0.838823
20
3.132389
30
0
11
0.819579
21
3.136217
31
0
0
LINE
8
pcvia1
10
0.819579
20
3.136217
30
0
11
0.8
21
3.1375
31
0
0
LINE
8
pcvia1
10
0.8
20
3.1375
30
0
11
0.780421
21
3.136217
31
0
0
LINE
8
pcvia1
10
0.780421
20
3.136217
30
0
11
0.761177
21
3.132389
31
0
0
LINE
8
pcvia1
10
0.761177
20
3.132389
30
0
11
0.742597
21
3.126082
31
0
0
LINE
8
pcvia1
10
0.742597
20
3.126082
30
0
11
0.725
21
3.117404
31
0
0
LINE
8
pcvia1
10
0.725
20
3.117404
30
0
11
0.708686
21
3.106503
31
0
0
LINE
8
pcvia1
10
0.708686
20
3.106503
30
0
11
0.693934
21
3.093566
31
0
0
LINE
8
pcvia1
10
0.693934
20
3.093566
30
0
11
0.680997
21
3.078814
31
0
0
LINE
8
pcvia1
10
0.680997
20
3.078814
30
0
11
0.670096
21
3.0625
31
0
0
LINE
8
pcvia1
10
0.670096
20
3.0625
30
0
11
0.661418
21
3.044903
31
0
0
LINE
8
pcvia1
10
0.661418
20
3.044903
30
0
11
0.655111
21
3.026323
31
0
0
LINE
8
pcvia1
10
0.655111
20
3.026323
30
0
11
0.651283
21
3.007079
31
0
0
LINE
8
pcvia1
10
0.651283
20
3.007079
30
0
11
0.65
21
2.9875
31
0
0
LINE
8
pcvia1
10
0.65
20
2.9875
30
0
11
0.651283
21
2.967921
31
0
0
LINE
8
pcvia1
10
0.651283
20
2.967921
30
0
11
0.655111
21
2.948677
31
0
0
LINE
8
pcvia1
10
0.655111
20
2.948677
30
0
11
0.661418
21
2.930097
31
0
0
LINE
8
pcvia1
10
0.661418
20
2.930097
30
0
11
0.670096
21
2.9125
31
0
0
LINE
8
pcvia1
10
0.670096
20
2.9125
30
0
11
0.680997
21
2.896186
31
0
0
LINE
8
pcvia1
10
0.680997
20
2.896186
30
0
11
0.693934
21
2.881434
31
0
0
LINE
8
pcvia1
10
0.693934
20
2.881434
30
0
11
0.708686
21
2.868497
31
0
0
LINE
8
pcvia1
10
0.708686
20
2.868497
30
0
11
0.725
21
2.857596
31
0
0
LINE
8
pcvia1
10
0.725
20
2.857596
30
0
11
0.742597
21
2.848918
31
0
0
LINE
8
pcvia1
10
0.742597
20
2.848918
30
0
11
0.761177
21
2.842611
31
0
0
LINE
8
pcvia1
10
0.761177
20
2.842611
30
0
11
0.780421
21
2.838783
31
0
0
LINE
8
pcvia1
10
0.780421
20
2.838783
30
0
11
0.8
21
2.8375
31
0
0
LINE
8
pcvia1
10
0.8
20
2.8375
30
0
11
0.819579
21
2.838783
31
0
0
LINE
8
pcvia1
10
0.819579
20
2.838783
30
0
11
0.838823
21
2.842611
31
0
0
LINE
8
pcvia1
10
0.838823
20
2.842611
30
0
11
0.857403
21
2.848918
31
0
0
LINE
8
pcvia1
10
0.857403
20
2.848918
30
0
11
0.875
21
2.857596
31
0
0
LINE
8
pcvia1
10
0.875
20
2.857596
30
0
11
0.891314
21
2.868497
31
0
0
LINE
8
pcvia1
10
0.891314
20
2.868497
30
0
11
0.906066
21
2.881434
31
0
0
LINE
8
pcvia1
10
0.906066
20
2.881434
30
0
11
0.919003
21
2.896186
31
0
0
LINE
8
pcvia1
10
0.919003
20
2.896186
30
0
11
0.929904
21
2.9125
31
0
0
LINE
8
pcvia1
10
0.929904
20
2.9125
30
0
11
0.938582
21
2.930097
31
0
0
LINE
8
pcvia1
10
0.938582
20
2.930097
30
0
11
0.944889
21
2.948677
31
0
0
LINE
8
pcvia1
10
0.944889
20
2.948677
30
0
11
0.948717
21
2.967921
31
0
0
LINE
8
pcvia1
10
0.948717
20
2.967921
30
0
11
0.95
21
2.9875
31
0
0
LINE
8
cond
10
1.075
20
2.9875
30
0
11
1.072647
21
3.023395
31
0
0
LINE
8
cond
10
1.072647
20
3.023395
30
0
11
1.06563
21
3.058675
31
0
0
LINE
8
cond
10
1.06563
20
3.058675
30
0
11
1.054067
21
3.092738
31
0
0
LINE
8
cond
10
1.054067
20
3.092738
30
0
11
1.038157
21
3.125
31
0
0
LINE
8
cond
10
1.038157
20
3.125
30
0
11
1.018172
21
3.154909
31
0
0
LINE
8
cond
10
1.018172
20
3.154909
30
0
11
0.994454
21
3.181954
31
0
0
LINE
8
cond
10
0.994454
20
3.181954
30
0
11
0.967409
21
3.205672
31
0
0
LINE
8
cond
10
0.967409
20
3.205672
30
0
11
0.9375
21
3.225657
31
0
0
LINE
8
cond
10
0.9375
20
3.225657
30
0
11
0.905238
21
3.241567
31
0
0
LINE
8
cond
10
0.905238
20
3.241567
30
0
11
0.871175
21
3.25313
31
0
0
LINE
8
cond
10
0.871175
20
3.25313
30
0
11
0.835895
21
3.260147
31
0
0
LINE
8
cond
10
0.835895
20
3.260147
30
0
11
0.8
21
3.2625
31
0
0
LINE
8
cond
10
0.8
20
3.2625
30
0
11
0.764105
21
3.260147
31
0
0
LINE
8
cond
10
0.764105
20
3.260147
30
0
11
0.728825
21
3.25313
31
0
0
LINE
8
cond
10
0.728825
20
3.25313
30
0
11
0.694762
21
3.241567
31
0
0
LINE
8
cond
10
0.694762
20
3.241567
30
0
11
0.6625
21
3.225657
31
0
0
LINE
8
cond
10
0.6625
20
3.225657
30
0
11
0.632591
21
3.205672
31
0
0
LINE
8
cond
10
0.632591
20
3.205672
30
0
11
0.605546
21
3.181954
31
0
0
LINE
8
cond
10
0.605546
20
3.181954
30
0
11
0.581828
21
3.154909
31
0
0
LINE
8
cond
10
0.581828
20
3.154909
30
0
11
0.561843
21
3.125
31
0
0
LINE
8
cond
10
0.561843
20
3.125
30
0
11
0.545933
21
3.092738
31
0
0
LINE
8
cond
10
0.545933
20
3.092738
30
0
11
0.53437
21
3.058675
31
0
0
LINE
8
cond
10
0.53437
20
3.058675
30
0
11
0.527353
21
3.023395
31
0
0
LINE
8
cond
10
0.527353
20
3.023395
30
0
11
0.525
21
2.9875
31
0
0
LINE
8
cond
10
0.525
20
2.9875
30
0
11
0.527353
21
2.951605
31
0
0
LINE
8
cond
10
0.527353
20
2.951605
30
0
11
0.53437
21
2.916325
31
0
0
LINE
8
cond
10
0.53437
20
2.916325
30
0
11
0.545933
21
2.882262
31
0
0
LINE
8
cond
10
0.545933
20
2.882262
30
0
11
0.561843
21
2.85
31
0
0
LINE
8
cond
10
0.561843
20
2.85
30
0
11
0.581828
21
2.820091
31
0
0
LINE
8
cond
10
0.581828
20
2.820091
30
0
11
0.605546
21
2.793046
31
0
0
LINE
8
cond
10
0.605546
20
2.793046
30
0
11
0.632591
21
2.769328
31
0
0
LINE
8
cond
10
0.632591
20
2.769328
30
0
11
0.6625
21
2.749343
31
0
0
LINE
8
cond
10
0.6625
20
2.749343
30
0
11
0.694762
21
2.733433
31
0
0
LINE
8
cond
10
0.694762
20
2.733433
30
0
11
0.728825
21
2.72187
31
0
0
LINE
8
cond
10
0.728825
20
2.72187
30
0
11
0.764105
21
2.714853
31
0
0
LINE
8
cond
10
0.764105
20
2.714853
30
0
11
0.8
21
2.7125
31
0
0
LINE
8
cond
10
0.8
20
2.7125
30
0
11
0.835895
21
2.714853
31
0
0
LINE
8
cond
10
0.835895
20
2.714853
30
0
11
0.871175
21
2.72187
31
0
0
LINE
8
cond
10
0.871175
20
2.72187
30
0
11
0.905238
21
2.733433
31
0
0
LINE
8
cond
10
0.905238
20
2.733433
30
0
11
0.9375
21
2.749343
31
0
0
LINE
8
cond
10
0.9375
20
2.749343
30
0
11
0.967409
21
2.769328
31
0
0
LINE
8
cond
10
0.967409
20
2.769328
30
0
11
0.994454
21
2.793046
31
0
0
LINE
8
cond
10
0.994454
20
2.793046
30
0
11
1.018172
21
2.820091
31
0
0
LINE
8
cond
10
1.018172
20
2.820091
30
0
11
1.038157
21
2.85
31
0
0
LINE
8
cond
10
1.038157
20
2.85
30
0
11
1.054067
21
2.882262
31
0
0
LINE
8
cond
10
1.054067
20
2.882262
30
0
11
1.06563
21
2.916325
31
0
0
LINE
8
cond
10
1.06563
20
2.916325
30
0
11
1.072647
21
2.951605
31
0
0
LINE
8
cond
10
1.072647
20
2.951605
30
0
11
1.075
21
2.9875
31
0
0
LINE
8
pcvia1
10
2.15
20
2.9875
30
0
11
2.148717
21
3.007079
31
0
0
LINE
8
pcvia1
10
2.148717
20
3.007079
30
0
11
2.144889
21
3.026323
31
0
0
LINE
8
pcvia1
10
2.144889
20
3.026323
30
0
11
2.138582
21
3.044903
31
0
0
LINE
8
pcvia1
10
2.138582
20
3.044903
30
0
11
2.129904
21
3.0625
31
0
0
LINE
8
pcvia1
10
2.129904
20
3.0625
30
0
11
2.119003
21
3.078814
31
0
0
LINE
8
pcvia1
10
2.119003
20
3.078814
30
0
11
2.106066
21
3.093566
31
0
0
LINE
8
pcvia1
10
2.106066
20
3.093566
30
0
11
2.091314
21
3.106503
31
0
0
LINE
8
pcvia1
10
2.091314
20
3.106503
30
0
11
2.075
21
3.117404
31
0
0
LINE
8
pcvia1
10
2.075
20
3.117404
30
0
11
2.057403
21
3.126082
31
0
0
LINE
8
pcvia1
10
2.057403
20
3.126082
30
0
11
2.038823
21
3.132389
31
0
0
LINE
8
pcvia1
10
2.038823
20
3.132389
30
0
11
2.019579
21
3.136217
31
0
0
LINE
8
pcvia1
10
2.019579
20
3.136217
30
0
11
2
21
3.1375
31
0
0
LINE
8
pcvia1
10
2
20
3.1375
30
0
11
1.980421
21
3.136217
31
0
0
LINE
8
pcvia1
10
1.980421
20
3.136217
30
0
11
1.961177
21
3.132389
31
0
0
LINE
8
pcvia1
10
1.961177
20
3.132389
30
0
11
1.942597
21
3.126082
31
0
0
LINE
8
pcvia1
10
1.942597
20
3.126082
30
0
11
1.925
21
3.117404
31
0
0
LINE
8
pcvia1
10
1.925
20
3.117404
30
0
11
1.908686
21
3.106503
31
0
0
LINE
8
pcvia1
10
1.908686
20
3.106503
30
0
11
1.893934
21
3.093566
31
0
0
LINE
8
pcvia1
10
1.893934
20
3.093566
30
0
11
1.880997
21
3.078814
31
0
0
LINE
8
pcvia1
10
1.880997
20
3.078814
30
0
11
1.870096
21
3.0625
31
0
0
LINE
8
pcvia1
10
1.870096
20
3.0625
30
0
11
1.861418
21
3.044903
31
0
0
LINE
8
pcvia1
10
1.861418
20
3.044903
30
0
11
1.855111
21
3.026323
31
0
0
LINE
8
pcvia1
10
1.855111
20
3.026323
30
0
11
1.851283
21
3.007079
31
0
0
LINE
8
pcvia1
10
1.851283
20
3.007079
30
0
11
1.85
21
2.9875
31
0
0
LINE
8
pcvia1
10
1.85
20
2.9875
30
0
11
1.851283
21
2.967921
31
0
0
LINE
8
pcvia1
10
1.851283
20
2.967921
30
0
11
1.855111
21
2.948677
31
0
0
LINE
8
pcvia1
10
1.855111
20
2.948677
30
0
11
1.861418
21
2.930097
31
0
0
LINE
8
pcvia1
10
1.861418
20
2.930097
30
0
11
1.870096
21
2.9125
31
0
0
LINE
8
pcvia1
10
1.870096
20
2.9125
30
0
11
1.880997
21
2.896186
31
0
0
LINE
8
pcvia1
10
1.880997
20
2.896186
30
0
11
1.893934
21
2.881434
31
0
0
LINE
8
pcvia1
10
1.893934
20
2.881434
30
0
11
1.908686
21
2.868497
31
0
0
LINE
8
pcvia1
10
1.908686
20
2.868497
30
0
11
1.925
21
2.857596
31
0
0
LINE
8
pcvia1
10
1.925
20
2.857596
30
0
11
1.942597
21
2.848918
31
0
0
LINE
8
pcvia1
10
1.942597
20
2.848918
30
0
11
1.961177
21
2.842611
31
0
0
LINE
8
pcvia1
10
1.961177
20
2.842611
30
0
11
1.980421
21
2.838783
31
0
0
LINE
8
pcvia1
10
1.980421
20
2.838783
30
0
11
2
21
2.8375
31
0
0
LINE
8
pcvia1
10
2
20
2.8375
30
0
11
2.019579
21
2.838783
31
0
0
LINE
8
pcvia1
10
2.019579
20
2.838783
30
0
11
2.038823
21
2.842611
31
0
0
LINE
8
pcvia1
10
2.038823
20
2.842611
30
0
11
2.057403
21
2.848918
31
0
0
LINE
8
pcvia1
10
2.057403
20
2.848918
30
0
11
2.075
21
2.857596
31
0
0
LINE
8
pcvia1
10
2.075
20
2.857596
30
0
11
2.091314
21
2.868497
31
0
0
LINE
8
pcvia1
10
2.091314
20
2.868497
30
0
11
2.106066
21
2.881434
31
0
0
LINE
8
pcvia1
10
2.106066
20
2.881434
30
0
11
2.119003
21
2.896186
31
0
0
LINE
8
pcvia1
10
2.119003
20
2.896186
30
0
11
2.129904
21
2.9125
31
0
0
LINE
8
pcvia1
10
2.129904
20
2.9125
30
0
11
2.138582
21
2.930097
31
0
0
LINE
8
pcvia1
10
2.138582
20
2.930097
30
0
11
2.144889
21
2.948677
31
0
0
LINE
8
pcvia1
10
2.144889
20
2.948677
30
0
11
2.148717
21
2.967921
31
0
0
LINE
8
pcvia1
10
2.148717
20
2.967921
30
0
11
2.15
21
2.9875
31
0
0
LINE
8
cond
10
2.275
20
2.9875
30
0
11
2.272647
21
3.023395
31
0
0
LINE
8
cond
10
2.272647
20
3.023395
30
0
11
2.26563
21
3.058675
31
0
0
LINE
8
cond
10
2.26563
20
3.058675
30
0
11
2.254067
21
3.092738
31
0
0
LINE
8
cond
10
2.254067
20
3.092738
30
0
11
2.238157
21
3.125
31
0
0
LINE
8
cond
10
2.238157
20
3.125
30
0
11
2.218172
21
3.154909
31
0
0
LINE
8
cond
10
2.218172
20
3.154909
30
0
11
2.194454
21
3.181954
31
0
0
LINE
8
cond
10
2.194454
20
3.181954
30
0
11
2.167409
21
3.205672
31
0
0
LINE
8
cond
10
2.167409
20
3.205672
30
0
11
2.1375
21
3.225657
31
0
0
LINE
8
cond
10
2.1375
20
3.225657
30
0
11
2.105238
21
3.241567
31
0
0
LINE
8
cond
10
2.105238
20
3.241567
30
0
11
2.071175
21
3.25313
31
0
0
LINE
8
cond
10
2.071175
20
3.25313
30
0
11
2.035895
21
3.260147
31
0
0
LINE
8
cond
10
2.035895
20
3.260147
30
0
11
2
21
3.2625
31
0
0
LINE
8
cond
10
2
20
3.2625
30
0
11
1.964105
21
3.260147
31
0
0
LINE
8
cond
10
1.964105
20
3.260147
30
0
11
1.928825
21
3.25313
31
0
0
LINE
8
cond
10
1.928825
20
3.25313
30
0
11
1.894762
21
3.241567
31
0
0
LINE
8
cond
10
1.894762
20
3.241567
30
0
11
1.8625
21
3.225657
31
0
0
LINE
8
cond
10
1.8625
20
3.225657
30
0
11
1.832591
21
3.205672
31
0
0
LINE
8
cond
10
1.832591
20
3.205672
30
0
11
1.805546
21
3.181954
31
0
0
LINE
8
cond
10
1.805546
20
3.181954
30
0
11
1.781828
21
3.154909
31
0
0
LINE
8
cond
10
1.781828
20
3.154909
30
0
11
1.761843
21
3.125
31
0
0
LINE
8
cond
10
1.761843
20
3.125
30
0
11
1.745933
21
3.092738
31
0
0
LINE
8
cond
10
1.745933
20
3.092738
30
0
11
1.73437
21
3.058675
31
0
0
LINE
8
cond
10
1.73437
20
3.058675
30
0
11
1.727353
21
3.023395
31
0
0
LINE
8
cond
10
1.727353
20
3.023395
30
0
11
1.725
21
2.9875
31
0
0
LINE
8
cond
10
1.725
20
2.9875
30
0
11
1.727353
21
2.951605
31
0
0
LINE
8
cond
10
1.727353
20
2.951605
30
0
11
1.73437
21
2.916325
31
0
0
LINE
8
cond
10
1.73437
20
2.916325
30
0
11
1.745933
21
2.882262
31
0
0
LINE
8
cond
10
1.745933
20
2.882262
30
0
11
1.761843
21
2.85
31
0
0
LINE
8
cond
10
1.761843
20
2.85
30
0
11
1.781828
21
2.820091
31
0
0
LINE
8
cond
10
1.781828
20
2.820091
30
0
11
1.805546
21
2.793046
31
0
0
LINE
8
cond
10
1.805546
20
2.793046
30
0
11
1.832591
21
2.769328
31
0
0
LINE
8
cond
10
1.832591
20
2.769328
30
0
11
1.8625
21
2.749343
31
0
0
LINE
8
cond
10
1.8625
20
2.749343
30
0
11
1.894762
21
2.733433
31
0
0
LINE
8
cond
10
1.894762
20
2.733433
30
0
11
1.928825
21
2.72187
31
0
0
LINE
8
cond
10
1.928825
20
2.72187
30
0
11
1.964105
21
2.714853
31
0
0
LINE
8
cond
10
1.964105
20
2.714853
30
0
11
2
21
2.7125
31
0
0
LINE
8
cond
10
2
20
2.7125
30
0
11
2.035895
21
2.714853
31
0
0
LINE
8
cond
10
2.035895
20
2.714853
30
0
11
2.071175
21
2.72187
31
0
0
LINE
8
cond
10
2.071175
20
2.72187
30
0
11
2.105238
21
2.733433
31
0
0
LINE
8
cond
10
2.105238
20
2.733433
30
0
11
2.1375
21
2.749343
31
0
0
LINE
8
cond
10
2.1375
20
2.749343
30
0
11
2.167409
21
2.769328
31
0
0
LINE
8
cond
10
2.167409
20
2.769328
30
0
11
2.194454
21
2.793046
31
0
0
LINE
8
cond
10
2.194454
20
2.793046
30
0
11
2.218172
21
2.820091
31
0
0
LINE
8
cond
10
2.218172
20
2.820091
30
0
11
2.238157
21
2.85
31
0
0
LINE
8
cond
10
2.238157
20
2.85
30
0
11
2.254067
21
2.882262
31
0
0
LINE
8
cond
10
2.254067
20
2.882262
30
0
11
2.26563
21
2.916325
31
0
0
LINE
8
cond
10
2.26563
20
2.916325
30
0
11
2.272647
21
2.951605
31
0
0
LINE
8
cond
10
2.272647
20
2.951605
30
0
11
2.275
21
2.9875
31
0
0
LINE
8
pcvia1
10
0.95
20
-2.9875
30
0
11
0.948717
21
-2.967921
31
0
0
LINE
8
pcvia1
10
0.948717
20
-2.967921
30
0
11
0.944889
21
-2.948677
31
0
0
LINE
8
pcvia1
10
0.944889
20
-2.948677
30
0
11
0.938582
21
-2.930097
31
0
0
LINE
8
pcvia1
10
0.938582
20
-2.930097
30
0
11
0.929904
21
-2.9125
31
0
0
LINE
8
pcvia1
10
0.929904
20
-2.9125
30
0
11
0.919003
21
-2.896186
31
0
0
LINE
8
pcvia1
10
0.919003
20
-2.896186
30
0
11
0.906066
21
-2.881434
31
0
0
LINE
8
pcvia1
10
0.906066
20
-2.881434
30
0
11
0.891314
21
-2.868497
31
0
0
LINE
8
pcvia1
10
0.891314
20
-2.868497
30
0
11
0.875
21
-2.857596
31
0
0
LINE
8
pcvia1
10
0.875
20
-2.857596
30
0
11
0.857403
21
-2.848918
31
0
0
LINE
8
pcvia1
10
0.857403
20
-2.848918
30
0
11
0.838823
21
-2.842611
31
0
0
LINE
8
pcvia1
10
0.838823
20
-2.842611
30
0
11
0.819579
21
-2.838783
31
0
0
LINE
8
pcvia1
10
0.819579
20
-2.838783
30
0
11
0.8
21
-2.8375
31
0
0
LINE
8
pcvia1
10
0.8
20
-2.8375
30
0
11
0.780421
21
-2.838783
31
0
0
LINE
8
pcvia1
10
0.780421
20
-2.838783
30
0
11
0.761177
21
-2.842611
31
0
0
LINE
8
pcvia1
10
0.761177
20
-2.842611
30
0
11
0.742597
21
-2.848918
31
0
0
LINE
8
pcvia1
10
0.742597
20
-2.848918
30
0
11
0.725
21
-2.857596
31
0
0
LINE
8
pcvia1
10
0.725
20
-2.857596
30
0
11
0.708686
21
-2.868497
31
0
0
LINE
8
pcvia1
10
0.708686
20
-2.868497
30
0
11
0.693934
21
-2.881434
31
0
0
LINE
8
pcvia1
10
0.693934
20
-2.881434
30
0
11
0.680997
21
-2.896186
31
0
0
LINE
8
pcvia1
10
0.680997
20
-2.896186
30
0
11
0.670096
21
-2.9125
31
0
0
LINE
8
pcvia1
10
0.670096
20
-2.9125
30
0
11
0.661418
21
-2.930097
31
0
0
LINE
8
pcvia1
10
0.661418
20
-2.930097
30
0
11
0.655111
21
-2.948677
31
0
0
LINE
8
pcvia1
10
0.655111
20
-2.948677
30
0
11
0.651283
21
-2.967921
31
0
0
LINE
8
pcvia1
10
0.651283
20
-2.967921
30
0
11
0.65
21
-2.9875
31
0
0
LINE
8
pcvia1
10
0.65
20
-2.9875
30
0
11
0.651283
21
-3.007079
31
0
0
LINE
8
pcvia1
10
0.651283
20
-3.007079
30
0
11
0.655111
21
-3.026323
31
0
0
LINE
8
pcvia1
10
0.655111
20
-3.026323
30
0
11
0.661418
21
-3.044903
31
0
0
LINE
8
pcvia1
10
0.661418
20
-3.044903
30
0
11
0.670096
21
-3.0625
31
0
0
LINE
8
pcvia1
10
0.670096
20
-3.0625
30
0
11
0.680997
21
-3.078814
31
0
0
LINE
8
pcvia1
10
0.680997
20
-3.078814
30
0
11
0.693934
21
-3.093566
31
0
0
LINE
8
pcvia1
10
0.693934
20
-3.093566
30
0
11
0.708686
21
-3.106503
31
0
0
LINE
8
pcvia1
10
0.708686
20
-3.106503
30
0
11
0.725
21
-3.117404
31
0
0
LINE
8
pcvia1
10
0.725
20
-3.117404
30
0
11
0.742597
21
-3.126082
31
0
0
LINE
8
pcvia1
10
0.742597
20
-3.126082
30
0
11
0.761177
21
-3.132389
31
0
0
LINE
8
pcvia1
10
0.761177
20
-3.132389
30
0
11
0.780421
21
-3.136217
31
0
0
LINE
8
pcvia1
10
0.780421
20
-3.136217
30
0
11
0.8
21
-3.1375
31
0
0
LINE
8
pcvia1
10
0.8
20
-3.1375
30
0
11
0.819579
21
-3.136217
31
0
0
LINE
8
pcvia1
10
0.819579
20
-3.136217
30
0
11
0.838823
21
-3.132389
31
0
0
LINE
8
pcvia1
10
0.838823
20
-3.132389
30
0
11
0.857403
21
-3.126082
31
0
0
LINE
8
pcvia1
10
0.857403
20
-3.126082
30
0
11
0.875
21
-3.117404
31
0
0
LINE
8
pcvia1
10
0.875
20
-3.117404
30
0
11
0.891314
21
-3.106503
31
0
0
LINE
8
pcvia1
10
0.891314
20
-3.106503
30
0
11
0.906066
21
-3.093566
31
0
0
LINE
8
pcvia1
10
0.906066
20
-3.093566
30
0
11
0.919003
21
-3.078814
31
0
0
LINE
8
pcvia1
10
0.919003
20
-3.078814
30
0
11
0.929904
21
-3.0625
31
0
0
LINE
8
pcvia1
10
0.929904
20
-3.0625
30
0
11
0.938582
21
-3.044903
31
0
0
LINE
8
pcvia1
10
0.938582
20
-3.044903
30
0
11
0.944889
21
-3.026323
31
0
0
LINE
8
pcvia1
10
0.944889
20
-3.026323
30
0
11
0.948717
21
-3.007079
31
0
0
LINE
8
pcvia1
10
0.948717
20
-3.007079
30
0
11
0.95
21
-2.9875
31
0
0
LINE
8
cond
10
1.075
20
-2.9875
30
0
11
1.072647
21
-2.951605
31
0
0
LINE
8
cond
10
1.072647
20
-2.951605
30
0
11
1.06563
21
-2.916325
31
0
0
LINE
8
cond
10
1.06563
20
-2.916325
30
0
11
1.054067
21
-2.882262
31
0
0
LINE
8
cond
10
1.054067
20
-2.882262
30
0
11
1.038157
21
-2.85
31
0
0
LINE
8
cond
10
1.038157
20
-2.85
30
0
11
1.018172
21
-2.820091
31
0
0
LINE
8
cond
10
1.018172
20
-2.820091
30
0
11
0.994454
21
-2.793046
31
0
0
LINE
8
cond
10
0.994454
20
-2.793046
30
0
11
0.967409
21
-2.769328
31
0
0
LINE
8
cond
10
0.967409
20
-2.769328
30
0
11
0.9375
21
-2.749343
31
0
0
LINE
8
cond
10
0.9375
20
-2.749343
30
0
11
0.905238
21
-2.733433
31
0
0
LINE
8
cond
10
0.905238
20
-2.733433
30
0
11
0.871175
21
-2.72187
31
0
0
LINE
8
cond
10
0.871175
20
-2.72187
30
0
11
0.835895
21
-2.714853
31
0
0
LINE
8
cond
10
0.835895
20
-2.714853
30
0
11
0.8
21
-2.7125
31
0
0
LINE
8
cond
10
0.8
20
-2.7125
30
0
11
0.764105
21
-2.714853
31
0
0
LINE
8
cond
10
0.764105
20
-2.714853
30
0
11
0.728825
21
-2.72187
31
0
0
LINE
8
cond
10
0.728825
20
-2.72187
30
0
11
0.694762
21
-2.733433
31
0
0
LINE
8
cond
10
0.694762
20
-2.733433
30
0
11
0.6625
21
-2.749343
31
0
0
LINE
8
cond
10
0.6625
20
-2.749343
30
0
11
0.632591
21
-2.769328
31
0
0
LINE
8
cond
10
0.632591
20
-2.769328
30
0
11
0.605546
21
-2.793046
31
0
0
LINE
8
cond
10
0.605546
20
-2.793046
30
0
11
0.581828
21
-2.820091
31
0
0
LINE
8
cond
10
0.581828
20
-2.820091
30
0
11
0.561843
21
-2.85
31
0
0
LINE
8
cond
10
0.561843
20
-2.85
30
0
11
0.545933
21
-2.882262
31
0
0
LINE
8
cond
10
0.545933
20
-2.882262
30
0
11
0.53437
21
-2.916325
31
0
0
LINE
8
cond
10
0.53437
20
-2.916325
30
0
11
0.527353
21
-2.951605
31
0
0
LINE
8
cond
10
0.527353
20
-2.951605
30
0
11
0.525
21
-2.9875
31
0
0
LINE
8
cond
10
0.525
20
-2.9875
30
0
11
0.527353
21
-3.023395
31
0
0
LINE
8
cond
10
0.527353
20
-3.023395
30
0
11
0.53437
21
-3.058675
31
0
0
LINE
8
cond
10
0.53437
20
-3.058675
30
0
11
0.545933
21
-3.092738
31
0
0
LINE
8
cond
10
0.545933
20
-3.092738
30
0
11
0.561843
21
-3.125
31
0
0
LINE
8
cond
10
0.561843
20
-3.125
30
0
11
0.581828
21
-3.154909
31
0
0
LINE
8
cond
10
0.581828
20
-3.154909
30
0
11
0.605546
21
-3.181954
31
0
0
LINE
8
cond
10
0.605546
20
-3.181954
30
0
11
0.632591
21
-3.205672
31
0
0
LINE
8
cond
10
0.632591
20
-3.205672
30
0
11
0.6625
21
-3.225657
31
0
0
LINE
8
cond
10
0.6625
20
-3.225657
30
0
11
0.694762
21
-3.241567
31
0
0
LINE
8
cond
10
0.694762
20
-3.241567
30
0
11
0.728825
21
-3.25313
31
0
0
LINE
8
cond
10
0.728825
20
-3.25313
30
0
11
0.764105
21
-3.260147
31
0
0
LINE
8
cond
10
0.764105
20
-3.260147
30
0
11
0.8
21
-3.2625
31
0
0
LINE
8
cond
10
0.8
20
-3.2625
30
0
11
0.835895
21
-3.260147
31
0
0
LINE
8
cond
10
0.835895
20
-3.260147
30
0
11
0.871175
21
-3.25313
31
0
0
LINE
8
cond
10
0.871175
20
-3.25313
30
0
11
0.905238
21
-3.241567
31
0
0
LINE
8
cond
10
0.905238
20
-3.241567
30
0
11
0.9375
21
-3.225657
31
0
0
LINE
8
cond
10
0.9375
20
-3.225657
30
0
11
0.967409
21
-3.205672
31
0
0
LINE
8
cond
10
0.967409
20
-3.205672
30
0
11
0.994454
21
-3.181954
31
0
0
LINE
8
cond
10
0.994454
20
-3.181954
30
0
11
1.018172
21
-3.154909
31
0
0
LINE
8
cond
10
1.018172
20
-3.154909
30
0
11
1.038157
21
-3.125
31
0
0
LINE
8
cond
10
1.038157
20
-3.125
30
0
11
1.054067
21
-3.092738
31
0
0
LINE
8
cond
10
1.054067
20
-3.092738
30
0
11
1.06563
21
-3.058675
31
0
0
LINE
8
cond
10
1.06563
20
-3.058675
30
0
11
1.072647
21
-3.023395
31
0
0
LINE
8
cond
10
1.072647
20
-3.023395
30
0
11
1.075
21
-2.9875
31
0
0
LINE
8
pcvia1
10
2.15
20
-2.9875
30
0
11
2.148717
21
-2.967921
31
0
0
LINE
8
pcvia1
10
2.148717
20
-2.967921
30
0
11
2.144889
21
-2.948677
31
0
0
LINE
8
pcvia1
10
2.144889
20
-2.948677
30
0
11
2.138582
21
-2.930097
31
0
0
LINE
8
pcvia1
10
2.138582
20
-2.930097
30
0
11
2.129904
21
-2.9125
31
0
0
LINE
8
pcvia1
10
2.129904
20
-2.9125
30
0
11
2.119003
21
-2.896186
31
0
0
LINE
8
pcvia1
10
2.119003
20
-2.896186
30
0
11
2.106066
21
-2.881434
31
0
0
LINE
8
pcvia1
10
2.106066
20
-2.881434
30
0
11
2.091314
21
-2.868497
31
0
0
LINE
8
pcvia1
10
2.091314
20
-2.868497
30
0
11
2.075
21
-2.857596
31
0
0
LINE
8
pcvia1
10
2.075
20
-2.857596
30
0
11
2.057403
21
-2.848918
31
0
0
LINE
8
pcvia1
10
2.057403
20
-2.848918
30
0
11
2.038823
21
-2.842611
31
0
0
LINE
8
pcvia1
10
2.038823
20
-2.842611
30
0
11
2.019579
21
-2.838783
31
0
0
LINE
8
pcvia1
10
2.019579
20
-2.838783
30
0
11
2
21
-2.8375
31
0
0
LINE
8
pcvia1
10
2
20
-2.8375
30
0
11
1.980421
21
-2.838783
31
0
0
LINE
8
pcvia1
10
1.980421
20
-2.838783
30
0
11
1.961177
21
-2.842611
31
0
0
LINE
8
pcvia1
10
1.961177
20
-2.842611
30
0
11
1.942597
21
-2.848918
31
0
0
LINE
8
pcvia1
10
1.942597
20
-2.848918
30
0
11
1.925
21
-2.857596
31
0
0
LINE
8
pcvia1
10
1.925
20
-2.857596
30
0
11
1.908686
21
-2.868497
31
0
0
LINE
8
pcvia1
10
1.908686
20
-2.868497
30
0
11
1.893934
21
-2.881434
31
0
0
LINE
8
pcvia1
10
1.893934
20
-2.881434
30
0
11
1.880997
21
-2.896186
31
0
0
LINE
8
pcvia1
10
1.880997
20
-2.896186
30
0
11
1.870096
21
-2.9125
31
0
0
LINE
8
pcvia1
10
1.870096
20
-2.9125
30
0
11
1.861418
21
-2.930097
31
0
0
LINE
8
pcvia1
10
1.861418
20
-2.930097
30
0
11
1.855111
21
-2.948677
31
0
0
LINE
8
pcvia1
10
1.855111
20
-2.948677
30
0
11
1.851283
21
-2.967921
31
0
0
LINE
8
pcvia1
10
1.851283
20
-2.967921
30
0
11
1.85
21
-2.9875
31
0
0
LINE
8
pcvia1
10
1.85
20
-2.9875
30
0
11
1.851283
21
-3.007079
31
0
0
LINE
8
pcvia1
10
1.851283
20
-3.007079
30
0
11
1.855111
21
-3.026323
31
0
0
LINE
8
pcvia1
10
1.855111
20
-3.026323
30
0
11
1.861418
21
-3.044903
31
0
0
LINE
8
pcvia1
10
1.861418
20
-3.044903
30
0
11
1.870096
21
-3.0625
31
0
0
LINE
8
pcvia1
10
1.870096
20
-3.0625
30
0
11
1.880997
21
-3.078814
31
0
0
LINE
8
pcvia1
10
1.880997
20
-3.078814
30
0
11
1.893934
21
-3.093566
31
0
0
LINE
8
pcvia1
10
1.893934
20
-3.093566
30
0
11
1.908686
21
-3.106503
31
0
0
LINE
8
pcvia1
10
1.908686
20
-3.106503
30
0
11
1.925
21
-3.117404
31
0
0
LINE
8
pcvia1
10
1.925
20
-3.117404
30
0
11
1.942597
21
-3.126082
31
0
0
LINE
8
pcvia1
10
1.942597
20
-3.126082
30
0
11
1.961177
21
-3.132389
31
0
0
LINE
8
pcvia1
10
1.961177
20
-3.132389
30
0
11
1.980421
21
-3.136217
31
0
0
LINE
8
pcvia1
10
1.980421
20
-3.136217
30
0
11
2
21
-3.1375
31
0
0
LINE
8
pcvia1
10
2
20
-3.1375
30
0
11
2.019579
21
-3.136217
31
0
0
LINE
8
pcvia1
10
2.019579
20
-3.136217
30
0
11
2.038823
21
-3.132389
31
0
0
LINE
8
pcvia1
10
2.038823
20
-3.132389
30
0
11
2.057403
21
-3.126082
31
0
0
LINE
8
pcvia1
10
2.057403
20
-3.126082
30
0
11
2.075
21
-3.117404
31
0
0
LINE
8
pcvia1
10
2.075
20
-3.117404
30
0
11
2.091314
21
-3.106503
31
0
0
LINE
8
pcvia1
10
2.091314
20
-3.106503
30
0
11
2.106066
21
-3.093566
31
0
0
LINE
8
pcvia1
10
2.106066
20
-3.093566
30
0
11
2.119003
21
-3.078814
31
0
0
LINE
8
pcvia1
10
2.119003
20
-3.078814
30
0
11
2.129904
21
-3.0625
31
0
0
LINE
8
pcvia1
10
2.129904
20
-3.0625
30
0
11
2.138582
21
-3.044903
31
0
0
LINE
8
pcvia1
10
2.138582
20
-3.044903
30
0
11
2.144889
21
-3.026323
31
0
0
LINE
8
pcvia1
10
2.144889
20
-3.026323
30
0
11
2.148717
21
-3.007079
31
0
0
LINE
8
pcvia1
10
2.148717
20
-3.007079
30
0
11
2.15
21
-2.9875
31
0
0
LINE
8
cond
10
2.275
20
-2.9875
30
0
11
2.272647
21
-2.951605
31
0
0
LINE
8
cond
10
2.272647
20
-2.951605
30
0
11
2.26563
21
-2.916325
31
0
0
LINE
8
cond
10
2.26563
20
-2.916325
30
0
11
2.254067
21
-2.882262
31
0
0
LINE
8
cond
10
2.254067
20
-2.882262
30
0
11
2.238157
21
-2.85
31
0
0
LINE
8
cond
10
2.238157
20
-2.85
30
0
11
2.218172
21
-2.820091
31
0
0
LINE
8
cond
10
2.218172
20
-2.820091
30
0
11
2.194454
21
-2.793046
31
0
0
LINE
8
cond
10
2.194454
20
-2.793046
30
0
11
2.167409
21
-2.769328
31
0
0
LINE
8
cond
10
2.167409
20
-2.769328
30
0
11
2.1375
21
-2.749343
31
0
0
LINE
8
cond
10
2.1375
20
-2.749343
30
0
11
2.105238
21
-2.733433
31
0
0
LINE
8
cond
10
2.105238
20
-2.733433
30
0
11
2.071175
21
-2.72187
31
0
0
LINE
8
cond
10
2.071175
20
-2.72187
30
0
11
2.035895
21
-2.714853
31
0
0
LINE
8
cond
10
2.035895
20
-2.714853
30
0
11
2
21
-2.7125
31
0
0
LINE
8
cond
10
2
20
-2.7125
30
0
11
1.964105
21
-2.714853
31
0
0
LINE
8
cond
10
1.964105
20
-2.714853
30
0
11
1.928825
21
-2.72187
31
0
0
LINE
8
cond
10
1.928825
20
-2.72187
30
0
11
1.894762
21
-2.733433
31
0
0
LINE
8
cond
10
1.894762
20
-2.733433
30
0
11
1.8625
21
-2.749343
31
0
0
LINE
8
cond
10
1.8625
20
-2.749343
30
0
11
1.832591
21
-2.769328
31
0
0
LINE
8
cond
10
1.832591
20
-2.769328
30
0
11
1.805546
21
-2.793046
31
0
0
LINE
8
cond
10
1.805546
20
-2.793046
30
0
11
1.781828
21
-2.820091
31
0
0
LINE
8
cond
10
1.781828
20
-2.820091
30
0
11
1.761843
21
-2.85
31
0
0
LINE
8
cond
10
1.761843
20
-2.85
30
0
11
1.745933
21
-2.882262
31
0
0
LINE
8
cond
10
1.745933
20
-2.882262
30
0
11
1.73437
21
-2.916325
31
0
0
LINE
8
cond
10
1.73437
20
-2.916325
30
0
11
1.727353
21
-2.951605
31
0
0
LINE
8
cond
10
1.727353
20
-2.951605
30
0
11
1.725
21
-2.9875
31
0
0
LINE
8
cond
10
1.725
20
-2.9875
30
0
11
1.727353
21
-3.023395
31
0
0
LINE
8
cond
10
1.727353
20
-3.023395
30
0
11
1.73437
21
-3.058675
31
0
0
LINE
8
cond
10
1.73437
20
-3.058675
30
0
11
1.745933
21
-3.092738
31
0
0
LINE
8
cond
10
1.745933
20
-3.092738
30
0
11
1.761843
21
-3.125
31
0
0
LINE
8
cond
10
1.761843
20
-3.125
30
0
11
1.781828
21
-3.154909
31
0
0
LINE
8
cond
10
1.781828
20
-3.154909
30
0
11
1.805546
21
-3.181954
31
0
0
LINE
8
cond
10
1.805546
20
-3.181954
30
0
11
1.832591
21
-3.205672
31
0
0
LINE
8
cond
10
1.832591
20
-3.205672
30
0
11
1.8625
21
-3.225657
31
0
0
LINE
8
cond
10
1.8625
20
-3.225657
30
0
11
1.894762
21
-3.241567
31
0
0
LINE
8
cond
10
1.894762
20
-3.241567
30
0
11
1.928825
21
-3.25313
31
0
0
LINE
8
cond
10
1.928825
20
-3.25313
30
0
11
1.964105
21
-3.260147
31
0
0
LINE
8
cond
10
1.964105
20
-3.260147
30
0
11
2
21
-3.2625
31
0
0
LINE
8
cond
10
2
20
-3.2625
30
0
11
2.035895
21
-3.260147
31
0
0
LINE
8
cond
10
2.035895
20
-3.260147
30
0
11
2.071175
21
-3.25313
31
0
0
LINE
8
cond
10
2.071175
20
-3.25313
30
0
11
2.105238
21
-3.241567
31
0
0
LINE
8
cond
10
2.105238
20
-3.241567
30
0
11
2.1375
21
-3.225657
31
0
0
LINE
8
cond
10
2.1375
20
-3.225657
30
0
11
2.167409
21
-3.205672
31
0
0
LINE
8
cond
10
2.167409
20
-3.205672
30
0
11
2.194454
21
-3.181954
31
0
0
LINE
8
cond
10
2.194454
20
-3.181954
30
0
11
2.218172
21
-3.154909
31
0
0
LINE
8
cond
10
2.218172
20
-3.154909
30
0
11
2.238157
21
-3.125
31
0
0
LINE
8
cond
10
2.238157
20
-3.125
30
0
11
2.254067
21
-3.092738
31
0
0
LINE
8
cond
10
2.254067
20
-3.092738
30
0
11
2.26563
21
-3.058675
31
0
0
LINE
8
cond
10
2.26563
20
-3.058675
30
0
11
2.272647
21
-3.023395
31
0
0
LINE
8
cond
10
2.272647
20
-3.023395
30
0
11
2.275
21
-2.9875
31
0
0
LINE
8
pcvia1
10
8.05
20
0.63695
30
0
11
8.048717
21
0.656529
31
0
0
LINE
8
pcvia1
10
8.048717
20
0.656529
30
0
11
8.044889
21
0.675773
31
0
0
LINE
8
pcvia1
10
8.044889
20
0.675773
30
0
11
8.038582
21
0.694353
31
0
0
LINE
8
pcvia1
10
8.038582
20
0.694353
30
0
11
8.029904
21
0.71195
31
0
0
LINE
8
pcvia1
10
8.029904
20
0.71195
30
0
11
8.019003
21
0.728264
31
0
0
LINE
8
pcvia1
10
8.019003
20
0.728264
30
0
11
8.006066
21
0.743016
31
0
0
LINE
8
pcvia1
10
8.006066
20
0.743016
30
0
11
7.991314
21
0.755953
31
0
0
LINE
8
pcvia1
10
7.991314
20
0.755953
30
0
11
7.975
21
0.766854
31
0
0
LINE
8
pcvia1
10
7.975
20
0.766854
30
0
11
7.957403
21
0.775532
31
0
0
LINE
8
pcvia1
10
7.957403
20
0.775532
30
0
11
7.938823
21
0.781839
31
0
0
LINE
8
pcvia1
10
7.938823
20
0.781839
30
0
11
7.919579
21
0.785667
31
0
0
LINE
8
pcvia1
10
7.919579
20
0.785667
30
0
11
7.9
21
0.78695
31
0
0
LINE
8
pcvia1
10
7.9
20
0.78695
30
0
11
7.880421
21
0.785667
31
0
0
LINE
8
pcvia1
10
7.880421
20
0.785667
30
0
11
7.861177
21
0.781839
31
0
0
LINE
8
pcvia1
10
7.861177
20
0.781839
30
0
11
7.842597
21
0.775532
31
0
0
LINE
8
pcvia1
10
7.842597
20
0.775532
30
0
11
7.825
21
0.766854
31
0
0
LINE
8
pcvia1
10
7.825
20
0.766854
30
0
11
7.808686
21
0.755953
31
0
0
LINE
8
pcvia1
10
7.808686
20
0.755953
30
0
11
7.793934
21
0.743016
31
0
0
LINE
8
pcvia1
10
7.793934
20
0.743016
30
0
11
7.780997
21
0.728264
31
0
0
LINE
8
pcvia1
10
7.780997
20
0.728264
30
0
11
7.770096
21
0.71195
31
0
0
LINE
8
pcvia1
10
7.770096
20
0.71195
30
0
11
7.761418
21
0.694353
31
0
0
LINE
8
pcvia1
10
7.761418
20
0.694353
30
0
11
7.755111
21
0.675773
31
0
0
LINE
8
pcvia1
10
7.755111
20
0.675773
30
0
11
7.751283
21
0.656529
31
0
0
LINE
8
pcvia1
10
7.751283
20
0.656529
30
0
11
7.75
21
0.63695
31
0
0
LINE
8
pcvia1
10
7.75
20
0.63695
30
0
11
7.751283
21
0.617371
31
0
0
LINE
8
pcvia1
10
7.751283
20
0.617371
30
0
11
7.755111
21
0.598127
31
0
0
LINE
8
pcvia1
10
7.755111
20
0.598127
30
0
11
7.761418
21
0.579547
31
0
0
LINE
8
pcvia1
10
7.761418
20
0.579547
30
0
11
7.770096
21
0.56195
31
0
0
LINE
8
pcvia1
10
7.770096
20
0.56195
30
0
11
7.780997
21
0.545636
31
0
0
LINE
8
pcvia1
10
7.780997
20
0.545636
30
0
11
7.793934
21
0.530884
31
0
0
LINE
8
pcvia1
10
7.793934
20
0.530884
30
0
11
7.808686
21
0.517947
31
0
0
LINE
8
pcvia1
10
7.808686
20
0.517947
30
0
11
7.825
21
0.507046
31
0
0
LINE
8
pcvia1
10
7.825
20
0.507046
30
0
11
7.842597
21
0.498368
31
0
0
LINE
8
pcvia1
10
7.842597
20
0.498368
30
0
11
7.861177
21
0.492061
31
0
0
LINE
8
pcvia1
10
7.861177
20
0.492061
30
0
11
7.880421
21
0.488233
31
0
0
LINE
8
pcvia1
10
7.880421
20
0.488233
30
0
11
7.9
21
0.48695
31
0
0
LINE
8
pcvia1
10
7.9
20
0.48695
30
0
11
7.919579
21
0.488233
31
0
0
LINE
8
pcvia1
10
7.919579
20
0.488233
30
0
11
7.938823
21
0.492061
31
0
0
LINE
8
pcvia1
10
7.938823
20
0.492061
30
0
11
7.957403
21
0.498368
31
0
0
LINE
8
pcvia1
10
7.957403
20
0.498368
30
0
11
7.975
21
0.507046
31
0
0
LINE
8
pcvia1
10
7.975
20
0.507046
30
0
11
7.991314
21
0.517947
31
0
0
LINE
8
pcvia1
10
7.991314
20
0.517947
30
0
11
8.006066
21
0.530884
31
0
0
LINE
8
pcvia1
10
8.006066
20
0.530884
30
0
11
8.019003
21
0.545636
31
0
0
LINE
8
pcvia1
10
8.019003
20
0.545636
30
0
11
8.029904
21
0.56195
31
0
0
LINE
8
pcvia1
10
8.029904
20
0.56195
30
0
11
8.038582
21
0.579547
31
0
0
LINE
8
pcvia1
10
8.038582
20
0.579547
30
0
11
8.044889
21
0.598127
31
0
0
LINE
8
pcvia1
10
8.044889
20
0.598127
30
0
11
8.048717
21
0.617371
31
0
0
LINE
8
pcvia1
10
8.048717
20
0.617371
30
0
11
8.05
21
0.63695
31
0
0
LINE
8
cond
10
8.175
20
0.63695
30
0
11
8.172647
21
0.672845
31
0
0
LINE
8
cond
10
8.172647
20
0.672845
30
0
11
8.16563
21
0.708125
31
0
0
LINE
8
cond
10
8.16563
20
0.708125
30
0
11
8.154067
21
0.742188
31
0
0
LINE
8
cond
10
8.154067
20
0.742188
30
0
11
8.138157
21
0.77445
31
0
0
LINE
8
cond
10
8.138157
20
0.77445
30
0
11
8.118172
21
0.804359
31
0
0
LINE
8
cond
10
8.118172
20
0.804359
30
0
11
8.094454
21
0.831404
31
0
0
LINE
8
cond
10
8.094454
20
0.831404
30
0
11
8.067409
21
0.855122
31
0
0
LINE
8
cond
10
8.067409
20
0.855122
30
0
11
8.0375
21
0.875107
31
0
0
LINE
8
cond
10
8.0375
20
0.875107
30
0
11
8.005238
21
0.891017
31
0
0
LINE
8
cond
10
8.005238
20
0.891017
30
0
11
7.971175
21
0.90258
31
0
0
LINE
8
cond
10
7.971175
20
0.90258
30
0
11
7.935895
21
0.909597
31
0
0
LINE
8
cond
10
7.935895
20
0.909597
30
0
11
7.9
21
0.91195
31
0
0
LINE
8
cond
10
7.9
20
0.91195
30
0
11
7.864105
21
0.909597
31
0
0
LINE
8
cond
10
7.864105
20
0.909597
30
0
11
7.828825
21
0.90258
31
0
0
LINE
8
cond
10
7.828825
20
0.90258
30
0
11
7.794762
21
0.891017
31
0
0
LINE
8
cond
10
7.794762
20
0.891017
30
0
11
7.7625
21
0.875107
31
0
0
LINE
8
cond
10
7.7625
20
0.875107
30
0
11
7.732591
21
0.855122
31
0
0
LINE
8
cond
10
7.732591
20
0.855122
30
0
11
7.705546
21
0.831404
31
0
0
LINE
8
cond
10
7.705546
20
0.831404
30
0
11
7.681828
21
0.804359
31
0
0
LINE
8
cond
10
7.681828
20
0.804359
30
0
11
7.661843
21
0.77445
31
0
0
LINE
8
cond
10
7.661843
20
0.77445
30
0
11
7.645933
21
0.742188
31
0
0
LINE
8
cond
10
7.645933
20
0.742188
30
0
11
7.63437
21
0.708125
31
0
0
LINE
8
cond
10
7.63437
20
0.708125
30
0
11
7.627353
21
0.672845
31
0
0
LINE
8
cond
10
7.627353
20
0.672845
30
0
11
7.625
21
0.63695
31
0
0
LINE
8
cond
10
7.625
20
0.63695
30
0
11
7.627353
21
0.601055
31
0
0
LINE
8
cond
10
7.627353
20
0.601055
30
0
11
7.63437
21
0.565775
31
0
0
LINE
8
cond
10
7.63437
20
0.565775
30
0
11
7.645933
21
0.531712
31
0
0
LINE
8
cond
10
7.645933
20
0.531712
30
0
11
7.661843
21
0.49945
31
0
0
LINE
8
cond
10
7.661843
20
0.49945
30
0
11
7.681828
21
0.469541
31
0
0
LINE
8
cond
10
7.681828
20
0.469541
30
0
11
7.705546
21
0.442496
31
0
0
LINE
8
cond
10
7.705546
20
0.442496
30
0
11
7.732591
21
0.418778
31
0
0
LINE
8
cond
10
7.732591
20
0.418778
30
0
11
7.7625
21
0.398793
31
0
0
LINE
8
cond
10
7.7625
20
0.398793
30
0
11
7.794762
21
0.382883
31
0
0
LINE
8
cond
10
7.794762
20
0.382883
30
0
11
7.828825
21
0.37132
31
0
0
LINE
8
cond
10
7.828825
20
0.37132
30
0
11
7.864105
21
0.364303
31
0
0
LINE
8
cond
10
7.864105
20
0.364303
30
0
11
7.9
21
0.36195
31
0
0
LINE
8
cond
10
7.9
20
0.36195
30
0
11
7.935895
21
0.364303
31
0
0
LINE
8
cond
10
7.935895
20
0.364303
30
0
11
7.971175
21
0.37132
31
0
0
LINE
8
cond
10
7.971175
20
0.37132
30
0
11
8.005238
21
0.382883
31
0
0
LINE
8
cond
10
8.005238
20
0.382883
30
0
11
8.0375
21
0.398793
31
0
0
LINE
8
cond
10
8.0375
20
0.398793
30
0
11
8.067409
21
0.418778
31
0
0
LINE
8
cond
10
8.067409
20
0.418778
30
0
11
8.094454
21
0.442496
31
0
0
LINE
8
cond
10
8.094454
20
0.442496
30
0
11
8.118172
21
0.469541
31
0
0
LINE
8
cond
10
8.118172
20
0.469541
30
0
11
8.138157
21
0.49945
31
0
0
LINE
8
cond
10
8.138157
20
0.49945
30
0
11
8.154067
21
0.531712
31
0
0
LINE
8
cond
10
8.154067
20
0.531712
30
0
11
8.16563
21
0.565775
31
0
0
LINE
8
cond
10
8.16563
20
0.565775
30
0
11
8.172647
21
0.601055
31
0
0
LINE
8
cond
10
8.172647
20
0.601055
30
0
11
8.175
21
0.63695
31
0
0
LINE
8
pcvia1
10
10.05
20
0.63695
30
0
11
10.048717
21
0.656529
31
0
0
LINE
8
pcvia1
10
10.048717
20
0.656529
30
0
11
10.044889
21
0.675773
31
0
0
LINE
8
pcvia1
10
10.044889
20
0.675773
30
0
11
10.038582
21
0.694353
31
0
0
LINE
8
pcvia1
10
10.038582
20
0.694353
30
0
11
10.029904
21
0.71195
31
0
0
LINE
8
pcvia1
10
10.029904
20
0.71195
30
0
11
10.019003
21
0.728264
31
0
0
LINE
8
pcvia1
10
10.019003
20
0.728264
30
0
11
10.006066
21
0.743016
31
0
0
LINE
8
pcvia1
10
10.006066
20
0.743016
30
0
11
9.991314
21
0.755953
31
0
0
LINE
8
pcvia1
10
9.991314
20
0.755953
30
0
11
9.975
21
0.766854
31
0
0
LINE
8
pcvia1
10
9.975
20
0.766854
30
0
11
9.957403
21
0.775532
31
0
0
LINE
8
pcvia1
10
9.957403
20
0.775532
30
0
11
9.938823
21
0.781839
31
0
0
LINE
8
pcvia1
10
9.938823
20
0.781839
30
0
11
9.919579
21
0.785667
31
0
0
LINE
8
pcvia1
10
9.919579
20
0.785667
30
0
11
9.9
21
0.78695
31
0
0
LINE
8
pcvia1
10
9.9
20
0.78695
30
0
11
9.880421
21
0.785667
31
0
0
LINE
8
pcvia1
10
9.880421
20
0.785667
30
0
11
9.861177
21
0.781839
31
0
0
LINE
8
pcvia1
10
9.861177
20
0.781839
30
0
11
9.842597
21
0.775532
31
0
0
LINE
8
pcvia1
10
9.842597
20
0.775532
30
0
11
9.825
21
0.766854
31
0
0
LINE
8
pcvia1
10
9.825
20
0.766854
30
0
11
9.808686
21
0.755953
31
0
0
LINE
8
pcvia1
10
9.808686
20
0.755953
30
0
11
9.793934
21
0.743016
31
0
0
LINE
8
pcvia1
10
9.793934
20
0.743016
30
0
11
9.780997
21
0.728264
31
0
0
LINE
8
pcvia1
10
9.780997
20
0.728264
30
0
11
9.770096
21
0.71195
31
0
0
LINE
8
pcvia1
10
9.770096
20
0.71195
30
0
11
9.761418
21
0.694353
31
0
0
LINE
8
pcvia1
10
9.761418
20
0.694353
30
0
11
9.755111
21
0.675773
31
0
0
LINE
8
pcvia1
10
9.755111
20
0.675773
30
0
11
9.751283
21
0.656529
31
0
0
LINE
8
pcvia1
10
9.751283
20
0.656529
30
0
11
9.75
21
0.63695
31
0
0
LINE
8
pcvia1
10
9.75
20
0.63695
30
0
11
9.751283
21
0.617371
31
0
0
LINE
8
pcvia1
10
9.751283
20
0.617371
30
0
11
9.755111
21
0.598127
31
0
0
LINE
8
pcvia1
10
9.755111
20
0.598127
30
0
11
9.761418
21
0.579547
31
0
0
LINE
8
pcvia1
10
9.761418
20
0.579547
30
0
11
9.770096
21
0.56195
31
0
0
LINE
8
pcvia1
10
9.770096
20
0.56195
30
0
11
9.780997
21
0.545636
31
0
0
LINE
8
pcvia1
10
9.780997
20
0.545636
30
0
11
9.793934
21
0.530884
31
0
0
LINE
8
pcvia1
10
9.793934
20
0.530884
30
0
11
9.808686
21
0.517947
31
0
0
LINE
8
pcvia1
10
9.808686
20
0.517947
30
0
11
9.825
21
0.507046
31
0
0
LINE
8
pcvia1
10
9.825
20
0.507046
30
0
11
9.842597
21
0.498368
31
0
0
LINE
8
pcvia1
10
9.842597
20
0.498368
30
0
11
9.861177
21
0.492061
31
0
0
LINE
8
pcvia1
10
9.861177
20
0.492061
30
0
11
9.880421
21
0.488233
31
0
0
LINE
8
pcvia1
10
9.880421
20
0.488233
30
0
11
9.9
21
0.48695
31
0
0
LINE
8
pcvia1
10
9.9
20
0.48695
30
0
11
9.919579
21
0.488233
31
0
0
LINE
8
pcvia1
10
9.919579
20
0.488233
30
0
11
9.938823
21
0.492061
31
0
0
LINE
8
pcvia1
10
9.938823
20
0.492061
30
0
11
9.957403
21
0.498368
31
0
0
LINE
8
pcvia1
10
9.957403
20
0.498368
30
0
11
9.975
21
0.507046
31
0
0
LINE
8
pcvia1
10
9.975
20
0.507046
30
0
11
9.991314
21
0.517947
31
0
0
LINE
8
pcvia1
10
9.991314
20
0.517947
30
0
11
10.006066
21
0.530884
31
0
0
LINE
8
pcvia1
10
10.006066
20
0.530884
30
0
11
10.019003
21
0.545636
31
0
0
LINE
8
pcvia1
10
10.019003
20
0.545636
30
0
11
10.029904
21
0.56195
31
0
0
LINE
8
pcvia1
10
10.029904
20
0.56195
30
0
11
10.038582
21
0.579547
31
0
0
LINE
8
pcvia1
10
10.038582
20
0.579547
30
0
11
10.044889
21
0.598127
31
0
0
LINE
8
pcvia1
10
10.044889
20
0.598127
30
0
11
10.048717
21
0.617371
31
0
0
LINE
8
pcvia1
10
10.048717
20
0.617371
30
0
11
10.05
21
0.63695
31
0
0
LINE
8
cond
10
10.175
20
0.63695
30
0
11
10.172647
21
0.672845
31
0
0
LINE
8
cond
10
10.172647
20
0.672845
30
0
11
10.16563
21
0.708125
31
0
0
LINE
8
cond
10
10.16563
20
0.708125
30
0
11
10.154067
21
0.742188
31
0
0
LINE
8
cond
10
10.154067
20
0.742188
30
0
11
10.138157
21
0.77445
31
0
0
LINE
8
cond
10
10.138157
20
0.77445
30
0
11
10.118172
21
0.804359
31
0
0
LINE
8
cond
10
10.118172
20
0.804359
30
0
11
10.094454
21
0.831404
31
0
0
LINE
8
cond
10
10.094454
20
0.831404
30
0
11
10.067409
21
0.855122
31
0
0
LINE
8
cond
10
10.067409
20
0.855122
30
0
11
10.0375
21
0.875107
31
0
0
LINE
8
cond
10
10.0375
20
0.875107
30
0
11
10.005238
21
0.891017
31
0
0
LINE
8
cond
10
10.005238
20
0.891017
30
0
11
9.971175
21
0.90258
31
0
0
LINE
8
cond
10
9.971175
20
0.90258
30
0
11
9.935895
21
0.909597
31
0
0
LINE
8
cond
10
9.935895
20
0.909597
30
0
11
9.9
21
0.91195
31
0
0
LINE
8
cond
10
9.9
20
0.91195
30
0
11
9.864105
21
0.909597
31
0
0
LINE
8
cond
10
9.864105
20
0.909597
30
0
11
9.828825
21
0.90258
31
0
0
LINE
8
cond
10
9.828825
20
0.90258
30
0
11
9.794762
21
0.891017
31
0
0
LINE
8
cond
10
9.794762
20
0.891017
30
0
11
9.7625
21
0.875107
31
0
0
LINE
8
cond
10
9.7625
20
0.875107
30
0
11
9.732591
21
0.855122
31
0
0
LINE
8
cond
10
9.732591
20
0.855122
30
0
11
9.705546
21
0.831404
31
0
0
LINE
8
cond
10
9.705546
20
0.831404
30
0
11
9.681828
21
0.804359
31
0
0
LINE
8
cond
10
9.681828
20
0.804359
30
0
11
9.661843
21
0.77445
31
0
0
LINE
8
cond
10
9.661843
20
0.77445
30
0
11
9.645933
21
0.742188
31
0
0
LINE
8
cond
10
9.645933
20
0.742188
30
0
11
9.63437
21
0.708125
31
0
0
LINE
8
cond
10
9.63437
20
0.708125
30
0
11
9.627353
21
0.672845
31
0
0
LINE
8
cond
10
9.627353
20
0.672845
30
0
11
9.625
21
0.63695
31
0
0
LINE
8
cond
10
9.625
20
0.63695
30
0
11
9.627353
21
0.601055
31
0
0
LINE
8
cond
10
9.627353
20
0.601055
30
0
11
9.63437
21
0.565775
31
0
0
LINE
8
cond
10
9.63437
20
0.565775
30
0
11
9.645933
21
0.531712
31
0
0
LINE
8
cond
10
9.645933
20
0.531712
30
0
11
9.661843
21
0.49945
31
0
0
LINE
8
cond
10
9.661843
20
0.49945
30
0
11
9.681828
21
0.469541
31
0
0
LINE
8
cond
10
9.681828
20
0.469541
30
0
11
9.705546
21
0.442496
31
0
0
LINE
8
cond
10
9.705546
20
0.442496
30
0
11
9.732591
21
0.418778
31
0
0
LINE
8
cond
10
9.732591
20
0.418778
30
0
11
9.7625
21
0.398793
31
0
0
LINE
8
cond
10
9.7625
20
0.398793
30
0
11
9.794762
21
0.382883
31
0
0
LINE
8
cond
10
9.794762
20
0.382883
30
0
11
9.828825
21
0.37132
31
0
0
LINE
8
cond
10
9.828825
20
0.37132
30
0
11
9.864105
21
0.364303
31
0
0
LINE
8
cond
10
9.864105
20
0.364303
30
0
11
9.9
21
0.36195
31
0
0
LINE
8
cond
10
9.9
20
0.36195
30
0
11
9.935895
21
0.364303
31
0
0
LINE
8
cond
10
9.935895
20
0.364303
30
0
11
9.971175
21
0.37132
31
0
0
LINE
8
cond
10
9.971175
20
0.37132
30
0
11
10.005238
21
0.382883
31
0
0
LINE
8
cond
10
10.005238
20
0.382883
30
0
11
10.0375
21
0.398793
31
0
0
LINE
8
cond
10
10.0375
20
0.398793
30
0
11
10.067409
21
0.418778
31
0
0
LINE
8
cond
10
10.067409
20
0.418778
30
0
11
10.094454
21
0.442496
31
0
0
LINE
8
cond
10
10.094454
20
0.442496
30
0
11
10.118172
21
0.469541
31
0
0
LINE
8
cond
10
10.118172
20
0.469541
30
0
11
10.138157
21
0.49945
31
0
0
LINE
8
cond
10
10.138157
20
0.49945
30
0
11
10.154067
21
0.531712
31
0
0
LINE
8
cond
10
10.154067
20
0.531712
30
0
11
10.16563
21
0.565775
31
0
0
LINE
8
cond
10
10.16563
20
0.565775
30
0
11
10.172647
21
0.601055
31
0
0
LINE
8
cond
10
10.172647
20
0.601055
30
0
11
10.175
21
0.63695
31
0
0
LINE
8
pcvia1
10
12.05
20
0.63695
30
0
11
12.048717
21
0.656529
31
0
0
LINE
8
pcvia1
10
12.048717
20
0.656529
30
0
11
12.044889
21
0.675773
31
0
0
LINE
8
pcvia1
10
12.044889
20
0.675773
30
0
11
12.038582
21
0.694353
31
0
0
LINE
8
pcvia1
10
12.038582
20
0.694353
30
0
11
12.029904
21
0.71195
31
0
0
LINE
8
pcvia1
10
12.029904
20
0.71195
30
0
11
12.019003
21
0.728264
31
0
0
LINE
8
pcvia1
10
12.019003
20
0.728264
30
0
11
12.006066
21
0.743016
31
0
0
LINE
8
pcvia1
10
12.006066
20
0.743016
30
0
11
11.991314
21
0.755953
31
0
0
LINE
8
pcvia1
10
11.991314
20
0.755953
30
0
11
11.975
21
0.766854
31
0
0
LINE
8
pcvia1
10
11.975
20
0.766854
30
0
11
11.957403
21
0.775532
31
0
0
LINE
8
pcvia1
10
11.957403
20
0.775532
30
0
11
11.938823
21
0.781839
31
0
0
LINE
8
pcvia1
10
11.938823
20
0.781839
30
0
11
11.919579
21
0.785667
31
0
0
LINE
8
pcvia1
10
11.919579
20
0.785667
30
0
11
11.9
21
0.78695
31
0
0
LINE
8
pcvia1
10
11.9
20
0.78695
30
0
11
11.880421
21
0.785667
31
0
0
LINE
8
pcvia1
10
11.880421
20
0.785667
30
0
11
11.861177
21
0.781839
31
0
0
LINE
8
pcvia1
10
11.861177
20
0.781839
30
0
11
11.842597
21
0.775532
31
0
0
LINE
8
pcvia1
10
11.842597
20
0.775532
30
0
11
11.825
21
0.766854
31
0
0
LINE
8
pcvia1
10
11.825
20
0.766854
30
0
11
11.808686
21
0.755953
31
0
0
LINE
8
pcvia1
10
11.808686
20
0.755953
30
0
11
11.793934
21
0.743016
31
0
0
LINE
8
pcvia1
10
11.793934
20
0.743016
30
0
11
11.780997
21
0.728264
31
0
0
LINE
8
pcvia1
10
11.780997
20
0.728264
30
0
11
11.770096
21
0.71195
31
0
0
LINE
8
pcvia1
10
11.770096
20
0.71195
30
0
11
11.761418
21
0.694353
31
0
0
LINE
8
pcvia1
10
11.761418
20
0.694353
30
0
11
11.755111
21
0.675773
31
0
0
LINE
8
pcvia1
10
11.755111
20
0.675773
30
0
11
11.751283
21
0.656529
31
0
0
LINE
8
pcvia1
10
11.751283
20
0.656529
30
0
11
11.75
21
0.63695
31
0
0
LINE
8
pcvia1
10
11.75
20
0.63695
30
0
11
11.751283
21
0.617371
31
0
0
LINE
8
pcvia1
10
11.751283
20
0.617371
30
0
11
11.755111
21
0.598127
31
0
0
LINE
8
pcvia1
10
11.755111
20
0.598127
30
0
11
11.761418
21
0.579547
31
0
0
LINE
8
pcvia1
10
11.761418
20
0.579547
30
0
11
11.770096
21
0.56195
31
0
0
LINE
8
pcvia1
10
11.770096
20
0.56195
30
0
11
11.780997
21
0.545636
31
0
0
LINE
8
pcvia1
10
11.780997
20
0.545636
30
0
11
11.793934
21
0.530884
31
0
0
LINE
8
pcvia1
10
11.793934
20
0.530884
30
0
11
11.808686
21
0.517947
31
0
0
LINE
8
pcvia1
10
11.808686
20
0.517947
30
0
11
11.825
21
0.507046
31
0
0
LINE
8
pcvia1
10
11.825
20
0.507046
30
0
11
11.842597
21
0.498368
31
0
0
LINE
8
pcvia1
10
11.842597
20
0.498368
30
0
11
11.861177
21
0.492061
31
0
0
LINE
8
pcvia1
10
11.861177
20
0.492061
30
0
11
11.880421
21
0.488233
31
0
0
LINE
8
pcvia1
10
11.880421
20
0.488233
30
0
11
11.9
21
0.48695
31
0
0
LINE
8
pcvia1
10
11.9
20
0.48695
30
0
11
11.919579
21
0.488233
31
0
0
LINE
8
pcvia1
10
11.919579
20
0.488233
30
0
11
11.938823
21
0.492061
31
0
0
LINE
8
pcvia1
10
11.938823
20
0.492061
30
0
11
11.957403
21
0.498368
31
0
0
LINE
8
pcvia1
10
11.957403
20
0.498368
30
0
11
11.975
21
0.507046
31
0
0
LINE
8
pcvia1
10
11.975
20
0.507046
30
0
11
11.991314
21
0.517947
31
0
0
LINE
8
pcvia1
10
11.991314
20
0.517947
30
0
11
12.006066
21
0.530884
31
0
0
LINE
8
pcvia1
10
12.006066
20
0.530884
30
0
11
12.019003
21
0.545636
31
0
0
LINE
8
pcvia1
10
12.019003
20
0.545636
30
0
11
12.029904
21
0.56195
31
0
0
LINE
8
pcvia1
10
12.029904
20
0.56195
30
0
11
12.038582
21
0.579547
31
0
0
LINE
8
pcvia1
10
12.038582
20
0.579547
30
0
11
12.044889
21
0.598127
31
0
0
LINE
8
pcvia1
10
12.044889
20
0.598127
30
0
11
12.048717
21
0.617371
31
0
0
LINE
8
pcvia1
10
12.048717
20
0.617371
30
0
11
12.05
21
0.63695
31
0
0
LINE
8
cond
10
12.175
20
0.63695
30
0
11
12.172647
21
0.672845
31
0
0
LINE
8
cond
10
12.172647
20
0.672845
30
0
11
12.16563
21
0.708125
31
0
0
LINE
8
cond
10
12.16563
20
0.708125
30
0
11
12.154067
21
0.742188
31
0
0
LINE
8
cond
10
12.154067
20
0.742188
30
0
11
12.138157
21
0.77445
31
0
0
LINE
8
cond
10
12.138157
20
0.77445
30
0
11
12.118172
21
0.804359
31
0
0
LINE
8
cond
10
12.118172
20
0.804359
30
0
11
12.094454
21
0.831404
31
0
0
LINE
8
cond
10
12.094454
20
0.831404
30
0
11
12.067409
21
0.855122
31
0
0
LINE
8
cond
10
12.067409
20
0.855122
30
0
11
12.0375
21
0.875107
31
0
0
LINE
8
cond
10
12.0375
20
0.875107
30
0
11
12.005238
21
0.891017
31
0
0
LINE
8
cond
10
12.005238
20
0.891017
30
0
11
11.971175
21
0.90258
31
0
0
LINE
8
cond
10
11.971175
20
0.90258
30
0
11
11.935895
21
0.909597
31
0
0
LINE
8
cond
10
11.935895
20
0.909597
30
0
11
11.9
21
0.91195
31
0
0
LINE
8
cond
10
11.9
20
0.91195
30
0
11
11.864105
21
0.909597
31
0
0
LINE
8
cond
10
11.864105
20
0.909597
30
0
11
11.828825
21
0.90258
31
0
0
LINE
8
cond
10
11.828825
20
0.90258
30
0
11
11.794762
21
0.891017
31
0
0
LINE
8
cond
10
11.794762
20
0.891017
30
0
11
11.7625
21
0.875107
31
0
0
LINE
8
cond
10
11.7625
20
0.875107
30
0
11
11.732591
21
0.855122
31
0
0
LINE
8
cond
10
11.732591
20
0.855122
30
0
11
11.705546
21
0.831404
31
0
0
LINE
8
cond
10
11.705546
20
0.831404
30
0
11
11.681828
21
0.804359
31
0
0
LINE
8
cond
10
11.681828
20
0.804359
30
0
11
11.661843
21
0.77445
31
0
0
LINE
8
cond
10
11.661843
20
0.77445
30
0
11
11.645933
21
0.742188
31
0
0
LINE
8
cond
10
11.645933
20
0.742188
30
0
11
11.63437
21
0.708125
31
0
0
LINE
8
cond
10
11.63437
20
0.708125
30
0
11
11.627353
21
0.672845
31
0
0
LINE
8
cond
10
11.627353
20
0.672845
30
0
11
11.625
21
0.63695
31
0
0
LINE
8
cond
10
11.625
20
0.63695
30
0
11
11.627353
21
0.601055
31
0
0
LINE
8
cond
10
11.627353
20
0.601055
30
0
11
11.63437
21
0.565775
31
0
0
LINE
8
cond
10
11.63437
20
0.565775
30
0
11
11.645933
21
0.531712
31
0
0
LINE
8
cond
10
11.645933
20
0.531712
30
0
11
11.661843
21
0.49945
31
0
0
LINE
8
cond
10
11.661843
20
0.49945
30
0
11
11.681828
21
0.469541
31
0
0
LINE
8
cond
10
11.681828
20
0.469541
30
0
11
11.705546
21
0.442496
31
0
0
LINE
8
cond
10
11.705546
20
0.442496
30
0
11
11.732591
21
0.418778
31
0
0
LINE
8
cond
10
11.732591
20
0.418778
30
0
11
11.7625
21
0.398793
31
0
0
LINE
8
cond
10
11.7625
20
0.398793
30
0
11
11.794762
21
0.382883
31
0
0
LINE
8
cond
10
11.794762
20
0.382883
30
0
11
11.828825
21
0.37132
31
0
0
LINE
8
cond
10
11.828825
20
0.37132
30
0
11
11.864105
21
0.364303
31
0
0
LINE
8
cond
10
11.864105
20
0.364303
30
0
11
11.9
21
0.36195
31
0
0
LINE
8
cond
10
11.9
20
0.36195
30
0
11
11.935895
21
0.364303
31
0
0
LINE
8
cond
10
11.935895
20
0.364303
30
0
11
11.971175
21
0.37132
31
0
0
LINE
8
cond
10
11.971175
20
0.37132
30
0
11
12.005238
21
0.382883
31
0
0
LINE
8
cond
10
12.005238
20
0.382883
30
0
11
12.0375
21
0.398793
31
0
0
LINE
8
cond
10
12.0375
20
0.398793
30
0
11
12.067409
21
0.418778
31
0
0
LINE
8
cond
10
12.067409
20
0.418778
30
0
11
12.094454
21
0.442496
31
0
0
LINE
8
cond
10
12.094454
20
0.442496
30
0
11
12.118172
21
0.469541
31
0
0
LINE
8
cond
10
12.118172
20
0.469541
30
0
11
12.138157
21
0.49945
31
0
0
LINE
8
cond
10
12.138157
20
0.49945
30
0
11
12.154067
21
0.531712
31
0
0
LINE
8
cond
10
12.154067
20
0.531712
30
0
11
12.16563
21
0.565775
31
0
0
LINE
8
cond
10
12.16563
20
0.565775
30
0
11
12.172647
21
0.601055
31
0
0
LINE
8
cond
10
12.172647
20
0.601055
30
0
11
12.175
21
0.63695
31
0
0
LINE
8
pcvia1
10
14.05
20
0.63695
30
0
11
14.048717
21
0.656529
31
0
0
LINE
8
pcvia1
10
14.048717
20
0.656529
30
0
11
14.044889
21
0.675773
31
0
0
LINE
8
pcvia1
10
14.044889
20
0.675773
30
0
11
14.038582
21
0.694353
31
0
0
LINE
8
pcvia1
10
14.038582
20
0.694353
30
0
11
14.029904
21
0.71195
31
0
0
LINE
8
pcvia1
10
14.029904
20
0.71195
30
0
11
14.019003
21
0.728264
31
0
0
LINE
8
pcvia1
10
14.019003
20
0.728264
30
0
11
14.006066
21
0.743016
31
0
0
LINE
8
pcvia1
10
14.006066
20
0.743016
30
0
11
13.991314
21
0.755953
31
0
0
LINE
8
pcvia1
10
13.991314
20
0.755953
30
0
11
13.975
21
0.766854
31
0
0
LINE
8
pcvia1
10
13.975
20
0.766854
30
0
11
13.957403
21
0.775532
31
0
0
LINE
8
pcvia1
10
13.957403
20
0.775532
30
0
11
13.938823
21
0.781839
31
0
0
LINE
8
pcvia1
10
13.938823
20
0.781839
30
0
11
13.919579
21
0.785667
31
0
0
LINE
8
pcvia1
10
13.919579
20
0.785667
30
0
11
13.9
21
0.78695
31
0
0
LINE
8
pcvia1
10
13.9
20
0.78695
30
0
11
13.880421
21
0.785667
31
0
0
LINE
8
pcvia1
10
13.880421
20
0.785667
30
0
11
13.861177
21
0.781839
31
0
0
LINE
8
pcvia1
10
13.861177
20
0.781839
30
0
11
13.842597
21
0.775532
31
0
0
LINE
8
pcvia1
10
13.842597
20
0.775532
30
0
11
13.825
21
0.766854
31
0
0
LINE
8
pcvia1
10
13.825
20
0.766854
30
0
11
13.808686
21
0.755953
31
0
0
LINE
8
pcvia1
10
13.808686
20
0.755953
30
0
11
13.793934
21
0.743016
31
0
0
LINE
8
pcvia1
10
13.793934
20
0.743016
30
0
11
13.780997
21
0.728264
31
0
0
LINE
8
pcvia1
10
13.780997
20
0.728264
30
0
11
13.770096
21
0.71195
31
0
0
LINE
8
pcvia1
10
13.770096
20
0.71195
30
0
11
13.761418
21
0.694353
31
0
0
LINE
8
pcvia1
10
13.761418
20
0.694353
30
0
11
13.755111
21
0.675773
31
0
0
LINE
8
pcvia1
10
13.755111
20
0.675773
30
0
11
13.751283
21
0.656529
31
0
0
LINE
8
pcvia1
10
13.751283
20
0.656529
30
0
11
13.75
21
0.63695
31
0
0
LINE
8
pcvia1
10
13.75
20
0.63695
30
0
11
13.751283
21
0.617371
31
0
0
LINE
8
pcvia1
10
13.751283
20
0.617371
30
0
11
13.755111
21
0.598127
31
0
0
LINE
8
pcvia1
10
13.755111
20
0.598127
30
0
11
13.761418
21
0.579547
31
0
0
LINE
8
pcvia1
10
13.761418
20
0.579547
30
0
11
13.770096
21
0.56195
31
0
0
LINE
8
pcvia1
10
13.770096
20
0.56195
30
0
11
13.780997
21
0.545636
31
0
0
LINE
8
pcvia1
10
13.780997
20
0.545636
30
0
11
13.793934
21
0.530884
31
0
0
LINE
8
pcvia1
10
13.793934
20
0.530884
30
0
11
13.808686
21
0.517947
31
0
0
LINE
8
pcvia1
10
13.808686
20
0.517947
30
0
11
13.825
21
0.507046
31
0
0
LINE
8
pcvia1
10
13.825
20
0.507046
30
0
11
13.842597
21
0.498368
31
0
0
LINE
8
pcvia1
10
13.842597
20
0.498368
30
0
11
13.861177
21
0.492061
31
0
0
LINE
8
pcvia1
10
13.861177
20
0.492061
30
0
11
13.880421
21
0.488233
31
0
0
LINE
8
pcvia1
10
13.880421
20
0.488233
30
0
11
13.9
21
0.48695
31
0
0
LINE
8
pcvia1
10
13.9
20
0.48695
30
0
11
13.919579
21
0.488233
31
0
0
LINE
8
pcvia1
10
13.919579
20
0.488233
30
0
11
13.938823
21
0.492061
31
0
0
LINE
8
pcvia1
10
13.938823
20
0.492061
30
0
11
13.957403
21
0.498368
31
0
0
LINE
8
pcvia1
10
13.957403
20
0.498368
30
0
11
13.975
21
0.507046
31
0
0
LINE
8
pcvia1
10
13.975
20
0.507046
30
0
11
13.991314
21
0.517947
31
0
0
LINE
8
pcvia1
10
13.991314
20
0.517947
30
0
11
14.006066
21
0.530884
31
0
0
LINE
8
pcvia1
10
14.006066
20
0.530884
30
0
11
14.019003
21
0.545636
31
0
0
LINE
8
pcvia1
10
14.019003
20
0.545636
30
0
11
14.029904
21
0.56195
31
0
0
LINE
8
pcvia1
10
14.029904
20
0.56195
30
0
11
14.038582
21
0.579547
31
0
0
LINE
8
pcvia1
10
14.038582
20
0.579547
30
0
11
14.044889
21
0.598127
31
0
0
LINE
8
pcvia1
10
14.044889
20
0.598127
30
0
11
14.048717
21
0.617371
31
0
0
LINE
8
pcvia1
10
14.048717
20
0.617371
30
0
11
14.05
21
0.63695
31
0
0
LINE
8
cond
10
14.175
20
0.63695
30
0
11
14.172647
21
0.672845
31
0
0
LINE
8
cond
10
14.172647
20
0.672845
30
0
11
14.16563
21
0.708125
31
0
0
LINE
8
cond
10
14.16563
20
0.708125
30
0
11
14.154067
21
0.742188
31
0
0
LINE
8
cond
10
14.154067
20
0.742188
30
0
11
14.138157
21
0.77445
31
0
0
LINE
8
cond
10
14.138157
20
0.77445
30
0
11
14.118172
21
0.804359
31
0
0
LINE
8
cond
10
14.118172
20
0.804359
30
0
11
14.094454
21
0.831404
31
0
0
LINE
8
cond
10
14.094454
20
0.831404
30
0
11
14.067409
21
0.855122
31
0
0
LINE
8
cond
10
14.067409
20
0.855122
30
0
11
14.0375
21
0.875107
31
0
0
LINE
8
cond
10
14.0375
20
0.875107
30
0
11
14.005238
21
0.891017
31
0
0
LINE
8
cond
10
14.005238
20
0.891017
30
0
11
13.971175
21
0.90258
31
0
0
LINE
8
cond
10
13.971175
20
0.90258
30
0
11
13.935895
21
0.909597
31
0
0
LINE
8
cond
10
13.935895
20
0.909597
30
0
11
13.9
21
0.91195
31
0
0
LINE
8
cond
10
13.9
20
0.91195
30
0
11
13.864105
21
0.909597
31
0
0
LINE
8
cond
10
13.864105
20
0.909597
30
0
11
13.828825
21
0.90258
31
0
0
LINE
8
cond
10
13.828825
20
0.90258
30
0
11
13.794762
21
0.891017
31
0
0
LINE
8
cond
10
13.794762
20
0.891017
30
0
11
13.7625
21
0.875107
31
0
0
LINE
8
cond
10
13.7625
20
0.875107
30
0
11
13.732591
21
0.855122
31
0
0
LINE
8
cond
10
13.732591
20
0.855122
30
0
11
13.705546
21
0.831404
31
0
0
LINE
8
cond
10
13.705546
20
0.831404
30
0
11
13.681828
21
0.804359
31
0
0
LINE
8
cond
10
13.681828
20
0.804359
30
0
11
13.661843
21
0.77445
31
0
0
LINE
8
cond
10
13.661843
20
0.77445
30
0
11
13.645933
21
0.742188
31
0
0
LINE
8
cond
10
13.645933
20
0.742188
30
0
11
13.63437
21
0.708125
31
0
0
LINE
8
cond
10
13.63437
20
0.708125
30
0
11
13.627353
21
0.672845
31
0
0
LINE
8
cond
10
13.627353
20
0.672845
30
0
11
13.625
21
0.63695
31
0
0
LINE
8
cond
10
13.625
20
0.63695
30
0
11
13.627353
21
0.601055
31
0
0
LINE
8
cond
10
13.627353
20
0.601055
30
0
11
13.63437
21
0.565775
31
0
0
LINE
8
cond
10
13.63437
20
0.565775
30
0
11
13.645933
21
0.531712
31
0
0
LINE
8
cond
10
13.645933
20
0.531712
30
0
11
13.661843
21
0.49945
31
0
0
LINE
8
cond
10
13.661843
20
0.49945
30
0
11
13.681828
21
0.469541
31
0
0
LINE
8
cond
10
13.681828
20
0.469541
30
0
11
13.705546
21
0.442496
31
0
0
LINE
8
cond
10
13.705546
20
0.442496
30
0
11
13.732591
21
0.418778
31
0
0
LINE
8
cond
10
13.732591
20
0.418778
30
0
11
13.7625
21
0.398793
31
0
0
LINE
8
cond
10
13.7625
20
0.398793
30
0
11
13.794762
21
0.382883
31
0
0
LINE
8
cond
10
13.794762
20
0.382883
30
0
11
13.828825
21
0.37132
31
0
0
LINE
8
cond
10
13.828825
20
0.37132
30
0
11
13.864105
21
0.364303
31
0
0
LINE
8
cond
10
13.864105
20
0.364303
30
0
11
13.9
21
0.36195
31
0
0
LINE
8
cond
10
13.9
20
0.36195
30
0
11
13.935895
21
0.364303
31
0
0
LINE
8
cond
10
13.935895
20
0.364303
30
0
11
13.971175
21
0.37132
31
0
0
LINE
8
cond
10
13.971175
20
0.37132
30
0
11
14.005238
21
0.382883
31
0
0
LINE
8
cond
10
14.005238
20
0.382883
30
0
11
14.0375
21
0.398793
31
0
0
LINE
8
cond
10
14.0375
20
0.398793
30
0
11
14.067409
21
0.418778
31
0
0
LINE
8
cond
10
14.067409
20
0.418778
30
0
11
14.094454
21
0.442496
31
0
0
LINE
8
cond
10
14.094454
20
0.442496
30
0
11
14.118172
21
0.469541
31
0
0
LINE
8
cond
10
14.118172
20
0.469541
30
0
11
14.138157
21
0.49945
31
0
0
LINE
8
cond
10
14.138157
20
0.49945
30
0
11
14.154067
21
0.531712
31
0
0
LINE
8
cond
10
14.154067
20
0.531712
30
0
11
14.16563
21
0.565775
31
0
0
LINE
8
cond
10
14.16563
20
0.565775
30
0
11
14.172647
21
0.601055
31
0
0
LINE
8
cond
10
14.172647
20
0.601055
30
0
11
14.175
21
0.63695
31
0
0
LINE
8
pcvia1
10
16.05
20
0.63695
30
0
11
16.048717
21
0.656529
31
0
0
LINE
8
pcvia1
10
16.048717
20
0.656529
30
0
11
16.044889
21
0.675773
31
0
0
LINE
8
pcvia1
10
16.044889
20
0.675773
30
0
11
16.038582
21
0.694353
31
0
0
LINE
8
pcvia1
10
16.038582
20
0.694353
30
0
11
16.029904
21
0.71195
31
0
0
LINE
8
pcvia1
10
16.029904
20
0.71195
30
0
11
16.019003
21
0.728264
31
0
0
LINE
8
pcvia1
10
16.019003
20
0.728264
30
0
11
16.006066
21
0.743016
31
0
0
LINE
8
pcvia1
10
16.006066
20
0.743016
30
0
11
15.991314
21
0.755953
31
0
0
LINE
8
pcvia1
10
15.991314
20
0.755953
30
0
11
15.975
21
0.766854
31
0
0
LINE
8
pcvia1
10
15.975
20
0.766854
30
0
11
15.957403
21
0.775532
31
0
0
LINE
8
pcvia1
10
15.957403
20
0.775532
30
0
11
15.938823
21
0.781839
31
0
0
LINE
8
pcvia1
10
15.938823
20
0.781839
30
0
11
15.919579
21
0.785667
31
0
0
LINE
8
pcvia1
10
15.919579
20
0.785667
30
0
11
15.9
21
0.78695
31
0
0
LINE
8
pcvia1
10
15.9
20
0.78695
30
0
11
15.880421
21
0.785667
31
0
0
LINE
8
pcvia1
10
15.880421
20
0.785667
30
0
11
15.861177
21
0.781839
31
0
0
LINE
8
pcvia1
10
15.861177
20
0.781839
30
0
11
15.842597
21
0.775532
31
0
0
LINE
8
pcvia1
10
15.842597
20
0.775532
30
0
11
15.825
21
0.766854
31
0
0
LINE
8
pcvia1
10
15.825
20
0.766854
30
0
11
15.808686
21
0.755953
31
0
0
LINE
8
pcvia1
10
15.808686
20
0.755953
30
0
11
15.793934
21
0.743016
31
0
0
LINE
8
pcvia1
10
15.793934
20
0.743016
30
0
11
15.780997
21
0.728264
31
0
0
LINE
8
pcvia1
10
15.780997
20
0.728264
30
0
11
15.770096
21
0.71195
31
0
0
LINE
8
pcvia1
10
15.770096
20
0.71195
30
0
11
15.761418
21
0.694353
31
0
0
LINE
8
pcvia1
10
15.761418
20
0.694353
30
0
11
15.755111
21
0.675773
31
0
0
LINE
8
pcvia1
10
15.755111
20
0.675773
30
0
11
15.751283
21
0.656529
31
0
0
LINE
8
pcvia1
10
15.751283
20
0.656529
30
0
11
15.75
21
0.63695
31
0
0
LINE
8
pcvia1
10
15.75
20
0.63695
30
0
11
15.751283
21
0.617371
31
0
0
LINE
8
pcvia1
10
15.751283
20
0.617371
30
0
11
15.755111
21
0.598127
31
0
0
LINE
8
pcvia1
10
15.755111
20
0.598127
30
0
11
15.761418
21
0.579547
31
0
0
LINE
8
pcvia1
10
15.761418
20
0.579547
30
0
11
15.770096
21
0.56195
31
0
0
LINE
8
pcvia1
10
15.770096
20
0.56195
30
0
11
15.780997
21
0.545636
31
0
0
LINE
8
pcvia1
10
15.780997
20
0.545636
30
0
11
15.793934
21
0.530884
31
0
0
LINE
8
pcvia1
10
15.793934
20
0.530884
30
0
11
15.808686
21
0.517947
31
0
0
LINE
8
pcvia1
10
15.808686
20
0.517947
30
0
11
15.825
21
0.507046
31
0
0
LINE
8
pcvia1
10
15.825
20
0.507046
30
0
11
15.842597
21
0.498368
31
0
0
LINE
8
pcvia1
10
15.842597
20
0.498368
30
0
11
15.861177
21
0.492061
31
0
0
LINE
8
pcvia1
10
15.861177
20
0.492061
30
0
11
15.880421
21
0.488233
31
0
0
LINE
8
pcvia1
10
15.880421
20
0.488233
30
0
11
15.9
21
0.48695
31
0
0
LINE
8
pcvia1
10
15.9
20
0.48695
30
0
11
15.919579
21
0.488233
31
0
0
LINE
8
pcvia1
10
15.919579
20
0.488233
30
0
11
15.938823
21
0.492061
31
0
0
LINE
8
pcvia1
10
15.938823
20
0.492061
30
0
11
15.957403
21
0.498368
31
0
0
LINE
8
pcvia1
10
15.957403
20
0.498368
30
0
11
15.975
21
0.507046
31
0
0
LINE
8
pcvia1
10
15.975
20
0.507046
30
0
11
15.991314
21
0.517947
31
0
0
LINE
8
pcvia1
10
15.991314
20
0.517947
30
0
11
16.006066
21
0.530884
31
0
0
LINE
8
pcvia1
10
16.006066
20
0.530884
30
0
11
16.019003
21
0.545636
31
0
0
LINE
8
pcvia1
10
16.019003
20
0.545636
30
0
11
16.029904
21
0.56195
31
0
0
LINE
8
pcvia1
10
16.029904
20
0.56195
30
0
11
16.038582
21
0.579547
31
0
0
LINE
8
pcvia1
10
16.038582
20
0.579547
30
0
11
16.044889
21
0.598127
31
0
0
LINE
8
pcvia1
10
16.044889
20
0.598127
30
0
11
16.048717
21
0.617371
31
0
0
LINE
8
pcvia1
10
16.048717
20
0.617371
30
0
11
16.05
21
0.63695
31
0
0
LINE
8
cond
10
16.175
20
0.63695
30
0
11
16.172647
21
0.672845
31
0
0
LINE
8
cond
10
16.172647
20
0.672845
30
0
11
16.16563
21
0.708125
31
0
0
LINE
8
cond
10
16.16563
20
0.708125
30
0
11
16.154067
21
0.742188
31
0
0
LINE
8
cond
10
16.154067
20
0.742188
30
0
11
16.138157
21
0.77445
31
0
0
LINE
8
cond
10
16.138157
20
0.77445
30
0
11
16.118172
21
0.804359
31
0
0
LINE
8
cond
10
16.118172
20
0.804359
30
0
11
16.094454
21
0.831404
31
0
0
LINE
8
cond
10
16.094454
20
0.831404
30
0
11
16.067409
21
0.855122
31
0
0
LINE
8
cond
10
16.067409
20
0.855122
30
0
11
16.0375
21
0.875107
31
0
0
LINE
8
cond
10
16.0375
20
0.875107
30
0
11
16.005238
21
0.891017
31
0
0
LINE
8
cond
10
16.005238
20
0.891017
30
0
11
15.971175
21
0.90258
31
0
0
LINE
8
cond
10
15.971175
20
0.90258
30
0
11
15.935895
21
0.909597
31
0
0
LINE
8
cond
10
15.935895
20
0.909597
30
0
11
15.9
21
0.91195
31
0
0
LINE
8
cond
10
15.9
20
0.91195
30
0
11
15.864105
21
0.909597
31
0
0
LINE
8
cond
10
15.864105
20
0.909597
30
0
11
15.828825
21
0.90258
31
0
0
LINE
8
cond
10
15.828825
20
0.90258
30
0
11
15.794762
21
0.891017
31
0
0
LINE
8
cond
10
15.794762
20
0.891017
30
0
11
15.7625
21
0.875107
31
0
0
LINE
8
cond
10
15.7625
20
0.875107
30
0
11
15.732591
21
0.855122
31
0
0
LINE
8
cond
10
15.732591
20
0.855122
30
0
11
15.705546
21
0.831404
31
0
0
LINE
8
cond
10
15.705546
20
0.831404
30
0
11
15.681828
21
0.804359
31
0
0
LINE
8
cond
10
15.681828
20
0.804359
30
0
11
15.661843
21
0.77445
31
0
0
LINE
8
cond
10
15.661843
20
0.77445
30
0
11
15.645933
21
0.742188
31
0
0
LINE
8
cond
10
15.645933
20
0.742188
30
0
11
15.63437
21
0.708125
31
0
0
LINE
8
cond
10
15.63437
20
0.708125
30
0
11
15.627353
21
0.672845
31
0
0
LINE
8
cond
10
15.627353
20
0.672845
30
0
11
15.625
21
0.63695
31
0
0
LINE
8
cond
10
15.625
20
0.63695
30
0
11
15.627353
21
0.601055
31
0
0
LINE
8
cond
10
15.627353
20
0.601055
30
0
11
15.63437
21
0.565775
31
0
0
LINE
8
cond
10
15.63437
20
0.565775
30
0
11
15.645933
21
0.531712
31
0
0
LINE
8
cond
10
15.645933
20
0.531712
30
0
11
15.661843
21
0.49945
31
0
0
LINE
8
cond
10
15.661843
20
0.49945
30
0
11
15.681828
21
0.469541
31
0
0
LINE
8
cond
10
15.681828
20
0.469541
30
0
11
15.705546
21
0.442496
31
0
0
LINE
8
cond
10
15.705546
20
0.442496
30
0
11
15.732591
21
0.418778
31
0
0
LINE
8
cond
10
15.732591
20
0.418778
30
0
11
15.7625
21
0.398793
31
0
0
LINE
8
cond
10
15.7625
20
0.398793
30
0
11
15.794762
21
0.382883
31
0
0
LINE
8
cond
10
15.794762
20
0.382883
30
0
11
15.828825
21
0.37132
31
0
0
LINE
8
cond
10
15.828825
20
0.37132
30
0
11
15.864105
21
0.364303
31
0
0
LINE
8
cond
10
15.864105
20
0.364303
30
0
11
15.9
21
0.36195
31
0
0
LINE
8
cond
10
15.9
20
0.36195
30
0
11
15.935895
21
0.364303
31
0
0
LINE
8
cond
10
15.935895
20
0.364303
30
0
11
15.971175
21
0.37132
31
0
0
LINE
8
cond
10
15.971175
20
0.37132
30
0
11
16.005238
21
0.382883
31
0
0
LINE
8
cond
10
16.005238
20
0.382883
30
0
11
16.0375
21
0.398793
31
0
0
LINE
8
cond
10
16.0375
20
0.398793
30
0
11
16.067409
21
0.418778
31
0
0
LINE
8
cond
10
16.067409
20
0.418778
30
0
11
16.094454
21
0.442496
31
0
0
LINE
8
cond
10
16.094454
20
0.442496
30
0
11
16.118172
21
0.469541
31
0
0
LINE
8
cond
10
16.118172
20
0.469541
30
0
11
16.138157
21
0.49945
31
0
0
LINE
8
cond
10
16.138157
20
0.49945
30
0
11
16.154067
21
0.531712
31
0
0
LINE
8
cond
10
16.154067
20
0.531712
30
0
11
16.16563
21
0.565775
31
0
0
LINE
8
cond
10
16.16563
20
0.565775
30
0
11
16.172647
21
0.601055
31
0
0
LINE
8
cond
10
16.172647
20
0.601055
30
0
11
16.175
21
0.63695
31
0
0
LINE
8
pcvia1
10
18.05
20
0.63695
30
0
11
18.048717
21
0.656529
31
0
0
LINE
8
pcvia1
10
18.048717
20
0.656529
30
0
11
18.044889
21
0.675773
31
0
0
LINE
8
pcvia1
10
18.044889
20
0.675773
30
0
11
18.038582
21
0.694353
31
0
0
LINE
8
pcvia1
10
18.038582
20
0.694353
30
0
11
18.029904
21
0.71195
31
0
0
LINE
8
pcvia1
10
18.029904
20
0.71195
30
0
11
18.019003
21
0.728264
31
0
0
LINE
8
pcvia1
10
18.019003
20
0.728264
30
0
11
18.006066
21
0.743016
31
0
0
LINE
8
pcvia1
10
18.006066
20
0.743016
30
0
11
17.991314
21
0.755953
31
0
0
LINE
8
pcvia1
10
17.991314
20
0.755953
30
0
11
17.975
21
0.766854
31
0
0
LINE
8
pcvia1
10
17.975
20
0.766854
30
0
11
17.957403
21
0.775532
31
0
0
LINE
8
pcvia1
10
17.957403
20
0.775532
30
0
11
17.938823
21
0.781839
31
0
0
LINE
8
pcvia1
10
17.938823
20
0.781839
30
0
11
17.919579
21
0.785667
31
0
0
LINE
8
pcvia1
10
17.919579
20
0.785667
30
0
11
17.9
21
0.78695
31
0
0
LINE
8
pcvia1
10
17.9
20
0.78695
30
0
11
17.880421
21
0.785667
31
0
0
LINE
8
pcvia1
10
17.880421
20
0.785667
30
0
11
17.861177
21
0.781839
31
0
0
LINE
8
pcvia1
10
17.861177
20
0.781839
30
0
11
17.842597
21
0.775532
31
0
0
LINE
8
pcvia1
10
17.842597
20
0.775532
30
0
11
17.825
21
0.766854
31
0
0
LINE
8
pcvia1
10
17.825
20
0.766854
30
0
11
17.808686
21
0.755953
31
0
0
LINE
8
pcvia1
10
17.808686
20
0.755953
30
0
11
17.793934
21
0.743016
31
0
0
LINE
8
pcvia1
10
17.793934
20
0.743016
30
0
11
17.780997
21
0.728264
31
0
0
LINE
8
pcvia1
10
17.780997
20
0.728264
30
0
11
17.770096
21
0.71195
31
0
0
LINE
8
pcvia1
10
17.770096
20
0.71195
30
0
11
17.761418
21
0.694353
31
0
0
LINE
8
pcvia1
10
17.761418
20
0.694353
30
0
11
17.755111
21
0.675773
31
0
0
LINE
8
pcvia1
10
17.755111
20
0.675773
30
0
11
17.751283
21
0.656529
31
0
0
LINE
8
pcvia1
10
17.751283
20
0.656529
30
0
11
17.75
21
0.63695
31
0
0
LINE
8
pcvia1
10
17.75
20
0.63695
30
0
11
17.751283
21
0.617371
31
0
0
LINE
8
pcvia1
10
17.751283
20
0.617371
30
0
11
17.755111
21
0.598127
31
0
0
LINE
8
pcvia1
10
17.755111
20
0.598127
30
0
11
17.761418
21
0.579547
31
0
0
LINE
8
pcvia1
10
17.761418
20
0.579547
30
0
11
17.770096
21
0.56195
31
0
0
LINE
8
pcvia1
10
17.770096
20
0.56195
30
0
11
17.780997
21
0.545636
31
0
0
LINE
8
pcvia1
10
17.780997
20
0.545636
30
0
11
17.793934
21
0.530884
31
0
0
LINE
8
pcvia1
10
17.793934
20
0.530884
30
0
11
17.808686
21
0.517947
31
0
0
LINE
8
pcvia1
10
17.808686
20
0.517947
30
0
11
17.825
21
0.507046
31
0
0
LINE
8
pcvia1
10
17.825
20
0.507046
30
0
11
17.842597
21
0.498368
31
0
0
LINE
8
pcvia1
10
17.842597
20
0.498368
30
0
11
17.861177
21
0.492061
31
0
0
LINE
8
pcvia1
10
17.861177
20
0.492061
30
0
11
17.880421
21
0.488233
31
0
0
LINE
8
pcvia1
10
17.880421
20
0.488233
30
0
11
17.9
21
0.48695
31
0
0
LINE
8
pcvia1
10
17.9
20
0.48695
30
0
11
17.919579
21
0.488233
31
0
0
LINE
8
pcvia1
10
17.919579
20
0.488233
30
0
11
17.938823
21
0.492061
31
0
0
LINE
8
pcvia1
10
17.938823
20
0.492061
30
0
11
17.957403
21
0.498368
31
0
0
LINE
8
pcvia1
10
17.957403
20
0.498368
30
0
11
17.975
21
0.507046
31
0
0
LINE
8
pcvia1
10
17.975
20
0.507046
30
0
11
17.991314
21
0.517947
31
0
0
LINE
8
pcvia1
10
17.991314
20
0.517947
30
0
11
18.006066
21
0.530884
31
0
0
LINE
8
pcvia1
10
18.006066
20
0.530884
30
0
11
18.019003
21
0.545636
31
0
0
LINE
8
pcvia1
10
18.019003
20
0.545636
30
0
11
18.029904
21
0.56195
31
0
0
LINE
8
pcvia1
10
18.029904
20
0.56195
30
0
11
18.038582
21
0.579547
31
0
0
LINE
8
pcvia1
10
18.038582
20
0.579547
30
0
11
18.044889
21
0.598127
31
0
0
LINE
8
pcvia1
10
18.044889
20
0.598127
30
0
11
18.048717
21
0.617371
31
0
0
LINE
8
pcvia1
10
18.048717
20
0.617371
30
0
11
18.05
21
0.63695
31
0
0
LINE
8
cond
10
18.175
20
0.63695
30
0
11
18.172647
21
0.672845
31
0
0
LINE
8
cond
10
18.172647
20
0.672845
30
0
11
18.16563
21
0.708125
31
0
0
LINE
8
cond
10
18.16563
20
0.708125
30
0
11
18.154067
21
0.742188
31
0
0
LINE
8
cond
10
18.154067
20
0.742188
30
0
11
18.138157
21
0.77445
31
0
0
LINE
8
cond
10
18.138157
20
0.77445
30
0
11
18.118172
21
0.804359
31
0
0
LINE
8
cond
10
18.118172
20
0.804359
30
0
11
18.094454
21
0.831404
31
0
0
LINE
8
cond
10
18.094454
20
0.831404
30
0
11
18.067409
21
0.855122
31
0
0
LINE
8
cond
10
18.067409
20
0.855122
30
0
11
18.0375
21
0.875107
31
0
0
LINE
8
cond
10
18.0375
20
0.875107
30
0
11
18.005238
21
0.891017
31
0
0
LINE
8
cond
10
18.005238
20
0.891017
30
0
11
17.971175
21
0.90258
31
0
0
LINE
8
cond
10
17.971175
20
0.90258
30
0
11
17.935895
21
0.909597
31
0
0
LINE
8
cond
10
17.935895
20
0.909597
30
0
11
17.9
21
0.91195
31
0
0
LINE
8
cond
10
17.9
20
0.91195
30
0
11
17.864105
21
0.909597
31
0
0
LINE
8
cond
10
17.864105
20
0.909597
30
0
11
17.828825
21
0.90258
31
0
0
LINE
8
cond
10
17.828825
20
0.90258
30
0
11
17.794762
21
0.891017
31
0
0
LINE
8
cond
10
17.794762
20
0.891017
30
0
11
17.7625
21
0.875107
31
0
0
LINE
8
cond
10
17.7625
20
0.875107
30
0
11
17.732591
21
0.855122
31
0
0
LINE
8
cond
10
17.732591
20
0.855122
30
0
11
17.705546
21
0.831404
31
0
0
LINE
8
cond
10
17.705546
20
0.831404
30
0
11
17.681828
21
0.804359
31
0
0
LINE
8
cond
10
17.681828
20
0.804359
30
0
11
17.661843
21
0.77445
31
0
0
LINE
8
cond
10
17.661843
20
0.77445
30
0
11
17.645933
21
0.742188
31
0
0
LINE
8
cond
10
17.645933
20
0.742188
30
0
11
17.63437
21
0.708125
31
0
0
LINE
8
cond
10
17.63437
20
0.708125
30
0
11
17.627353
21
0.672845
31
0
0
LINE
8
cond
10
17.627353
20
0.672845
30
0
11
17.625
21
0.63695
31
0
0
LINE
8
cond
10
17.625
20
0.63695
30
0
11
17.627353
21
0.601055
31
0
0
LINE
8
cond
10
17.627353
20
0.601055
30
0
11
17.63437
21
0.565775
31
0
0
LINE
8
cond
10
17.63437
20
0.565775
30
0
11
17.645933
21
0.531712
31
0
0
LINE
8
cond
10
17.645933
20
0.531712
30
0
11
17.661843
21
0.49945
31
0
0
LINE
8
cond
10
17.661843
20
0.49945
30
0
11
17.681828
21
0.469541
31
0
0
LINE
8
cond
10
17.681828
20
0.469541
30
0
11
17.705546
21
0.442496
31
0
0
LINE
8
cond
10
17.705546
20
0.442496
30
0
11
17.732591
21
0.418778
31
0
0
LINE
8
cond
10
17.732591
20
0.418778
30
0
11
17.7625
21
0.398793
31
0
0
LINE
8
cond
10
17.7625
20
0.398793
30
0
11
17.794762
21
0.382883
31
0
0
LINE
8
cond
10
17.794762
20
0.382883
30
0
11
17.828825
21
0.37132
31
0
0
LINE
8
cond
10
17.828825
20
0.37132
30
0
11
17.864105
21
0.364303
31
0
0
LINE
8
cond
10
17.864105
20
0.364303
30
0
11
17.9
21
0.36195
31
0
0
LINE
8
cond
10
17.9
20
0.36195
30
0
11
17.935895
21
0.364303
31
0
0
LINE
8
cond
10
17.935895
20
0.364303
30
0
11
17.971175
21
0.37132
31
0
0
LINE
8
cond
10
17.971175
20
0.37132
30
0
11
18.005238
21
0.382883
31
0
0
LINE
8
cond
10
18.005238
20
0.382883
30
0
11
18.0375
21
0.398793
31
0
0
LINE
8
cond
10
18.0375
20
0.398793
30
0
11
18.067409
21
0.418778
31
0
0
LINE
8
cond
10
18.067409
20
0.418778
30
0
11
18.094454
21
0.442496
31
0
0
LINE
8
cond
10
18.094454
20
0.442496
30
0
11
18.118172
21
0.469541
31
0
0
LINE
8
cond
10
18.118172
20
0.469541
30
0
11
18.138157
21
0.49945
31
0
0
LINE
8
cond
10
18.138157
20
0.49945
30
0
11
18.154067
21
0.531712
31
0
0
LINE
8
cond
10
18.154067
20
0.531712
30
0
11
18.16563
21
0.565775
31
0
0
LINE
8
cond
10
18.16563
20
0.565775
30
0
11
18.172647
21
0.601055
31
0
0
LINE
8
cond
10
18.172647
20
0.601055
30
0
11
18.175
21
0.63695
31
0
0
LINE
8
pcvia1
10
20.05
20
0.63695
30
0
11
20.048717
21
0.656529
31
0
0
LINE
8
pcvia1
10
20.048717
20
0.656529
30
0
11
20.044889
21
0.675773
31
0
0
LINE
8
pcvia1
10
20.044889
20
0.675773
30
0
11
20.038582
21
0.694353
31
0
0
LINE
8
pcvia1
10
20.038582
20
0.694353
30
0
11
20.029904
21
0.71195
31
0
0
LINE
8
pcvia1
10
20.029904
20
0.71195
30
0
11
20.019003
21
0.728264
31
0
0
LINE
8
pcvia1
10
20.019003
20
0.728264
30
0
11
20.006066
21
0.743016
31
0
0
LINE
8
pcvia1
10
20.006066
20
0.743016
30
0
11
19.991314
21
0.755953
31
0
0
LINE
8
pcvia1
10
19.991314
20
0.755953
30
0
11
19.975
21
0.766854
31
0
0
LINE
8
pcvia1
10
19.975
20
0.766854
30
0
11
19.957403
21
0.775532
31
0
0
LINE
8
pcvia1
10
19.957403
20
0.775532
30
0
11
19.938823
21
0.781839
31
0
0
LINE
8
pcvia1
10
19.938823
20
0.781839
30
0
11
19.919579
21
0.785667
31
0
0
LINE
8
pcvia1
10
19.919579
20
0.785667
30
0
11
19.9
21
0.78695
31
0
0
LINE
8
pcvia1
10
19.9
20
0.78695
30
0
11
19.880421
21
0.785667
31
0
0
LINE
8
pcvia1
10
19.880421
20
0.785667
30
0
11
19.861177
21
0.781839
31
0
0
LINE
8
pcvia1
10
19.861177
20
0.781839
30
0
11
19.842597
21
0.775532
31
0
0
LINE
8
pcvia1
10
19.842597
20
0.775532
30
0
11
19.825
21
0.766854
31
0
0
LINE
8
pcvia1
10
19.825
20
0.766854
30
0
11
19.808686
21
0.755953
31
0
0
LINE
8
pcvia1
10
19.808686
20
0.755953
30
0
11
19.793934
21
0.743016
31
0
0
LINE
8
pcvia1
10
19.793934
20
0.743016
30
0
11
19.780997
21
0.728264
31
0
0
LINE
8
pcvia1
10
19.780997
20
0.728264
30
0
11
19.770096
21
0.71195
31
0
0
LINE
8
pcvia1
10
19.770096
20
0.71195
30
0
11
19.761418
21
0.694353
31
0
0
LINE
8
pcvia1
10
19.761418
20
0.694353
30
0
11
19.755111
21
0.675773
31
0
0
LINE
8
pcvia1
10
19.755111
20
0.675773
30
0
11
19.751283
21
0.656529
31
0
0
LINE
8
pcvia1
10
19.751283
20
0.656529
30
0
11
19.75
21
0.63695
31
0
0
LINE
8
pcvia1
10
19.75
20
0.63695
30
0
11
19.751283
21
0.617371
31
0
0
LINE
8
pcvia1
10
19.751283
20
0.617371
30
0
11
19.755111
21
0.598127
31
0
0
LINE
8
pcvia1
10
19.755111
20
0.598127
30
0
11
19.761418
21
0.579547
31
0
0
LINE
8
pcvia1
10
19.761418
20
0.579547
30
0
11
19.770096
21
0.56195
31
0
0
LINE
8
pcvia1
10
19.770096
20
0.56195
30
0
11
19.780997
21
0.545636
31
0
0
LINE
8
pcvia1
10
19.780997
20
0.545636
30
0
11
19.793934
21
0.530884
31
0
0
LINE
8
pcvia1
10
19.793934
20
0.530884
30
0
11
19.808686
21
0.517947
31
0
0
LINE
8
pcvia1
10
19.808686
20
0.517947
30
0
11
19.825
21
0.507046
31
0
0
LINE
8
pcvia1
10
19.825
20
0.507046
30
0
11
19.842597
21
0.498368
31
0
0
LINE
8
pcvia1
10
19.842597
20
0.498368
30
0
11
19.861177
21
0.492061
31
0
0
LINE
8
pcvia1
10
19.861177
20
0.492061
30
0
11
19.880421
21
0.488233
31
0
0
LINE
8
pcvia1
10
19.880421
20
0.488233
30
0
11
19.9
21
0.48695
31
0
0
LINE
8
pcvia1
10
19.9
20
0.48695
30
0
11
19.919579
21
0.488233
31
0
0
LINE
8
pcvia1
10
19.919579
20
0.488233
30
0
11
19.938823
21
0.492061
31
0
0
LINE
8
pcvia1
10
19.938823
20
0.492061
30
0
11
19.957403
21
0.498368
31
0
0
LINE
8
pcvia1
10
19.957403
20
0.498368
30
0
11
19.975
21
0.507046
31
0
0
LINE
8
pcvia1
10
19.975
20
0.507046
30
0
11
19.991314
21
0.517947
31
0
0
LINE
8
pcvia1
10
19.991314
20
0.517947
30
0
11
20.006066
21
0.530884
31
0
0
LINE
8
pcvia1
10
20.006066
20
0.530884
30
0
11
20.019003
21
0.545636
31
0
0
LINE
8
pcvia1
10
20.019003
20
0.545636
30
0
11
20.029904
21
0.56195
31
0
0
LINE
8
pcvia1
10
20.029904
20
0.56195
30
0
11
20.038582
21
0.579547
31
0
0
LINE
8
pcvia1
10
20.038582
20
0.579547
30
0
11
20.044889
21
0.598127
31
0
0
LINE
8
pcvia1
10
20.044889
20
0.598127
30
0
11
20.048717
21
0.617371
31
0
0
LINE
8
pcvia1
10
20.048717
20
0.617371
30
0
11
20.05
21
0.63695
31
0
0
LINE
8
cond
10
20.175
20
0.63695
30
0
11
20.172647
21
0.672845
31
0
0
LINE
8
cond
10
20.172647
20
0.672845
30
0
11
20.16563
21
0.708125
31
0
0
LINE
8
cond
10
20.16563
20
0.708125
30
0
11
20.154067
21
0.742188
31
0
0
LINE
8
cond
10
20.154067
20
0.742188
30
0
11
20.138157
21
0.77445
31
0
0
LINE
8
cond
10
20.138157
20
0.77445
30
0
11
20.118172
21
0.804359
31
0
0
LINE
8
cond
10
20.118172
20
0.804359
30
0
11
20.094454
21
0.831404
31
0
0
LINE
8
cond
10
20.094454
20
0.831404
30
0
11
20.067409
21
0.855122
31
0
0
LINE
8
cond
10
20.067409
20
0.855122
30
0
11
20.0375
21
0.875107
31
0
0
LINE
8
cond
10
20.0375
20
0.875107
30
0
11
20.005238
21
0.891017
31
0
0
LINE
8
cond
10
20.005238
20
0.891017
30
0
11
19.971175
21
0.90258
31
0
0
LINE
8
cond
10
19.971175
20
0.90258
30
0
11
19.935895
21
0.909597
31
0
0
LINE
8
cond
10
19.935895
20
0.909597
30
0
11
19.9
21
0.91195
31
0
0
LINE
8
cond
10
19.9
20
0.91195
30
0
11
19.864105
21
0.909597
31
0
0
LINE
8
cond
10
19.864105
20
0.909597
30
0
11
19.828825
21
0.90258
31
0
0
LINE
8
cond
10
19.828825
20
0.90258
30
0
11
19.794762
21
0.891017
31
0
0
LINE
8
cond
10
19.794762
20
0.891017
30
0
11
19.7625
21
0.875107
31
0
0
LINE
8
cond
10
19.7625
20
0.875107
30
0
11
19.732591
21
0.855122
31
0
0
LINE
8
cond
10
19.732591
20
0.855122
30
0
11
19.705546
21
0.831404
31
0
0
LINE
8
cond
10
19.705546
20
0.831404
30
0
11
19.681828
21
0.804359
31
0
0
LINE
8
cond
10
19.681828
20
0.804359
30
0
11
19.661843
21
0.77445
31
0
0
LINE
8
cond
10
19.661843
20
0.77445
30
0
11
19.645933
21
0.742188
31
0
0
LINE
8
cond
10
19.645933
20
0.742188
30
0
11
19.63437
21
0.708125
31
0
0
LINE
8
cond
10
19.63437
20
0.708125
30
0
11
19.627353
21
0.672845
31
0
0
LINE
8
cond
10
19.627353
20
0.672845
30
0
11
19.625
21
0.63695
31
0
0
LINE
8
cond
10
19.625
20
0.63695
30
0
11
19.627353
21
0.601055
31
0
0
LINE
8
cond
10
19.627353
20
0.601055
30
0
11
19.63437
21
0.565775
31
0
0
LINE
8
cond
10
19.63437
20
0.565775
30
0
11
19.645933
21
0.531712
31
0
0
LINE
8
cond
10
19.645933
20
0.531712
30
0
11
19.661843
21
0.49945
31
0
0
LINE
8
cond
10
19.661843
20
0.49945
30
0
11
19.681828
21
0.469541
31
0
0
LINE
8
cond
10
19.681828
20
0.469541
30
0
11
19.705546
21
0.442496
31
0
0
LINE
8
cond
10
19.705546
20
0.442496
30
0
11
19.732591
21
0.418778
31
0
0
LINE
8
cond
10
19.732591
20
0.418778
30
0
11
19.7625
21
0.398793
31
0
0
LINE
8
cond
10
19.7625
20
0.398793
30
0
11
19.794762
21
0.382883
31
0
0
LINE
8
cond
10
19.794762
20
0.382883
30
0
11
19.828825
21
0.37132
31
0
0
LINE
8
cond
10
19.828825
20
0.37132
30
0
11
19.864105
21
0.364303
31
0
0
LINE
8
cond
10
19.864105
20
0.364303
30
0
11
19.9
21
0.36195
31
0
0
LINE
8
cond
10
19.9
20
0.36195
30
0
11
19.935895
21
0.364303
31
0
0
LINE
8
cond
10
19.935895
20
0.364303
30
0
11
19.971175
21
0.37132
31
0
0
LINE
8
cond
10
19.971175
20
0.37132
30
0
11
20.005238
21
0.382883
31
0
0
LINE
8
cond
10
20.005238
20
0.382883
30
0
11
20.0375
21
0.398793
31
0
0
LINE
8
cond
10
20.0375
20
0.398793
30
0
11
20.067409
21
0.418778
31
0
0
LINE
8
cond
10
20.067409
20
0.418778
30
0
11
20.094454
21
0.442496
31
0
0
LINE
8
cond
10
20.094454
20
0.442496
30
0
11
20.118172
21
0.469541
31
0
0
LINE
8
cond
10
20.118172
20
0.469541
30
0
11
20.138157
21
0.49945
31
0
0
LINE
8
cond
10
20.138157
20
0.49945
30
0
11
20.154067
21
0.531712
31
0
0
LINE
8
cond
10
20.154067
20
0.531712
30
0
11
20.16563
21
0.565775
31
0
0
LINE
8
cond
10
20.16563
20
0.565775
30
0
11
20.172647
21
0.601055
31
0
0
LINE
8
cond
10
20.172647
20
0.601055
30
0
11
20.175
21
0.63695
31
0
0
LINE
8
pcvia1
10
22.05
20
0.63695
30
0
11
22.048717
21
0.656529
31
0
0
LINE
8
pcvia1
10
22.048717
20
0.656529
30
0
11
22.044889
21
0.675773
31
0
0
LINE
8
pcvia1
10
22.044889
20
0.675773
30
0
11
22.038582
21
0.694353
31
0
0
LINE
8
pcvia1
10
22.038582
20
0.694353
30
0
11
22.029904
21
0.71195
31
0
0
LINE
8
pcvia1
10
22.029904
20
0.71195
30
0
11
22.019003
21
0.728264
31
0
0
LINE
8
pcvia1
10
22.019003
20
0.728264
30
0
11
22.006066
21
0.743016
31
0
0
LINE
8
pcvia1
10
22.006066
20
0.743016
30
0
11
21.991314
21
0.755953
31
0
0
LINE
8
pcvia1
10
21.991314
20
0.755953
30
0
11
21.975
21
0.766854
31
0
0
LINE
8
pcvia1
10
21.975
20
0.766854
30
0
11
21.957403
21
0.775532
31
0
0
LINE
8
pcvia1
10
21.957403
20
0.775532
30
0
11
21.938823
21
0.781839
31
0
0
LINE
8
pcvia1
10
21.938823
20
0.781839
30
0
11
21.919579
21
0.785667
31
0
0
LINE
8
pcvia1
10
21.919579
20
0.785667
30
0
11
21.9
21
0.78695
31
0
0
LINE
8
pcvia1
10
21.9
20
0.78695
30
0
11
21.880421
21
0.785667
31
0
0
LINE
8
pcvia1
10
21.880421
20
0.785667
30
0
11
21.861177
21
0.781839
31
0
0
LINE
8
pcvia1
10
21.861177
20
0.781839
30
0
11
21.842597
21
0.775532
31
0
0
LINE
8
pcvia1
10
21.842597
20
0.775532
30
0
11
21.825
21
0.766854
31
0
0
LINE
8
pcvia1
10
21.825
20
0.766854
30
0
11
21.808686
21
0.755953
31
0
0
LINE
8
pcvia1
10
21.808686
20
0.755953
30
0
11
21.793934
21
0.743016
31
0
0
LINE
8
pcvia1
10
21.793934
20
0.743016
30
0
11
21.780997
21
0.728264
31
0
0
LINE
8
pcvia1
10
21.780997
20
0.728264
30
0
11
21.770096
21
0.71195
31
0
0
LINE
8
pcvia1
10
21.770096
20
0.71195
30
0
11
21.761418
21
0.694353
31
0
0
LINE
8
pcvia1
10
21.761418
20
0.694353
30
0
11
21.755111
21
0.675773
31
0
0
LINE
8
pcvia1
10
21.755111
20
0.675773
30
0
11
21.751283
21
0.656529
31
0
0
LINE
8
pcvia1
10
21.751283
20
0.656529
30
0
11
21.75
21
0.63695
31
0
0
LINE
8
pcvia1
10
21.75
20
0.63695
30
0
11
21.751283
21
0.617371
31
0
0
LINE
8
pcvia1
10
21.751283
20
0.617371
30
0
11
21.755111
21
0.598127
31
0
0
LINE
8
pcvia1
10
21.755111
20
0.598127
30
0
11
21.761418
21
0.579547
31
0
0
LINE
8
pcvia1
10
21.761418
20
0.579547
30
0
11
21.770096
21
0.56195
31
0
0
LINE
8
pcvia1
10
21.770096
20
0.56195
30
0
11
21.780997
21
0.545636
31
0
0
LINE
8
pcvia1
10
21.780997
20
0.545636
30
0
11
21.793934
21
0.530884
31
0
0
LINE
8
pcvia1
10
21.793934
20
0.530884
30
0
11
21.808686
21
0.517947
31
0
0
LINE
8
pcvia1
10
21.808686
20
0.517947
30
0
11
21.825
21
0.507046
31
0
0
LINE
8
pcvia1
10
21.825
20
0.507046
30
0
11
21.842597
21
0.498368
31
0
0
LINE
8
pcvia1
10
21.842597
20
0.498368
30
0
11
21.861177
21
0.492061
31
0
0
LINE
8
pcvia1
10
21.861177
20
0.492061
30
0
11
21.880421
21
0.488233
31
0
0
LINE
8
pcvia1
10
21.880421
20
0.488233
30
0
11
21.9
21
0.48695
31
0
0
LINE
8
pcvia1
10
21.9
20
0.48695
30
0
11
21.919579
21
0.488233
31
0
0
LINE
8
pcvia1
10
21.919579
20
0.488233
30
0
11
21.938823
21
0.492061
31
0
0
LINE
8
pcvia1
10
21.938823
20
0.492061
30
0
11
21.957403
21
0.498368
31
0
0
LINE
8
pcvia1
10
21.957403
20
0.498368
30
0
11
21.975
21
0.507046
31
0
0
LINE
8
pcvia1
10
21.975
20
0.507046
30
0
11
21.991314
21
0.517947
31
0
0
LINE
8
pcvia1
10
21.991314
20
0.517947
30
0
11
22.006066
21
0.530884
31
0
0
LINE
8
pcvia1
10
22.006066
20
0.530884
30
0
11
22.019003
21
0.545636
31
0
0
LINE
8
pcvia1
10
22.019003
20
0.545636
30
0
11
22.029904
21
0.56195
31
0
0
LINE
8
pcvia1
10
22.029904
20
0.56195
30
0
11
22.038582
21
0.579547
31
0
0
LINE
8
pcvia1
10
22.038582
20
0.579547
30
0
11
22.044889
21
0.598127
31
0
0
LINE
8
pcvia1
10
22.044889
20
0.598127
30
0
11
22.048717
21
0.617371
31
0
0
LINE
8
pcvia1
10
22.048717
20
0.617371
30
0
11
22.05
21
0.63695
31
0
0
LINE
8
cond
10
22.175
20
0.63695
30
0
11
22.172647
21
0.672845
31
0
0
LINE
8
cond
10
22.172647
20
0.672845
30
0
11
22.16563
21
0.708125
31
0
0
LINE
8
cond
10
22.16563
20
0.708125
30
0
11
22.154067
21
0.742188
31
0
0
LINE
8
cond
10
22.154067
20
0.742188
30
0
11
22.138157
21
0.77445
31
0
0
LINE
8
cond
10
22.138157
20
0.77445
30
0
11
22.118172
21
0.804359
31
0
0
LINE
8
cond
10
22.118172
20
0.804359
30
0
11
22.094454
21
0.831404
31
0
0
LINE
8
cond
10
22.094454
20
0.831404
30
0
11
22.067409
21
0.855122
31
0
0
LINE
8
cond
10
22.067409
20
0.855122
30
0
11
22.0375
21
0.875107
31
0
0
LINE
8
cond
10
22.0375
20
0.875107
30
0
11
22.005238
21
0.891017
31
0
0
LINE
8
cond
10
22.005238
20
0.891017
30
0
11
21.971175
21
0.90258
31
0
0
LINE
8
cond
10
21.971175
20
0.90258
30
0
11
21.935895
21
0.909597
31
0
0
LINE
8
cond
10
21.935895
20
0.909597
30
0
11
21.9
21
0.91195
31
0
0
LINE
8
cond
10
21.9
20
0.91195
30
0
11
21.864105
21
0.909597
31
0
0
LINE
8
cond
10
21.864105
20
0.909597
30
0
11
21.828825
21
0.90258
31
0
0
LINE
8
cond
10
21.828825
20
0.90258
30
0
11
21.794762
21
0.891017
31
0
0
LINE
8
cond
10
21.794762
20
0.891017
30
0
11
21.7625
21
0.875107
31
0
0
LINE
8
cond
10
21.7625
20
0.875107
30
0
11
21.732591
21
0.855122
31
0
0
LINE
8
cond
10
21.732591
20
0.855122
30
0
11
21.705546
21
0.831404
31
0
0
LINE
8
cond
10
21.705546
20
0.831404
30
0
11
21.681828
21
0.804359
31
0
0
LINE
8
cond
10
21.681828
20
0.804359
30
0
11
21.661843
21
0.77445
31
0
0
LINE
8
cond
10
21.661843
20
0.77445
30
0
11
21.645933
21
0.742188
31
0
0
LINE
8
cond
10
21.645933
20
0.742188
30
0
11
21.63437
21
0.708125
31
0
0
LINE
8
cond
10
21.63437
20
0.708125
30
0
11
21.627353
21
0.672845
31
0
0
LINE
8
cond
10
21.627353
20
0.672845
30
0
11
21.625
21
0.63695
31
0
0
LINE
8
cond
10
21.625
20
0.63695
30
0
11
21.627353
21
0.601055
31
0
0
LINE
8
cond
10
21.627353
20
0.601055
30
0
11
21.63437
21
0.565775
31
0
0
LINE
8
cond
10
21.63437
20
0.565775
30
0
11
21.645933
21
0.531712
31
0
0
LINE
8
cond
10
21.645933
20
0.531712
30
0
11
21.661843
21
0.49945
31
0
0
LINE
8
cond
10
21.661843
20
0.49945
30
0
11
21.681828
21
0.469541
31
0
0
LINE
8
cond
10
21.681828
20
0.469541
30
0
11
21.705546
21
0.442496
31
0
0
LINE
8
cond
10
21.705546
20
0.442496
30
0
11
21.732591
21
0.418778
31
0
0
LINE
8
cond
10
21.732591
20
0.418778
30
0
11
21.7625
21
0.398793
31
0
0
LINE
8
cond
10
21.7625
20
0.398793
30
0
11
21.794762
21
0.382883
31
0
0
LINE
8
cond
10
21.794762
20
0.382883
30
0
11
21.828825
21
0.37132
31
0
0
LINE
8
cond
10
21.828825
20
0.37132
30
0
11
21.864105
21
0.364303
31
0
0
LINE
8
cond
10
21.864105
20
0.364303
30
0
11
21.9
21
0.36195
31
0
0
LINE
8
cond
10
21.9
20
0.36195
30
0
11
21.935895
21
0.364303
31
0
0
LINE
8
cond
10
21.935895
20
0.364303
30
0
11
21.971175
21
0.37132
31
0
0
LINE
8
cond
10
21.971175
20
0.37132
30
0
11
22.005238
21
0.382883
31
0
0
LINE
8
cond
10
22.005238
20
0.382883
30
0
11
22.0375
21
0.398793
31
0
0
LINE
8
cond
10
22.0375
20
0.398793
30
0
11
22.067409
21
0.418778
31
0
0
LINE
8
cond
10
22.067409
20
0.418778
30
0
11
22.094454
21
0.442496
31
0
0
LINE
8
cond
10
22.094454
20
0.442496
30
0
11
22.118172
21
0.469541
31
0
0
LINE
8
cond
10
22.118172
20
0.469541
30
0
11
22.138157
21
0.49945
31
0
0
LINE
8
cond
10
22.138157
20
0.49945
30
0
11
22.154067
21
0.531712
31
0
0
LINE
8
cond
10
22.154067
20
0.531712
30
0
11
22.16563
21
0.565775
31
0
0
LINE
8
cond
10
22.16563
20
0.565775
30
0
11
22.172647
21
0.601055
31
0
0
LINE
8
cond
10
22.172647
20
0.601055
30
0
11
22.175
21
0.63695
31
0
0
LINE
8
pcvia1
10
24.05
20
0.63695
30
0
11
24.048717
21
0.656529
31
0
0
LINE
8
pcvia1
10
24.048717
20
0.656529
30
0
11
24.044889
21
0.675773
31
0
0
LINE
8
pcvia1
10
24.044889
20
0.675773
30
0
11
24.038582
21
0.694353
31
0
0
LINE
8
pcvia1
10
24.038582
20
0.694353
30
0
11
24.029904
21
0.71195
31
0
0
LINE
8
pcvia1
10
24.029904
20
0.71195
30
0
11
24.019003
21
0.728264
31
0
0
LINE
8
pcvia1
10
24.019003
20
0.728264
30
0
11
24.006066
21
0.743016
31
0
0
LINE
8
pcvia1
10
24.006066
20
0.743016
30
0
11
23.991314
21
0.755953
31
0
0
LINE
8
pcvia1
10
23.991314
20
0.755953
30
0
11
23.975
21
0.766854
31
0
0
LINE
8
pcvia1
10
23.975
20
0.766854
30
0
11
23.957403
21
0.775532
31
0
0
LINE
8
pcvia1
10
23.957403
20
0.775532
30
0
11
23.938823
21
0.781839
31
0
0
LINE
8
pcvia1
10
23.938823
20
0.781839
30
0
11
23.919579
21
0.785667
31
0
0
LINE
8
pcvia1
10
23.919579
20
0.785667
30
0
11
23.9
21
0.78695
31
0
0
LINE
8
pcvia1
10
23.9
20
0.78695
30
0
11
23.880421
21
0.785667
31
0
0
LINE
8
pcvia1
10
23.880421
20
0.785667
30
0
11
23.861177
21
0.781839
31
0
0
LINE
8
pcvia1
10
23.861177
20
0.781839
30
0
11
23.842597
21
0.775532
31
0
0
LINE
8
pcvia1
10
23.842597
20
0.775532
30
0
11
23.825
21
0.766854
31
0
0
LINE
8
pcvia1
10
23.825
20
0.766854
30
0
11
23.808686
21
0.755953
31
0
0
LINE
8
pcvia1
10
23.808686
20
0.755953
30
0
11
23.793934
21
0.743016
31
0
0
LINE
8
pcvia1
10
23.793934
20
0.743016
30
0
11
23.780997
21
0.728264
31
0
0
LINE
8
pcvia1
10
23.780997
20
0.728264
30
0
11
23.770096
21
0.71195
31
0
0
LINE
8
pcvia1
10
23.770096
20
0.71195
30
0
11
23.761418
21
0.694353
31
0
0
LINE
8
pcvia1
10
23.761418
20
0.694353
30
0
11
23.755111
21
0.675773
31
0
0
LINE
8
pcvia1
10
23.755111
20
0.675773
30
0
11
23.751283
21
0.656529
31
0
0
LINE
8
pcvia1
10
23.751283
20
0.656529
30
0
11
23.75
21
0.63695
31
0
0
LINE
8
pcvia1
10
23.75
20
0.63695
30
0
11
23.751283
21
0.617371
31
0
0
LINE
8
pcvia1
10
23.751283
20
0.617371
30
0
11
23.755111
21
0.598127
31
0
0
LINE
8
pcvia1
10
23.755111
20
0.598127
30
0
11
23.761418
21
0.579547
31
0
0
LINE
8
pcvia1
10
23.761418
20
0.579547
30
0
11
23.770096
21
0.56195
31
0
0
LINE
8
pcvia1
10
23.770096
20
0.56195
30
0
11
23.780997
21
0.545636
31
0
0
LINE
8
pcvia1
10
23.780997
20
0.545636
30
0
11
23.793934
21
0.530884
31
0
0
LINE
8
pcvia1
10
23.793934
20
0.530884
30
0
11
23.808686
21
0.517947
31
0
0
LINE
8
pcvia1
10
23.808686
20
0.517947
30
0
11
23.825
21
0.507046
31
0
0
LINE
8
pcvia1
10
23.825
20
0.507046
30
0
11
23.842597
21
0.498368
31
0
0
LINE
8
pcvia1
10
23.842597
20
0.498368
30
0
11
23.861177
21
0.492061
31
0
0
LINE
8
pcvia1
10
23.861177
20
0.492061
30
0
11
23.880421
21
0.488233
31
0
0
LINE
8
pcvia1
10
23.880421
20
0.488233
30
0
11
23.9
21
0.48695
31
0
0
LINE
8
pcvia1
10
23.9
20
0.48695
30
0
11
23.919579
21
0.488233
31
0
0
LINE
8
pcvia1
10
23.919579
20
0.488233
30
0
11
23.938823
21
0.492061
31
0
0
LINE
8
pcvia1
10
23.938823
20
0.492061
30
0
11
23.957403
21
0.498368
31
0
0
LINE
8
pcvia1
10
23.957403
20
0.498368
30
0
11
23.975
21
0.507046
31
0
0
LINE
8
pcvia1
10
23.975
20
0.507046
30
0
11
23.991314
21
0.517947
31
0
0
LINE
8
pcvia1
10
23.991314
20
0.517947
30
0
11
24.006066
21
0.530884
31
0
0
LINE
8
pcvia1
10
24.006066
20
0.530884
30
0
11
24.019003
21
0.545636
31
0
0
LINE
8
pcvia1
10
24.019003
20
0.545636
30
0
11
24.029904
21
0.56195
31
0
0
LINE
8
pcvia1
10
24.029904
20
0.56195
30
0
11
24.038582
21
0.579547
31
0
0
LINE
8
pcvia1
10
24.038582
20
0.579547
30
0
11
24.044889
21
0.598127
31
0
0
LINE
8
pcvia1
10
24.044889
20
0.598127
30
0
11
24.048717
21
0.617371
31
0
0
LINE
8
pcvia1
10
24.048717
20
0.617371
30
0
11
24.05
21
0.63695
31
0
0
LINE
8
cond
10
24.175
20
0.63695
30
0
11
24.172647
21
0.672845
31
0
0
LINE
8
cond
10
24.172647
20
0.672845
30
0
11
24.16563
21
0.708125
31
0
0
LINE
8
cond
10
24.16563
20
0.708125
30
0
11
24.154067
21
0.742188
31
0
0
LINE
8
cond
10
24.154067
20
0.742188
30
0
11
24.138157
21
0.77445
31
0
0
LINE
8
cond
10
24.138157
20
0.77445
30
0
11
24.118172
21
0.804359
31
0
0
LINE
8
cond
10
24.118172
20
0.804359
30
0
11
24.094454
21
0.831404
31
0
0
LINE
8
cond
10
24.094454
20
0.831404
30
0
11
24.067409
21
0.855122
31
0
0
LINE
8
cond
10
24.067409
20
0.855122
30
0
11
24.0375
21
0.875107
31
0
0
LINE
8
cond
10
24.0375
20
0.875107
30
0
11
24.005238
21
0.891017
31
0
0
LINE
8
cond
10
24.005238
20
0.891017
30
0
11
23.971175
21
0.90258
31
0
0
LINE
8
cond
10
23.971175
20
0.90258
30
0
11
23.935895
21
0.909597
31
0
0
LINE
8
cond
10
23.935895
20
0.909597
30
0
11
23.9
21
0.91195
31
0
0
LINE
8
cond
10
23.9
20
0.91195
30
0
11
23.864105
21
0.909597
31
0
0
LINE
8
cond
10
23.864105
20
0.909597
30
0
11
23.828825
21
0.90258
31
0
0
LINE
8
cond
10
23.828825
20
0.90258
30
0
11
23.794762
21
0.891017
31
0
0
LINE
8
cond
10
23.794762
20
0.891017
30
0
11
23.7625
21
0.875107
31
0
0
LINE
8
cond
10
23.7625
20
0.875107
30
0
11
23.732591
21
0.855122
31
0
0
LINE
8
cond
10
23.732591
20
0.855122
30
0
11
23.705546
21
0.831404
31
0
0
LINE
8
cond
10
23.705546
20
0.831404
30
0
11
23.681828
21
0.804359
31
0
0
LINE
8
cond
10
23.681828
20
0.804359
30
0
11
23.661843
21
0.77445
31
0
0
LINE
8
cond
10
23.661843
20
0.77445
30
0
11
23.645933
21
0.742188
31
0
0
LINE
8
cond
10
23.645933
20
0.742188
30
0
11
23.63437
21
0.708125
31
0
0
LINE
8
cond
10
23.63437
20
0.708125
30
0
11
23.627353
21
0.672845
31
0
0
LINE
8
cond
10
23.627353
20
0.672845
30
0
11
23.625
21
0.63695
31
0
0
LINE
8
cond
10
23.625
20
0.63695
30
0
11
23.627353
21
0.601055
31
0
0
LINE
8
cond
10
23.627353
20
0.601055
30
0
11
23.63437
21
0.565775
31
0
0
LINE
8
cond
10
23.63437
20
0.565775
30
0
11
23.645933
21
0.531712
31
0
0
LINE
8
cond
10
23.645933
20
0.531712
30
0
11
23.661843
21
0.49945
31
0
0
LINE
8
cond
10
23.661843
20
0.49945
30
0
11
23.681828
21
0.469541
31
0
0
LINE
8
cond
10
23.681828
20
0.469541
30
0
11
23.705546
21
0.442496
31
0
0
LINE
8
cond
10
23.705546
20
0.442496
30
0
11
23.732591
21
0.418778
31
0
0
LINE
8
cond
10
23.732591
20
0.418778
30
0
11
23.7625
21
0.398793
31
0
0
LINE
8
cond
10
23.7625
20
0.398793
30
0
11
23.794762
21
0.382883
31
0
0
LINE
8
cond
10
23.794762
20
0.382883
30
0
11
23.828825
21
0.37132
31
0
0
LINE
8
cond
10
23.828825
20
0.37132
30
0
11
23.864105
21
0.364303
31
0
0
LINE
8
cond
10
23.864105
20
0.364303
30
0
11
23.9
21
0.36195
31
0
0
LINE
8
cond
10
23.9
20
0.36195
30
0
11
23.935895
21
0.364303
31
0
0
LINE
8
cond
10
23.935895
20
0.364303
30
0
11
23.971175
21
0.37132
31
0
0
LINE
8
cond
10
23.971175
20
0.37132
30
0
11
24.005238
21
0.382883
31
0
0
LINE
8
cond
10
24.005238
20
0.382883
30
0
11
24.0375
21
0.398793
31
0
0
LINE
8
cond
10
24.0375
20
0.398793
30
0
11
24.067409
21
0.418778
31
0
0
LINE
8
cond
10
24.067409
20
0.418778
30
0
11
24.094454
21
0.442496
31
0
0
LINE
8
cond
10
24.094454
20
0.442496
30
0
11
24.118172
21
0.469541
31
0
0
LINE
8
cond
10
24.118172
20
0.469541
30
0
11
24.138157
21
0.49945
31
0
0
LINE
8
cond
10
24.138157
20
0.49945
30
0
11
24.154067
21
0.531712
31
0
0
LINE
8
cond
10
24.154067
20
0.531712
30
0
11
24.16563
21
0.565775
31
0
0
LINE
8
cond
10
24.16563
20
0.565775
30
0
11
24.172647
21
0.601055
31
0
0
LINE
8
cond
10
24.172647
20
0.601055
30
0
11
24.175
21
0.63695
31
0
0
LINE
8
pcvia1
10
26.05
20
0.63695
30
0
11
26.048717
21
0.656529
31
0
0
LINE
8
pcvia1
10
26.048717
20
0.656529
30
0
11
26.044889
21
0.675773
31
0
0
LINE
8
pcvia1
10
26.044889
20
0.675773
30
0
11
26.038582
21
0.694353
31
0
0
LINE
8
pcvia1
10
26.038582
20
0.694353
30
0
11
26.029904
21
0.71195
31
0
0
LINE
8
pcvia1
10
26.029904
20
0.71195
30
0
11
26.019003
21
0.728264
31
0
0
LINE
8
pcvia1
10
26.019003
20
0.728264
30
0
11
26.006066
21
0.743016
31
0
0
LINE
8
pcvia1
10
26.006066
20
0.743016
30
0
11
25.991314
21
0.755953
31
0
0
LINE
8
pcvia1
10
25.991314
20
0.755953
30
0
11
25.975
21
0.766854
31
0
0
LINE
8
pcvia1
10
25.975
20
0.766854
30
0
11
25.957403
21
0.775532
31
0
0
LINE
8
pcvia1
10
25.957403
20
0.775532
30
0
11
25.938823
21
0.781839
31
0
0
LINE
8
pcvia1
10
25.938823
20
0.781839
30
0
11
25.919579
21
0.785667
31
0
0
LINE
8
pcvia1
10
25.919579
20
0.785667
30
0
11
25.9
21
0.78695
31
0
0
LINE
8
pcvia1
10
25.9
20
0.78695
30
0
11
25.880421
21
0.785667
31
0
0
LINE
8
pcvia1
10
25.880421
20
0.785667
30
0
11
25.861177
21
0.781839
31
0
0
LINE
8
pcvia1
10
25.861177
20
0.781839
30
0
11
25.842597
21
0.775532
31
0
0
LINE
8
pcvia1
10
25.842597
20
0.775532
30
0
11
25.825
21
0.766854
31
0
0
LINE
8
pcvia1
10
25.825
20
0.766854
30
0
11
25.808686
21
0.755953
31
0
0
LINE
8
pcvia1
10
25.808686
20
0.755953
30
0
11
25.793934
21
0.743016
31
0
0
LINE
8
pcvia1
10
25.793934
20
0.743016
30
0
11
25.780997
21
0.728264
31
0
0
LINE
8
pcvia1
10
25.780997
20
0.728264
30
0
11
25.770096
21
0.71195
31
0
0
LINE
8
pcvia1
10
25.770096
20
0.71195
30
0
11
25.761418
21
0.694353
31
0
0
LINE
8
pcvia1
10
25.761418
20
0.694353
30
0
11
25.755111
21
0.675773
31
0
0
LINE
8
pcvia1
10
25.755111
20
0.675773
30
0
11
25.751283
21
0.656529
31
0
0
LINE
8
pcvia1
10
25.751283
20
0.656529
30
0
11
25.75
21
0.63695
31
0
0
LINE
8
pcvia1
10
25.75
20
0.63695
30
0
11
25.751283
21
0.617371
31
0
0
LINE
8
pcvia1
10
25.751283
20
0.617371
30
0
11
25.755111
21
0.598127
31
0
0
LINE
8
pcvia1
10
25.755111
20
0.598127
30
0
11
25.761418
21
0.579547
31
0
0
LINE
8
pcvia1
10
25.761418
20
0.579547
30
0
11
25.770096
21
0.56195
31
0
0
LINE
8
pcvia1
10
25.770096
20
0.56195
30
0
11
25.780997
21
0.545636
31
0
0
LINE
8
pcvia1
10
25.780997
20
0.545636
30
0
11
25.793934
21
0.530884
31
0
0
LINE
8
pcvia1
10
25.793934
20
0.530884
30
0
11
25.808686
21
0.517947
31
0
0
LINE
8
pcvia1
10
25.808686
20
0.517947
30
0
11
25.825
21
0.507046
31
0
0
LINE
8
pcvia1
10
25.825
20
0.507046
30
0
11
25.842597
21
0.498368
31
0
0
LINE
8
pcvia1
10
25.842597
20
0.498368
30
0
11
25.861177
21
0.492061
31
0
0
LINE
8
pcvia1
10
25.861177
20
0.492061
30
0
11
25.880421
21
0.488233
31
0
0
LINE
8
pcvia1
10
25.880421
20
0.488233
30
0
11
25.9
21
0.48695
31
0
0
LINE
8
pcvia1
10
25.9
20
0.48695
30
0
11
25.919579
21
0.488233
31
0
0
LINE
8
pcvia1
10
25.919579
20
0.488233
30
0
11
25.938823
21
0.492061
31
0
0
LINE
8
pcvia1
10
25.938823
20
0.492061
30
0
11
25.957403
21
0.498368
31
0
0
LINE
8
pcvia1
10
25.957403
20
0.498368
30
0
11
25.975
21
0.507046
31
0
0
LINE
8
pcvia1
10
25.975
20
0.507046
30
0
11
25.991314
21
0.517947
31
0
0
LINE
8
pcvia1
10
25.991314
20
0.517947
30
0
11
26.006066
21
0.530884
31
0
0
LINE
8
pcvia1
10
26.006066
20
0.530884
30
0
11
26.019003
21
0.545636
31
0
0
LINE
8
pcvia1
10
26.019003
20
0.545636
30
0
11
26.029904
21
0.56195
31
0
0
LINE
8
pcvia1
10
26.029904
20
0.56195
30
0
11
26.038582
21
0.579547
31
0
0
LINE
8
pcvia1
10
26.038582
20
0.579547
30
0
11
26.044889
21
0.598127
31
0
0
LINE
8
pcvia1
10
26.044889
20
0.598127
30
0
11
26.048717
21
0.617371
31
0
0
LINE
8
pcvia1
10
26.048717
20
0.617371
30
0
11
26.05
21
0.63695
31
0
0
LINE
8
cond
10
26.175
20
0.63695
30
0
11
26.172647
21
0.672845
31
0
0
LINE
8
cond
10
26.172647
20
0.672845
30
0
11
26.16563
21
0.708125
31
0
0
LINE
8
cond
10
26.16563
20
0.708125
30
0
11
26.154067
21
0.742188
31
0
0
LINE
8
cond
10
26.154067
20
0.742188
30
0
11
26.138157
21
0.77445
31
0
0
LINE
8
cond
10
26.138157
20
0.77445
30
0
11
26.118172
21
0.804359
31
0
0
LINE
8
cond
10
26.118172
20
0.804359
30
0
11
26.094454
21
0.831404
31
0
0
LINE
8
cond
10
26.094454
20
0.831404
30
0
11
26.067409
21
0.855122
31
0
0
LINE
8
cond
10
26.067409
20
0.855122
30
0
11
26.0375
21
0.875107
31
0
0
LINE
8
cond
10
26.0375
20
0.875107
30
0
11
26.005238
21
0.891017
31
0
0
LINE
8
cond
10
26.005238
20
0.891017
30
0
11
25.971175
21
0.90258
31
0
0
LINE
8
cond
10
25.971175
20
0.90258
30
0
11
25.935895
21
0.909597
31
0
0
LINE
8
cond
10
25.935895
20
0.909597
30
0
11
25.9
21
0.91195
31
0
0
LINE
8
cond
10
25.9
20
0.91195
30
0
11
25.864105
21
0.909597
31
0
0
LINE
8
cond
10
25.864105
20
0.909597
30
0
11
25.828825
21
0.90258
31
0
0
LINE
8
cond
10
25.828825
20
0.90258
30
0
11
25.794762
21
0.891017
31
0
0
LINE
8
cond
10
25.794762
20
0.891017
30
0
11
25.7625
21
0.875107
31
0
0
LINE
8
cond
10
25.7625
20
0.875107
30
0
11
25.732591
21
0.855122
31
0
0
LINE
8
cond
10
25.732591
20
0.855122
30
0
11
25.705546
21
0.831404
31
0
0
LINE
8
cond
10
25.705546
20
0.831404
30
0
11
25.681828
21
0.804359
31
0
0
LINE
8
cond
10
25.681828
20
0.804359
30
0
11
25.661843
21
0.77445
31
0
0
LINE
8
cond
10
25.661843
20
0.77445
30
0
11
25.645933
21
0.742188
31
0
0
LINE
8
cond
10
25.645933
20
0.742188
30
0
11
25.63437
21
0.708125
31
0
0
LINE
8
cond
10
25.63437
20
0.708125
30
0
11
25.627353
21
0.672845
31
0
0
LINE
8
cond
10
25.627353
20
0.672845
30
0
11
25.625
21
0.63695
31
0
0
LINE
8
cond
10
25.625
20
0.63695
30
0
11
25.627353
21
0.601055
31
0
0
LINE
8
cond
10
25.627353
20
0.601055
30
0
11
25.63437
21
0.565775
31
0
0
LINE
8
cond
10
25.63437
20
0.565775
30
0
11
25.645933
21
0.531712
31
0
0
LINE
8
cond
10
25.645933
20
0.531712
30
0
11
25.661843
21
0.49945
31
0
0
LINE
8
cond
10
25.661843
20
0.49945
30
0
11
25.681828
21
0.469541
31
0
0
LINE
8
cond
10
25.681828
20
0.469541
30
0
11
25.705546
21
0.442496
31
0
0
LINE
8
cond
10
25.705546
20
0.442496
30
0
11
25.732591
21
0.418778
31
0
0
LINE
8
cond
10
25.732591
20
0.418778
30
0
11
25.7625
21
0.398793
31
0
0
LINE
8
cond
10
25.7625
20
0.398793
30
0
11
25.794762
21
0.382883
31
0
0
LINE
8
cond
10
25.794762
20
0.382883
30
0
11
25.828825
21
0.37132
31
0
0
LINE
8
cond
10
25.828825
20
0.37132
30
0
11
25.864105
21
0.364303
31
0
0
LINE
8
cond
10
25.864105
20
0.364303
30
0
11
25.9
21
0.36195
31
0
0
LINE
8
cond
10
25.9
20
0.36195
30
0
11
25.935895
21
0.364303
31
0
0
LINE
8
cond
10
25.935895
20
0.364303
30
0
11
25.971175
21
0.37132
31
0
0
LINE
8
cond
10
25.971175
20
0.37132
30
0
11
26.005238
21
0.382883
31
0
0
LINE
8
cond
10
26.005238
20
0.382883
30
0
11
26.0375
21
0.398793
31
0
0
LINE
8
cond
10
26.0375
20
0.398793
30
0
11
26.067409
21
0.418778
31
0
0
LINE
8
cond
10
26.067409
20
0.418778
30
0
11
26.094454
21
0.442496
31
0
0
LINE
8
cond
10
26.094454
20
0.442496
30
0
11
26.118172
21
0.469541
31
0
0
LINE
8
cond
10
26.118172
20
0.469541
30
0
11
26.138157
21
0.49945
31
0
0
LINE
8
cond
10
26.138157
20
0.49945
30
0
11
26.154067
21
0.531712
31
0
0
LINE
8
cond
10
26.154067
20
0.531712
30
0
11
26.16563
21
0.565775
31
0
0
LINE
8
cond
10
26.16563
20
0.565775
30
0
11
26.172647
21
0.601055
31
0
0
LINE
8
cond
10
26.172647
20
0.601055
30
0
11
26.175
21
0.63695
31
0
0
LINE
8
pcvia1
10
28.05
20
0.63695
30
0
11
28.048717
21
0.656529
31
0
0
LINE
8
pcvia1
10
28.048717
20
0.656529
30
0
11
28.044889
21
0.675773
31
0
0
LINE
8
pcvia1
10
28.044889
20
0.675773
30
0
11
28.038582
21
0.694353
31
0
0
LINE
8
pcvia1
10
28.038582
20
0.694353
30
0
11
28.029904
21
0.71195
31
0
0
LINE
8
pcvia1
10
28.029904
20
0.71195
30
0
11
28.019003
21
0.728264
31
0
0
LINE
8
pcvia1
10
28.019003
20
0.728264
30
0
11
28.006066
21
0.743016
31
0
0
LINE
8
pcvia1
10
28.006066
20
0.743016
30
0
11
27.991314
21
0.755953
31
0
0
LINE
8
pcvia1
10
27.991314
20
0.755953
30
0
11
27.975
21
0.766854
31
0
0
LINE
8
pcvia1
10
27.975
20
0.766854
30
0
11
27.957403
21
0.775532
31
0
0
LINE
8
pcvia1
10
27.957403
20
0.775532
30
0
11
27.938823
21
0.781839
31
0
0
LINE
8
pcvia1
10
27.938823
20
0.781839
30
0
11
27.919579
21
0.785667
31
0
0
LINE
8
pcvia1
10
27.919579
20
0.785667
30
0
11
27.9
21
0.78695
31
0
0
LINE
8
pcvia1
10
27.9
20
0.78695
30
0
11
27.880421
21
0.785667
31
0
0
LINE
8
pcvia1
10
27.880421
20
0.785667
30
0
11
27.861177
21
0.781839
31
0
0
LINE
8
pcvia1
10
27.861177
20
0.781839
30
0
11
27.842597
21
0.775532
31
0
0
LINE
8
pcvia1
10
27.842597
20
0.775532
30
0
11
27.825
21
0.766854
31
0
0
LINE
8
pcvia1
10
27.825
20
0.766854
30
0
11
27.808686
21
0.755953
31
0
0
LINE
8
pcvia1
10
27.808686
20
0.755953
30
0
11
27.793934
21
0.743016
31
0
0
LINE
8
pcvia1
10
27.793934
20
0.743016
30
0
11
27.780997
21
0.728264
31
0
0
LINE
8
pcvia1
10
27.780997
20
0.728264
30
0
11
27.770096
21
0.71195
31
0
0
LINE
8
pcvia1
10
27.770096
20
0.71195
30
0
11
27.761418
21
0.694353
31
0
0
LINE
8
pcvia1
10
27.761418
20
0.694353
30
0
11
27.755111
21
0.675773
31
0
0
LINE
8
pcvia1
10
27.755111
20
0.675773
30
0
11
27.751283
21
0.656529
31
0
0
LINE
8
pcvia1
10
27.751283
20
0.656529
30
0
11
27.75
21
0.63695
31
0
0
LINE
8
pcvia1
10
27.75
20
0.63695
30
0
11
27.751283
21
0.617371
31
0
0
LINE
8
pcvia1
10
27.751283
20
0.617371
30
0
11
27.755111
21
0.598127
31
0
0
LINE
8
pcvia1
10
27.755111
20
0.598127
30
0
11
27.761418
21
0.579547
31
0
0
LINE
8
pcvia1
10
27.761418
20
0.579547
30
0
11
27.770096
21
0.56195
31
0
0
LINE
8
pcvia1
10
27.770096
20
0.56195
30
0
11
27.780997
21
0.545636
31
0
0
LINE
8
pcvia1
10
27.780997
20
0.545636
30
0
11
27.793934
21
0.530884
31
0
0
LINE
8
pcvia1
10
27.793934
20
0.530884
30
0
11
27.808686
21
0.517947
31
0
0
LINE
8
pcvia1
10
27.808686
20
0.517947
30
0
11
27.825
21
0.507046
31
0
0
LINE
8
pcvia1
10
27.825
20
0.507046
30
0
11
27.842597
21
0.498368
31
0
0
LINE
8
pcvia1
10
27.842597
20
0.498368
30
0
11
27.861177
21
0.492061
31
0
0
LINE
8
pcvia1
10
27.861177
20
0.492061
30
0
11
27.880421
21
0.488233
31
0
0
LINE
8
pcvia1
10
27.880421
20
0.488233
30
0
11
27.9
21
0.48695
31
0
0
LINE
8
pcvia1
10
27.9
20
0.48695
30
0
11
27.919579
21
0.488233
31
0
0
LINE
8
pcvia1
10
27.919579
20
0.488233
30
0
11
27.938823
21
0.492061
31
0
0
LINE
8
pcvia1
10
27.938823
20
0.492061
30
0
11
27.957403
21
0.498368
31
0
0
LINE
8
pcvia1
10
27.957403
20
0.498368
30
0
11
27.975
21
0.507046
31
0
0
LINE
8
pcvia1
10
27.975
20
0.507046
30
0
11
27.991314
21
0.517947
31
0
0
LINE
8
pcvia1
10
27.991314
20
0.517947
30
0
11
28.006066
21
0.530884
31
0
0
LINE
8
pcvia1
10
28.006066
20
0.530884
30
0
11
28.019003
21
0.545636
31
0
0
LINE
8
pcvia1
10
28.019003
20
0.545636
30
0
11
28.029904
21
0.56195
31
0
0
LINE
8
pcvia1
10
28.029904
20
0.56195
30
0
11
28.038582
21
0.579547
31
0
0
LINE
8
pcvia1
10
28.038582
20
0.579547
30
0
11
28.044889
21
0.598127
31
0
0
LINE
8
pcvia1
10
28.044889
20
0.598127
30
0
11
28.048717
21
0.617371
31
0
0
LINE
8
pcvia1
10
28.048717
20
0.617371
30
0
11
28.05
21
0.63695
31
0
0
LINE
8
cond
10
28.175
20
0.63695
30
0
11
28.172647
21
0.672845
31
0
0
LINE
8
cond
10
28.172647
20
0.672845
30
0
11
28.16563
21
0.708125
31
0
0
LINE
8
cond
10
28.16563
20
0.708125
30
0
11
28.154067
21
0.742188
31
0
0
LINE
8
cond
10
28.154067
20
0.742188
30
0
11
28.138157
21
0.77445
31
0
0
LINE
8
cond
10
28.138157
20
0.77445
30
0
11
28.118172
21
0.804359
31
0
0
LINE
8
cond
10
28.118172
20
0.804359
30
0
11
28.094454
21
0.831404
31
0
0
LINE
8
cond
10
28.094454
20
0.831404
30
0
11
28.067409
21
0.855122
31
0
0
LINE
8
cond
10
28.067409
20
0.855122
30
0
11
28.0375
21
0.875107
31
0
0
LINE
8
cond
10
28.0375
20
0.875107
30
0
11
28.005238
21
0.891017
31
0
0
LINE
8
cond
10
28.005238
20
0.891017
30
0
11
27.971175
21
0.90258
31
0
0
LINE
8
cond
10
27.971175
20
0.90258
30
0
11
27.935895
21
0.909597
31
0
0
LINE
8
cond
10
27.935895
20
0.909597
30
0
11
27.9
21
0.91195
31
0
0
LINE
8
cond
10
27.9
20
0.91195
30
0
11
27.864105
21
0.909597
31
0
0
LINE
8
cond
10
27.864105
20
0.909597
30
0
11
27.828825
21
0.90258
31
0
0
LINE
8
cond
10
27.828825
20
0.90258
30
0
11
27.794762
21
0.891017
31
0
0
LINE
8
cond
10
27.794762
20
0.891017
30
0
11
27.7625
21
0.875107
31
0
0
LINE
8
cond
10
27.7625
20
0.875107
30
0
11
27.732591
21
0.855122
31
0
0
LINE
8
cond
10
27.732591
20
0.855122
30
0
11
27.705546
21
0.831404
31
0
0
LINE
8
cond
10
27.705546
20
0.831404
30
0
11
27.681828
21
0.804359
31
0
0
LINE
8
cond
10
27.681828
20
0.804359
30
0
11
27.661843
21
0.77445
31
0
0
LINE
8
cond
10
27.661843
20
0.77445
30
0
11
27.645933
21
0.742188
31
0
0
LINE
8
cond
10
27.645933
20
0.742188
30
0
11
27.63437
21
0.708125
31
0
0
LINE
8
cond
10
27.63437
20
0.708125
30
0
11
27.627353
21
0.672845
31
0
0
LINE
8
cond
10
27.627353
20
0.672845
30
0
11
27.625
21
0.63695
31
0
0
LINE
8
cond
10
27.625
20
0.63695
30
0
11
27.627353
21
0.601055
31
0
0
LINE
8
cond
10
27.627353
20
0.601055
30
0
11
27.63437
21
0.565775
31
0
0
LINE
8
cond
10
27.63437
20
0.565775
30
0
11
27.645933
21
0.531712
31
0
0
LINE
8
cond
10
27.645933
20
0.531712
30
0
11
27.661843
21
0.49945
31
0
0
LINE
8
cond
10
27.661843
20
0.49945
30
0
11
27.681828
21
0.469541
31
0
0
LINE
8
cond
10
27.681828
20
0.469541
30
0
11
27.705546
21
0.442496
31
0
0
LINE
8
cond
10
27.705546
20
0.442496
30
0
11
27.732591
21
0.418778
31
0
0
LINE
8
cond
10
27.732591
20
0.418778
30
0
11
27.7625
21
0.398793
31
0
0
LINE
8
cond
10
27.7625
20
0.398793
30
0
11
27.794762
21
0.382883
31
0
0
LINE
8
cond
10
27.794762
20
0.382883
30
0
11
27.828825
21
0.37132
31
0
0
LINE
8
cond
10
27.828825
20
0.37132
30
0
11
27.864105
21
0.364303
31
0
0
LINE
8
cond
10
27.864105
20
0.364303
30
0
11
27.9
21
0.36195
31
0
0
LINE
8
cond
10
27.9
20
0.36195
30
0
11
27.935895
21
0.364303
31
0
0
LINE
8
cond
10
27.935895
20
0.364303
30
0
11
27.971175
21
0.37132
31
0
0
LINE
8
cond
10
27.971175
20
0.37132
30
0
11
28.005238
21
0.382883
31
0
0
LINE
8
cond
10
28.005238
20
0.382883
30
0
11
28.0375
21
0.398793
31
0
0
LINE
8
cond
10
28.0375
20
0.398793
30
0
11
28.067409
21
0.418778
31
0
0
LINE
8
cond
10
28.067409
20
0.418778
30
0
11
28.094454
21
0.442496
31
0
0
LINE
8
cond
10
28.094454
20
0.442496
30
0
11
28.118172
21
0.469541
31
0
0
LINE
8
cond
10
28.118172
20
0.469541
30
0
11
28.138157
21
0.49945
31
0
0
LINE
8
cond
10
28.138157
20
0.49945
30
0
11
28.154067
21
0.531712
31
0
0
LINE
8
cond
10
28.154067
20
0.531712
30
0
11
28.16563
21
0.565775
31
0
0
LINE
8
cond
10
28.16563
20
0.565775
30
0
11
28.172647
21
0.601055
31
0
0
LINE
8
cond
10
28.172647
20
0.601055
30
0
11
28.175
21
0.63695
31
0
0
LINE
8
pcvia1
10
8.05
20
-0.63695
30
0
11
8.048717
21
-0.617371
31
0
0
LINE
8
pcvia1
10
8.048717
20
-0.617371
30
0
11
8.044889
21
-0.598127
31
0
0
LINE
8
pcvia1
10
8.044889
20
-0.598127
30
0
11
8.038582
21
-0.579547
31
0
0
LINE
8
pcvia1
10
8.038582
20
-0.579547
30
0
11
8.029904
21
-0.56195
31
0
0
LINE
8
pcvia1
10
8.029904
20
-0.56195
30
0
11
8.019003
21
-0.545636
31
0
0
LINE
8
pcvia1
10
8.019003
20
-0.545636
30
0
11
8.006066
21
-0.530884
31
0
0
LINE
8
pcvia1
10
8.006066
20
-0.530884
30
0
11
7.991314
21
-0.517947
31
0
0
LINE
8
pcvia1
10
7.991314
20
-0.517947
30
0
11
7.975
21
-0.507046
31
0
0
LINE
8
pcvia1
10
7.975
20
-0.507046
30
0
11
7.957403
21
-0.498368
31
0
0
LINE
8
pcvia1
10
7.957403
20
-0.498368
30
0
11
7.938823
21
-0.492061
31
0
0
LINE
8
pcvia1
10
7.938823
20
-0.492061
30
0
11
7.919579
21
-0.488233
31
0
0
LINE
8
pcvia1
10
7.919579
20
-0.488233
30
0
11
7.9
21
-0.48695
31
0
0
LINE
8
pcvia1
10
7.9
20
-0.48695
30
0
11
7.880421
21
-0.488233
31
0
0
LINE
8
pcvia1
10
7.880421
20
-0.488233
30
0
11
7.861177
21
-0.492061
31
0
0
LINE
8
pcvia1
10
7.861177
20
-0.492061
30
0
11
7.842597
21
-0.498368
31
0
0
LINE
8
pcvia1
10
7.842597
20
-0.498368
30
0
11
7.825
21
-0.507046
31
0
0
LINE
8
pcvia1
10
7.825
20
-0.507046
30
0
11
7.808686
21
-0.517947
31
0
0
LINE
8
pcvia1
10
7.808686
20
-0.517947
30
0
11
7.793934
21
-0.530884
31
0
0
LINE
8
pcvia1
10
7.793934
20
-0.530884
30
0
11
7.780997
21
-0.545636
31
0
0
LINE
8
pcvia1
10
7.780997
20
-0.545636
30
0
11
7.770096
21
-0.56195
31
0
0
LINE
8
pcvia1
10
7.770096
20
-0.56195
30
0
11
7.761418
21
-0.579547
31
0
0
LINE
8
pcvia1
10
7.761418
20
-0.579547
30
0
11
7.755111
21
-0.598127
31
0
0
LINE
8
pcvia1
10
7.755111
20
-0.598127
30
0
11
7.751283
21
-0.617371
31
0
0
LINE
8
pcvia1
10
7.751283
20
-0.617371
30
0
11
7.75
21
-0.63695
31
0
0
LINE
8
pcvia1
10
7.75
20
-0.63695
30
0
11
7.751283
21
-0.656529
31
0
0
LINE
8
pcvia1
10
7.751283
20
-0.656529
30
0
11
7.755111
21
-0.675773
31
0
0
LINE
8
pcvia1
10
7.755111
20
-0.675773
30
0
11
7.761418
21
-0.694353
31
0
0
LINE
8
pcvia1
10
7.761418
20
-0.694353
30
0
11
7.770096
21
-0.71195
31
0
0
LINE
8
pcvia1
10
7.770096
20
-0.71195
30
0
11
7.780997
21
-0.728264
31
0
0
LINE
8
pcvia1
10
7.780997
20
-0.728264
30
0
11
7.793934
21
-0.743016
31
0
0
LINE
8
pcvia1
10
7.793934
20
-0.743016
30
0
11
7.808686
21
-0.755953
31
0
0
LINE
8
pcvia1
10
7.808686
20
-0.755953
30
0
11
7.825
21
-0.766854
31
0
0
LINE
8
pcvia1
10
7.825
20
-0.766854
30
0
11
7.842597
21
-0.775532
31
0
0
LINE
8
pcvia1
10
7.842597
20
-0.775532
30
0
11
7.861177
21
-0.781839
31
0
0
LINE
8
pcvia1
10
7.861177
20
-0.781839
30
0
11
7.880421
21
-0.785667
31
0
0
LINE
8
pcvia1
10
7.880421
20
-0.785667
30
0
11
7.9
21
-0.78695
31
0
0
LINE
8
pcvia1
10
7.9
20
-0.78695
30
0
11
7.919579
21
-0.785667
31
0
0
LINE
8
pcvia1
10
7.919579
20
-0.785667
30
0
11
7.938823
21
-0.781839
31
0
0
LINE
8
pcvia1
10
7.938823
20
-0.781839
30
0
11
7.957403
21
-0.775532
31
0
0
LINE
8
pcvia1
10
7.957403
20
-0.775532
30
0
11
7.975
21
-0.766854
31
0
0
LINE
8
pcvia1
10
7.975
20
-0.766854
30
0
11
7.991314
21
-0.755953
31
0
0
LINE
8
pcvia1
10
7.991314
20
-0.755953
30
0
11
8.006066
21
-0.743016
31
0
0
LINE
8
pcvia1
10
8.006066
20
-0.743016
30
0
11
8.019003
21
-0.728264
31
0
0
LINE
8
pcvia1
10
8.019003
20
-0.728264
30
0
11
8.029904
21
-0.71195
31
0
0
LINE
8
pcvia1
10
8.029904
20
-0.71195
30
0
11
8.038582
21
-0.694353
31
0
0
LINE
8
pcvia1
10
8.038582
20
-0.694353
30
0
11
8.044889
21
-0.675773
31
0
0
LINE
8
pcvia1
10
8.044889
20
-0.675773
30
0
11
8.048717
21
-0.656529
31
0
0
LINE
8
pcvia1
10
8.048717
20
-0.656529
30
0
11
8.05
21
-0.63695
31
0
0
LINE
8
cond
10
8.175
20
-0.63695
30
0
11
8.172647
21
-0.601055
31
0
0
LINE
8
cond
10
8.172647
20
-0.601055
30
0
11
8.16563
21
-0.565775
31
0
0
LINE
8
cond
10
8.16563
20
-0.565775
30
0
11
8.154067
21
-0.531712
31
0
0
LINE
8
cond
10
8.154067
20
-0.531712
30
0
11
8.138157
21
-0.49945
31
0
0
LINE
8
cond
10
8.138157
20
-0.49945
30
0
11
8.118172
21
-0.469541
31
0
0
LINE
8
cond
10
8.118172
20
-0.469541
30
0
11
8.094454
21
-0.442496
31
0
0
LINE
8
cond
10
8.094454
20
-0.442496
30
0
11
8.067409
21
-0.418778
31
0
0
LINE
8
cond
10
8.067409
20
-0.418778
30
0
11
8.0375
21
-0.398793
31
0
0
LINE
8
cond
10
8.0375
20
-0.398793
30
0
11
8.005238
21
-0.382883
31
0
0
LINE
8
cond
10
8.005238
20
-0.382883
30
0
11
7.971175
21
-0.37132
31
0
0
LINE
8
cond
10
7.971175
20
-0.37132
30
0
11
7.935895
21
-0.364303
31
0
0
LINE
8
cond
10
7.935895
20
-0.364303
30
0
11
7.9
21
-0.36195
31
0
0
LINE
8
cond
10
7.9
20
-0.36195
30
0
11
7.864105
21
-0.364303
31
0
0
LINE
8
cond
10
7.864105
20
-0.364303
30
0
11
7.828825
21
-0.37132
31
0
0
LINE
8
cond
10
7.828825
20
-0.37132
30
0
11
7.794762
21
-0.382883
31
0
0
LINE
8
cond
10
7.794762
20
-0.382883
30
0
11
7.7625
21
-0.398793
31
0
0
LINE
8
cond
10
7.7625
20
-0.398793
30
0
11
7.732591
21
-0.418778
31
0
0
LINE
8
cond
10
7.732591
20
-0.418778
30
0
11
7.705546
21
-0.442496
31
0
0
LINE
8
cond
10
7.705546
20
-0.442496
30
0
11
7.681828
21
-0.469541
31
0
0
LINE
8
cond
10
7.681828
20
-0.469541
30
0
11
7.661843
21
-0.49945
31
0
0
LINE
8
cond
10
7.661843
20
-0.49945
30
0
11
7.645933
21
-0.531712
31
0
0
LINE
8
cond
10
7.645933
20
-0.531712
30
0
11
7.63437
21
-0.565775
31
0
0
LINE
8
cond
10
7.63437
20
-0.565775
30
0
11
7.627353
21
-0.601055
31
0
0
LINE
8
cond
10
7.627353
20
-0.601055
30
0
11
7.625
21
-0.63695
31
0
0
LINE
8
cond
10
7.625
20
-0.63695
30
0
11
7.627353
21
-0.672845
31
0
0
LINE
8
cond
10
7.627353
20
-0.672845
30
0
11
7.63437
21
-0.708125
31
0
0
LINE
8
cond
10
7.63437
20
-0.708125
30
0
11
7.645933
21
-0.742188
31
0
0
LINE
8
cond
10
7.645933
20
-0.742188
30
0
11
7.661843
21
-0.77445
31
0
0
LINE
8
cond
10
7.661843
20
-0.77445
30
0
11
7.681828
21
-0.804359
31
0
0
LINE
8
cond
10
7.681828
20
-0.804359
30
0
11
7.705546
21
-0.831404
31
0
0
LINE
8
cond
10
7.705546
20
-0.831404
30
0
11
7.732591
21
-0.855122
31
0
0
LINE
8
cond
10
7.732591
20
-0.855122
30
0
11
7.7625
21
-0.875107
31
0
0
LINE
8
cond
10
7.7625
20
-0.875107
30
0
11
7.794762
21
-0.891017
31
0
0
LINE
8
cond
10
7.794762
20
-0.891017
30
0
11
7.828825
21
-0.90258
31
0
0
LINE
8
cond
10
7.828825
20
-0.90258
30
0
11
7.864105
21
-0.909597
31
0
0
LINE
8
cond
10
7.864105
20
-0.909597
30
0
11
7.9
21
-0.91195
31
0
0
LINE
8
cond
10
7.9
20
-0.91195
30
0
11
7.935895
21
-0.909597
31
0
0
LINE
8
cond
10
7.935895
20
-0.909597
30
0
11
7.971175
21
-0.90258
31
0
0
LINE
8
cond
10
7.971175
20
-0.90258
30
0
11
8.005238
21
-0.891017
31
0
0
LINE
8
cond
10
8.005238
20
-0.891017
30
0
11
8.0375
21
-0.875107
31
0
0
LINE
8
cond
10
8.0375
20
-0.875107
30
0
11
8.067409
21
-0.855122
31
0
0
LINE
8
cond
10
8.067409
20
-0.855122
30
0
11
8.094454
21
-0.831404
31
0
0
LINE
8
cond
10
8.094454
20
-0.831404
30
0
11
8.118172
21
-0.804359
31
0
0
LINE
8
cond
10
8.118172
20
-0.804359
30
0
11
8.138157
21
-0.77445
31
0
0
LINE
8
cond
10
8.138157
20
-0.77445
30
0
11
8.154067
21
-0.742188
31
0
0
LINE
8
cond
10
8.154067
20
-0.742188
30
0
11
8.16563
21
-0.708125
31
0
0
LINE
8
cond
10
8.16563
20
-0.708125
30
0
11
8.172647
21
-0.672845
31
0
0
LINE
8
cond
10
8.172647
20
-0.672845
30
0
11
8.175
21
-0.63695
31
0
0
LINE
8
pcvia1
10
10.05
20
-0.63695
30
0
11
10.048717
21
-0.617371
31
0
0
LINE
8
pcvia1
10
10.048717
20
-0.617371
30
0
11
10.044889
21
-0.598127
31
0
0
LINE
8
pcvia1
10
10.044889
20
-0.598127
30
0
11
10.038582
21
-0.579547
31
0
0
LINE
8
pcvia1
10
10.038582
20
-0.579547
30
0
11
10.029904
21
-0.56195
31
0
0
LINE
8
pcvia1
10
10.029904
20
-0.56195
30
0
11
10.019003
21
-0.545636
31
0
0
LINE
8
pcvia1
10
10.019003
20
-0.545636
30
0
11
10.006066
21
-0.530884
31
0
0
LINE
8
pcvia1
10
10.006066
20
-0.530884
30
0
11
9.991314
21
-0.517947
31
0
0
LINE
8
pcvia1
10
9.991314
20
-0.517947
30
0
11
9.975
21
-0.507046
31
0
0
LINE
8
pcvia1
10
9.975
20
-0.507046
30
0
11
9.957403
21
-0.498368
31
0
0
LINE
8
pcvia1
10
9.957403
20
-0.498368
30
0
11
9.938823
21
-0.492061
31
0
0
LINE
8
pcvia1
10
9.938823
20
-0.492061
30
0
11
9.919579
21
-0.488233
31
0
0
LINE
8
pcvia1
10
9.919579
20
-0.488233
30
0
11
9.9
21
-0.48695
31
0
0
LINE
8
pcvia1
10
9.9
20
-0.48695
30
0
11
9.880421
21
-0.488233
31
0
0
LINE
8
pcvia1
10
9.880421
20
-0.488233
30
0
11
9.861177
21
-0.492061
31
0
0
LINE
8
pcvia1
10
9.861177
20
-0.492061
30
0
11
9.842597
21
-0.498368
31
0
0
LINE
8
pcvia1
10
9.842597
20
-0.498368
30
0
11
9.825
21
-0.507046
31
0
0
LINE
8
pcvia1
10
9.825
20
-0.507046
30
0
11
9.808686
21
-0.517947
31
0
0
LINE
8
pcvia1
10
9.808686
20
-0.517947
30
0
11
9.793934
21
-0.530884
31
0
0
LINE
8
pcvia1
10
9.793934
20
-0.530884
30
0
11
9.780997
21
-0.545636
31
0
0
LINE
8
pcvia1
10
9.780997
20
-0.545636
30
0
11
9.770096
21
-0.56195
31
0
0
LINE
8
pcvia1
10
9.770096
20
-0.56195
30
0
11
9.761418
21
-0.579547
31
0
0
LINE
8
pcvia1
10
9.761418
20
-0.579547
30
0
11
9.755111
21
-0.598127
31
0
0
LINE
8
pcvia1
10
9.755111
20
-0.598127
30
0
11
9.751283
21
-0.617371
31
0
0
LINE
8
pcvia1
10
9.751283
20
-0.617371
30
0
11
9.75
21
-0.63695
31
0
0
LINE
8
pcvia1
10
9.75
20
-0.63695
30
0
11
9.751283
21
-0.656529
31
0
0
LINE
8
pcvia1
10
9.751283
20
-0.656529
30
0
11
9.755111
21
-0.675773
31
0
0
LINE
8
pcvia1
10
9.755111
20
-0.675773
30
0
11
9.761418
21
-0.694353
31
0
0
LINE
8
pcvia1
10
9.761418
20
-0.694353
30
0
11
9.770096
21
-0.71195
31
0
0
LINE
8
pcvia1
10
9.770096
20
-0.71195
30
0
11
9.780997
21
-0.728264
31
0
0
LINE
8
pcvia1
10
9.780997
20
-0.728264
30
0
11
9.793934
21
-0.743016
31
0
0
LINE
8
pcvia1
10
9.793934
20
-0.743016
30
0
11
9.808686
21
-0.755953
31
0
0
LINE
8
pcvia1
10
9.808686
20
-0.755953
30
0
11
9.825
21
-0.766854
31
0
0
LINE
8
pcvia1
10
9.825
20
-0.766854
30
0
11
9.842597
21
-0.775532
31
0
0
LINE
8
pcvia1
10
9.842597
20
-0.775532
30
0
11
9.861177
21
-0.781839
31
0
0
LINE
8
pcvia1
10
9.861177
20
-0.781839
30
0
11
9.880421
21
-0.785667
31
0
0
LINE
8
pcvia1
10
9.880421
20
-0.785667
30
0
11
9.9
21
-0.78695
31
0
0
LINE
8
pcvia1
10
9.9
20
-0.78695
30
0
11
9.919579
21
-0.785667
31
0
0
LINE
8
pcvia1
10
9.919579
20
-0.785667
30
0
11
9.938823
21
-0.781839
31
0
0
LINE
8
pcvia1
10
9.938823
20
-0.781839
30
0
11
9.957403
21
-0.775532
31
0
0
LINE
8
pcvia1
10
9.957403
20
-0.775532
30
0
11
9.975
21
-0.766854
31
0
0
LINE
8
pcvia1
10
9.975
20
-0.766854
30
0
11
9.991314
21
-0.755953
31
0
0
LINE
8
pcvia1
10
9.991314
20
-0.755953
30
0
11
10.006066
21
-0.743016
31
0
0
LINE
8
pcvia1
10
10.006066
20
-0.743016
30
0
11
10.019003
21
-0.728264
31
0
0
LINE
8
pcvia1
10
10.019003
20
-0.728264
30
0
11
10.029904
21
-0.71195
31
0
0
LINE
8
pcvia1
10
10.029904
20
-0.71195
30
0
11
10.038582
21
-0.694353
31
0
0
LINE
8
pcvia1
10
10.038582
20
-0.694353
30
0
11
10.044889
21
-0.675773
31
0
0
LINE
8
pcvia1
10
10.044889
20
-0.675773
30
0
11
10.048717
21
-0.656529
31
0
0
LINE
8
pcvia1
10
10.048717
20
-0.656529
30
0
11
10.05
21
-0.63695
31
0
0
LINE
8
cond
10
10.175
20
-0.63695
30
0
11
10.172647
21
-0.601055
31
0
0
LINE
8
cond
10
10.172647
20
-0.601055
30
0
11
10.16563
21
-0.565775
31
0
0
LINE
8
cond
10
10.16563
20
-0.565775
30
0
11
10.154067
21
-0.531712
31
0
0
LINE
8
cond
10
10.154067
20
-0.531712
30
0
11
10.138157
21
-0.49945
31
0
0
LINE
8
cond
10
10.138157
20
-0.49945
30
0
11
10.118172
21
-0.469541
31
0
0
LINE
8
cond
10
10.118172
20
-0.469541
30
0
11
10.094454
21
-0.442496
31
0
0
LINE
8
cond
10
10.094454
20
-0.442496
30
0
11
10.067409
21
-0.418778
31
0
0
LINE
8
cond
10
10.067409
20
-0.418778
30
0
11
10.0375
21
-0.398793
31
0
0
LINE
8
cond
10
10.0375
20
-0.398793
30
0
11
10.005238
21
-0.382883
31
0
0
LINE
8
cond
10
10.005238
20
-0.382883
30
0
11
9.971175
21
-0.37132
31
0
0
LINE
8
cond
10
9.971175
20
-0.37132
30
0
11
9.935895
21
-0.364303
31
0
0
LINE
8
cond
10
9.935895
20
-0.364303
30
0
11
9.9
21
-0.36195
31
0
0
LINE
8
cond
10
9.9
20
-0.36195
30
0
11
9.864105
21
-0.364303
31
0
0
LINE
8
cond
10
9.864105
20
-0.364303
30
0
11
9.828825
21
-0.37132
31
0
0
LINE
8
cond
10
9.828825
20
-0.37132
30
0
11
9.794762
21
-0.382883
31
0
0
LINE
8
cond
10
9.794762
20
-0.382883
30
0
11
9.7625
21
-0.398793
31
0
0
LINE
8
cond
10
9.7625
20
-0.398793
30
0
11
9.732591
21
-0.418778
31
0
0
LINE
8
cond
10
9.732591
20
-0.418778
30
0
11
9.705546
21
-0.442496
31
0
0
LINE
8
cond
10
9.705546
20
-0.442496
30
0
11
9.681828
21
-0.469541
31
0
0
LINE
8
cond
10
9.681828
20
-0.469541
30
0
11
9.661843
21
-0.49945
31
0
0
LINE
8
cond
10
9.661843
20
-0.49945
30
0
11
9.645933
21
-0.531712
31
0
0
LINE
8
cond
10
9.645933
20
-0.531712
30
0
11
9.63437
21
-0.565775
31
0
0
LINE
8
cond
10
9.63437
20
-0.565775
30
0
11
9.627353
21
-0.601055
31
0
0
LINE
8
cond
10
9.627353
20
-0.601055
30
0
11
9.625
21
-0.63695
31
0
0
LINE
8
cond
10
9.625
20
-0.63695
30
0
11
9.627353
21
-0.672845
31
0
0
LINE
8
cond
10
9.627353
20
-0.672845
30
0
11
9.63437
21
-0.708125
31
0
0
LINE
8
cond
10
9.63437
20
-0.708125
30
0
11
9.645933
21
-0.742188
31
0
0
LINE
8
cond
10
9.645933
20
-0.742188
30
0
11
9.661843
21
-0.77445
31
0
0
LINE
8
cond
10
9.661843
20
-0.77445
30
0
11
9.681828
21
-0.804359
31
0
0
LINE
8
cond
10
9.681828
20
-0.804359
30
0
11
9.705546
21
-0.831404
31
0
0
LINE
8
cond
10
9.705546
20
-0.831404
30
0
11
9.732591
21
-0.855122
31
0
0
LINE
8
cond
10
9.732591
20
-0.855122
30
0
11
9.7625
21
-0.875107
31
0
0
LINE
8
cond
10
9.7625
20
-0.875107
30
0
11
9.794762
21
-0.891017
31
0
0
LINE
8
cond
10
9.794762
20
-0.891017
30
0
11
9.828825
21
-0.90258
31
0
0
LINE
8
cond
10
9.828825
20
-0.90258
30
0
11
9.864105
21
-0.909597
31
0
0
LINE
8
cond
10
9.864105
20
-0.909597
30
0
11
9.9
21
-0.91195
31
0
0
LINE
8
cond
10
9.9
20
-0.91195
30
0
11
9.935895
21
-0.909597
31
0
0
LINE
8
cond
10
9.935895
20
-0.909597
30
0
11
9.971175
21
-0.90258
31
0
0
LINE
8
cond
10
9.971175
20
-0.90258
30
0
11
10.005238
21
-0.891017
31
0
0
LINE
8
cond
10
10.005238
20
-0.891017
30
0
11
10.0375
21
-0.875107
31
0
0
LINE
8
cond
10
10.0375
20
-0.875107
30
0
11
10.067409
21
-0.855122
31
0
0
LINE
8
cond
10
10.067409
20
-0.855122
30
0
11
10.094454
21
-0.831404
31
0
0
LINE
8
cond
10
10.094454
20
-0.831404
30
0
11
10.118172
21
-0.804359
31
0
0
LINE
8
cond
10
10.118172
20
-0.804359
30
0
11
10.138157
21
-0.77445
31
0
0
LINE
8
cond
10
10.138157
20
-0.77445
30
0
11
10.154067
21
-0.742188
31
0
0
LINE
8
cond
10
10.154067
20
-0.742188
30
0
11
10.16563
21
-0.708125
31
0
0
LINE
8
cond
10
10.16563
20
-0.708125
30
0
11
10.172647
21
-0.672845
31
0
0
LINE
8
cond
10
10.172647
20
-0.672845
30
0
11
10.175
21
-0.63695
31
0
0
LINE
8
pcvia1
10
12.05
20
-0.63695
30
0
11
12.048717
21
-0.617371
31
0
0
LINE
8
pcvia1
10
12.048717
20
-0.617371
30
0
11
12.044889
21
-0.598127
31
0
0
LINE
8
pcvia1
10
12.044889
20
-0.598127
30
0
11
12.038582
21
-0.579547
31
0
0
LINE
8
pcvia1
10
12.038582
20
-0.579547
30
0
11
12.029904
21
-0.56195
31
0
0
LINE
8
pcvia1
10
12.029904
20
-0.56195
30
0
11
12.019003
21
-0.545636
31
0
0
LINE
8
pcvia1
10
12.019003
20
-0.545636
30
0
11
12.006066
21
-0.530884
31
0
0
LINE
8
pcvia1
10
12.006066
20
-0.530884
30
0
11
11.991314
21
-0.517947
31
0
0
LINE
8
pcvia1
10
11.991314
20
-0.517947
30
0
11
11.975
21
-0.507046
31
0
0
LINE
8
pcvia1
10
11.975
20
-0.507046
30
0
11
11.957403
21
-0.498368
31
0
0
LINE
8
pcvia1
10
11.957403
20
-0.498368
30
0
11
11.938823
21
-0.492061
31
0
0
LINE
8
pcvia1
10
11.938823
20
-0.492061
30
0
11
11.919579
21
-0.488233
31
0
0
LINE
8
pcvia1
10
11.919579
20
-0.488233
30
0
11
11.9
21
-0.48695
31
0
0
LINE
8
pcvia1
10
11.9
20
-0.48695
30
0
11
11.880421
21
-0.488233
31
0
0
LINE
8
pcvia1
10
11.880421
20
-0.488233
30
0
11
11.861177
21
-0.492061
31
0
0
LINE
8
pcvia1
10
11.861177
20
-0.492061
30
0
11
11.842597
21
-0.498368
31
0
0
LINE
8
pcvia1
10
11.842597
20
-0.498368
30
0
11
11.825
21
-0.507046
31
0
0
LINE
8
pcvia1
10
11.825
20
-0.507046
30
0
11
11.808686
21
-0.517947
31
0
0
LINE
8
pcvia1
10
11.808686
20
-0.517947
30
0
11
11.793934
21
-0.530884
31
0
0
LINE
8
pcvia1
10
11.793934
20
-0.530884
30
0
11
11.780997
21
-0.545636
31
0
0
LINE
8
pcvia1
10
11.780997
20
-0.545636
30
0
11
11.770096
21
-0.56195
31
0
0
LINE
8
pcvia1
10
11.770096
20
-0.56195
30
0
11
11.761418
21
-0.579547
31
0
0
LINE
8
pcvia1
10
11.761418
20
-0.579547
30
0
11
11.755111
21
-0.598127
31
0
0
LINE
8
pcvia1
10
11.755111
20
-0.598127
30
0
11
11.751283
21
-0.617371
31
0
0
LINE
8
pcvia1
10
11.751283
20
-0.617371
30
0
11
11.75
21
-0.63695
31
0
0
LINE
8
pcvia1
10
11.75
20
-0.63695
30
0
11
11.751283
21
-0.656529
31
0
0
LINE
8
pcvia1
10
11.751283
20
-0.656529
30
0
11
11.755111
21
-0.675773
31
0
0
LINE
8
pcvia1
10
11.755111
20
-0.675773
30
0
11
11.761418
21
-0.694353
31
0
0
LINE
8
pcvia1
10
11.761418
20
-0.694353
30
0
11
11.770096
21
-0.71195
31
0
0
LINE
8
pcvia1
10
11.770096
20
-0.71195
30
0
11
11.780997
21
-0.728264
31
0
0
LINE
8
pcvia1
10
11.780997
20
-0.728264
30
0
11
11.793934
21
-0.743016
31
0
0
LINE
8
pcvia1
10
11.793934
20
-0.743016
30
0
11
11.808686
21
-0.755953
31
0
0
LINE
8
pcvia1
10
11.808686
20
-0.755953
30
0
11
11.825
21
-0.766854
31
0
0
LINE
8
pcvia1
10
11.825
20
-0.766854
30
0
11
11.842597
21
-0.775532
31
0
0
LINE
8
pcvia1
10
11.842597
20
-0.775532
30
0
11
11.861177
21
-0.781839
31
0
0
LINE
8
pcvia1
10
11.861177
20
-0.781839
30
0
11
11.880421
21
-0.785667
31
0
0
LINE
8
pcvia1
10
11.880421
20
-0.785667
30
0
11
11.9
21
-0.78695
31
0
0
LINE
8
pcvia1
10
11.9
20
-0.78695
30
0
11
11.919579
21
-0.785667
31
0
0
LINE
8
pcvia1
10
11.919579
20
-0.785667
30
0
11
11.938823
21
-0.781839
31
0
0
LINE
8
pcvia1
10
11.938823
20
-0.781839
30
0
11
11.957403
21
-0.775532
31
0
0
LINE
8
pcvia1
10
11.957403
20
-0.775532
30
0
11
11.975
21
-0.766854
31
0
0
LINE
8
pcvia1
10
11.975
20
-0.766854
30
0
11
11.991314
21
-0.755953
31
0
0
LINE
8
pcvia1
10
11.991314
20
-0.755953
30
0
11
12.006066
21
-0.743016
31
0
0
LINE
8
pcvia1
10
12.006066
20
-0.743016
30
0
11
12.019003
21
-0.728264
31
0
0
LINE
8
pcvia1
10
12.019003
20
-0.728264
30
0
11
12.029904
21
-0.71195
31
0
0
LINE
8
pcvia1
10
12.029904
20
-0.71195
30
0
11
12.038582
21
-0.694353
31
0
0
LINE
8
pcvia1
10
12.038582
20
-0.694353
30
0
11
12.044889
21
-0.675773
31
0
0
LINE
8
pcvia1
10
12.044889
20
-0.675773
30
0
11
12.048717
21
-0.656529
31
0
0
LINE
8
pcvia1
10
12.048717
20
-0.656529
30
0
11
12.05
21
-0.63695
31
0
0
LINE
8
cond
10
12.175
20
-0.63695
30
0
11
12.172647
21
-0.601055
31
0
0
LINE
8
cond
10
12.172647
20
-0.601055
30
0
11
12.16563
21
-0.565775
31
0
0
LINE
8
cond
10
12.16563
20
-0.565775
30
0
11
12.154067
21
-0.531712
31
0
0
LINE
8
cond
10
12.154067
20
-0.531712
30
0
11
12.138157
21
-0.49945
31
0
0
LINE
8
cond
10
12.138157
20
-0.49945
30
0
11
12.118172
21
-0.469541
31
0
0
LINE
8
cond
10
12.118172
20
-0.469541
30
0
11
12.094454
21
-0.442496
31
0
0
LINE
8
cond
10
12.094454
20
-0.442496
30
0
11
12.067409
21
-0.418778
31
0
0
LINE
8
cond
10
12.067409
20
-0.418778
30
0
11
12.0375
21
-0.398793
31
0
0
LINE
8
cond
10
12.0375
20
-0.398793
30
0
11
12.005238
21
-0.382883
31
0
0
LINE
8
cond
10
12.005238
20
-0.382883
30
0
11
11.971175
21
-0.37132
31
0
0
LINE
8
cond
10
11.971175
20
-0.37132
30
0
11
11.935895
21
-0.364303
31
0
0
LINE
8
cond
10
11.935895
20
-0.364303
30
0
11
11.9
21
-0.36195
31
0
0
LINE
8
cond
10
11.9
20
-0.36195
30
0
11
11.864105
21
-0.364303
31
0
0
LINE
8
cond
10
11.864105
20
-0.364303
30
0
11
11.828825
21
-0.37132
31
0
0
LINE
8
cond
10
11.828825
20
-0.37132
30
0
11
11.794762
21
-0.382883
31
0
0
LINE
8
cond
10
11.794762
20
-0.382883
30
0
11
11.7625
21
-0.398793
31
0
0
LINE
8
cond
10
11.7625
20
-0.398793
30
0
11
11.732591
21
-0.418778
31
0
0
LINE
8
cond
10
11.732591
20
-0.418778
30
0
11
11.705546
21
-0.442496
31
0
0
LINE
8
cond
10
11.705546
20
-0.442496
30
0
11
11.681828
21
-0.469541
31
0
0
LINE
8
cond
10
11.681828
20
-0.469541
30
0
11
11.661843
21
-0.49945
31
0
0
LINE
8
cond
10
11.661843
20
-0.49945
30
0
11
11.645933
21
-0.531712
31
0
0
LINE
8
cond
10
11.645933
20
-0.531712
30
0
11
11.63437
21
-0.565775
31
0
0
LINE
8
cond
10
11.63437
20
-0.565775
30
0
11
11.627353
21
-0.601055
31
0
0
LINE
8
cond
10
11.627353
20
-0.601055
30
0
11
11.625
21
-0.63695
31
0
0
LINE
8
cond
10
11.625
20
-0.63695
30
0
11
11.627353
21
-0.672845
31
0
0
LINE
8
cond
10
11.627353
20
-0.672845
30
0
11
11.63437
21
-0.708125
31
0
0
LINE
8
cond
10
11.63437
20
-0.708125
30
0
11
11.645933
21
-0.742188
31
0
0
LINE
8
cond
10
11.645933
20
-0.742188
30
0
11
11.661843
21
-0.77445
31
0
0
LINE
8
cond
10
11.661843
20
-0.77445
30
0
11
11.681828
21
-0.804359
31
0
0
LINE
8
cond
10
11.681828
20
-0.804359
30
0
11
11.705546
21
-0.831404
31
0
0
LINE
8
cond
10
11.705546
20
-0.831404
30
0
11
11.732591
21
-0.855122
31
0
0
LINE
8
cond
10
11.732591
20
-0.855122
30
0
11
11.7625
21
-0.875107
31
0
0
LINE
8
cond
10
11.7625
20
-0.875107
30
0
11
11.794762
21
-0.891017
31
0
0
LINE
8
cond
10
11.794762
20
-0.891017
30
0
11
11.828825
21
-0.90258
31
0
0
LINE
8
cond
10
11.828825
20
-0.90258
30
0
11
11.864105
21
-0.909597
31
0
0
LINE
8
cond
10
11.864105
20
-0.909597
30
0
11
11.9
21
-0.91195
31
0
0
LINE
8
cond
10
11.9
20
-0.91195
30
0
11
11.935895
21
-0.909597
31
0
0
LINE
8
cond
10
11.935895
20
-0.909597
30
0
11
11.971175
21
-0.90258
31
0
0
LINE
8
cond
10
11.971175
20
-0.90258
30
0
11
12.005238
21
-0.891017
31
0
0
LINE
8
cond
10
12.005238
20
-0.891017
30
0
11
12.0375
21
-0.875107
31
0
0
LINE
8
cond
10
12.0375
20
-0.875107
30
0
11
12.067409
21
-0.855122
31
0
0
LINE
8
cond
10
12.067409
20
-0.855122
30
0
11
12.094454
21
-0.831404
31
0
0
LINE
8
cond
10
12.094454
20
-0.831404
30
0
11
12.118172
21
-0.804359
31
0
0
LINE
8
cond
10
12.118172
20
-0.804359
30
0
11
12.138157
21
-0.77445
31
0
0
LINE
8
cond
10
12.138157
20
-0.77445
30
0
11
12.154067
21
-0.742188
31
0
0
LINE
8
cond
10
12.154067
20
-0.742188
30
0
11
12.16563
21
-0.708125
31
0
0
LINE
8
cond
10
12.16563
20
-0.708125
30
0
11
12.172647
21
-0.672845
31
0
0
LINE
8
cond
10
12.172647
20
-0.672845
30
0
11
12.175
21
-0.63695
31
0
0
LINE
8
pcvia1
10
14.05
20
-0.63695
30
0
11
14.048717
21
-0.617371
31
0
0
LINE
8
pcvia1
10
14.048717
20
-0.617371
30
0
11
14.044889
21
-0.598127
31
0
0
LINE
8
pcvia1
10
14.044889
20
-0.598127
30
0
11
14.038582
21
-0.579547
31
0
0
LINE
8
pcvia1
10
14.038582
20
-0.579547
30
0
11
14.029904
21
-0.56195
31
0
0
LINE
8
pcvia1
10
14.029904
20
-0.56195
30
0
11
14.019003
21
-0.545636
31
0
0
LINE
8
pcvia1
10
14.019003
20
-0.545636
30
0
11
14.006066
21
-0.530884
31
0
0
LINE
8
pcvia1
10
14.006066
20
-0.530884
30
0
11
13.991314
21
-0.517947
31
0
0
LINE
8
pcvia1
10
13.991314
20
-0.517947
30
0
11
13.975
21
-0.507046
31
0
0
LINE
8
pcvia1
10
13.975
20
-0.507046
30
0
11
13.957403
21
-0.498368
31
0
0
LINE
8
pcvia1
10
13.957403
20
-0.498368
30
0
11
13.938823
21
-0.492061
31
0
0
LINE
8
pcvia1
10
13.938823
20
-0.492061
30
0
11
13.919579
21
-0.488233
31
0
0
LINE
8
pcvia1
10
13.919579
20
-0.488233
30
0
11
13.9
21
-0.48695
31
0
0
LINE
8
pcvia1
10
13.9
20
-0.48695
30
0
11
13.880421
21
-0.488233
31
0
0
LINE
8
pcvia1
10
13.880421
20
-0.488233
30
0
11
13.861177
21
-0.492061
31
0
0
LINE
8
pcvia1
10
13.861177
20
-0.492061
30
0
11
13.842597
21
-0.498368
31
0
0
LINE
8
pcvia1
10
13.842597
20
-0.498368
30
0
11
13.825
21
-0.507046
31
0
0
LINE
8
pcvia1
10
13.825
20
-0.507046
30
0
11
13.808686
21
-0.517947
31
0
0
LINE
8
pcvia1
10
13.808686
20
-0.517947
30
0
11
13.793934
21
-0.530884
31
0
0
LINE
8
pcvia1
10
13.793934
20
-0.530884
30
0
11
13.780997
21
-0.545636
31
0
0
LINE
8
pcvia1
10
13.780997
20
-0.545636
30
0
11
13.770096
21
-0.56195
31
0
0
LINE
8
pcvia1
10
13.770096
20
-0.56195
30
0
11
13.761418
21
-0.579547
31
0
0
LINE
8
pcvia1
10
13.761418
20
-0.579547
30
0
11
13.755111
21
-0.598127
31
0
0
LINE
8
pcvia1
10
13.755111
20
-0.598127
30
0
11
13.751283
21
-0.617371
31
0
0
LINE
8
pcvia1
10
13.751283
20
-0.617371
30
0
11
13.75
21
-0.63695
31
0
0
LINE
8
pcvia1
10
13.75
20
-0.63695
30
0
11
13.751283
21
-0.656529
31
0
0
LINE
8
pcvia1
10
13.751283
20
-0.656529
30
0
11
13.755111
21
-0.675773
31
0
0
LINE
8
pcvia1
10
13.755111
20
-0.675773
30
0
11
13.761418
21
-0.694353
31
0
0
LINE
8
pcvia1
10
13.761418
20
-0.694353
30
0
11
13.770096
21
-0.71195
31
0
0
LINE
8
pcvia1
10
13.770096
20
-0.71195
30
0
11
13.780997
21
-0.728264
31
0
0
LINE
8
pcvia1
10
13.780997
20
-0.728264
30
0
11
13.793934
21
-0.743016
31
0
0
LINE
8
pcvia1
10
13.793934
20
-0.743016
30
0
11
13.808686
21
-0.755953
31
0
0
LINE
8
pcvia1
10
13.808686
20
-0.755953
30
0
11
13.825
21
-0.766854
31
0
0
LINE
8
pcvia1
10
13.825
20
-0.766854
30
0
11
13.842597
21
-0.775532
31
0
0
LINE
8
pcvia1
10
13.842597
20
-0.775532
30
0
11
13.861177
21
-0.781839
31
0
0
LINE
8
pcvia1
10
13.861177
20
-0.781839
30
0
11
13.880421
21
-0.785667
31
0
0
LINE
8
pcvia1
10
13.880421
20
-0.785667
30
0
11
13.9
21
-0.78695
31
0
0
LINE
8
pcvia1
10
13.9
20
-0.78695
30
0
11
13.919579
21
-0.785667
31
0
0
LINE
8
pcvia1
10
13.919579
20
-0.785667
30
0
11
13.938823
21
-0.781839
31
0
0
LINE
8
pcvia1
10
13.938823
20
-0.781839
30
0
11
13.957403
21
-0.775532
31
0
0
LINE
8
pcvia1
10
13.957403
20
-0.775532
30
0
11
13.975
21
-0.766854
31
0
0
LINE
8
pcvia1
10
13.975
20
-0.766854
30
0
11
13.991314
21
-0.755953
31
0
0
LINE
8
pcvia1
10
13.991314
20
-0.755953
30
0
11
14.006066
21
-0.743016
31
0
0
LINE
8
pcvia1
10
14.006066
20
-0.743016
30
0
11
14.019003
21
-0.728264
31
0
0
LINE
8
pcvia1
10
14.019003
20
-0.728264
30
0
11
14.029904
21
-0.71195
31
0
0
LINE
8
pcvia1
10
14.029904
20
-0.71195
30
0
11
14.038582
21
-0.694353
31
0
0
LINE
8
pcvia1
10
14.038582
20
-0.694353
30
0
11
14.044889
21
-0.675773
31
0
0
LINE
8
pcvia1
10
14.044889
20
-0.675773
30
0
11
14.048717
21
-0.656529
31
0
0
LINE
8
pcvia1
10
14.048717
20
-0.656529
30
0
11
14.05
21
-0.63695
31
0
0
LINE
8
cond
10
14.175
20
-0.63695
30
0
11
14.172647
21
-0.601055
31
0
0
LINE
8
cond
10
14.172647
20
-0.601055
30
0
11
14.16563
21
-0.565775
31
0
0
LINE
8
cond
10
14.16563
20
-0.565775
30
0
11
14.154067
21
-0.531712
31
0
0
LINE
8
cond
10
14.154067
20
-0.531712
30
0
11
14.138157
21
-0.49945
31
0
0
LINE
8
cond
10
14.138157
20
-0.49945
30
0
11
14.118172
21
-0.469541
31
0
0
LINE
8
cond
10
14.118172
20
-0.469541
30
0
11
14.094454
21
-0.442496
31
0
0
LINE
8
cond
10
14.094454
20
-0.442496
30
0
11
14.067409
21
-0.418778
31
0
0
LINE
8
cond
10
14.067409
20
-0.418778
30
0
11
14.0375
21
-0.398793
31
0
0
LINE
8
cond
10
14.0375
20
-0.398793
30
0
11
14.005238
21
-0.382883
31
0
0
LINE
8
cond
10
14.005238
20
-0.382883
30
0
11
13.971175
21
-0.37132
31
0
0
LINE
8
cond
10
13.971175
20
-0.37132
30
0
11
13.935895
21
-0.364303
31
0
0
LINE
8
cond
10
13.935895
20
-0.364303
30
0
11
13.9
21
-0.36195
31
0
0
LINE
8
cond
10
13.9
20
-0.36195
30
0
11
13.864105
21
-0.364303
31
0
0
LINE
8
cond
10
13.864105
20
-0.364303
30
0
11
13.828825
21
-0.37132
31
0
0
LINE
8
cond
10
13.828825
20
-0.37132
30
0
11
13.794762
21
-0.382883
31
0
0
LINE
8
cond
10
13.794762
20
-0.382883
30
0
11
13.7625
21
-0.398793
31
0
0
LINE
8
cond
10
13.7625
20
-0.398793
30
0
11
13.732591
21
-0.418778
31
0
0
LINE
8
cond
10
13.732591
20
-0.418778
30
0
11
13.705546
21
-0.442496
31
0
0
LINE
8
cond
10
13.705546
20
-0.442496
30
0
11
13.681828
21
-0.469541
31
0
0
LINE
8
cond
10
13.681828
20
-0.469541
30
0
11
13.661843
21
-0.49945
31
0
0
LINE
8
cond
10
13.661843
20
-0.49945
30
0
11
13.645933
21
-0.531712
31
0
0
LINE
8
cond
10
13.645933
20
-0.531712
30
0
11
13.63437
21
-0.565775
31
0
0
LINE
8
cond
10
13.63437
20
-0.565775
30
0
11
13.627353
21
-0.601055
31
0
0
LINE
8
cond
10
13.627353
20
-0.601055
30
0
11
13.625
21
-0.63695
31
0
0
LINE
8
cond
10
13.625
20
-0.63695
30
0
11
13.627353
21
-0.672845
31
0
0
LINE
8
cond
10
13.627353
20
-0.672845
30
0
11
13.63437
21
-0.708125
31
0
0
LINE
8
cond
10
13.63437
20
-0.708125
30
0
11
13.645933
21
-0.742188
31
0
0
LINE
8
cond
10
13.645933
20
-0.742188
30
0
11
13.661843
21
-0.77445
31
0
0
LINE
8
cond
10
13.661843
20
-0.77445
30
0
11
13.681828
21
-0.804359
31
0
0
LINE
8
cond
10
13.681828
20
-0.804359
30
0
11
13.705546
21
-0.831404
31
0
0
LINE
8
cond
10
13.705546
20
-0.831404
30
0
11
13.732591
21
-0.855122
31
0
0
LINE
8
cond
10
13.732591
20
-0.855122
30
0
11
13.7625
21
-0.875107
31
0
0
LINE
8
cond
10
13.7625
20
-0.875107
30
0
11
13.794762
21
-0.891017
31
0
0
LINE
8
cond
10
13.794762
20
-0.891017
30
0
11
13.828825
21
-0.90258
31
0
0
LINE
8
cond
10
13.828825
20
-0.90258
30
0
11
13.864105
21
-0.909597
31
0
0
LINE
8
cond
10
13.864105
20
-0.909597
30
0
11
13.9
21
-0.91195
31
0
0
LINE
8
cond
10
13.9
20
-0.91195
30
0
11
13.935895
21
-0.909597
31
0
0
LINE
8
cond
10
13.935895
20
-0.909597
30
0
11
13.971175
21
-0.90258
31
0
0
LINE
8
cond
10
13.971175
20
-0.90258
30
0
11
14.005238
21
-0.891017
31
0
0
LINE
8
cond
10
14.005238
20
-0.891017
30
0
11
14.0375
21
-0.875107
31
0
0
LINE
8
cond
10
14.0375
20
-0.875107
30
0
11
14.067409
21
-0.855122
31
0
0
LINE
8
cond
10
14.067409
20
-0.855122
30
0
11
14.094454
21
-0.831404
31
0
0
LINE
8
cond
10
14.094454
20
-0.831404
30
0
11
14.118172
21
-0.804359
31
0
0
LINE
8
cond
10
14.118172
20
-0.804359
30
0
11
14.138157
21
-0.77445
31
0
0
LINE
8
cond
10
14.138157
20
-0.77445
30
0
11
14.154067
21
-0.742188
31
0
0
LINE
8
cond
10
14.154067
20
-0.742188
30
0
11
14.16563
21
-0.708125
31
0
0
LINE
8
cond
10
14.16563
20
-0.708125
30
0
11
14.172647
21
-0.672845
31
0
0
LINE
8
cond
10
14.172647
20
-0.672845
30
0
11
14.175
21
-0.63695
31
0
0
LINE
8
pcvia1
10
16.05
20
-0.63695
30
0
11
16.048717
21
-0.617371
31
0
0
LINE
8
pcvia1
10
16.048717
20
-0.617371
30
0
11
16.044889
21
-0.598127
31
0
0
LINE
8
pcvia1
10
16.044889
20
-0.598127
30
0
11
16.038582
21
-0.579547
31
0
0
LINE
8
pcvia1
10
16.038582
20
-0.579547
30
0
11
16.029904
21
-0.56195
31
0
0
LINE
8
pcvia1
10
16.029904
20
-0.56195
30
0
11
16.019003
21
-0.545636
31
0
0
LINE
8
pcvia1
10
16.019003
20
-0.545636
30
0
11
16.006066
21
-0.530884
31
0
0
LINE
8
pcvia1
10
16.006066
20
-0.530884
30
0
11
15.991314
21
-0.517947
31
0
0
LINE
8
pcvia1
10
15.991314
20
-0.517947
30
0
11
15.975
21
-0.507046
31
0
0
LINE
8
pcvia1
10
15.975
20
-0.507046
30
0
11
15.957403
21
-0.498368
31
0
0
LINE
8
pcvia1
10
15.957403
20
-0.498368
30
0
11
15.938823
21
-0.492061
31
0
0
LINE
8
pcvia1
10
15.938823
20
-0.492061
30
0
11
15.919579
21
-0.488233
31
0
0
LINE
8
pcvia1
10
15.919579
20
-0.488233
30
0
11
15.9
21
-0.48695
31
0
0
LINE
8
pcvia1
10
15.9
20
-0.48695
30
0
11
15.880421
21
-0.488233
31
0
0
LINE
8
pcvia1
10
15.880421
20
-0.488233
30
0
11
15.861177
21
-0.492061
31
0
0
LINE
8
pcvia1
10
15.861177
20
-0.492061
30
0
11
15.842597
21
-0.498368
31
0
0
LINE
8
pcvia1
10
15.842597
20
-0.498368
30
0
11
15.825
21
-0.507046
31
0
0
LINE
8
pcvia1
10
15.825
20
-0.507046
30
0
11
15.808686
21
-0.517947
31
0
0
LINE
8
pcvia1
10
15.808686
20
-0.517947
30
0
11
15.793934
21
-0.530884
31
0
0
LINE
8
pcvia1
10
15.793934
20
-0.530884
30
0
11
15.780997
21
-0.545636
31
0
0
LINE
8
pcvia1
10
15.780997
20
-0.545636
30
0
11
15.770096
21
-0.56195
31
0
0
LINE
8
pcvia1
10
15.770096
20
-0.56195
30
0
11
15.761418
21
-0.579547
31
0
0
LINE
8
pcvia1
10
15.761418
20
-0.579547
30
0
11
15.755111
21
-0.598127
31
0
0
LINE
8
pcvia1
10
15.755111
20
-0.598127
30
0
11
15.751283
21
-0.617371
31
0
0
LINE
8
pcvia1
10
15.751283
20
-0.617371
30
0
11
15.75
21
-0.63695
31
0
0
LINE
8
pcvia1
10
15.75
20
-0.63695
30
0
11
15.751283
21
-0.656529
31
0
0
LINE
8
pcvia1
10
15.751283
20
-0.656529
30
0
11
15.755111
21
-0.675773
31
0
0
LINE
8
pcvia1
10
15.755111
20
-0.675773
30
0
11
15.761418
21
-0.694353
31
0
0
LINE
8
pcvia1
10
15.761418
20
-0.694353
30
0
11
15.770096
21
-0.71195
31
0
0
LINE
8
pcvia1
10
15.770096
20
-0.71195
30
0
11
15.780997
21
-0.728264
31
0
0
LINE
8
pcvia1
10
15.780997
20
-0.728264
30
0
11
15.793934
21
-0.743016
31
0
0
LINE
8
pcvia1
10
15.793934
20
-0.743016
30
0
11
15.808686
21
-0.755953
31
0
0
LINE
8
pcvia1
10
15.808686
20
-0.755953
30
0
11
15.825
21
-0.766854
31
0
0
LINE
8
pcvia1
10
15.825
20
-0.766854
30
0
11
15.842597
21
-0.775532
31
0
0
LINE
8
pcvia1
10
15.842597
20
-0.775532
30
0
11
15.861177
21
-0.781839
31
0
0
LINE
8
pcvia1
10
15.861177
20
-0.781839
30
0
11
15.880421
21
-0.785667
31
0
0
LINE
8
pcvia1
10
15.880421
20
-0.785667
30
0
11
15.9
21
-0.78695
31
0
0
LINE
8
pcvia1
10
15.9
20
-0.78695
30
0
11
15.919579
21
-0.785667
31
0
0
LINE
8
pcvia1
10
15.919579
20
-0.785667
30
0
11
15.938823
21
-0.781839
31
0
0
LINE
8
pcvia1
10
15.938823
20
-0.781839
30
0
11
15.957403
21
-0.775532
31
0
0
LINE
8
pcvia1
10
15.957403
20
-0.775532
30
0
11
15.975
21
-0.766854
31
0
0
LINE
8
pcvia1
10
15.975
20
-0.766854
30
0
11
15.991314
21
-0.755953
31
0
0
LINE
8
pcvia1
10
15.991314
20
-0.755953
30
0
11
16.006066
21
-0.743016
31
0
0
LINE
8
pcvia1
10
16.006066
20
-0.743016
30
0
11
16.019003
21
-0.728264
31
0
0
LINE
8
pcvia1
10
16.019003
20
-0.728264
30
0
11
16.029904
21
-0.71195
31
0
0
LINE
8
pcvia1
10
16.029904
20
-0.71195
30
0
11
16.038582
21
-0.694353
31
0
0
LINE
8
pcvia1
10
16.038582
20
-0.694353
30
0
11
16.044889
21
-0.675773
31
0
0
LINE
8
pcvia1
10
16.044889
20
-0.675773
30
0
11
16.048717
21
-0.656529
31
0
0
LINE
8
pcvia1
10
16.048717
20
-0.656529
30
0
11
16.05
21
-0.63695
31
0
0
LINE
8
cond
10
16.175
20
-0.63695
30
0
11
16.172647
21
-0.601055
31
0
0
LINE
8
cond
10
16.172647
20
-0.601055
30
0
11
16.16563
21
-0.565775
31
0
0
LINE
8
cond
10
16.16563
20
-0.565775
30
0
11
16.154067
21
-0.531712
31
0
0
LINE
8
cond
10
16.154067
20
-0.531712
30
0
11
16.138157
21
-0.49945
31
0
0
LINE
8
cond
10
16.138157
20
-0.49945
30
0
11
16.118172
21
-0.469541
31
0
0
LINE
8
cond
10
16.118172
20
-0.469541
30
0
11
16.094454
21
-0.442496
31
0
0
LINE
8
cond
10
16.094454
20
-0.442496
30
0
11
16.067409
21
-0.418778
31
0
0
LINE
8
cond
10
16.067409
20
-0.418778
30
0
11
16.0375
21
-0.398793
31
0
0
LINE
8
cond
10
16.0375
20
-0.398793
30
0
11
16.005238
21
-0.382883
31
0
0
LINE
8
cond
10
16.005238
20
-0.382883
30
0
11
15.971175
21
-0.37132
31
0
0
LINE
8
cond
10
15.971175
20
-0.37132
30
0
11
15.935895
21
-0.364303
31
0
0
LINE
8
cond
10
15.935895
20
-0.364303
30
0
11
15.9
21
-0.36195
31
0
0
LINE
8
cond
10
15.9
20
-0.36195
30
0
11
15.864105
21
-0.364303
31
0
0
LINE
8
cond
10
15.864105
20
-0.364303
30
0
11
15.828825
21
-0.37132
31
0
0
LINE
8
cond
10
15.828825
20
-0.37132
30
0
11
15.794762
21
-0.382883
31
0
0
LINE
8
cond
10
15.794762
20
-0.382883
30
0
11
15.7625
21
-0.398793
31
0
0
LINE
8
cond
10
15.7625
20
-0.398793
30
0
11
15.732591
21
-0.418778
31
0
0
LINE
8
cond
10
15.732591
20
-0.418778
30
0
11
15.705546
21
-0.442496
31
0
0
LINE
8
cond
10
15.705546
20
-0.442496
30
0
11
15.681828
21
-0.469541
31
0
0
LINE
8
cond
10
15.681828
20
-0.469541
30
0
11
15.661843
21
-0.49945
31
0
0
LINE
8
cond
10
15.661843
20
-0.49945
30
0
11
15.645933
21
-0.531712
31
0
0
LINE
8
cond
10
15.645933
20
-0.531712
30
0
11
15.63437
21
-0.565775
31
0
0
LINE
8
cond
10
15.63437
20
-0.565775
30
0
11
15.627353
21
-0.601055
31
0
0
LINE
8
cond
10
15.627353
20
-0.601055
30
0
11
15.625
21
-0.63695
31
0
0
LINE
8
cond
10
15.625
20
-0.63695
30
0
11
15.627353
21
-0.672845
31
0
0
LINE
8
cond
10
15.627353
20
-0.672845
30
0
11
15.63437
21
-0.708125
31
0
0
LINE
8
cond
10
15.63437
20
-0.708125
30
0
11
15.645933
21
-0.742188
31
0
0
LINE
8
cond
10
15.645933
20
-0.742188
30
0
11
15.661843
21
-0.77445
31
0
0
LINE
8
cond
10
15.661843
20
-0.77445
30
0
11
15.681828
21
-0.804359
31
0
0
LINE
8
cond
10
15.681828
20
-0.804359
30
0
11
15.705546
21
-0.831404
31
0
0
LINE
8
cond
10
15.705546
20
-0.831404
30
0
11
15.732591
21
-0.855122
31
0
0
LINE
8
cond
10
15.732591
20
-0.855122
30
0
11
15.7625
21
-0.875107
31
0
0
LINE
8
cond
10
15.7625
20
-0.875107
30
0
11
15.794762
21
-0.891017
31
0
0
LINE
8
cond
10
15.794762
20
-0.891017
30
0
11
15.828825
21
-0.90258
31
0
0
LINE
8
cond
10
15.828825
20
-0.90258
30
0
11
15.864105
21
-0.909597
31
0
0
LINE
8
cond
10
15.864105
20
-0.909597
30
0
11
15.9
21
-0.91195
31
0
0
LINE
8
cond
10
15.9
20
-0.91195
30
0
11
15.935895
21
-0.909597
31
0
0
LINE
8
cond
10
15.935895
20
-0.909597
30
0
11
15.971175
21
-0.90258
31
0
0
LINE
8
cond
10
15.971175
20
-0.90258
30
0
11
16.005238
21
-0.891017
31
0
0
LINE
8
cond
10
16.005238
20
-0.891017
30
0
11
16.0375
21
-0.875107
31
0
0
LINE
8
cond
10
16.0375
20
-0.875107
30
0
11
16.067409
21
-0.855122
31
0
0
LINE
8
cond
10
16.067409
20
-0.855122
30
0
11
16.094454
21
-0.831404
31
0
0
LINE
8
cond
10
16.094454
20
-0.831404
30
0
11
16.118172
21
-0.804359
31
0
0
LINE
8
cond
10
16.118172
20
-0.804359
30
0
11
16.138157
21
-0.77445
31
0
0
LINE
8
cond
10
16.138157
20
-0.77445
30
0
11
16.154067
21
-0.742188
31
0
0
LINE
8
cond
10
16.154067
20
-0.742188
30
0
11
16.16563
21
-0.708125
31
0
0
LINE
8
cond
10
16.16563
20
-0.708125
30
0
11
16.172647
21
-0.672845
31
0
0
LINE
8
cond
10
16.172647
20
-0.672845
30
0
11
16.175
21
-0.63695
31
0
0
LINE
8
pcvia1
10
18.05
20
-0.63695
30
0
11
18.048717
21
-0.617371
31
0
0
LINE
8
pcvia1
10
18.048717
20
-0.617371
30
0
11
18.044889
21
-0.598127
31
0
0
LINE
8
pcvia1
10
18.044889
20
-0.598127
30
0
11
18.038582
21
-0.579547
31
0
0
LINE
8
pcvia1
10
18.038582
20
-0.579547
30
0
11
18.029904
21
-0.56195
31
0
0
LINE
8
pcvia1
10
18.029904
20
-0.56195
30
0
11
18.019003
21
-0.545636
31
0
0
LINE
8
pcvia1
10
18.019003
20
-0.545636
30
0
11
18.006066
21
-0.530884
31
0
0
LINE
8
pcvia1
10
18.006066
20
-0.530884
30
0
11
17.991314
21
-0.517947
31
0
0
LINE
8
pcvia1
10
17.991314
20
-0.517947
30
0
11
17.975
21
-0.507046
31
0
0
LINE
8
pcvia1
10
17.975
20
-0.507046
30
0
11
17.957403
21
-0.498368
31
0
0
LINE
8
pcvia1
10
17.957403
20
-0.498368
30
0
11
17.938823
21
-0.492061
31
0
0
LINE
8
pcvia1
10
17.938823
20
-0.492061
30
0
11
17.919579
21
-0.488233
31
0
0
LINE
8
pcvia1
10
17.919579
20
-0.488233
30
0
11
17.9
21
-0.48695
31
0
0
LINE
8
pcvia1
10
17.9
20
-0.48695
30
0
11
17.880421
21
-0.488233
31
0
0
LINE
8
pcvia1
10
17.880421
20
-0.488233
30
0
11
17.861177
21
-0.492061
31
0
0
LINE
8
pcvia1
10
17.861177
20
-0.492061
30
0
11
17.842597
21
-0.498368
31
0
0
LINE
8
pcvia1
10
17.842597
20
-0.498368
30
0
11
17.825
21
-0.507046
31
0
0
LINE
8
pcvia1
10
17.825
20
-0.507046
30
0
11
17.808686
21
-0.517947
31
0
0
LINE
8
pcvia1
10
17.808686
20
-0.517947
30
0
11
17.793934
21
-0.530884
31
0
0
LINE
8
pcvia1
10
17.793934
20
-0.530884
30
0
11
17.780997
21
-0.545636
31
0
0
LINE
8
pcvia1
10
17.780997
20
-0.545636
30
0
11
17.770096
21
-0.56195
31
0
0
LINE
8
pcvia1
10
17.770096
20
-0.56195
30
0
11
17.761418
21
-0.579547
31
0
0
LINE
8
pcvia1
10
17.761418
20
-0.579547
30
0
11
17.755111
21
-0.598127
31
0
0
LINE
8
pcvia1
10
17.755111
20
-0.598127
30
0
11
17.751283
21
-0.617371
31
0
0
LINE
8
pcvia1
10
17.751283
20
-0.617371
30
0
11
17.75
21
-0.63695
31
0
0
LINE
8
pcvia1
10
17.75
20
-0.63695
30
0
11
17.751283
21
-0.656529
31
0
0
LINE
8
pcvia1
10
17.751283
20
-0.656529
30
0
11
17.755111
21
-0.675773
31
0
0
LINE
8
pcvia1
10
17.755111
20
-0.675773
30
0
11
17.761418
21
-0.694353
31
0
0
LINE
8
pcvia1
10
17.761418
20
-0.694353
30
0
11
17.770096
21
-0.71195
31
0
0
LINE
8
pcvia1
10
17.770096
20
-0.71195
30
0
11
17.780997
21
-0.728264
31
0
0
LINE
8
pcvia1
10
17.780997
20
-0.728264
30
0
11
17.793934
21
-0.743016
31
0
0
LINE
8
pcvia1
10
17.793934
20
-0.743016
30
0
11
17.808686
21
-0.755953
31
0
0
LINE
8
pcvia1
10
17.808686
20
-0.755953
30
0
11
17.825
21
-0.766854
31
0
0
LINE
8
pcvia1
10
17.825
20
-0.766854
30
0
11
17.842597
21
-0.775532
31
0
0
LINE
8
pcvia1
10
17.842597
20
-0.775532
30
0
11
17.861177
21
-0.781839
31
0
0
LINE
8
pcvia1
10
17.861177
20
-0.781839
30
0
11
17.880421
21
-0.785667
31
0
0
LINE
8
pcvia1
10
17.880421
20
-0.785667
30
0
11
17.9
21
-0.78695
31
0
0
LINE
8
pcvia1
10
17.9
20
-0.78695
30
0
11
17.919579
21
-0.785667
31
0
0
LINE
8
pcvia1
10
17.919579
20
-0.785667
30
0
11
17.938823
21
-0.781839
31
0
0
LINE
8
pcvia1
10
17.938823
20
-0.781839
30
0
11
17.957403
21
-0.775532
31
0
0
LINE
8
pcvia1
10
17.957403
20
-0.775532
30
0
11
17.975
21
-0.766854
31
0
0
LINE
8
pcvia1
10
17.975
20
-0.766854
30
0
11
17.991314
21
-0.755953
31
0
0
LINE
8
pcvia1
10
17.991314
20
-0.755953
30
0
11
18.006066
21
-0.743016
31
0
0
LINE
8
pcvia1
10
18.006066
20
-0.743016
30
0
11
18.019003
21
-0.728264
31
0
0
LINE
8
pcvia1
10
18.019003
20
-0.728264
30
0
11
18.029904
21
-0.71195
31
0
0
LINE
8
pcvia1
10
18.029904
20
-0.71195
30
0
11
18.038582
21
-0.694353
31
0
0
LINE
8
pcvia1
10
18.038582
20
-0.694353
30
0
11
18.044889
21
-0.675773
31
0
0
LINE
8
pcvia1
10
18.044889
20
-0.675773
30
0
11
18.048717
21
-0.656529
31
0
0
LINE
8
pcvia1
10
18.048717
20
-0.656529
30
0
11
18.05
21
-0.63695
31
0
0
LINE
8
cond
10
18.175
20
-0.63695
30
0
11
18.172647
21
-0.601055
31
0
0
LINE
8
cond
10
18.172647
20
-0.601055
30
0
11
18.16563
21
-0.565775
31
0
0
LINE
8
cond
10
18.16563
20
-0.565775
30
0
11
18.154067
21
-0.531712
31
0
0
LINE
8
cond
10
18.154067
20
-0.531712
30
0
11
18.138157
21
-0.49945
31
0
0
LINE
8
cond
10
18.138157
20
-0.49945
30
0
11
18.118172
21
-0.469541
31
0
0
LINE
8
cond
10
18.118172
20
-0.469541
30
0
11
18.094454
21
-0.442496
31
0
0
LINE
8
cond
10
18.094454
20
-0.442496
30
0
11
18.067409
21
-0.418778
31
0
0
LINE
8
cond
10
18.067409
20
-0.418778
30
0
11
18.0375
21
-0.398793
31
0
0
LINE
8
cond
10
18.0375
20
-0.398793
30
0
11
18.005238
21
-0.382883
31
0
0
LINE
8
cond
10
18.005238
20
-0.382883
30
0
11
17.971175
21
-0.37132
31
0
0
LINE
8
cond
10
17.971175
20
-0.37132
30
0
11
17.935895
21
-0.364303
31
0
0
LINE
8
cond
10
17.935895
20
-0.364303
30
0
11
17.9
21
-0.36195
31
0
0
LINE
8
cond
10
17.9
20
-0.36195
30
0
11
17.864105
21
-0.364303
31
0
0
LINE
8
cond
10
17.864105
20
-0.364303
30
0
11
17.828825
21
-0.37132
31
0
0
LINE
8
cond
10
17.828825
20
-0.37132
30
0
11
17.794762
21
-0.382883
31
0
0
LINE
8
cond
10
17.794762
20
-0.382883
30
0
11
17.7625
21
-0.398793
31
0
0
LINE
8
cond
10
17.7625
20
-0.398793
30
0
11
17.732591
21
-0.418778
31
0
0
LINE
8
cond
10
17.732591
20
-0.418778
30
0
11
17.705546
21
-0.442496
31
0
0
LINE
8
cond
10
17.705546
20
-0.442496
30
0
11
17.681828
21
-0.469541
31
0
0
LINE
8
cond
10
17.681828
20
-0.469541
30
0
11
17.661843
21
-0.49945
31
0
0
LINE
8
cond
10
17.661843
20
-0.49945
30
0
11
17.645933
21
-0.531712
31
0
0
LINE
8
cond
10
17.645933
20
-0.531712
30
0
11
17.63437
21
-0.565775
31
0
0
LINE
8
cond
10
17.63437
20
-0.565775
30
0
11
17.627353
21
-0.601055
31
0
0
LINE
8
cond
10
17.627353
20
-0.601055
30
0
11
17.625
21
-0.63695
31
0
0
LINE
8
cond
10
17.625
20
-0.63695
30
0
11
17.627353
21
-0.672845
31
0
0
LINE
8
cond
10
17.627353
20
-0.672845
30
0
11
17.63437
21
-0.708125
31
0
0
LINE
8
cond
10
17.63437
20
-0.708125
30
0
11
17.645933
21
-0.742188
31
0
0
LINE
8
cond
10
17.645933
20
-0.742188
30
0
11
17.661843
21
-0.77445
31
0
0
LINE
8
cond
10
17.661843
20
-0.77445
30
0
11
17.681828
21
-0.804359
31
0
0
LINE
8
cond
10
17.681828
20
-0.804359
30
0
11
17.705546
21
-0.831404
31
0
0
LINE
8
cond
10
17.705546
20
-0.831404
30
0
11
17.732591
21
-0.855122
31
0
0
LINE
8
cond
10
17.732591
20
-0.855122
30
0
11
17.7625
21
-0.875107
31
0
0
LINE
8
cond
10
17.7625
20
-0.875107
30
0
11
17.794762
21
-0.891017
31
0
0
LINE
8
cond
10
17.794762
20
-0.891017
30
0
11
17.828825
21
-0.90258
31
0
0
LINE
8
cond
10
17.828825
20
-0.90258
30
0
11
17.864105
21
-0.909597
31
0
0
LINE
8
cond
10
17.864105
20
-0.909597
30
0
11
17.9
21
-0.91195
31
0
0
LINE
8
cond
10
17.9
20
-0.91195
30
0
11
17.935895
21
-0.909597
31
0
0
LINE
8
cond
10
17.935895
20
-0.909597
30
0
11
17.971175
21
-0.90258
31
0
0
LINE
8
cond
10
17.971175
20
-0.90258
30
0
11
18.005238
21
-0.891017
31
0
0
LINE
8
cond
10
18.005238
20
-0.891017
30
0
11
18.0375
21
-0.875107
31
0
0
LINE
8
cond
10
18.0375
20
-0.875107
30
0
11
18.067409
21
-0.855122
31
0
0
LINE
8
cond
10
18.067409
20
-0.855122
30
0
11
18.094454
21
-0.831404
31
0
0
LINE
8
cond
10
18.094454
20
-0.831404
30
0
11
18.118172
21
-0.804359
31
0
0
LINE
8
cond
10
18.118172
20
-0.804359
30
0
11
18.138157
21
-0.77445
31
0
0
LINE
8
cond
10
18.138157
20
-0.77445
30
0
11
18.154067
21
-0.742188
31
0
0
LINE
8
cond
10
18.154067
20
-0.742188
30
0
11
18.16563
21
-0.708125
31
0
0
LINE
8
cond
10
18.16563
20
-0.708125
30
0
11
18.172647
21
-0.672845
31
0
0
LINE
8
cond
10
18.172647
20
-0.672845
30
0
11
18.175
21
-0.63695
31
0
0
LINE
8
pcvia1
10
20.05
20
-0.63695
30
0
11
20.048717
21
-0.617371
31
0
0
LINE
8
pcvia1
10
20.048717
20
-0.617371
30
0
11
20.044889
21
-0.598127
31
0
0
LINE
8
pcvia1
10
20.044889
20
-0.598127
30
0
11
20.038582
21
-0.579547
31
0
0
LINE
8
pcvia1
10
20.038582
20
-0.579547
30
0
11
20.029904
21
-0.56195
31
0
0
LINE
8
pcvia1
10
20.029904
20
-0.56195
30
0
11
20.019003
21
-0.545636
31
0
0
LINE
8
pcvia1
10
20.019003
20
-0.545636
30
0
11
20.006066
21
-0.530884
31
0
0
LINE
8
pcvia1
10
20.006066
20
-0.530884
30
0
11
19.991314
21
-0.517947
31
0
0
LINE
8
pcvia1
10
19.991314
20
-0.517947
30
0
11
19.975
21
-0.507046
31
0
0
LINE
8
pcvia1
10
19.975
20
-0.507046
30
0
11
19.957403
21
-0.498368
31
0
0
LINE
8
pcvia1
10
19.957403
20
-0.498368
30
0
11
19.938823
21
-0.492061
31
0
0
LINE
8
pcvia1
10
19.938823
20
-0.492061
30
0
11
19.919579
21
-0.488233
31
0
0
LINE
8
pcvia1
10
19.919579
20
-0.488233
30
0
11
19.9
21
-0.48695
31
0
0
LINE
8
pcvia1
10
19.9
20
-0.48695
30
0
11
19.880421
21
-0.488233
31
0
0
LINE
8
pcvia1
10
19.880421
20
-0.488233
30
0
11
19.861177
21
-0.492061
31
0
0
LINE
8
pcvia1
10
19.861177
20
-0.492061
30
0
11
19.842597
21
-0.498368
31
0
0
LINE
8
pcvia1
10
19.842597
20
-0.498368
30
0
11
19.825
21
-0.507046
31
0
0
LINE
8
pcvia1
10
19.825
20
-0.507046
30
0
11
19.808686
21
-0.517947
31
0
0
LINE
8
pcvia1
10
19.808686
20
-0.517947
30
0
11
19.793934
21
-0.530884
31
0
0
LINE
8
pcvia1
10
19.793934
20
-0.530884
30
0
11
19.780997
21
-0.545636
31
0
0
LINE
8
pcvia1
10
19.780997
20
-0.545636
30
0
11
19.770096
21
-0.56195
31
0
0
LINE
8
pcvia1
10
19.770096
20
-0.56195
30
0
11
19.761418
21
-0.579547
31
0
0
LINE
8
pcvia1
10
19.761418
20
-0.579547
30
0
11
19.755111
21
-0.598127
31
0
0
LINE
8
pcvia1
10
19.755111
20
-0.598127
30
0
11
19.751283
21
-0.617371
31
0
0
LINE
8
pcvia1
10
19.751283
20
-0.617371
30
0
11
19.75
21
-0.63695
31
0
0
LINE
8
pcvia1
10
19.75
20
-0.63695
30
0
11
19.751283
21
-0.656529
31
0
0
LINE
8
pcvia1
10
19.751283
20
-0.656529
30
0
11
19.755111
21
-0.675773
31
0
0
LINE
8
pcvia1
10
19.755111
20
-0.675773
30
0
11
19.761418
21
-0.694353
31
0
0
LINE
8
pcvia1
10
19.761418
20
-0.694353
30
0
11
19.770096
21
-0.71195
31
0
0
LINE
8
pcvia1
10
19.770096
20
-0.71195
30
0
11
19.780997
21
-0.728264
31
0
0
LINE
8
pcvia1
10
19.780997
20
-0.728264
30
0
11
19.793934
21
-0.743016
31
0
0
LINE
8
pcvia1
10
19.793934
20
-0.743016
30
0
11
19.808686
21
-0.755953
31
0
0
LINE
8
pcvia1
10
19.808686
20
-0.755953
30
0
11
19.825
21
-0.766854
31
0
0
LINE
8
pcvia1
10
19.825
20
-0.766854
30
0
11
19.842597
21
-0.775532
31
0
0
LINE
8
pcvia1
10
19.842597
20
-0.775532
30
0
11
19.861177
21
-0.781839
31
0
0
LINE
8
pcvia1
10
19.861177
20
-0.781839
30
0
11
19.880421
21
-0.785667
31
0
0
LINE
8
pcvia1
10
19.880421
20
-0.785667
30
0
11
19.9
21
-0.78695
31
0
0
LINE
8
pcvia1
10
19.9
20
-0.78695
30
0
11
19.919579
21
-0.785667
31
0
0
LINE
8
pcvia1
10
19.919579
20
-0.785667
30
0
11
19.938823
21
-0.781839
31
0
0
LINE
8
pcvia1
10
19.938823
20
-0.781839
30
0
11
19.957403
21
-0.775532
31
0
0
LINE
8
pcvia1
10
19.957403
20
-0.775532
30
0
11
19.975
21
-0.766854
31
0
0
LINE
8
pcvia1
10
19.975
20
-0.766854
30
0
11
19.991314
21
-0.755953
31
0
0
LINE
8
pcvia1
10
19.991314
20
-0.755953
30
0
11
20.006066
21
-0.743016
31
0
0
LINE
8
pcvia1
10
20.006066
20
-0.743016
30
0
11
20.019003
21
-0.728264
31
0
0
LINE
8
pcvia1
10
20.019003
20
-0.728264
30
0
11
20.029904
21
-0.71195
31
0
0
LINE
8
pcvia1
10
20.029904
20
-0.71195
30
0
11
20.038582
21
-0.694353
31
0
0
LINE
8
pcvia1
10
20.038582
20
-0.694353
30
0
11
20.044889
21
-0.675773
31
0
0
LINE
8
pcvia1
10
20.044889
20
-0.675773
30
0
11
20.048717
21
-0.656529
31
0
0
LINE
8
pcvia1
10
20.048717
20
-0.656529
30
0
11
20.05
21
-0.63695
31
0
0
LINE
8
cond
10
20.175
20
-0.63695
30
0
11
20.172647
21
-0.601055
31
0
0
LINE
8
cond
10
20.172647
20
-0.601055
30
0
11
20.16563
21
-0.565775
31
0
0
LINE
8
cond
10
20.16563
20
-0.565775
30
0
11
20.154067
21
-0.531712
31
0
0
LINE
8
cond
10
20.154067
20
-0.531712
30
0
11
20.138157
21
-0.49945
31
0
0
LINE
8
cond
10
20.138157
20
-0.49945
30
0
11
20.118172
21
-0.469541
31
0
0
LINE
8
cond
10
20.118172
20
-0.469541
30
0
11
20.094454
21
-0.442496
31
0
0
LINE
8
cond
10
20.094454
20
-0.442496
30
0
11
20.067409
21
-0.418778
31
0
0
LINE
8
cond
10
20.067409
20
-0.418778
30
0
11
20.0375
21
-0.398793
31
0
0
LINE
8
cond
10
20.0375
20
-0.398793
30
0
11
20.005238
21
-0.382883
31
0
0
LINE
8
cond
10
20.005238
20
-0.382883
30
0
11
19.971175
21
-0.37132
31
0
0
LINE
8
cond
10
19.971175
20
-0.37132
30
0
11
19.935895
21
-0.364303
31
0
0
LINE
8
cond
10
19.935895
20
-0.364303
30
0
11
19.9
21
-0.36195
31
0
0
LINE
8
cond
10
19.9
20
-0.36195
30
0
11
19.864105
21
-0.364303
31
0
0
LINE
8
cond
10
19.864105
20
-0.364303
30
0
11
19.828825
21
-0.37132
31
0
0
LINE
8
cond
10
19.828825
20
-0.37132
30
0
11
19.794762
21
-0.382883
31
0
0
LINE
8
cond
10
19.794762
20
-0.382883
30
0
11
19.7625
21
-0.398793
31
0
0
LINE
8
cond
10
19.7625
20
-0.398793
30
0
11
19.732591
21
-0.418778
31
0
0
LINE
8
cond
10
19.732591
20
-0.418778
30
0
11
19.705546
21
-0.442496
31
0
0
LINE
8
cond
10
19.705546
20
-0.442496
30
0
11
19.681828
21
-0.469541
31
0
0
LINE
8
cond
10
19.681828
20
-0.469541
30
0
11
19.661843
21
-0.49945
31
0
0
LINE
8
cond
10
19.661843
20
-0.49945
30
0
11
19.645933
21
-0.531712
31
0
0
LINE
8
cond
10
19.645933
20
-0.531712
30
0
11
19.63437
21
-0.565775
31
0
0
LINE
8
cond
10
19.63437
20
-0.565775
30
0
11
19.627353
21
-0.601055
31
0
0
LINE
8
cond
10
19.627353
20
-0.601055
30
0
11
19.625
21
-0.63695
31
0
0
LINE
8
cond
10
19.625
20
-0.63695
30
0
11
19.627353
21
-0.672845
31
0
0
LINE
8
cond
10
19.627353
20
-0.672845
30
0
11
19.63437
21
-0.708125
31
0
0
LINE
8
cond
10
19.63437
20
-0.708125
30
0
11
19.645933
21
-0.742188
31
0
0
LINE
8
cond
10
19.645933
20
-0.742188
30
0
11
19.661843
21
-0.77445
31
0
0
LINE
8
cond
10
19.661843
20
-0.77445
30
0
11
19.681828
21
-0.804359
31
0
0
LINE
8
cond
10
19.681828
20
-0.804359
30
0
11
19.705546
21
-0.831404
31
0
0
LINE
8
cond
10
19.705546
20
-0.831404
30
0
11
19.732591
21
-0.855122
31
0
0
LINE
8
cond
10
19.732591
20
-0.855122
30
0
11
19.7625
21
-0.875107
31
0
0
LINE
8
cond
10
19.7625
20
-0.875107
30
0
11
19.794762
21
-0.891017
31
0
0
LINE
8
cond
10
19.794762
20
-0.891017
30
0
11
19.828825
21
-0.90258
31
0
0
LINE
8
cond
10
19.828825
20
-0.90258
30
0
11
19.864105
21
-0.909597
31
0
0
LINE
8
cond
10
19.864105
20
-0.909597
30
0
11
19.9
21
-0.91195
31
0
0
LINE
8
cond
10
19.9
20
-0.91195
30
0
11
19.935895
21
-0.909597
31
0
0
LINE
8
cond
10
19.935895
20
-0.909597
30
0
11
19.971175
21
-0.90258
31
0
0
LINE
8
cond
10
19.971175
20
-0.90258
30
0
11
20.005238
21
-0.891017
31
0
0
LINE
8
cond
10
20.005238
20
-0.891017
30
0
11
20.0375
21
-0.875107
31
0
0
LINE
8
cond
10
20.0375
20
-0.875107
30
0
11
20.067409
21
-0.855122
31
0
0
LINE
8
cond
10
20.067409
20
-0.855122
30
0
11
20.094454
21
-0.831404
31
0
0
LINE
8
cond
10
20.094454
20
-0.831404
30
0
11
20.118172
21
-0.804359
31
0
0
LINE
8
cond
10
20.118172
20
-0.804359
30
0
11
20.138157
21
-0.77445
31
0
0
LINE
8
cond
10
20.138157
20
-0.77445
30
0
11
20.154067
21
-0.742188
31
0
0
LINE
8
cond
10
20.154067
20
-0.742188
30
0
11
20.16563
21
-0.708125
31
0
0
LINE
8
cond
10
20.16563
20
-0.708125
30
0
11
20.172647
21
-0.672845
31
0
0
LINE
8
cond
10
20.172647
20
-0.672845
30
0
11
20.175
21
-0.63695
31
0
0
LINE
8
pcvia1
10
22.05
20
-0.63695
30
0
11
22.048717
21
-0.617371
31
0
0
LINE
8
pcvia1
10
22.048717
20
-0.617371
30
0
11
22.044889
21
-0.598127
31
0
0
LINE
8
pcvia1
10
22.044889
20
-0.598127
30
0
11
22.038582
21
-0.579547
31
0
0
LINE
8
pcvia1
10
22.038582
20
-0.579547
30
0
11
22.029904
21
-0.56195
31
0
0
LINE
8
pcvia1
10
22.029904
20
-0.56195
30
0
11
22.019003
21
-0.545636
31
0
0
LINE
8
pcvia1
10
22.019003
20
-0.545636
30
0
11
22.006066
21
-0.530884
31
0
0
LINE
8
pcvia1
10
22.006066
20
-0.530884
30
0
11
21.991314
21
-0.517947
31
0
0
LINE
8
pcvia1
10
21.991314
20
-0.517947
30
0
11
21.975
21
-0.507046
31
0
0
LINE
8
pcvia1
10
21.975
20
-0.507046
30
0
11
21.957403
21
-0.498368
31
0
0
LINE
8
pcvia1
10
21.957403
20
-0.498368
30
0
11
21.938823
21
-0.492061
31
0
0
LINE
8
pcvia1
10
21.938823
20
-0.492061
30
0
11
21.919579
21
-0.488233
31
0
0
LINE
8
pcvia1
10
21.919579
20
-0.488233
30
0
11
21.9
21
-0.48695
31
0
0
LINE
8
pcvia1
10
21.9
20
-0.48695
30
0
11
21.880421
21
-0.488233
31
0
0
LINE
8
pcvia1
10
21.880421
20
-0.488233
30
0
11
21.861177
21
-0.492061
31
0
0
LINE
8
pcvia1
10
21.861177
20
-0.492061
30
0
11
21.842597
21
-0.498368
31
0
0
LINE
8
pcvia1
10
21.842597
20
-0.498368
30
0
11
21.825
21
-0.507046
31
0
0
LINE
8
pcvia1
10
21.825
20
-0.507046
30
0
11
21.808686
21
-0.517947
31
0
0
LINE
8
pcvia1
10
21.808686
20
-0.517947
30
0
11
21.793934
21
-0.530884
31
0
0
LINE
8
pcvia1
10
21.793934
20
-0.530884
30
0
11
21.780997
21
-0.545636
31
0
0
LINE
8
pcvia1
10
21.780997
20
-0.545636
30
0
11
21.770096
21
-0.56195
31
0
0
LINE
8
pcvia1
10
21.770096
20
-0.56195
30
0
11
21.761418
21
-0.579547
31
0
0
LINE
8
pcvia1
10
21.761418
20
-0.579547
30
0
11
21.755111
21
-0.598127
31
0
0
LINE
8
pcvia1
10
21.755111
20
-0.598127
30
0
11
21.751283
21
-0.617371
31
0
0
LINE
8
pcvia1
10
21.751283
20
-0.617371
30
0
11
21.75
21
-0.63695
31
0
0
LINE
8
pcvia1
10
21.75
20
-0.63695
30
0
11
21.751283
21
-0.656529
31
0
0
LINE
8
pcvia1
10
21.751283
20
-0.656529
30
0
11
21.755111
21
-0.675773
31
0
0
LINE
8
pcvia1
10
21.755111
20
-0.675773
30
0
11
21.761418
21
-0.694353
31
0
0
LINE
8
pcvia1
10
21.761418
20
-0.694353
30
0
11
21.770096
21
-0.71195
31
0
0
LINE
8
pcvia1
10
21.770096
20
-0.71195
30
0
11
21.780997
21
-0.728264
31
0
0
LINE
8
pcvia1
10
21.780997
20
-0.728264
30
0
11
21.793934
21
-0.743016
31
0
0
LINE
8
pcvia1
10
21.793934
20
-0.743016
30
0
11
21.808686
21
-0.755953
31
0
0
LINE
8
pcvia1
10
21.808686
20
-0.755953
30
0
11
21.825
21
-0.766854
31
0
0
LINE
8
pcvia1
10
21.825
20
-0.766854
30
0
11
21.842597
21
-0.775532
31
0
0
LINE
8
pcvia1
10
21.842597
20
-0.775532
30
0
11
21.861177
21
-0.781839
31
0
0
LINE
8
pcvia1
10
21.861177
20
-0.781839
30
0
11
21.880421
21
-0.785667
31
0
0
LINE
8
pcvia1
10
21.880421
20
-0.785667
30
0
11
21.9
21
-0.78695
31
0
0
LINE
8
pcvia1
10
21.9
20
-0.78695
30
0
11
21.919579
21
-0.785667
31
0
0
LINE
8
pcvia1
10
21.919579
20
-0.785667
30
0
11
21.938823
21
-0.781839
31
0
0
LINE
8
pcvia1
10
21.938823
20
-0.781839
30
0
11
21.957403
21
-0.775532
31
0
0
LINE
8
pcvia1
10
21.957403
20
-0.775532
30
0
11
21.975
21
-0.766854
31
0
0
LINE
8
pcvia1
10
21.975
20
-0.766854
30
0
11
21.991314
21
-0.755953
31
0
0
LINE
8
pcvia1
10
21.991314
20
-0.755953
30
0
11
22.006066
21
-0.743016
31
0
0
LINE
8
pcvia1
10
22.006066
20
-0.743016
30
0
11
22.019003
21
-0.728264
31
0
0
LINE
8
pcvia1
10
22.019003
20
-0.728264
30
0
11
22.029904
21
-0.71195
31
0
0
LINE
8
pcvia1
10
22.029904
20
-0.71195
30
0
11
22.038582
21
-0.694353
31
0
0
LINE
8
pcvia1
10
22.038582
20
-0.694353
30
0
11
22.044889
21
-0.675773
31
0
0
LINE
8
pcvia1
10
22.044889
20
-0.675773
30
0
11
22.048717
21
-0.656529
31
0
0
LINE
8
pcvia1
10
22.048717
20
-0.656529
30
0
11
22.05
21
-0.63695
31
0
0
LINE
8
cond
10
22.175
20
-0.63695
30
0
11
22.172647
21
-0.601055
31
0
0
LINE
8
cond
10
22.172647
20
-0.601055
30
0
11
22.16563
21
-0.565775
31
0
0
LINE
8
cond
10
22.16563
20
-0.565775
30
0
11
22.154067
21
-0.531712
31
0
0
LINE
8
cond
10
22.154067
20
-0.531712
30
0
11
22.138157
21
-0.49945
31
0
0
LINE
8
cond
10
22.138157
20
-0.49945
30
0
11
22.118172
21
-0.469541
31
0
0
LINE
8
cond
10
22.118172
20
-0.469541
30
0
11
22.094454
21
-0.442496
31
0
0
LINE
8
cond
10
22.094454
20
-0.442496
30
0
11
22.067409
21
-0.418778
31
0
0
LINE
8
cond
10
22.067409
20
-0.418778
30
0
11
22.0375
21
-0.398793
31
0
0
LINE
8
cond
10
22.0375
20
-0.398793
30
0
11
22.005238
21
-0.382883
31
0
0
LINE
8
cond
10
22.005238
20
-0.382883
30
0
11
21.971175
21
-0.37132
31
0
0
LINE
8
cond
10
21.971175
20
-0.37132
30
0
11
21.935895
21
-0.364303
31
0
0
LINE
8
cond
10
21.935895
20
-0.364303
30
0
11
21.9
21
-0.36195
31
0
0
LINE
8
cond
10
21.9
20
-0.36195
30
0
11
21.864105
21
-0.364303
31
0
0
LINE
8
cond
10
21.864105
20
-0.364303
30
0
11
21.828825
21
-0.37132
31
0
0
LINE
8
cond
10
21.828825
20
-0.37132
30
0
11
21.794762
21
-0.382883
31
0
0
LINE
8
cond
10
21.794762
20
-0.382883
30
0
11
21.7625
21
-0.398793
31
0
0
LINE
8
cond
10
21.7625
20
-0.398793
30
0
11
21.732591
21
-0.418778
31
0
0
LINE
8
cond
10
21.732591
20
-0.418778
30
0
11
21.705546
21
-0.442496
31
0
0
LINE
8
cond
10
21.705546
20
-0.442496
30
0
11
21.681828
21
-0.469541
31
0
0
LINE
8
cond
10
21.681828
20
-0.469541
30
0
11
21.661843
21
-0.49945
31
0
0
LINE
8
cond
10
21.661843
20
-0.49945
30
0
11
21.645933
21
-0.531712
31
0
0
LINE
8
cond
10
21.645933
20
-0.531712
30
0
11
21.63437
21
-0.565775
31
0
0
LINE
8
cond
10
21.63437
20
-0.565775
30
0
11
21.627353
21
-0.601055
31
0
0
LINE
8
cond
10
21.627353
20
-0.601055
30
0
11
21.625
21
-0.63695
31
0
0
LINE
8
cond
10
21.625
20
-0.63695
30
0
11
21.627353
21
-0.672845
31
0
0
LINE
8
cond
10
21.627353
20
-0.672845
30
0
11
21.63437
21
-0.708125
31
0
0
LINE
8
cond
10
21.63437
20
-0.708125
30
0
11
21.645933
21
-0.742188
31
0
0
LINE
8
cond
10
21.645933
20
-0.742188
30
0
11
21.661843
21
-0.77445
31
0
0
LINE
8
cond
10
21.661843
20
-0.77445
30
0
11
21.681828
21
-0.804359
31
0
0
LINE
8
cond
10
21.681828
20
-0.804359
30
0
11
21.705546
21
-0.831404
31
0
0
LINE
8
cond
10
21.705546
20
-0.831404
30
0
11
21.732591
21
-0.855122
31
0
0
LINE
8
cond
10
21.732591
20
-0.855122
30
0
11
21.7625
21
-0.875107
31
0
0
LINE
8
cond
10
21.7625
20
-0.875107
30
0
11
21.794762
21
-0.891017
31
0
0
LINE
8
cond
10
21.794762
20
-0.891017
30
0
11
21.828825
21
-0.90258
31
0
0
LINE
8
cond
10
21.828825
20
-0.90258
30
0
11
21.864105
21
-0.909597
31
0
0
LINE
8
cond
10
21.864105
20
-0.909597
30
0
11
21.9
21
-0.91195
31
0
0
LINE
8
cond
10
21.9
20
-0.91195
30
0
11
21.935895
21
-0.909597
31
0
0
LINE
8
cond
10
21.935895
20
-0.909597
30
0
11
21.971175
21
-0.90258
31
0
0
LINE
8
cond
10
21.971175
20
-0.90258
30
0
11
22.005238
21
-0.891017
31
0
0
LINE
8
cond
10
22.005238
20
-0.891017
30
0
11
22.0375
21
-0.875107
31
0
0
LINE
8
cond
10
22.0375
20
-0.875107
30
0
11
22.067409
21
-0.855122
31
0
0
LINE
8
cond
10
22.067409
20
-0.855122
30
0
11
22.094454
21
-0.831404
31
0
0
LINE
8
cond
10
22.094454
20
-0.831404
30
0
11
22.118172
21
-0.804359
31
0
0
LINE
8
cond
10
22.118172
20
-0.804359
30
0
11
22.138157
21
-0.77445
31
0
0
LINE
8
cond
10
22.138157
20
-0.77445
30
0
11
22.154067
21
-0.742188
31
0
0
LINE
8
cond
10
22.154067
20
-0.742188
30
0
11
22.16563
21
-0.708125
31
0
0
LINE
8
cond
10
22.16563
20
-0.708125
30
0
11
22.172647
21
-0.672845
31
0
0
LINE
8
cond
10
22.172647
20
-0.672845
30
0
11
22.175
21
-0.63695
31
0
0
LINE
8
pcvia1
10
24.05
20
-0.63695
30
0
11
24.048717
21
-0.617371
31
0
0
LINE
8
pcvia1
10
24.048717
20
-0.617371
30
0
11
24.044889
21
-0.598127
31
0
0
LINE
8
pcvia1
10
24.044889
20
-0.598127
30
0
11
24.038582
21
-0.579547
31
0
0
LINE
8
pcvia1
10
24.038582
20
-0.579547
30
0
11
24.029904
21
-0.56195
31
0
0
LINE
8
pcvia1
10
24.029904
20
-0.56195
30
0
11
24.019003
21
-0.545636
31
0
0
LINE
8
pcvia1
10
24.019003
20
-0.545636
30
0
11
24.006066
21
-0.530884
31
0
0
LINE
8
pcvia1
10
24.006066
20
-0.530884
30
0
11
23.991314
21
-0.517947
31
0
0
LINE
8
pcvia1
10
23.991314
20
-0.517947
30
0
11
23.975
21
-0.507046
31
0
0
LINE
8
pcvia1
10
23.975
20
-0.507046
30
0
11
23.957403
21
-0.498368
31
0
0
LINE
8
pcvia1
10
23.957403
20
-0.498368
30
0
11
23.938823
21
-0.492061
31
0
0
LINE
8
pcvia1
10
23.938823
20
-0.492061
30
0
11
23.919579
21
-0.488233
31
0
0
LINE
8
pcvia1
10
23.919579
20
-0.488233
30
0
11
23.9
21
-0.48695
31
0
0
LINE
8
pcvia1
10
23.9
20
-0.48695
30
0
11
23.880421
21
-0.488233
31
0
0
LINE
8
pcvia1
10
23.880421
20
-0.488233
30
0
11
23.861177
21
-0.492061
31
0
0
LINE
8
pcvia1
10
23.861177
20
-0.492061
30
0
11
23.842597
21
-0.498368
31
0
0
LINE
8
pcvia1
10
23.842597
20
-0.498368
30
0
11
23.825
21
-0.507046
31
0
0
LINE
8
pcvia1
10
23.825
20
-0.507046
30
0
11
23.808686
21
-0.517947
31
0
0
LINE
8
pcvia1
10
23.808686
20
-0.517947
30
0
11
23.793934
21
-0.530884
31
0
0
LINE
8
pcvia1
10
23.793934
20
-0.530884
30
0
11
23.780997
21
-0.545636
31
0
0
LINE
8
pcvia1
10
23.780997
20
-0.545636
30
0
11
23.770096
21
-0.56195
31
0
0
LINE
8
pcvia1
10
23.770096
20
-0.56195
30
0
11
23.761418
21
-0.579547
31
0
0
LINE
8
pcvia1
10
23.761418
20
-0.579547
30
0
11
23.755111
21
-0.598127
31
0
0
LINE
8
pcvia1
10
23.755111
20
-0.598127
30
0
11
23.751283
21
-0.617371
31
0
0
LINE
8
pcvia1
10
23.751283
20
-0.617371
30
0
11
23.75
21
-0.63695
31
0
0
LINE
8
pcvia1
10
23.75
20
-0.63695
30
0
11
23.751283
21
-0.656529
31
0
0
LINE
8
pcvia1
10
23.751283
20
-0.656529
30
0
11
23.755111
21
-0.675773
31
0
0
LINE
8
pcvia1
10
23.755111
20
-0.675773
30
0
11
23.761418
21
-0.694353
31
0
0
LINE
8
pcvia1
10
23.761418
20
-0.694353
30
0
11
23.770096
21
-0.71195
31
0
0
LINE
8
pcvia1
10
23.770096
20
-0.71195
30
0
11
23.780997
21
-0.728264
31
0
0
LINE
8
pcvia1
10
23.780997
20
-0.728264
30
0
11
23.793934
21
-0.743016
31
0
0
LINE
8
pcvia1
10
23.793934
20
-0.743016
30
0
11
23.808686
21
-0.755953
31
0
0
LINE
8
pcvia1
10
23.808686
20
-0.755953
30
0
11
23.825
21
-0.766854
31
0
0
LINE
8
pcvia1
10
23.825
20
-0.766854
30
0
11
23.842597
21
-0.775532
31
0
0
LINE
8
pcvia1
10
23.842597
20
-0.775532
30
0
11
23.861177
21
-0.781839
31
0
0
LINE
8
pcvia1
10
23.861177
20
-0.781839
30
0
11
23.880421
21
-0.785667
31
0
0
LINE
8
pcvia1
10
23.880421
20
-0.785667
30
0
11
23.9
21
-0.78695
31
0
0
LINE
8
pcvia1
10
23.9
20
-0.78695
30
0
11
23.919579
21
-0.785667
31
0
0
LINE
8
pcvia1
10
23.919579
20
-0.785667
30
0
11
23.938823
21
-0.781839
31
0
0
LINE
8
pcvia1
10
23.938823
20
-0.781839
30
0
11
23.957403
21
-0.775532
31
0
0
LINE
8
pcvia1
10
23.957403
20
-0.775532
30
0
11
23.975
21
-0.766854
31
0
0
LINE
8
pcvia1
10
23.975
20
-0.766854
30
0
11
23.991314
21
-0.755953
31
0
0
LINE
8
pcvia1
10
23.991314
20
-0.755953
30
0
11
24.006066
21
-0.743016
31
0
0
LINE
8
pcvia1
10
24.006066
20
-0.743016
30
0
11
24.019003
21
-0.728264
31
0
0
LINE
8
pcvia1
10
24.019003
20
-0.728264
30
0
11
24.029904
21
-0.71195
31
0
0
LINE
8
pcvia1
10
24.029904
20
-0.71195
30
0
11
24.038582
21
-0.694353
31
0
0
LINE
8
pcvia1
10
24.038582
20
-0.694353
30
0
11
24.044889
21
-0.675773
31
0
0
LINE
8
pcvia1
10
24.044889
20
-0.675773
30
0
11
24.048717
21
-0.656529
31
0
0
LINE
8
pcvia1
10
24.048717
20
-0.656529
30
0
11
24.05
21
-0.63695
31
0
0
LINE
8
cond
10
24.175
20
-0.63695
30
0
11
24.172647
21
-0.601055
31
0
0
LINE
8
cond
10
24.172647
20
-0.601055
30
0
11
24.16563
21
-0.565775
31
0
0
LINE
8
cond
10
24.16563
20
-0.565775
30
0
11
24.154067
21
-0.531712
31
0
0
LINE
8
cond
10
24.154067
20
-0.531712
30
0
11
24.138157
21
-0.49945
31
0
0
LINE
8
cond
10
24.138157
20
-0.49945
30
0
11
24.118172
21
-0.469541
31
0
0
LINE
8
cond
10
24.118172
20
-0.469541
30
0
11
24.094454
21
-0.442496
31
0
0
LINE
8
cond
10
24.094454
20
-0.442496
30
0
11
24.067409
21
-0.418778
31
0
0
LINE
8
cond
10
24.067409
20
-0.418778
30
0
11
24.0375
21
-0.398793
31
0
0
LINE
8
cond
10
24.0375
20
-0.398793
30
0
11
24.005238
21
-0.382883
31
0
0
LINE
8
cond
10
24.005238
20
-0.382883
30
0
11
23.971175
21
-0.37132
31
0
0
LINE
8
cond
10
23.971175
20
-0.37132
30
0
11
23.935895
21
-0.364303
31
0
0
LINE
8
cond
10
23.935895
20
-0.364303
30
0
11
23.9
21
-0.36195
31
0
0
LINE
8
cond
10
23.9
20
-0.36195
30
0
11
23.864105
21
-0.364303
31
0
0
LINE
8
cond
10
23.864105
20
-0.364303
30
0
11
23.828825
21
-0.37132
31
0
0
LINE
8
cond
10
23.828825
20
-0.37132
30
0
11
23.794762
21
-0.382883
31
0
0
LINE
8
cond
10
23.794762
20
-0.382883
30
0
11
23.7625
21
-0.398793
31
0
0
LINE
8
cond
10
23.7625
20
-0.398793
30
0
11
23.732591
21
-0.418778
31
0
0
LINE
8
cond
10
23.732591
20
-0.418778
30
0
11
23.705546
21
-0.442496
31
0
0
LINE
8
cond
10
23.705546
20
-0.442496
30
0
11
23.681828
21
-0.469541
31
0
0
LINE
8
cond
10
23.681828
20
-0.469541
30
0
11
23.661843
21
-0.49945
31
0
0
LINE
8
cond
10
23.661843
20
-0.49945
30
0
11
23.645933
21
-0.531712
31
0
0
LINE
8
cond
10
23.645933
20
-0.531712
30
0
11
23.63437
21
-0.565775
31
0
0
LINE
8
cond
10
23.63437
20
-0.565775
30
0
11
23.627353
21
-0.601055
31
0
0
LINE
8
cond
10
23.627353
20
-0.601055
30
0
11
23.625
21
-0.63695
31
0
0
LINE
8
cond
10
23.625
20
-0.63695
30
0
11
23.627353
21
-0.672845
31
0
0
LINE
8
cond
10
23.627353
20
-0.672845
30
0
11
23.63437
21
-0.708125
31
0
0
LINE
8
cond
10
23.63437
20
-0.708125
30
0
11
23.645933
21
-0.742188
31
0
0
LINE
8
cond
10
23.645933
20
-0.742188
30
0
11
23.661843
21
-0.77445
31
0
0
LINE
8
cond
10
23.661843
20
-0.77445
30
0
11
23.681828
21
-0.804359
31
0
0
LINE
8
cond
10
23.681828
20
-0.804359
30
0
11
23.705546
21
-0.831404
31
0
0
LINE
8
cond
10
23.705546
20
-0.831404
30
0
11
23.732591
21
-0.855122
31
0
0
LINE
8
cond
10
23.732591
20
-0.855122
30
0
11
23.7625
21
-0.875107
31
0
0
LINE
8
cond
10
23.7625
20
-0.875107
30
0
11
23.794762
21
-0.891017
31
0
0
LINE
8
cond
10
23.794762
20
-0.891017
30
0
11
23.828825
21
-0.90258
31
0
0
LINE
8
cond
10
23.828825
20
-0.90258
30
0
11
23.864105
21
-0.909597
31
0
0
LINE
8
cond
10
23.864105
20
-0.909597
30
0
11
23.9
21
-0.91195
31
0
0
LINE
8
cond
10
23.9
20
-0.91195
30
0
11
23.935895
21
-0.909597
31
0
0
LINE
8
cond
10
23.935895
20
-0.909597
30
0
11
23.971175
21
-0.90258
31
0
0
LINE
8
cond
10
23.971175
20
-0.90258
30
0
11
24.005238
21
-0.891017
31
0
0
LINE
8
cond
10
24.005238
20
-0.891017
30
0
11
24.0375
21
-0.875107
31
0
0
LINE
8
cond
10
24.0375
20
-0.875107
30
0
11
24.067409
21
-0.855122
31
0
0
LINE
8
cond
10
24.067409
20
-0.855122
30
0
11
24.094454
21
-0.831404
31
0
0
LINE
8
cond
10
24.094454
20
-0.831404
30
0
11
24.118172
21
-0.804359
31
0
0
LINE
8
cond
10
24.118172
20
-0.804359
30
0
11
24.138157
21
-0.77445
31
0
0
LINE
8
cond
10
24.138157
20
-0.77445
30
0
11
24.154067
21
-0.742188
31
0
0
LINE
8
cond
10
24.154067
20
-0.742188
30
0
11
24.16563
21
-0.708125
31
0
0
LINE
8
cond
10
24.16563
20
-0.708125
30
0
11
24.172647
21
-0.672845
31
0
0
LINE
8
cond
10
24.172647
20
-0.672845
30
0
11
24.175
21
-0.63695
31
0
0
LINE
8
pcvia1
10
26.05
20
-0.63695
30
0
11
26.048717
21
-0.617371
31
0
0
LINE
8
pcvia1
10
26.048717
20
-0.617371
30
0
11
26.044889
21
-0.598127
31
0
0
LINE
8
pcvia1
10
26.044889
20
-0.598127
30
0
11
26.038582
21
-0.579547
31
0
0
LINE
8
pcvia1
10
26.038582
20
-0.579547
30
0
11
26.029904
21
-0.56195
31
0
0
LINE
8
pcvia1
10
26.029904
20
-0.56195
30
0
11
26.019003
21
-0.545636
31
0
0
LINE
8
pcvia1
10
26.019003
20
-0.545636
30
0
11
26.006066
21
-0.530884
31
0
0
LINE
8
pcvia1
10
26.006066
20
-0.530884
30
0
11
25.991314
21
-0.517947
31
0
0
LINE
8
pcvia1
10
25.991314
20
-0.517947
30
0
11
25.975
21
-0.507046
31
0
0
LINE
8
pcvia1
10
25.975
20
-0.507046
30
0
11
25.957403
21
-0.498368
31
0
0
LINE
8
pcvia1
10
25.957403
20
-0.498368
30
0
11
25.938823
21
-0.492061
31
0
0
LINE
8
pcvia1
10
25.938823
20
-0.492061
30
0
11
25.919579
21
-0.488233
31
0
0
LINE
8
pcvia1
10
25.919579
20
-0.488233
30
0
11
25.9
21
-0.48695
31
0
0
LINE
8
pcvia1
10
25.9
20
-0.48695
30
0
11
25.880421
21
-0.488233
31
0
0
LINE
8
pcvia1
10
25.880421
20
-0.488233
30
0
11
25.861177
21
-0.492061
31
0
0
LINE
8
pcvia1
10
25.861177
20
-0.492061
30
0
11
25.842597
21
-0.498368
31
0
0
LINE
8
pcvia1
10
25.842597
20
-0.498368
30
0
11
25.825
21
-0.507046
31
0
0
LINE
8
pcvia1
10
25.825
20
-0.507046
30
0
11
25.808686
21
-0.517947
31
0
0
LINE
8
pcvia1
10
25.808686
20
-0.517947
30
0
11
25.793934
21
-0.530884
31
0
0
LINE
8
pcvia1
10
25.793934
20
-0.530884
30
0
11
25.780997
21
-0.545636
31
0
0
LINE
8
pcvia1
10
25.780997
20
-0.545636
30
0
11
25.770096
21
-0.56195
31
0
0
LINE
8
pcvia1
10
25.770096
20
-0.56195
30
0
11
25.761418
21
-0.579547
31
0
0
LINE
8
pcvia1
10
25.761418
20
-0.579547
30
0
11
25.755111
21
-0.598127
31
0
0
LINE
8
pcvia1
10
25.755111
20
-0.598127
30
0
11
25.751283
21
-0.617371
31
0
0
LINE
8
pcvia1
10
25.751283
20
-0.617371
30
0
11
25.75
21
-0.63695
31
0
0
LINE
8
pcvia1
10
25.75
20
-0.63695
30
0
11
25.751283
21
-0.656529
31
0
0
LINE
8
pcvia1
10
25.751283
20
-0.656529
30
0
11
25.755111
21
-0.675773
31
0
0
LINE
8
pcvia1
10
25.755111
20
-0.675773
30
0
11
25.761418
21
-0.694353
31
0
0
LINE
8
pcvia1
10
25.761418
20
-0.694353
30
0
11
25.770096
21
-0.71195
31
0
0
LINE
8
pcvia1
10
25.770096
20
-0.71195
30
0
11
25.780997
21
-0.728264
31
0
0
LINE
8
pcvia1
10
25.780997
20
-0.728264
30
0
11
25.793934
21
-0.743016
31
0
0
LINE
8
pcvia1
10
25.793934
20
-0.743016
30
0
11
25.808686
21
-0.755953
31
0
0
LINE
8
pcvia1
10
25.808686
20
-0.755953
30
0
11
25.825
21
-0.766854
31
0
0
LINE
8
pcvia1
10
25.825
20
-0.766854
30
0
11
25.842597
21
-0.775532
31
0
0
LINE
8
pcvia1
10
25.842597
20
-0.775532
30
0
11
25.861177
21
-0.781839
31
0
0
LINE
8
pcvia1
10
25.861177
20
-0.781839
30
0
11
25.880421
21
-0.785667
31
0
0
LINE
8
pcvia1
10
25.880421
20
-0.785667
30
0
11
25.9
21
-0.78695
31
0
0
LINE
8
pcvia1
10
25.9
20
-0.78695
30
0
11
25.919579
21
-0.785667
31
0
0
LINE
8
pcvia1
10
25.919579
20
-0.785667
30
0
11
25.938823
21
-0.781839
31
0
0
LINE
8
pcvia1
10
25.938823
20
-0.781839
30
0
11
25.957403
21
-0.775532
31
0
0
LINE
8
pcvia1
10
25.957403
20
-0.775532
30
0
11
25.975
21
-0.766854
31
0
0
LINE
8
pcvia1
10
25.975
20
-0.766854
30
0
11
25.991314
21
-0.755953
31
0
0
LINE
8
pcvia1
10
25.991314
20
-0.755953
30
0
11
26.006066
21
-0.743016
31
0
0
LINE
8
pcvia1
10
26.006066
20
-0.743016
30
0
11
26.019003
21
-0.728264
31
0
0
LINE
8
pcvia1
10
26.019003
20
-0.728264
30
0
11
26.029904
21
-0.71195
31
0
0
LINE
8
pcvia1
10
26.029904
20
-0.71195
30
0
11
26.038582
21
-0.694353
31
0
0
LINE
8
pcvia1
10
26.038582
20
-0.694353
30
0
11
26.044889
21
-0.675773
31
0
0
LINE
8
pcvia1
10
26.044889
20
-0.675773
30
0
11
26.048717
21
-0.656529
31
0
0
LINE
8
pcvia1
10
26.048717
20
-0.656529
30
0
11
26.05
21
-0.63695
31
0
0
LINE
8
cond
10
26.175
20
-0.63695
30
0
11
26.172647
21
-0.601055
31
0
0
LINE
8
cond
10
26.172647
20
-0.601055
30
0
11
26.16563
21
-0.565775
31
0
0
LINE
8
cond
10
26.16563
20
-0.565775
30
0
11
26.154067
21
-0.531712
31
0
0
LINE
8
cond
10
26.154067
20
-0.531712
30
0
11
26.138157
21
-0.49945
31
0
0
LINE
8
cond
10
26.138157
20
-0.49945
30
0
11
26.118172
21
-0.469541
31
0
0
LINE
8
cond
10
26.118172
20
-0.469541
30
0
11
26.094454
21
-0.442496
31
0
0
LINE
8
cond
10
26.094454
20
-0.442496
30
0
11
26.067409
21
-0.418778
31
0
0
LINE
8
cond
10
26.067409
20
-0.418778
30
0
11
26.0375
21
-0.398793
31
0
0
LINE
8
cond
10
26.0375
20
-0.398793
30
0
11
26.005238
21
-0.382883
31
0
0
LINE
8
cond
10
26.005238
20
-0.382883
30
0
11
25.971175
21
-0.37132
31
0
0
LINE
8
cond
10
25.971175
20
-0.37132
30
0
11
25.935895
21
-0.364303
31
0
0
LINE
8
cond
10
25.935895
20
-0.364303
30
0
11
25.9
21
-0.36195
31
0
0
LINE
8
cond
10
25.9
20
-0.36195
30
0
11
25.864105
21
-0.364303
31
0
0
LINE
8
cond
10
25.864105
20
-0.364303
30
0
11
25.828825
21
-0.37132
31
0
0
LINE
8
cond
10
25.828825
20
-0.37132
30
0
11
25.794762
21
-0.382883
31
0
0
LINE
8
cond
10
25.794762
20
-0.382883
30
0
11
25.7625
21
-0.398793
31
0
0
LINE
8
cond
10
25.7625
20
-0.398793
30
0
11
25.732591
21
-0.418778
31
0
0
LINE
8
cond
10
25.732591
20
-0.418778
30
0
11
25.705546
21
-0.442496
31
0
0
LINE
8
cond
10
25.705546
20
-0.442496
30
0
11
25.681828
21
-0.469541
31
0
0
LINE
8
cond
10
25.681828
20
-0.469541
30
0
11
25.661843
21
-0.49945
31
0
0
LINE
8
cond
10
25.661843
20
-0.49945
30
0
11
25.645933
21
-0.531712
31
0
0
LINE
8
cond
10
25.645933
20
-0.531712
30
0
11
25.63437
21
-0.565775
31
0
0
LINE
8
cond
10
25.63437
20
-0.565775
30
0
11
25.627353
21
-0.601055
31
0
0
LINE
8
cond
10
25.627353
20
-0.601055
30
0
11
25.625
21
-0.63695
31
0
0
LINE
8
cond
10
25.625
20
-0.63695
30
0
11
25.627353
21
-0.672845
31
0
0
LINE
8
cond
10
25.627353
20
-0.672845
30
0
11
25.63437
21
-0.708125
31
0
0
LINE
8
cond
10
25.63437
20
-0.708125
30
0
11
25.645933
21
-0.742188
31
0
0
LINE
8
cond
10
25.645933
20
-0.742188
30
0
11
25.661843
21
-0.77445
31
0
0
LINE
8
cond
10
25.661843
20
-0.77445
30
0
11
25.681828
21
-0.804359
31
0
0
LINE
8
cond
10
25.681828
20
-0.804359
30
0
11
25.705546
21
-0.831404
31
0
0
LINE
8
cond
10
25.705546
20
-0.831404
30
0
11
25.732591
21
-0.855122
31
0
0
LINE
8
cond
10
25.732591
20
-0.855122
30
0
11
25.7625
21
-0.875107
31
0
0
LINE
8
cond
10
25.7625
20
-0.875107
30
0
11
25.794762
21
-0.891017
31
0
0
LINE
8
cond
10
25.794762
20
-0.891017
30
0
11
25.828825
21
-0.90258
31
0
0
LINE
8
cond
10
25.828825
20
-0.90258
30
0
11
25.864105
21
-0.909597
31
0
0
LINE
8
cond
10
25.864105
20
-0.909597
30
0
11
25.9
21
-0.91195
31
0
0
LINE
8
cond
10
25.9
20
-0.91195
30
0
11
25.935895
21
-0.909597
31
0
0
LINE
8
cond
10
25.935895
20
-0.909597
30
0
11
25.971175
21
-0.90258
31
0
0
LINE
8
cond
10
25.971175
20
-0.90258
30
0
11
26.005238
21
-0.891017
31
0
0
LINE
8
cond
10
26.005238
20
-0.891017
30
0
11
26.0375
21
-0.875107
31
0
0
LINE
8
cond
10
26.0375
20
-0.875107
30
0
11
26.067409
21
-0.855122
31
0
0
LINE
8
cond
10
26.067409
20
-0.855122
30
0
11
26.094454
21
-0.831404
31
0
0
LINE
8
cond
10
26.094454
20
-0.831404
30
0
11
26.118172
21
-0.804359
31
0
0
LINE
8
cond
10
26.118172
20
-0.804359
30
0
11
26.138157
21
-0.77445
31
0
0
LINE
8
cond
10
26.138157
20
-0.77445
30
0
11
26.154067
21
-0.742188
31
0
0
LINE
8
cond
10
26.154067
20
-0.742188
30
0
11
26.16563
21
-0.708125
31
0
0
LINE
8
cond
10
26.16563
20
-0.708125
30
0
11
26.172647
21
-0.672845
31
0
0
LINE
8
cond
10
26.172647
20
-0.672845
30
0
11
26.175
21
-0.63695
31
0
0
LINE
8
pcvia1
10
28.05
20
-0.63695
30
0
11
28.048717
21
-0.617371
31
0
0
LINE
8
pcvia1
10
28.048717
20
-0.617371
30
0
11
28.044889
21
-0.598127
31
0
0
LINE
8
pcvia1
10
28.044889
20
-0.598127
30
0
11
28.038582
21
-0.579547
31
0
0
LINE
8
pcvia1
10
28.038582
20
-0.579547
30
0
11
28.029904
21
-0.56195
31
0
0
LINE
8
pcvia1
10
28.029904
20
-0.56195
30
0
11
28.019003
21
-0.545636
31
0
0
LINE
8
pcvia1
10
28.019003
20
-0.545636
30
0
11
28.006066
21
-0.530884
31
0
0
LINE
8
pcvia1
10
28.006066
20
-0.530884
30
0
11
27.991314
21
-0.517947
31
0
0
LINE
8
pcvia1
10
27.991314
20
-0.517947
30
0
11
27.975
21
-0.507046
31
0
0
LINE
8
pcvia1
10
27.975
20
-0.507046
30
0
11
27.957403
21
-0.498368
31
0
0
LINE
8
pcvia1
10
27.957403
20
-0.498368
30
0
11
27.938823
21
-0.492061
31
0
0
LINE
8
pcvia1
10
27.938823
20
-0.492061
30
0
11
27.919579
21
-0.488233
31
0
0
LINE
8
pcvia1
10
27.919579
20
-0.488233
30
0
11
27.9
21
-0.48695
31
0
0
LINE
8
pcvia1
10
27.9
20
-0.48695
30
0
11
27.880421
21
-0.488233
31
0
0
LINE
8
pcvia1
10
27.880421
20
-0.488233
30
0
11
27.861177
21
-0.492061
31
0
0
LINE
8
pcvia1
10
27.861177
20
-0.492061
30
0
11
27.842597
21
-0.498368
31
0
0
LINE
8
pcvia1
10
27.842597
20
-0.498368
30
0
11
27.825
21
-0.507046
31
0
0
LINE
8
pcvia1
10
27.825
20
-0.507046
30
0
11
27.808686
21
-0.517947
31
0
0
LINE
8
pcvia1
10
27.808686
20
-0.517947
30
0
11
27.793934
21
-0.530884
31
0
0
LINE
8
pcvia1
10
27.793934
20
-0.530884
30
0
11
27.780997
21
-0.545636
31
0
0
LINE
8
pcvia1
10
27.780997
20
-0.545636
30
0
11
27.770096
21
-0.56195
31
0
0
LINE
8
pcvia1
10
27.770096
20
-0.56195
30
0
11
27.761418
21
-0.579547
31
0
0
LINE
8
pcvia1
10
27.761418
20
-0.579547
30
0
11
27.755111
21
-0.598127
31
0
0
LINE
8
pcvia1
10
27.755111
20
-0.598127
30
0
11
27.751283
21
-0.617371
31
0
0
LINE
8
pcvia1
10
27.751283
20
-0.617371
30
0
11
27.75
21
-0.63695
31
0
0
LINE
8
pcvia1
10
27.75
20
-0.63695
30
0
11
27.751283
21
-0.656529
31
0
0
LINE
8
pcvia1
10
27.751283
20
-0.656529
30
0
11
27.755111
21
-0.675773
31
0
0
LINE
8
pcvia1
10
27.755111
20
-0.675773
30
0
11
27.761418
21
-0.694353
31
0
0
LINE
8
pcvia1
10
27.761418
20
-0.694353
30
0
11
27.770096
21
-0.71195
31
0
0
LINE
8
pcvia1
10
27.770096
20
-0.71195
30
0
11
27.780997
21
-0.728264
31
0
0
LINE
8
pcvia1
10
27.780997
20
-0.728264
30
0
11
27.793934
21
-0.743016
31
0
0
LINE
8
pcvia1
10
27.793934
20
-0.743016
30
0
11
27.808686
21
-0.755953
31
0
0
LINE
8
pcvia1
10
27.808686
20
-0.755953
30
0
11
27.825
21
-0.766854
31
0
0
LINE
8
pcvia1
10
27.825
20
-0.766854
30
0
11
27.842597
21
-0.775532
31
0
0
LINE
8
pcvia1
10
27.842597
20
-0.775532
30
0
11
27.861177
21
-0.781839
31
0
0
LINE
8
pcvia1
10
27.861177
20
-0.781839
30
0
11
27.880421
21
-0.785667
31
0
0
LINE
8
pcvia1
10
27.880421
20
-0.785667
30
0
11
27.9
21
-0.78695
31
0
0
LINE
8
pcvia1
10
27.9
20
-0.78695
30
0
11
27.919579
21
-0.785667
31
0
0
LINE
8
pcvia1
10
27.919579
20
-0.785667
30
0
11
27.938823
21
-0.781839
31
0
0
LINE
8
pcvia1
10
27.938823
20
-0.781839
30
0
11
27.957403
21
-0.775532
31
0
0
LINE
8
pcvia1
10
27.957403
20
-0.775532
30
0
11
27.975
21
-0.766854
31
0
0
LINE
8
pcvia1
10
27.975
20
-0.766854
30
0
11
27.991314
21
-0.755953
31
0
0
LINE
8
pcvia1
10
27.991314
20
-0.755953
30
0
11
28.006066
21
-0.743016
31
0
0
LINE
8
pcvia1
10
28.006066
20
-0.743016
30
0
11
28.019003
21
-0.728264
31
0
0
LINE
8
pcvia1
10
28.019003
20
-0.728264
30
0
11
28.029904
21
-0.71195
31
0
0
LINE
8
pcvia1
10
28.029904
20
-0.71195
30
0
11
28.038582
21
-0.694353
31
0
0
LINE
8
pcvia1
10
28.038582
20
-0.694353
30
0
11
28.044889
21
-0.675773
31
0
0
LINE
8
pcvia1
10
28.044889
20
-0.675773
30
0
11
28.048717
21
-0.656529
31
0
0
LINE
8
pcvia1
10
28.048717
20
-0.656529
30
0
11
28.05
21
-0.63695
31
0
0
LINE
8
cond
10
28.175
20
-0.63695
30
0
11
28.172647
21
-0.601055
31
0
0
LINE
8
cond
10
28.172647
20
-0.601055
30
0
11
28.16563
21
-0.565775
31
0
0
LINE
8
cond
10
28.16563
20
-0.565775
30
0
11
28.154067
21
-0.531712
31
0
0
LINE
8
cond
10
28.154067
20
-0.531712
30
0
11
28.138157
21
-0.49945
31
0
0
LINE
8
cond
10
28.138157
20
-0.49945
30
0
11
28.118172
21
-0.469541
31
0
0
LINE
8
cond
10
28.118172
20
-0.469541
30
0
11
28.094454
21
-0.442496
31
0
0
LINE
8
cond
10
28.094454
20
-0.442496
30
0
11
28.067409
21
-0.418778
31
0
0
LINE
8
cond
10
28.067409
20
-0.418778
30
0
11
28.0375
21
-0.398793
31
0
0
LINE
8
cond
10
28.0375
20
-0.398793
30
0
11
28.005238
21
-0.382883
31
0
0
LINE
8
cond
10
28.005238
20
-0.382883
30
0
11
27.971175
21
-0.37132
31
0
0
LINE
8
cond
10
27.971175
20
-0.37132
30
0
11
27.935895
21
-0.364303
31
0
0
LINE
8
cond
10
27.935895
20
-0.364303
30
0
11
27.9
21
-0.36195
31
0
0
LINE
8
cond
10
27.9
20
-0.36195
30
0
11
27.864105
21
-0.364303
31
0
0
LINE
8
cond
10
27.864105
20
-0.364303
30
0
11
27.828825
21
-0.37132
31
0
0
LINE
8
cond
10
27.828825
20
-0.37132
30
0
11
27.794762
21
-0.382883
31
0
0
LINE
8
cond
10
27.794762
20
-0.382883
30
0
11
27.7625
21
-0.398793
31
0
0
LINE
8
cond
10
27.7625
20
-0.398793
30
0
11
27.732591
21
-0.418778
31
0
0
LINE
8
cond
10
27.732591
20
-0.418778
30
0
11
27.705546
21
-0.442496
31
0
0
LINE
8
cond
10
27.705546
20
-0.442496
30
0
11
27.681828
21
-0.469541
31
0
0
LINE
8
cond
10
27.681828
20
-0.469541
30
0
11
27.661843
21
-0.49945
31
0
0
LINE
8
cond
10
27.661843
20
-0.49945
30
0
11
27.645933
21
-0.531712
31
0
0
LINE
8
cond
10
27.645933
20
-0.531712
30
0
11
27.63437
21
-0.565775
31
0
0
LINE
8
cond
10
27.63437
20
-0.565775
30
0
11
27.627353
21
-0.601055
31
0
0
LINE
8
cond
10
27.627353
20
-0.601055
30
0
11
27.625
21
-0.63695
31
0
0
LINE
8
cond
10
27.625
20
-0.63695
30
0
11
27.627353
21
-0.672845
31
0
0
LINE
8
cond
10
27.627353
20
-0.672845
30
0
11
27.63437
21
-0.708125
31
0
0
LINE
8
cond
10
27.63437
20
-0.708125
30
0
11
27.645933
21
-0.742188
31
0
0
LINE
8
cond
10
27.645933
20
-0.742188
30
0
11
27.661843
21
-0.77445
31
0
0
LINE
8
cond
10
27.661843
20
-0.77445
30
0
11
27.681828
21
-0.804359
31
0
0
LINE
8
cond
10
27.681828
20
-0.804359
30
0
11
27.705546
21
-0.831404
31
0
0
LINE
8
cond
10
27.705546
20
-0.831404
30
0
11
27.732591
21
-0.855122
31
0
0
LINE
8
cond
10
27.732591
20
-0.855122
30
0
11
27.7625
21
-0.875107
31
0
0
LINE
8
cond
10
27.7625
20
-0.875107
30
0
11
27.794762
21
-0.891017
31
0
0
LINE
8
cond
10
27.794762
20
-0.891017
30
0
11
27.828825
21
-0.90258
31
0
0
LINE
8
cond
10
27.828825
20
-0.90258
30
0
11
27.864105
21
-0.909597
31
0
0
LINE
8
cond
10
27.864105
20
-0.909597
30
0
11
27.9
21
-0.91195
31
0
0
LINE
8
cond
10
27.9
20
-0.91195
30
0
11
27.935895
21
-0.909597
31
0
0
LINE
8
cond
10
27.935895
20
-0.909597
30
0
11
27.971175
21
-0.90258
31
0
0
LINE
8
cond
10
27.971175
20
-0.90258
30
0
11
28.005238
21
-0.891017
31
0
0
LINE
8
cond
10
28.005238
20
-0.891017
30
0
11
28.0375
21
-0.875107
31
0
0
LINE
8
cond
10
28.0375
20
-0.875107
30
0
11
28.067409
21
-0.855122
31
0
0
LINE
8
cond
10
28.067409
20
-0.855122
30
0
11
28.094454
21
-0.831404
31
0
0
LINE
8
cond
10
28.094454
20
-0.831404
30
0
11
28.118172
21
-0.804359
31
0
0
LINE
8
cond
10
28.118172
20
-0.804359
30
0
11
28.138157
21
-0.77445
31
0
0
LINE
8
cond
10
28.138157
20
-0.77445
30
0
11
28.154067
21
-0.742188
31
0
0
LINE
8
cond
10
28.154067
20
-0.742188
30
0
11
28.16563
21
-0.708125
31
0
0
LINE
8
cond
10
28.16563
20
-0.708125
30
0
11
28.172647
21
-0.672845
31
0
0
LINE
8
cond
10
28.172647
20
-0.672845
30
0
11
28.175
21
-0.63695
31
0
0
LINE
8
reference_ground_plane
10
-0
20
-4
30
0
11
31.5
21
-4
31
0
0
LINE
8
reference_ground_plane
10
31.5
20
-4
30
0
11
31.5
21
-0.85
31
0
0
LINE
8
reference_ground_plane
10
31.5
20
-0.85
30
0
11
-0
21
-0.85
31
0
0
LINE
8
reference_ground_plane
10
-0
20
-0.85
30
0
11
-0
21
-4
31
0
0
LINE
8
reference_ground_plane
10
4.15
20
-0.85
30
0
11
31.5
21
-0.85
31
0
0
LINE
8
reference_ground_plane
10
31.5
20
-0.85
30
0
11
31.5
21
0.85
31
0
0
LINE
8
reference_ground_plane
10
31.5
20
0.85
30
0
11
4.15
21
0.85
31
0
0
LINE
8
reference_ground_plane
10
4.15
20
0.85
30
0
11
4.15
21
-0.85
31
0
0
LINE
8
reference_ground_plane
10
-0
20
0.85
30
0
11
31.5
21
0.85
31
0
0
LINE
8
reference_ground_plane
10
31.5
20
0.85
30
0
11
31.5
21
4
31
0
0
LINE
8
reference_ground_plane
10
31.5
20
4
30
0
11
-0
21
4
31
0
0
LINE
8
reference_ground_plane
10
-0
20
4
30
0
11
-0
21
0.85
31
0
0
LINE
8
reference_ground_cutout
10
0.15
20
-0.85
30
0
11
4.15
21
-0.85
31
0
0
LINE
8
reference_ground_cutout
10
4.15
20
-0.85
30
0
11
4.15
21
0.85
31
0
0
LINE
8
reference_ground_cutout
10
4.15
20
0.85
30
0
11
0.15
21
0.85
31
0
0
LINE
8
reference_ground_cutout
10
0.15
20
0.85
30
0
11
0.15
21
-0.85
31
0
0
LINE
8
reference_ground_plane
10
-0
20
-4
30
0
11
31.5
21
-4
31
0
0
LINE
8
reference_ground_plane
10
31.5
20
-4
30
0
11
31.5
21
4
31
0
0
LINE
8
reference_ground_plane
10
31.5
20
4
30
0
11
-0
21
4
31
0
0
LINE
8
reference_ground_plane
10
-0
20
4
30
0
11
-0
21
-4
31
0
0
LINE
8
reference_ground_plane
10
-0
20
-4
30
0
11
31.5
21
-4
31
0
0
LINE
8
reference_ground_plane
10
31.5
20
-4
30
0
11
31.5
21
4
31
0
0
LINE
8
reference_ground_plane
10
31.5
20
4
30
0
11
-0
21
4
31
0
0
LINE
8
reference_ground_plane
10
-0
20
4
30
0
11
-0
21
-4
31
0
0
ENDSEC
0
EOF
