<?xml version="1.0" encoding="utf-8" standalone="no"?>
<!DOCTYPE svg PUBLIC "-//W3C//DTD SVG 1.1//EN"
  "http://www.w3.org/Graphics/SVG/1.1/DTD/svg11.dtd">
<svg xmlns:xlink="http://www.w3.org/1999/xlink" width="526.79952pt" height="520.950457pt" viewBox="0 0 526.79952 520.950457" xmlns="http://www.w3.org/2000/svg" version="1.1">
 <metadata>
  <rdf:RDF xmlns:dc="http://purl.org/dc/elements/1.1/" xmlns:cc="http://creativecommons.org/ns#" xmlns:rdf="http://www.w3.org/1999/02/22-rdf-syntax-ns#">
   <cc:Work>
    <dc:type rdf:resource="http://purl.org/dc/dcmitype/StillImage"/>
    <dc:date>2026-08-08T14:37:28.391153</dc:date>
    <dc:format>image/svg+xml</dc:format>
    <dc:creator>
     <cc:Agent>
      <dc:title>Matplotlib v3.10.1, https://matplotlib.org/</dc:title>
     </cc:Agent>
    </dc:creator>
   </cc:Work>
  </rdf:RDF>
 </metadata>
 <defs>
  <style type="text/css">*{stroke-linejoin: round; stroke-linecap: butt}</style>
 </defs>
 <g id="figure_1">
  <g id="patch_1">
   <path d="M 0 520.950457 
L 526.79952 520.950457 
L 526.79952 0 
L 0 0 
z
" style="fill: #ffffff"/>
  </g>
  <g id="axes_1">
   <g id="patch_2">
    <path d="M 58.523438 483.394207 
L 519.59952 483.394207 
L 519.59952 22.318125 
L 58.523438 22.318125 
z
" style="fill: #ffffff"/>
   </g>
   <g id="patch_3">
    <path d="M 289.061479 466.317316 
C 345.672037 466.317316 399.971595 443.825702 440.001305 403.795992 
C 480.031015 363.766283 502.522628 309.466725 502.522628 252.856166 
C 502.522628 196.245608 480.031015 141.94605 440.001305 101.91634 
C 399.971595 61.88663 345.672037 39.395017 289.061479 39.395017 
C 232.45092 39.395017 178.151362 61.88663 138.121653 101.91634 
C 98.091943 141.94605 75.600329 196.245608 75.600329 252.856166 
C 75.600329 309.466725 98.091943 363.766283 138.121653 403.795992 
C 178.151362 443.825702 232.45092 466.317316 289.061479 466.317316 
L 289.061479 466.317316 
z
" clip-path="url(#pbc9ee44a5a)" style="fill: none; stroke: #303640; stroke-linejoin: miter"/>
   </g>
   <g id="patch_4">
    <path d="M 324.638337 430.740457 
C 371.813802 430.740457 417.063434 411.997446 450.421525 378.639355 
C 483.779617 345.281263 502.522628 300.031632 502.522628 252.856166 
C 502.522628 205.680701 483.779617 160.431069 450.421525 127.072978 
C 417.063434 93.714886 371.813802 74.971875 324.638337 74.971875 
C 277.462872 74.971875 232.21324 93.714886 198.855148 127.072978 
C 165.497057 160.431069 146.754046 205.680701 146.754046 252.856166 
C 146.754046 300.031632 165.497057 345.281263 198.855148 378.639355 
C 232.21324 411.997446 277.462872 430.740457 324.638337 430.740457 
L 324.638337 430.740457 
z
" clip-path="url(#pbc9ee44a5a)" style="fill: none; opacity: 0.45; stroke: #9aa1aa; stroke-width: 0.45; stroke-linejoin: miter"/>
   </g>
   <g id="patch_5">
    <path d="M 360.215195 395.163599 
C 397.955568 395.163599 434.155273 380.16919 460.841746 353.482717 
C 487.528219 326.796244 502.522628 290.596539 502.522628 252.856166 
C 502.522628 215.115794 487.528219 178.916089 460.841746 152.229615 
C 434.155273 125.543142 397.955568 110.548733 360.215195 110.548733 
C 322.474823 110.548733 286.275118 125.543142 259.588644 152.229615 
C 232.902171 178.916089 217.907762 215.115794 217.907762 252.856166 
C 217.907762 290.596539 232.902171 326.796244 259.588644 353.482717 
C 286.275118 380.16919 322.474823 395.163599 360.215195 395.163599 
L 360.215195 395.163599 
z
" clip-path="url(#pbc9ee44a5a)" style="fill: none; opacity: 0.45; stroke: #9aa1aa; stroke-width: 0.45; stroke-linejoin: miter"/>
   </g>
   <g id="patch_6">
    <path d="M 395.792053 359.586741 
C 424.097333 359.586741 451.247112 348.340934 471.261966 328.326079 
C 491.276821 308.311224 502.522628 281.161446 502.522628 252.856166 
C 502.522628 224.550887 491.276821 197.401108 471.261966 177.386253 
C 451.247112 157.371398 424.097333 146.125592 395.792053 146.125592 
C 367.486774 146.125592 340.336995 157.371398 320.32214 177.386253 
C 300.307285 197.401108 289.061479 224.550887 289.061479 252.856166 
C 289.061479 281.161446 300.307285 308.311224 320.32214 328.326079 
C 340.336995 348.340934 367.486774 359.586741 395.792053 359.586741 
L 395.792053 359.586741 
z
" clip-path="url(#pbc9ee44a5a)" style="fill: none; opacity: 0.45; stroke: #9aa1aa; stroke-width: 0.45; stroke-linejoin: miter"/>
   </g>
   <g id="patch_7">
    <path d="M 431.368912 324.009883 
C 450.239098 324.009883 468.33895 316.512678 481.682187 303.169442 
C 495.025424 289.826205 502.522628 271.726352 502.522628 252.856166 
C 502.522628 233.98598 495.025424 215.886127 481.682187 202.542891 
C 468.33895 189.199654 450.239098 181.70245 431.368912 181.70245 
C 412.498725 181.70245 394.398873 189.199654 381.055636 202.542891 
C 367.7124 215.886127 360.215195 233.98598 360.215195 252.856166 
C 360.215195 271.726352 367.7124 289.826205 381.055636 303.169442 
C 394.398873 316.512678 412.498725 324.009883 431.368912 324.009883 
L 431.368912 324.009883 
z
" clip-path="url(#pbc9ee44a5a)" style="fill: none; opacity: 0.45; stroke: #9aa1aa; stroke-width: 0.45; stroke-linejoin: miter"/>
   </g>
   <g id="patch_8">
    <path d="M 466.94577 288.433024 
C 476.380863 288.433024 485.430789 284.684422 492.102408 278.012804 
C 498.774026 271.341186 502.522628 262.291259 502.522628 252.856166 
C 502.522628 243.421073 498.774026 234.371147 492.102408 227.699529 
C 485.430789 221.02791 476.380863 217.279308 466.94577 217.279308 
C 457.510677 217.279308 448.46075 221.02791 441.789132 227.699529 
C 435.117514 234.371147 431.368912 243.421073 431.368912 252.856166 
C 431.368912 262.291259 435.117514 271.341186 441.789132 278.012804 
C 448.46075 284.684422 457.510677 288.433024 466.94577 288.433024 
L 466.94577 288.433024 
z
" clip-path="url(#pbc9ee44a5a)" style="fill: none; opacity: 0.45; stroke: #9aa1aa; stroke-width: 0.45; stroke-linejoin: miter"/>
   </g>
   <g id="PathCollection_1">
    <defs>
     <path id="m2c9ab515b7" d="M 0 2.12132 
C 0.562581 2.12132 1.102195 1.897805 1.5 1.5 
C 1.897805 1.102195 2.12132 0.562581 2.12132 0 
C 2.12132 -0.562581 1.897805 -1.102195 1.5 -1.5 
C 1.102195 -1.897805 0.562581 -2.12132 0 -2.12132 
C -0.562581 -2.12132 -1.102195 -1.897805 -1.5 -1.5 
C -1.897805 -1.102195 -2.12132 -0.562581 -2.12132 0 
C -2.12132 0.562581 -1.897805 1.102195 -1.5 1.5 
C -1.102195 1.897805 -0.562581 2.12132 0 2.12132 
z
" style="stroke: #1f77b4"/>
    </defs>
    <g clip-path="url(#pbc9ee44a5a)">
     <use xlink:href="#m2c9ab515b7" x="281.923328" y="259.467994" style="fill: #1f77b4; stroke: #1f77b4"/>
    </g>
   </g>
   <g id="PathCollection_2">
    <defs>
     <path id="m67c5769ce4" d="M -2.12132 2.12132 
L 2.12132 2.12132 
L 2.12132 -2.12132 
L -2.12132 -2.12132 
z
" style="stroke: #1f77b4"/>
    </defs>
    <g clip-path="url(#pbc9ee44a5a)">
     <use xlink:href="#m67c5769ce4" x="285.831616" y="237.250796" style="fill: #1f77b4; stroke: #1f77b4"/>
    </g>
   </g>
   <g id="PathCollection_3">
    <defs>
     <path id="m9b5409ac49" d="M 0 2.12132 
C 0.562581 2.12132 1.102195 1.897805 1.5 1.5 
C 1.897805 1.102195 2.12132 0.562581 2.12132 0 
C 2.12132 -0.562581 1.897805 -1.102195 1.5 -1.5 
C 1.102195 -1.897805 0.562581 -2.12132 0 -2.12132 
C -0.562581 -2.12132 -1.102195 -1.897805 -1.5 -1.5 
C -1.897805 -1.102195 -2.12132 -0.562581 -2.12132 0 
C -2.12132 0.562581 -1.897805 1.102195 -1.5 1.5 
C -1.102195 1.897805 -0.562581 2.12132 0 2.12132 
z
" style="stroke: #8172b2"/>
    </defs>
    <g clip-path="url(#pbc9ee44a5a)">
     <use xlink:href="#m9b5409ac49" x="282.717205" y="260.126196" style="fill: #8172b2; stroke: #8172b2"/>
    </g>
   </g>
   <g id="PathCollection_4">
    <defs>
     <path id="me5fcd49d4e" d="M -2.12132 2.12132 
L 2.12132 2.12132 
L 2.12132 -2.12132 
L -2.12132 -2.12132 
z
" style="stroke: #8172b2"/>
    </defs>
    <g clip-path="url(#pbc9ee44a5a)">
     <use xlink:href="#me5fcd49d4e" x="305.450476" y="253.760543" style="fill: #8172b2; stroke: #8172b2"/>
    </g>
   </g>
   <g id="PathCollection_5">
    <defs>
     <path id="m8492310225" d="M -3.605551 3.605551 
L 3.605551 -3.605551 
M -3.605551 -3.605551 
L 3.605551 3.605551 
" style="stroke: #c44e52; stroke-width: 1.5"/>
    </defs>
    <g clip-path="url(#pbc9ee44a5a)">
     <use xlink:href="#m8492310225" x="281.894491" y="232.475056" style="fill: #c44e52; stroke: #c44e52; stroke-width: 1.5"/>
    </g>
   </g>
   <g id="matplotlib.axis_1">
    <g id="xtick_1">
     <g id="line2d_1">
      <defs>
       <path id="mbeb651c5e8" d="M 0 0 
L 0 3.5 
" style="stroke: #000000; stroke-width: 0.8"/>
      </defs>
      <g>
       <use xlink:href="#mbeb651c5e8" x="75.600329" y="483.394207" style="stroke: #000000; stroke-width: 0.8"/>
      </g>
     </g>
     <g id="text_1">
      <!-- −1.00 -->
      <g transform="translate(60.277673 497.992645) scale(0.1 -0.1)">
       <defs>
        <path id="DejaVuSans-2212" d="M 678 2272 
L 4684 2272 
L 4684 1741 
L 678 1741 
L 678 2272 
z
" transform="scale(0.015625)"/>
        <path id="DejaVuSans-31" d="M 794 531 
L 1825 531 
L 1825 4091 
L 703 3866 
L 703 4441 
L 1819 4666 
L 2450 4666 
L 2450 531 
L 3481 531 
L 3481 0 
L 794 0 
L 794 531 
z
" transform="scale(0.015625)"/>
        <path id="DejaVuSans-2e" d="M 684 794 
L 1344 794 
L 1344 0 
L 684 0 
L 684 794 
z
" transform="scale(0.015625)"/>
        <path id="DejaVuSans-30" d="M 2034 4250 
Q 1547 4250 1301 3770 
Q 1056 3291 1056 2328 
Q 1056 1369 1301 889 
Q 1547 409 2034 409 
Q 2525 409 2770 889 
Q 3016 1369 3016 2328 
Q 3016 3291 2770 3770 
Q 2525 4250 2034 4250 
z
M 2034 4750 
Q 2819 4750 3233 4129 
Q 3647 3509 3647 2328 
Q 3647 1150 3233 529 
Q 2819 -91 2034 -91 
Q 1250 -91 836 529 
Q 422 1150 422 2328 
Q 422 3509 836 4129 
Q 1250 4750 2034 4750 
z
" transform="scale(0.015625)"/>
       </defs>
       <use xlink:href="#DejaVuSans-2212"/>
       <use xlink:href="#DejaVuSans-31" transform="translate(83.789062 0)"/>
       <use xlink:href="#DejaVuSans-2e" transform="translate(147.412109 0)"/>
       <use xlink:href="#DejaVuSans-30" transform="translate(179.199219 0)"/>
       <use xlink:href="#DejaVuSans-30" transform="translate(242.822266 0)"/>
      </g>
     </g>
    </g>
    <g id="xtick_2">
     <g id="line2d_2">
      <g>
       <use xlink:href="#mbeb651c5e8" x="128.965617" y="483.394207" style="stroke: #000000; stroke-width: 0.8"/>
      </g>
     </g>
     <g id="text_2">
      <!-- −0.75 -->
      <g transform="translate(113.642961 497.992645) scale(0.1 -0.1)">
       <defs>
        <path id="DejaVuSans-37" d="M 525 4666 
L 3525 4666 
L 3525 4397 
L 1831 0 
L 1172 0 
L 2766 4134 
L 525 4134 
L 525 4666 
z
" transform="scale(0.015625)"/>
        <path id="DejaVuSans-35" d="M 691 4666 
L 3169 4666 
L 3169 4134 
L 1269 4134 
L 1269 2991 
Q 1406 3038 1543 3061 
Q 1681 3084 1819 3084 
Q 2600 3084 3056 2656 
Q 3513 2228 3513 1497 
Q 3513 744 3044 326 
Q 2575 -91 1722 -91 
Q 1428 -91 1123 -41 
Q 819 9 494 109 
L 494 744 
Q 775 591 1075 516 
Q 1375 441 1709 441 
Q 2250 441 2565 725 
Q 2881 1009 2881 1497 
Q 2881 1984 2565 2268 
Q 2250 2553 1709 2553 
Q 1456 2553 1204 2497 
Q 953 2441 691 2322 
L 691 4666 
z
" transform="scale(0.015625)"/>
       </defs>
       <use xlink:href="#DejaVuSans-2212"/>
       <use xlink:href="#DejaVuSans-30" transform="translate(83.789062 0)"/>
       <use xlink:href="#DejaVuSans-2e" transform="translate(147.412109 0)"/>
       <use xlink:href="#DejaVuSans-37" transform="translate(179.199219 0)"/>
       <use xlink:href="#DejaVuSans-35" transform="translate(242.822266 0)"/>
      </g>
     </g>
    </g>
    <g id="xtick_3">
     <g id="line2d_3">
      <g>
       <use xlink:href="#mbeb651c5e8" x="182.330904" y="483.394207" style="stroke: #000000; stroke-width: 0.8"/>
      </g>
     </g>
     <g id="text_3">
      <!-- −0.50 -->
      <g transform="translate(167.008248 497.992645) scale(0.1 -0.1)">
       <use xlink:href="#DejaVuSans-2212"/>
       <use xlink:href="#DejaVuSans-30" transform="translate(83.789062 0)"/>
       <use xlink:href="#DejaVuSans-2e" transform="translate(147.412109 0)"/>
       <use xlink:href="#DejaVuSans-35" transform="translate(179.199219 0)"/>
       <use xlink:href="#DejaVuSans-30" transform="translate(242.822266 0)"/>
      </g>
     </g>
    </g>
    <g id="xtick_4">
     <g id="line2d_4">
      <g>
       <use xlink:href="#mbeb651c5e8" x="235.696191" y="483.394207" style="stroke: #000000; stroke-width: 0.8"/>
      </g>
     </g>
     <g id="text_4">
      <!-- −0.25 -->
      <g transform="translate(220.373535 497.992645) scale(0.1 -0.1)">
       <defs>
        <path id="DejaVuSans-32" d="M 1228 531 
L 3431 531 
L 3431 0 
L 469 0 
L 469 531 
Q 828 903 1448 1529 
Q 2069 2156 2228 2338 
Q 2531 2678 2651 2914 
Q 2772 3150 2772 3378 
Q 2772 3750 2511 3984 
Q 2250 4219 1831 4219 
Q 1534 4219 1204 4116 
Q 875 4013 500 3803 
L 500 4441 
Q 881 4594 1212 4672 
Q 1544 4750 1819 4750 
Q 2544 4750 2975 4387 
Q 3406 4025 3406 3419 
Q 3406 3131 3298 2873 
Q 3191 2616 2906 2266 
Q 2828 2175 2409 1742 
Q 1991 1309 1228 531 
z
" transform="scale(0.015625)"/>
       </defs>
       <use xlink:href="#DejaVuSans-2212"/>
       <use xlink:href="#DejaVuSans-30" transform="translate(83.789062 0)"/>
       <use xlink:href="#DejaVuSans-2e" transform="translate(147.412109 0)"/>
       <use xlink:href="#DejaVuSans-32" transform="translate(179.199219 0)"/>
       <use xlink:href="#DejaVuSans-35" transform="translate(242.822266 0)"/>
      </g>
     </g>
    </g>
    <g id="xtick_5">
     <g id="line2d_5">
      <g>
       <use xlink:href="#mbeb651c5e8" x="289.061479" y="483.394207" style="stroke: #000000; stroke-width: 0.8"/>
      </g>
     </g>
     <g id="text_5">
      <!-- 0.00 -->
      <g transform="translate(277.928666 497.992645) scale(0.1 -0.1)">
       <use xlink:href="#DejaVuSans-30"/>
       <use xlink:href="#DejaVuSans-2e" transform="translate(63.623047 0)"/>
       <use xlink:href="#DejaVuSans-30" transform="translate(95.410156 0)"/>
       <use xlink:href="#DejaVuSans-30" transform="translate(159.033203 0)"/>
      </g>
     </g>
    </g>
    <g id="xtick_6">
     <g id="line2d_6">
      <g>
       <use xlink:href="#mbeb651c5e8" x="342.426766" y="483.394207" style="stroke: #000000; stroke-width: 0.8"/>
      </g>
     </g>
     <g id="text_6">
      <!-- 0.25 -->
      <g transform="translate(331.293954 497.992645) scale(0.1 -0.1)">
       <use xlink:href="#DejaVuSans-30"/>
       <use xlink:href="#DejaVuSans-2e" transform="translate(63.623047 0)"/>
       <use xlink:href="#DejaVuSans-32" transform="translate(95.410156 0)"/>
       <use xlink:href="#DejaVuSans-35" transform="translate(159.033203 0)"/>
      </g>
     </g>
    </g>
    <g id="xtick_7">
     <g id="line2d_7">
      <g>
       <use xlink:href="#mbeb651c5e8" x="395.792053" y="483.394207" style="stroke: #000000; stroke-width: 0.8"/>
      </g>
     </g>
     <g id="text_7">
      <!-- 0.50 -->
      <g transform="translate(384.659241 497.992645) scale(0.1 -0.1)">
       <use xlink:href="#DejaVuSans-30"/>
       <use xlink:href="#DejaVuSans-2e" transform="translate(63.623047 0)"/>
       <use xlink:href="#DejaVuSans-35" transform="translate(95.410156 0)"/>
       <use xlink:href="#DejaVuSans-30" transform="translate(159.033203 0)"/>
      </g>
     </g>
    </g>
    <g id="xtick_8">
     <g id="line2d_8">
      <g>
       <use xlink:href="#mbeb651c5e8" x="449.157341" y="483.394207" style="stroke: #000000; stroke-width: 0.8"/>
      </g>
     </g>
     <g id="text_8">
      <!-- 0.75 -->
      <g transform="translate(438.024528 497.992645) scale(0.1 -0.1)">
       <use xlink:href="#DejaVuSans-30"/>
       <use xlink:href="#DejaVuSans-2e" transform="translate(63.623047 0)"/>
       <use xlink:href="#DejaVuSans-37" transform="translate(95.410156 0)"/>
       <use xlink:href="#DejaVuSans-35" transform="translate(159.033203 0)"/>
      </g>
     </g>
    </g>
    <g id="xtick_9">
     <g id="line2d_9">
      <g>
       <use xlink:href="#mbeb651c5e8" x="502.522628" y="483.394207" style="stroke: #000000; stroke-width: 0.8"/>
      </g>
     </g>
     <g id="text_9">
      <!-- 1.00 -->
      <g transform="translate(491.389816 497.992645) scale(0.1 -0.1)">
       <use xlink:href="#DejaVuSans-31"/>
       <use xlink:href="#DejaVuSans-2e" transform="translate(63.623047 0)"/>
       <use xlink:href="#DejaVuSans-30" transform="translate(95.410156 0)"/>
       <use xlink:href="#DejaVuSans-30" transform="translate(159.033203 0)"/>
      </g>
     </g>
    </g>
    <g id="text_10">
     <!-- Re(Gamma) -->
     <g transform="translate(259.091166 511.67077) scale(0.1 -0.1)">
      <defs>
       <path id="DejaVuSans-52" d="M 2841 2188 
Q 3044 2119 3236 1894 
Q 3428 1669 3622 1275 
L 4263 0 
L 3584 0 
L 2988 1197 
Q 2756 1666 2539 1819 
Q 2322 1972 1947 1972 
L 1259 1972 
L 1259 0 
L 628 0 
L 628 4666 
L 2053 4666 
Q 2853 4666 3247 4331 
Q 3641 3997 3641 3322 
Q 3641 2881 3436 2590 
Q 3231 2300 2841 2188 
z
M 1259 4147 
L 1259 2491 
L 2053 2491 
Q 2509 2491 2742 2702 
Q 2975 2913 2975 3322 
Q 2975 3731 2742 3939 
Q 2509 4147 2053 4147 
L 1259 4147 
z
" transform="scale(0.015625)"/>
       <path id="DejaVuSans-65" d="M 3597 1894 
L 3597 1613 
L 953 1613 
Q 991 1019 1311 708 
Q 1631 397 2203 397 
Q 2534 397 2845 478 
Q 3156 559 3463 722 
L 3463 178 
Q 3153 47 2828 -22 
Q 2503 -91 2169 -91 
Q 1331 -91 842 396 
Q 353 884 353 1716 
Q 353 2575 817 3079 
Q 1281 3584 2069 3584 
Q 2775 3584 3186 3129 
Q 3597 2675 3597 1894 
z
M 3022 2063 
Q 3016 2534 2758 2815 
Q 2500 3097 2075 3097 
Q 1594 3097 1305 2825 
Q 1016 2553 972 2059 
L 3022 2063 
z
" transform="scale(0.015625)"/>
       <path id="DejaVuSans-28" d="M 1984 4856 
Q 1566 4138 1362 3434 
Q 1159 2731 1159 2009 
Q 1159 1288 1364 580 
Q 1569 -128 1984 -844 
L 1484 -844 
Q 1016 -109 783 600 
Q 550 1309 550 2009 
Q 550 2706 781 3412 
Q 1013 4119 1484 4856 
L 1984 4856 
z
" transform="scale(0.015625)"/>
       <path id="DejaVuSans-47" d="M 3809 666 
L 3809 1919 
L 2778 1919 
L 2778 2438 
L 4434 2438 
L 4434 434 
Q 4069 175 3628 42 
Q 3188 -91 2688 -91 
Q 1594 -91 976 548 
Q 359 1188 359 2328 
Q 359 3472 976 4111 
Q 1594 4750 2688 4750 
Q 3144 4750 3555 4637 
Q 3966 4525 4313 4306 
L 4313 3634 
Q 3963 3931 3569 4081 
Q 3175 4231 2741 4231 
Q 1884 4231 1454 3753 
Q 1025 3275 1025 2328 
Q 1025 1384 1454 906 
Q 1884 428 2741 428 
Q 3075 428 3337 486 
Q 3600 544 3809 666 
z
" transform="scale(0.015625)"/>
       <path id="DejaVuSans-61" d="M 2194 1759 
Q 1497 1759 1228 1600 
Q 959 1441 959 1056 
Q 959 750 1161 570 
Q 1363 391 1709 391 
Q 2188 391 2477 730 
Q 2766 1069 2766 1631 
L 2766 1759 
L 2194 1759 
z
M 3341 1997 
L 3341 0 
L 2766 0 
L 2766 531 
Q 2569 213 2275 61 
Q 1981 -91 1556 -91 
Q 1019 -91 701 211 
Q 384 513 384 1019 
Q 384 1609 779 1909 
Q 1175 2209 1959 2209 
L 2766 2209 
L 2766 2266 
Q 2766 2663 2505 2880 
Q 2244 3097 1772 3097 
Q 1472 3097 1187 3025 
Q 903 2953 641 2809 
L 641 3341 
Q 956 3463 1253 3523 
Q 1550 3584 1831 3584 
Q 2591 3584 2966 3190 
Q 3341 2797 3341 1997 
z
" transform="scale(0.015625)"/>
       <path id="DejaVuSans-6d" d="M 3328 2828 
Q 3544 3216 3844 3400 
Q 4144 3584 4550 3584 
Q 5097 3584 5394 3201 
Q 5691 2819 5691 2113 
L 5691 0 
L 5113 0 
L 5113 2094 
Q 5113 2597 4934 2840 
Q 4756 3084 4391 3084 
Q 3944 3084 3684 2787 
Q 3425 2491 3425 1978 
L 3425 0 
L 2847 0 
L 2847 2094 
Q 2847 2600 2669 2842 
Q 2491 3084 2119 3084 
Q 1678 3084 1418 2786 
Q 1159 2488 1159 1978 
L 1159 0 
L 581 0 
L 581 3500 
L 1159 3500 
L 1159 2956 
Q 1356 3278 1631 3431 
Q 1906 3584 2284 3584 
Q 2666 3584 2933 3390 
Q 3200 3197 3328 2828 
z
" transform="scale(0.015625)"/>
       <path id="DejaVuSans-29" d="M 513 4856 
L 1013 4856 
Q 1481 4119 1714 3412 
Q 1947 2706 1947 2009 
Q 1947 1309 1714 600 
Q 1481 -109 1013 -844 
L 513 -844 
Q 928 -128 1133 580 
Q 1338 1288 1338 2009 
Q 1338 2731 1133 3434 
Q 928 4138 513 4856 
z
" transform="scale(0.015625)"/>
      </defs>
      <use xlink:href="#DejaVuSans-52"/>
      <use xlink:href="#DejaVuSans-65" transform="translate(64.982422 0)"/>
      <use xlink:href="#DejaVuSans-28" transform="translate(126.505859 0)"/>
      <use xlink:href="#DejaVuSans-47" transform="translate(165.519531 0)"/>
      <use xlink:href="#DejaVuSans-61" transform="translate(243.009766 0)"/>
      <use xlink:href="#DejaVuSans-6d" transform="translate(304.289062 0)"/>
      <use xlink:href="#DejaVuSans-6d" transform="translate(401.701172 0)"/>
      <use xlink:href="#DejaVuSans-61" transform="translate(499.113281 0)"/>
      <use xlink:href="#DejaVuSans-29" transform="translate(560.392578 0)"/>
     </g>
    </g>
   </g>
   <g id="matplotlib.axis_2">
    <g id="ytick_1">
     <g id="line2d_10">
      <defs>
       <path id="md43228c842" d="M 0 0 
L -3.5 0 
" style="stroke: #000000; stroke-width: 0.8"/>
      </defs>
      <g>
       <use xlink:href="#md43228c842" x="58.523438" y="466.317316" style="stroke: #000000; stroke-width: 0.8"/>
      </g>
     </g>
     <g id="text_11">
      <!-- −1.00 -->
      <g transform="translate(20.878125 470.116534) scale(0.1 -0.1)">
       <use xlink:href="#DejaVuSans-2212"/>
       <use xlink:href="#DejaVuSans-31" transform="translate(83.789062 0)"/>
       <use xlink:href="#DejaVuSans-2e" transform="translate(147.412109 0)"/>
       <use xlink:href="#DejaVuSans-30" transform="translate(179.199219 0)"/>
       <use xlink:href="#DejaVuSans-30" transform="translate(242.822266 0)"/>
      </g>
     </g>
    </g>
    <g id="ytick_2">
     <g id="line2d_11">
      <g>
       <use xlink:href="#md43228c842" x="58.523438" y="412.952028" style="stroke: #000000; stroke-width: 0.8"/>
      </g>
     </g>
     <g id="text_12">
      <!-- −0.75 -->
      <g transform="translate(20.878125 416.751247) scale(0.1 -0.1)">
       <use xlink:href="#DejaVuSans-2212"/>
       <use xlink:href="#DejaVuSans-30" transform="translate(83.789062 0)"/>
       <use xlink:href="#DejaVuSans-2e" transform="translate(147.412109 0)"/>
       <use xlink:href="#DejaVuSans-37" transform="translate(179.199219 0)"/>
       <use xlink:href="#DejaVuSans-35" transform="translate(242.822266 0)"/>
      </g>
     </g>
    </g>
    <g id="ytick_3">
     <g id="line2d_12">
      <g>
       <use xlink:href="#md43228c842" x="58.523438" y="359.586741" style="stroke: #000000; stroke-width: 0.8"/>
      </g>
     </g>
     <g id="text_13">
      <!-- −0.50 -->
      <g transform="translate(20.878125 363.38596) scale(0.1 -0.1)">
       <use xlink:href="#DejaVuSans-2212"/>
       <use xlink:href="#DejaVuSans-30" transform="translate(83.789062 0)"/>
       <use xlink:href="#DejaVuSans-2e" transform="translate(147.412109 0)"/>
       <use xlink:href="#DejaVuSans-35" transform="translate(179.199219 0)"/>
       <use xlink:href="#DejaVuSans-30" transform="translate(242.822266 0)"/>
      </g>
     </g>
    </g>
    <g id="ytick_4">
     <g id="line2d_13">
      <g>
       <use xlink:href="#md43228c842" x="58.523438" y="306.221454" style="stroke: #000000; stroke-width: 0.8"/>
      </g>
     </g>
     <g id="text_14">
      <!-- −0.25 -->
      <g transform="translate(20.878125 310.020672) scale(0.1 -0.1)">
       <use xlink:href="#DejaVuSans-2212"/>
       <use xlink:href="#DejaVuSans-30" transform="translate(83.789062 0)"/>
       <use xlink:href="#DejaVuSans-2e" transform="translate(147.412109 0)"/>
       <use xlink:href="#DejaVuSans-32" transform="translate(179.199219 0)"/>
       <use xlink:href="#DejaVuSans-35" transform="translate(242.822266 0)"/>
      </g>
     </g>
    </g>
    <g id="ytick_5">
     <g id="line2d_14">
      <g>
       <use xlink:href="#md43228c842" x="58.523438" y="252.856166" style="stroke: #000000; stroke-width: 0.8"/>
      </g>
     </g>
     <g id="text_15">
      <!-- 0.00 -->
      <g transform="translate(29.257813 256.655385) scale(0.1 -0.1)">
       <use xlink:href="#DejaVuSans-30"/>
       <use xlink:href="#DejaVuSans-2e" transform="translate(63.623047 0)"/>
       <use xlink:href="#DejaVuSans-30" transform="translate(95.410156 0)"/>
       <use xlink:href="#DejaVuSans-30" transform="translate(159.033203 0)"/>
      </g>
     </g>
    </g>
    <g id="ytick_6">
     <g id="line2d_15">
      <g>
       <use xlink:href="#md43228c842" x="58.523438" y="199.490879" style="stroke: #000000; stroke-width: 0.8"/>
      </g>
     </g>
     <g id="text_16">
      <!-- 0.25 -->
      <g transform="translate(29.257813 203.290098) scale(0.1 -0.1)">
       <use xlink:href="#DejaVuSans-30"/>
       <use xlink:href="#DejaVuSans-2e" transform="translate(63.623047 0)"/>
       <use xlink:href="#DejaVuSans-32" transform="translate(95.410156 0)"/>
       <use xlink:href="#DejaVuSans-35" transform="translate(159.033203 0)"/>
      </g>
     </g>
    </g>
    <g id="ytick_7">
     <g id="line2d_16">
      <g>
       <use xlink:href="#md43228c842" x="58.523438" y="146.125592" style="stroke: #000000; stroke-width: 0.8"/>
      </g>
     </g>
     <g id="text_17">
      <!-- 0.50 -->
      <g transform="translate(29.257813 149.92481) scale(0.1 -0.1)">
       <use xlink:href="#DejaVuSans-30"/>
       <use xlink:href="#DejaVuSans-2e" transform="translate(63.623047 0)"/>
       <use xlink:href="#DejaVuSans-35" transform="translate(95.410156 0)"/>
       <use xlink:href="#DejaVuSans-30" transform="translate(159.033203 0)"/>
      </g>
     </g>
    </g>
    <g id="ytick_8">
     <g id="line2d_17">
      <g>
       <use xlink:href="#md43228c842" x="58.523438" y="92.760304" style="stroke: #000000; stroke-width: 0.8"/>
      </g>
     </g>
     <g id="text_18">
      <!-- 0.75 -->
      <g transform="translate(29.257813 96.559523) scale(0.1 -0.1)">
       <use xlink:href="#DejaVuSans-30"/>
       <use xlink:href="#DejaVuSans-2e" transform="translate(63.623047 0)"/>
       <use xlink:href="#DejaVuSans-37" transform="translate(95.410156 0)"/>
       <use xlink:href="#DejaVuSans-35" transform="translate(159.033203 0)"/>
      </g>
     </g>
    </g>
    <g id="ytick_9">
     <g id="line2d_18">
      <g>
       <use xlink:href="#md43228c842" x="58.523438" y="39.395017" style="stroke: #000000; stroke-width: 0.8"/>
      </g>
     </g>
     <g id="text_19">
      <!-- 1.00 -->
      <g transform="translate(29.257813 43.194236) scale(0.1 -0.1)">
       <use xlink:href="#DejaVuSans-31"/>
       <use xlink:href="#DejaVuSans-2e" transform="translate(63.623047 0)"/>
       <use xlink:href="#DejaVuSans-30" transform="translate(95.410156 0)"/>
       <use xlink:href="#DejaVuSans-30" transform="translate(159.033203 0)"/>
      </g>
     </g>
    </g>
    <g id="text_20">
     <!-- Im(Gamma) -->
     <g transform="translate(14.798438 282.84601) rotate(-90) scale(0.1 -0.1)">
      <defs>
       <path id="DejaVuSans-49" d="M 628 4666 
L 1259 4666 
L 1259 0 
L 628 0 
L 628 4666 
z
" transform="scale(0.015625)"/>
      </defs>
      <use xlink:href="#DejaVuSans-49"/>
      <use xlink:href="#DejaVuSans-6d" transform="translate(29.492188 0)"/>
      <use xlink:href="#DejaVuSans-28" transform="translate(126.904297 0)"/>
      <use xlink:href="#DejaVuSans-47" transform="translate(165.917969 0)"/>
      <use xlink:href="#DejaVuSans-61" transform="translate(243.408203 0)"/>
      <use xlink:href="#DejaVuSans-6d" transform="translate(304.6875 0)"/>
      <use xlink:href="#DejaVuSans-6d" transform="translate(402.099609 0)"/>
      <use xlink:href="#DejaVuSans-61" transform="translate(499.511719 0)"/>
      <use xlink:href="#DejaVuSans-29" transform="translate(560.791016 0)"/>
     </g>
    </g>
   </g>
   <g id="line2d_19">
    <path d="M 58.523438 252.856166 
L 519.59952 252.856166 
" clip-path="url(#pbc9ee44a5a)" style="fill: none; stroke: #7b818a; stroke-opacity: 0.55; stroke-width: 0.7; stroke-linecap: square"/>
   </g>
   <g id="line2d_20">
    <path d="M 289.061479 483.394207 
L 289.061479 22.318125 
" clip-path="url(#pbc9ee44a5a)" style="fill: none; stroke: #7b818a; stroke-opacity: 0.25; stroke-width: 0.45; stroke-linecap: square"/>
   </g>
   <g id="line2d_21">
    <path d="M 92.020418 170.755724 
L 156.369413 195.163964 
L 222.879201 215.570376 
L 291.174955 231.721399 
L 360.844874 243.410983 
L 431.447884 250.487008 
L 469.690222 252.351052 
" clip-path="url(#pbc9ee44a5a)" style="fill: none; stroke: #9aa1aa; stroke-opacity: 0.45; stroke-width: 0.45; stroke-linecap: square"/>
   </g>
   <g id="line2d_22">
    <path d="M 92.020418 334.956608 
L 156.369413 310.548369 
L 222.879201 290.141957 
L 291.174955 273.990934 
L 360.844874 262.30135 
L 431.447884 255.225324 
L 469.690222 253.36128 
" clip-path="url(#pbc9ee44a5a)" style="fill: none; stroke: #9aa1aa; stroke-opacity: 0.45; stroke-width: 0.45; stroke-linecap: square"/>
   </g>
   <g id="line2d_23">
    <path d="M 160.984789 82.087247 
L 199.382534 126.547794 
L 246.369249 167.471707 
L 301.618017 202.630013 
L 364.061342 229.779285 
L 431.859627 246.967583 
L 469.73096 251.594948 
" clip-path="url(#pbc9ee44a5a)" style="fill: none; stroke: #9aa1aa; stroke-opacity: 0.45; stroke-width: 0.45; stroke-linecap: square"/>
   </g>
   <g id="line2d_24">
    <path d="M 160.984789 423.625086 
L 199.382534 379.164539 
L 246.369249 338.240626 
L 301.618017 303.082319 
L 364.061342 275.933047 
L 431.859627 258.74475 
L 469.73096 254.117384 
" clip-path="url(#pbc9ee44a5a)" style="fill: none; stroke: #9aa1aa; stroke-opacity: 0.45; stroke-width: 0.45; stroke-linecap: square"/>
   </g>
   <g id="line2d_25">
    <path d="M 289.061479 39.395017 
L 292.560842 77.888011 
L 305.481567 121.495459 
L 331.753709 167.471707 
L 374.445938 210.163936 
L 433.291985 241.317726 
L 469.875629 250.344859 
" clip-path="url(#pbc9ee44a5a)" style="fill: none; stroke: #9aa1aa; stroke-opacity: 0.45; stroke-width: 0.45; stroke-linecap: square"/>
   </g>
   <g id="line2d_26">
    <path d="M 289.061479 466.317316 
L 292.560842 427.824321 
L 305.481567 384.216874 
L 331.753709 338.240626 
L 374.445938 295.548396 
L 433.291985 264.394607 
L 469.875629 255.367474 
" clip-path="url(#pbc9ee44a5a)" style="fill: none; stroke: #9aa1aa; stroke-opacity: 0.45; stroke-width: 0.45; stroke-linecap: square"/>
   </g>
   <g id="line2d_27">
    <path d="M 417.138168 82.087247 
L 408.348592 95.899439 
L 400.061276 116.241031 
L 395.792053 146.125592 
L 404.002098 187.175813 
L 438.484283 231.510051 
L 470.441762 247.920648 
" clip-path="url(#pbc9ee44a5a)" style="fill: none; stroke: #9aa1aa; stroke-opacity: 0.45; stroke-width: 0.45; stroke-linecap: square"/>
   </g>
   <g id="line2d_28">
    <path d="M 417.138168 423.625086 
L 408.348592 409.812894 
L 400.061276 389.471302 
L 395.792053 359.586741 
L 404.002098 318.53652 
L 438.484283 274.202281 
L 470.441762 257.791684 
" clip-path="url(#pbc9ee44a5a)" style="fill: none; stroke: #9aa1aa; stroke-opacity: 0.45; stroke-width: 0.45; stroke-linecap: square"/>
   </g>
   <g id="line2d_29">
    <path d="M 486.10254 170.755724 
L 483.146427 172.121995 
L 479.022318 174.5218 
L 473.079711 179.248873 
L 464.853013 190.073475 
L 460.530271 217.862535 
L 473.914433 241.853014 
" clip-path="url(#pbc9ee44a5a)" style="fill: none; stroke: #9aa1aa; stroke-opacity: 0.45; stroke-width: 0.45; stroke-linecap: square"/>
   </g>
   <g id="line2d_30">
    <path d="M 486.10254 334.956608 
L 483.146427 333.590338 
L 479.022318 331.190533 
L 473.079711 326.463459 
L 464.853013 315.638857 
L 460.530271 287.849797 
L 473.914433 263.859318 
" clip-path="url(#pbc9ee44a5a)" style="fill: none; stroke: #9aa1aa; stroke-opacity: 0.45; stroke-width: 0.45; stroke-linecap: square"/>
   </g>
   <g id="line2d_31">
    <path d="M 281.923328 259.467994 
L 280.850666 259.32886 
L 279.807501 259.034918 
L 278.814195 258.593053 
L 277.889902 258.012448 
L 277.052352 257.30449 
L 276.3176 256.482631 
L 275.699777 255.562192 
L 275.210866 254.560126 
L 274.860499 253.49474 
L 274.655805 252.385377 
L 274.601294 251.252089 
L 274.698796 250.115286 
L 274.947441 248.995387 
L 275.343695 247.912469 
L 275.881435 246.885931 
L 276.552063 245.934166 
L 277.344671 245.074258 
L 278.246228 244.321703 
L 279.24181 243.690151 
L 280.314856 243.191191 
L 281.447442 242.834156 
L 282.620591 242.625975 
L 283.814577 242.57106 
L 285.009265 242.671235 
L 286.184437 242.925699 
L 287.320134 243.331045 
L 288.396985 243.881309 
L 289.396531 244.568069 
L 290.301537 245.38058 
L 291.096278 246.30595 
L 291.766808 247.329353 
L 292.301189 248.434278 
L 292.689699 249.602795 
L 292.924989 250.81586 
L 293.002213 252.05363 
L 292.919102 253.295793 
L 292.676004 254.521905 
L 292.275871 255.711728 
L 291.72421 256.845564 
L 291.028986 257.904574 
L 290.200483 258.871087 
L 289.251131 259.728879 
L 288.195299 260.463431 
L 287.049057 261.062154 
L 285.829908 261.514579 
L 284.556514 261.812518 
L 283.248387 261.950171 
L 281.925591 261.924213 
L 280.608422 261.733825 
L 279.317101 261.3807 
L 278.071466 260.868998 
L 276.890673 260.205271 
L 275.792914 259.398357 
L 274.795155 258.459233 
L 273.912883 257.400844 
L 273.159893 256.237907 
L 272.54809 254.986685 
L 272.087322 253.66475 
L 271.785246 252.29072 
L 271.647224 250.88399 
L 271.676249 249.464453 
L 271.872911 248.052214 
L 272.235389 246.6673 
L 272.759484 245.329375 
L 273.438676 244.057464 
L 274.264222 242.869679 
L 275.225281 241.782963 
L 276.309069 240.812849 
L 277.501039 239.973239 
L 278.785091 239.276209 
L 280.143799 238.731831 
L 281.558663 238.348037 
L 283.010369 238.130501 
L 284.479067 238.08256 
L 285.944653 238.205169 
L 287.38706 238.49689 
L 288.78654 238.95391 
L 290.12395 239.570106 
L 291.38102 240.337132 
L 292.540615 241.244545 
L 293.586976 242.279959 
L 294.505937 243.429227 
L 295.285126 244.676652 
L 295.914127 246.005212 
L 296.384622 247.39681 
L 296.690499 248.832538 
L 296.82792 250.292941 
L 296.795365 251.758303 
L 296.593636 253.208919 
L 296.225827 254.62537 
L 295.697267 255.988795 
L 295.015422 257.281143 
L 294.189776 258.485419 
L 293.231683 259.585904 
L 292.154191 260.568358 
L 290.971847 261.4202 
L 289.700487 262.13066 
L 288.357006 262.690903 
L 286.959123 263.094127 
L 285.525131 263.335629 
L 284.073649 263.41284 
L 282.623377 263.325339 
L 281.192845 263.074822 
L 279.800176 262.665063 
L 278.462857 262.101831 
L 277.197522 261.392792 
L 276.01975 260.547385 
L 274.943883 259.576681 
L 273.98286 258.493218 
L 273.148074 257.310823 
L 272.449252 256.044425 
L 271.894355 254.709854 
L 271.489506 253.32363 
L 271.238938 251.902758 
L 271.144972 250.464507 
L 271.208007 249.026203 
L 271.42655 247.605017 
L 271.797249 246.217762 
L 272.314964 244.880697 
L 272.972848 243.609342 
L 273.762448 242.418304 
L 274.673821 241.321116 
L 275.695675 240.330092 
L 276.815508 239.456196 
L 278.019771 238.708931 
L 279.294035 238.096243 
L 280.623164 237.624448 
L 281.991503 237.29817 
L 283.383057 237.12031 
L 284.78168 237.092025 
L 286.171263 237.212731 
L 287.53592 237.480124 
L 288.860165 237.890224 
L 290.129092 238.437432 
L 291.328538 239.114607 
L 292.445243 239.913165 
L 293.466995 240.823189 
L 294.382763 241.833549 
L 295.182815 242.932051 
L 295.858819 244.10558 
L 296.403929 245.340265 
L 296.812847 246.621645 
L 297.081876 247.934846 
L 297.20894 249.264755 
L 297.193593 250.5962 
L 297.037006 251.914128 
L 296.741932 253.203774 
L 296.312655 254.450834 
L 295.754919 255.641615 
L 295.075841 256.763189 
L 294.283808 257.803524 
L 293.388367 258.751606 
L 292.400094 259.597546 
L 291.330461 260.332668 
L 290.191696 260.949582 
L 288.996638 261.442237 
L 287.758589 261.805965 
L 286.491169 262.037498 
L 285.208166 262.134979 
L 283.923402 262.09795 
L 282.650594 261.927332 
L 281.403223 261.625395 
L 280.194415 261.195708 
L 279.036827 260.643094 
L 277.942538 259.973561 
L 276.922955 259.194245 
L 275.988718 258.31333 
L 275.149621 257.33998 
L 274.41453 256.284257 
L 273.791317 255.15704 
L 273.286788 253.969942 
L 272.906619 252.735221 
L 272.655302 251.465692 
L 272.53608 250.174627 
L 272.550898 248.875658 
L 272.700349 247.582664 
L 272.983625 246.309656 
L 273.398476 245.070645 
L 273.941178 243.879504 
L 274.606505 242.749817 
L 275.387722 241.694706 
L 276.276593 240.726661 
L 277.263411 239.857341 
L 278.337057 239.097382 
L 279.485088 238.456194 
L 280.69386 237.941755 
L 281.948691 237.560423 
L 283.234063 237.316757 
L 284.533853 237.213367 
L 285.831616 237.250796 
L 285.831616 237.250796 
" clip-path="url(#pbc9ee44a5a)" style="fill: none; stroke: #1f77b4; stroke-width: 1.35; stroke-linecap: square"/>
   </g>
   <g id="line2d_32">
    <path d="M 282.717205 260.126196 
L 281.726599 260.192465 
L 280.750972 260.123158 
L 279.809056 259.924887 
L 278.917811 259.606749 
L 278.09214 259.179919 
L 277.344695 258.657237 
L 276.685724 258.052798 
L 275.661643 256.658837 
L 275.050709 255.11946 
L 274.844123 253.541748 
L 275.026658 251.993253 
L 275.275076 251.254232 
L 275.630664 250.568731 
L 276.597936 249.442239 
L 277.778524 248.689948 
L 279.057824 248.32214 
L 280.338347 248.337548 
L 281.524541 248.719033 
L 282.525768 249.428129 
L 283.262631 250.404756 
L 283.67306 251.570008 
L 283.717326 252.83102 
L 283.381479 254.087348 
L 282.678789 255.238308 
L 281.648902 256.190566 
L 280.354743 256.8652 
L 278.877434 257.203492 
L 277.309796 257.170891 
L 275.749132 256.758829 
L 274.290021 255.984376 
L 273.017768 254.887961 
L 272.002965 253.529546 
L 271.297458 251.983736 
L 270.9318 250.334272 
L 270.914175 248.668311 
L 271.230704 247.070815 
L 271.846988 245.619288 
L 272.710794 244.379082 
L 273.755718 243.399464 
L 274.905713 242.710646 
L 276.08024 242.321972 
L 277.199803 242.221461 
L 278.191494 242.376807 
L 278.994142 242.737846 
L 279.562631 243.240388 
L 279.871006 243.811104 
L 279.914075 244.373082 
L 279.707389 244.851558 
L 279.285636 245.179326 
L 278.699672 245.301392 
L 278.012498 245.17854 
L 277.294574 244.789637 
L 276.618859 244.132603 
L 276.055907 243.224111 
L 275.669318 242.098129 
L 275.511742 240.803464 
L 275.62164 239.400459 
L 276.020919 237.957042 
L 276.713595 236.544297 
L 277.685588 235.231805 
L 278.905717 234.083028 
L 280.327906 233.151052 
L 281.894491 232.475056 
L 283.540406 232.077813 
L 285.197899 231.964484 
L 286.801361 232.1228 
L 288.291801 232.524607 
L 289.620599 233.128542 
L 290.75223 233.883522 
L 291.665853 234.732652 
L 292.355777 235.617182 
L 292.994504 236.887197 
L 293.237882 237.942399 
L 293.190583 238.811707 
L 293.103759 238.993293 
L 293.401666 238.508266 
L 294.088773 237.9498 
L 294.810008 237.582835 
L 295.740281 237.296052 
L 296.856041 237.152318 
L 298.115168 237.205235 
L 299.460913 237.493132 
L 300.828046 238.034944 
L 302.150147 238.828862 
L 303.366665 239.853953 
L 304.428463 241.074262 
L 305.301046 242.444314 
L 305.965342 243.914844 
L 306.416444 245.437769 
L 306.661026 246.969809 
L 306.714204 248.474636 
L 306.59644 249.923705 
L 306.150106 251.948931 
L 305.450476 253.760543 
L 305.450476 253.760543 
" clip-path="url(#pbc9ee44a5a)" style="fill: none; stroke: #8172b2; stroke-width: 1.35; stroke-linecap: square"/>
   </g>
   <g id="patch_9">
    <path d="M 58.523438 483.394207 
L 58.523438 22.318125 
" style="fill: none; stroke: #000000; stroke-width: 0.8; stroke-linejoin: miter; stroke-linecap: square"/>
   </g>
   <g id="patch_10">
    <path d="M 519.59952 483.394207 
L 519.59952 22.318125 
" style="fill: none; stroke: #000000; stroke-width: 0.8; stroke-linejoin: miter; stroke-linecap: square"/>
   </g>
   <g id="patch_11">
    <path d="M 58.523438 483.394207 
L 519.59952 483.394207 
" style="fill: none; stroke: #000000; stroke-width: 0.8; stroke-linejoin: miter; stroke-linecap: square"/>
   </g>
   <g id="patch_12">
    <path d="M 58.523438 22.318125 
L 519.59952 22.318125 
" style="fill: none; stroke: #000000; stroke-width: 0.8; stroke-linejoin: miter; stroke-linecap: square"/>
   </g>
   <g id="text_21">
    <!-- r=0.2 -->
    <g style="fill: #6f7782" transform="translate(149.955963 247.519638) scale(0.06 -0.06)">
     <defs>
      <path id="DejaVuSans-72" d="M 2631 2963 
Q 2534 3019 2420 3045 
Q 2306 3072 2169 3072 
Q 1681 3072 1420 2755 
Q 1159 2438 1159 1844 
L 1159 0 
L 581 0 
L 581 3500 
L 1159 3500 
L 1159 2956 
Q 1341 3275 1631 3429 
Q 1922 3584 2338 3584 
Q 2397 3584 2469 3576 
Q 2541 3569 2628 3553 
L 2631 2963 
z
" transform="scale(0.015625)"/>
      <path id="DejaVuSans-3d" d="M 678 2906 
L 4684 2906 
L 4684 2381 
L 678 2381 
L 678 2906 
z
M 678 1631 
L 4684 1631 
L 4684 1100 
L 678 1100 
L 678 1631 
z
" transform="scale(0.015625)"/>
     </defs>
     <use xlink:href="#DejaVuSans-72"/>
     <use xlink:href="#DejaVuSans-3d" transform="translate(41.113281 0)"/>
     <use xlink:href="#DejaVuSans-30" transform="translate(124.902344 0)"/>
     <use xlink:href="#DejaVuSans-2e" transform="translate(188.525391 0)"/>
     <use xlink:href="#DejaVuSans-32" transform="translate(220.3125 0)"/>
    </g>
   </g>
   <g id="text_22">
    <!-- r=0.5 -->
    <g style="fill: #6f7782" transform="translate(221.10968 247.519638) scale(0.06 -0.06)">
     <use xlink:href="#DejaVuSans-72"/>
     <use xlink:href="#DejaVuSans-3d" transform="translate(41.113281 0)"/>
     <use xlink:href="#DejaVuSans-30" transform="translate(124.902344 0)"/>
     <use xlink:href="#DejaVuSans-2e" transform="translate(188.525391 0)"/>
     <use xlink:href="#DejaVuSans-35" transform="translate(220.3125 0)"/>
    </g>
   </g>
   <g id="text_23">
    <!-- r=1 -->
    <g style="fill: #6f7782" transform="translate(292.263396 247.519638) scale(0.06 -0.06)">
     <use xlink:href="#DejaVuSans-72"/>
     <use xlink:href="#DejaVuSans-3d" transform="translate(41.113281 0)"/>
     <use xlink:href="#DejaVuSans-31" transform="translate(124.902344 0)"/>
    </g>
   </g>
   <g id="text_24">
    <!-- r=2 -->
    <g style="fill: #6f7782" transform="translate(363.417112 247.519638) scale(0.06 -0.06)">
     <use xlink:href="#DejaVuSans-72"/>
     <use xlink:href="#DejaVuSans-3d" transform="translate(41.113281 0)"/>
     <use xlink:href="#DejaVuSans-32" transform="translate(124.902344 0)"/>
    </g>
   </g>
   <g id="text_25">
    <!-- r=5 -->
    <g style="fill: #6f7782" transform="translate(434.570829 247.519638) scale(0.06 -0.06)">
     <use xlink:href="#DejaVuSans-72"/>
     <use xlink:href="#DejaVuSans-3d" transform="translate(41.113281 0)"/>
     <use xlink:href="#DejaVuSans-35" transform="translate(124.902344 0)"/>
    </g>
   </g>
   <g id="text_26">
    <!-- +j0.2 -->
    <g style="fill: #6f7782" transform="translate(431.447884 250.487008) scale(0.06 -0.06)">
     <defs>
      <path id="DejaVuSans-2b" d="M 2944 4013 
L 2944 2272 
L 4684 2272 
L 4684 1741 
L 2944 1741 
L 2944 0 
L 2419 0 
L 2419 1741 
L 678 1741 
L 678 2272 
L 2419 2272 
L 2419 4013 
L 2944 4013 
z
" transform="scale(0.015625)"/>
      <path id="DejaVuSans-6a" d="M 603 3500 
L 1178 3500 
L 1178 -63 
Q 1178 -731 923 -1031 
Q 669 -1331 103 -1331 
L -116 -1331 
L -116 -844 
L 38 -844 
Q 366 -844 484 -692 
Q 603 -541 603 -63 
L 603 3500 
z
M 603 4863 
L 1178 4863 
L 1178 4134 
L 603 4134 
L 603 4863 
z
" transform="scale(0.015625)"/>
     </defs>
     <use xlink:href="#DejaVuSans-2b"/>
     <use xlink:href="#DejaVuSans-6a" transform="translate(83.789062 0)"/>
     <use xlink:href="#DejaVuSans-30" transform="translate(111.572266 0)"/>
     <use xlink:href="#DejaVuSans-2e" transform="translate(175.195312 0)"/>
     <use xlink:href="#DejaVuSans-32" transform="translate(206.982422 0)"/>
    </g>
   </g>
   <g id="text_27">
    <!-- -j0.2 -->
    <g style="fill: #6f7782" transform="translate(431.447884 255.225324) scale(0.06 -0.06)">
     <defs>
      <path id="DejaVuSans-2d" d="M 313 2009 
L 1997 2009 
L 1997 1497 
L 313 1497 
L 313 2009 
z
" transform="scale(0.015625)"/>
     </defs>
     <use xlink:href="#DejaVuSans-2d"/>
     <use xlink:href="#DejaVuSans-6a" transform="translate(36.083984 0)"/>
     <use xlink:href="#DejaVuSans-30" transform="translate(63.867188 0)"/>
     <use xlink:href="#DejaVuSans-2e" transform="translate(127.490234 0)"/>
     <use xlink:href="#DejaVuSans-32" transform="translate(159.277344 0)"/>
    </g>
   </g>
   <g id="text_28">
    <!-- +j0.5 -->
    <g style="fill: #6f7782" transform="translate(431.859627 246.967583) scale(0.06 -0.06)">
     <use xlink:href="#DejaVuSans-2b"/>
     <use xlink:href="#DejaVuSans-6a" transform="translate(83.789062 0)"/>
     <use xlink:href="#DejaVuSans-30" transform="translate(111.572266 0)"/>
     <use xlink:href="#DejaVuSans-2e" transform="translate(175.195312 0)"/>
     <use xlink:href="#DejaVuSans-35" transform="translate(206.982422 0)"/>
    </g>
   </g>
   <g id="text_29">
    <!-- -j0.5 -->
    <g style="fill: #6f7782" transform="translate(431.859627 258.74475) scale(0.06 -0.06)">
     <use xlink:href="#DejaVuSans-2d"/>
     <use xlink:href="#DejaVuSans-6a" transform="translate(36.083984 0)"/>
     <use xlink:href="#DejaVuSans-30" transform="translate(63.867188 0)"/>
     <use xlink:href="#DejaVuSans-2e" transform="translate(127.490234 0)"/>
     <use xlink:href="#DejaVuSans-35" transform="translate(159.277344 0)"/>
    </g>
   </g>
   <g id="text_30">
    <!-- +j1 -->
    <g style="fill: #6f7782" transform="translate(433.291985 241.317726) scale(0.06 -0.06)">
     <use xlink:href="#DejaVuSans-2b"/>
     <use xlink:href="#DejaVuSans-6a" transform="translate(83.789062 0)"/>
     <use xlink:href="#DejaVuSans-31" transform="translate(111.572266 0)"/>
    </g>
   </g>
   <g id="text_31">
    <!-- -j1 -->
    <g style="fill: #6f7782" transform="translate(433.291985 264.394607) scale(0.06 -0.06)">
     <use xlink:href="#DejaVuSans-2d"/>
     <use xlink:href="#DejaVuSans-6a" transform="translate(36.083984 0)"/>
     <use xlink:href="#DejaVuSans-31" transform="translate(63.867188 0)"/>
    </g>
   </g>
   <g id="text_32">
    <!-- +j2 -->
    <g style="fill: #6f7782" transform="translate(438.484283 231.510051) scale(0.06 -0.06)">
     <use xlink:href="#DejaVuSans-2b"/>
     <use xlink:href="#DejaVuSans-6a" transform="translate(83.789062 0)"/>
     <use xlink:href="#DejaVuSans-32" transform="translate(111.572266 0)"/>
    </g>
   </g>
   <g id="text_33">
    <!-- -j2 -->
    <g style="fill: #6f7782" transform="translate(438.484283 274.202281) scale(0.06 -0.06)">
     <use xlink:href="#DejaVuSans-2d"/>
     <use xlink:href="#DejaVuSans-6a" transform="translate(36.083984 0)"/>
     <use xlink:href="#DejaVuSans-32" transform="translate(63.867188 0)"/>
    </g>
   </g>
   <g id="text_34">
    <!-- +j5 -->
    <g style="fill: #6f7782" transform="translate(460.530271 217.862535) scale(0.06 -0.06)">
     <use xlink:href="#DejaVuSans-2b"/>
     <use xlink:href="#DejaVuSans-6a" transform="translate(83.789062 0)"/>
     <use xlink:href="#DejaVuSans-35" transform="translate(111.572266 0)"/>
    </g>
   </g>
   <g id="text_35">
    <!-- -j5 -->
    <g style="fill: #6f7782" transform="translate(460.530271 287.849797) scale(0.06 -0.06)">
     <use xlink:href="#DejaVuSans-2d"/>
     <use xlink:href="#DejaVuSans-6a" transform="translate(36.083984 0)"/>
     <use xlink:href="#DejaVuSans-35" transform="translate(63.867188 0)"/>
    </g>
   </g>
   <g id="text_36">
    <!--  S11 0.5G -->
    <g style="fill: #1f77b4" transform="translate(281.923328 259.467994) scale(0.07 -0.07)">
     <defs>
      <path id="DejaVuSans-20" transform="scale(0.015625)"/>
      <path id="DejaVuSans-53" d="M 3425 4513 
L 3425 3897 
Q 3066 4069 2747 4153 
Q 2428 4238 2131 4238 
Q 1616 4238 1336 4038 
Q 1056 3838 1056 3469 
Q 1056 3159 1242 3001 
Q 1428 2844 1947 2747 
L 2328 2669 
Q 3034 2534 3370 2195 
Q 3706 1856 3706 1288 
Q 3706 609 3251 259 
Q 2797 -91 1919 -91 
Q 1588 -91 1214 -16 
Q 841 59 441 206 
L 441 856 
Q 825 641 1194 531 
Q 1563 422 1919 422 
Q 2459 422 2753 634 
Q 3047 847 3047 1241 
Q 3047 1584 2836 1778 
Q 2625 1972 2144 2069 
L 1759 2144 
Q 1053 2284 737 2584 
Q 422 2884 422 3419 
Q 422 4038 858 4394 
Q 1294 4750 2059 4750 
Q 2388 4750 2728 4690 
Q 3069 4631 3425 4513 
z
" transform="scale(0.015625)"/>
     </defs>
     <use xlink:href="#DejaVuSans-20"/>
     <use xlink:href="#DejaVuSans-53" transform="translate(31.787109 0)"/>
     <use xlink:href="#DejaVuSans-31" transform="translate(95.263672 0)"/>
     <use xlink:href="#DejaVuSans-31" transform="translate(158.886719 0)"/>
     <use xlink:href="#DejaVuSans-20" transform="translate(222.509766 0)"/>
     <use xlink:href="#DejaVuSans-30" transform="translate(254.296875 0)"/>
     <use xlink:href="#DejaVuSans-2e" transform="translate(317.919922 0)"/>
     <use xlink:href="#DejaVuSans-35" transform="translate(349.707031 0)"/>
     <use xlink:href="#DejaVuSans-47" transform="translate(413.330078 0)"/>
    </g>
   </g>
   <g id="text_37">
    <!--  10G -->
    <g style="fill: #1f77b4" transform="translate(285.831616 237.250796) scale(0.07 -0.07)">
     <use xlink:href="#DejaVuSans-20"/>
     <use xlink:href="#DejaVuSans-31" transform="translate(31.787109 0)"/>
     <use xlink:href="#DejaVuSans-30" transform="translate(95.410156 0)"/>
     <use xlink:href="#DejaVuSans-47" transform="translate(159.033203 0)"/>
    </g>
   </g>
   <g id="text_38">
    <!--  S22 0.5G -->
    <g style="fill: #8172b2" transform="translate(282.717205 260.126196) scale(0.07 -0.07)">
     <use xlink:href="#DejaVuSans-20"/>
     <use xlink:href="#DejaVuSans-53" transform="translate(31.787109 0)"/>
     <use xlink:href="#DejaVuSans-32" transform="translate(95.263672 0)"/>
     <use xlink:href="#DejaVuSans-32" transform="translate(158.886719 0)"/>
     <use xlink:href="#DejaVuSans-20" transform="translate(222.509766 0)"/>
     <use xlink:href="#DejaVuSans-30" transform="translate(254.296875 0)"/>
     <use xlink:href="#DejaVuSans-2e" transform="translate(317.919922 0)"/>
     <use xlink:href="#DejaVuSans-35" transform="translate(349.707031 0)"/>
     <use xlink:href="#DejaVuSans-47" transform="translate(413.330078 0)"/>
    </g>
   </g>
   <g id="text_39">
    <!--  10G -->
    <g style="fill: #8172b2" transform="translate(305.450476 253.760543) scale(0.07 -0.07)">
     <use xlink:href="#DejaVuSans-20"/>
     <use xlink:href="#DejaVuSans-31" transform="translate(31.787109 0)"/>
     <use xlink:href="#DejaVuSans-30" transform="translate(95.410156 0)"/>
     <use xlink:href="#DejaVuSans-47" transform="translate(159.033203 0)"/>
    </g>
   </g>
   <g id="text_40">
    <!-- Worst return: S22 -19.90 dB @ 6.35 GHz -->
    <g style="fill: #303640" transform="translate(67.061883 474.855762) scale(0.08 -0.08)">
     <defs>
      <path id="DejaVuSans-57" d="M 213 4666 
L 850 4666 
L 1831 722 
L 2809 4666 
L 3519 4666 
L 4500 722 
L 5478 4666 
L 6119 4666 
L 4947 0 
L 4153 0 
L 3169 4050 
L 2175 0 
L 1381 0 
L 213 4666 
z
" transform="scale(0.015625)"/>
      <path id="DejaVuSans-6f" d="M 1959 3097 
Q 1497 3097 1228 2736 
Q 959 2375 959 1747 
Q 959 1119 1226 758 
Q 1494 397 1959 397 
Q 2419 397 2687 759 
Q 2956 1122 2956 1747 
Q 2956 2369 2687 2733 
Q 2419 3097 1959 3097 
z
M 1959 3584 
Q 2709 3584 3137 3096 
Q 3566 2609 3566 1747 
Q 3566 888 3137 398 
Q 2709 -91 1959 -91 
Q 1206 -91 779 398 
Q 353 888 353 1747 
Q 353 2609 779 3096 
Q 1206 3584 1959 3584 
z
" transform="scale(0.015625)"/>
      <path id="DejaVuSans-73" d="M 2834 3397 
L 2834 2853 
Q 2591 2978 2328 3040 
Q 2066 3103 1784 3103 
Q 1356 3103 1142 2972 
Q 928 2841 928 2578 
Q 928 2378 1081 2264 
Q 1234 2150 1697 2047 
L 1894 2003 
Q 2506 1872 2764 1633 
Q 3022 1394 3022 966 
Q 3022 478 2636 193 
Q 2250 -91 1575 -91 
Q 1294 -91 989 -36 
Q 684 19 347 128 
L 347 722 
Q 666 556 975 473 
Q 1284 391 1588 391 
Q 1994 391 2212 530 
Q 2431 669 2431 922 
Q 2431 1156 2273 1281 
Q 2116 1406 1581 1522 
L 1381 1569 
Q 847 1681 609 1914 
Q 372 2147 372 2553 
Q 372 3047 722 3315 
Q 1072 3584 1716 3584 
Q 2034 3584 2315 3537 
Q 2597 3491 2834 3397 
z
" transform="scale(0.015625)"/>
      <path id="DejaVuSans-74" d="M 1172 4494 
L 1172 3500 
L 2356 3500 
L 2356 3053 
L 1172 3053 
L 1172 1153 
Q 1172 725 1289 603 
Q 1406 481 1766 481 
L 2356 481 
L 2356 0 
L 1766 0 
Q 1100 0 847 248 
Q 594 497 594 1153 
L 594 3053 
L 172 3053 
L 172 3500 
L 594 3500 
L 594 4494 
L 1172 4494 
z
" transform="scale(0.015625)"/>
      <path id="DejaVuSans-75" d="M 544 1381 
L 544 3500 
L 1119 3500 
L 1119 1403 
Q 1119 906 1312 657 
Q 1506 409 1894 409 
Q 2359 409 2629 706 
Q 2900 1003 2900 1516 
L 2900 3500 
L 3475 3500 
L 3475 0 
L 2900 0 
L 2900 538 
Q 2691 219 2414 64 
Q 2138 -91 1772 -91 
Q 1169 -91 856 284 
Q 544 659 544 1381 
z
M 1991 3584 
L 1991 3584 
z
" transform="scale(0.015625)"/>
      <path id="DejaVuSans-6e" d="M 3513 2113 
L 3513 0 
L 2938 0 
L 2938 2094 
Q 2938 2591 2744 2837 
Q 2550 3084 2163 3084 
Q 1697 3084 1428 2787 
Q 1159 2491 1159 1978 
L 1159 0 
L 581 0 
L 581 3500 
L 1159 3500 
L 1159 2956 
Q 1366 3272 1645 3428 
Q 1925 3584 2291 3584 
Q 2894 3584 3203 3211 
Q 3513 2838 3513 2113 
z
" transform="scale(0.015625)"/>
      <path id="DejaVuSans-3a" d="M 750 794 
L 1409 794 
L 1409 0 
L 750 0 
L 750 794 
z
M 750 3309 
L 1409 3309 
L 1409 2516 
L 750 2516 
L 750 3309 
z
" transform="scale(0.015625)"/>
      <path id="DejaVuSans-39" d="M 703 97 
L 703 672 
Q 941 559 1184 500 
Q 1428 441 1663 441 
Q 2288 441 2617 861 
Q 2947 1281 2994 2138 
Q 2813 1869 2534 1725 
Q 2256 1581 1919 1581 
Q 1219 1581 811 2004 
Q 403 2428 403 3163 
Q 403 3881 828 4315 
Q 1253 4750 1959 4750 
Q 2769 4750 3195 4129 
Q 3622 3509 3622 2328 
Q 3622 1225 3098 567 
Q 2575 -91 1691 -91 
Q 1453 -91 1209 -44 
Q 966 3 703 97 
z
M 1959 2075 
Q 2384 2075 2632 2365 
Q 2881 2656 2881 3163 
Q 2881 3666 2632 3958 
Q 2384 4250 1959 4250 
Q 1534 4250 1286 3958 
Q 1038 3666 1038 3163 
Q 1038 2656 1286 2365 
Q 1534 2075 1959 2075 
z
" transform="scale(0.015625)"/>
      <path id="DejaVuSans-64" d="M 2906 2969 
L 2906 4863 
L 3481 4863 
L 3481 0 
L 2906 0 
L 2906 525 
Q 2725 213 2448 61 
Q 2172 -91 1784 -91 
Q 1150 -91 751 415 
Q 353 922 353 1747 
Q 353 2572 751 3078 
Q 1150 3584 1784 3584 
Q 2172 3584 2448 3432 
Q 2725 3281 2906 2969 
z
M 947 1747 
Q 947 1113 1208 752 
Q 1469 391 1925 391 
Q 2381 391 2643 752 
Q 2906 1113 2906 1747 
Q 2906 2381 2643 2742 
Q 2381 3103 1925 3103 
Q 1469 3103 1208 2742 
Q 947 2381 947 1747 
z
" transform="scale(0.015625)"/>
      <path id="DejaVuSans-42" d="M 1259 2228 
L 1259 519 
L 2272 519 
Q 2781 519 3026 730 
Q 3272 941 3272 1375 
Q 3272 1813 3026 2020 
Q 2781 2228 2272 2228 
L 1259 2228 
z
M 1259 4147 
L 1259 2741 
L 2194 2741 
Q 2656 2741 2882 2914 
Q 3109 3088 3109 3444 
Q 3109 3797 2882 3972 
Q 2656 4147 2194 4147 
L 1259 4147 
z
M 628 4666 
L 2241 4666 
Q 2963 4666 3353 4366 
Q 3744 4066 3744 3513 
Q 3744 3084 3544 2831 
Q 3344 2578 2956 2516 
Q 3422 2416 3680 2098 
Q 3938 1781 3938 1306 
Q 3938 681 3513 340 
Q 3088 0 2303 0 
L 628 0 
L 628 4666 
z
" transform="scale(0.015625)"/>
      <path id="DejaVuSans-40" d="M 2381 1678 
Q 2381 1231 2603 976 
Q 2825 722 3213 722 
Q 3597 722 3817 978 
Q 4038 1234 4038 1678 
Q 4038 2116 3813 2373 
Q 3588 2631 3206 2631 
Q 2828 2631 2604 2375 
Q 2381 2119 2381 1678 
z
M 4084 744 
Q 3897 503 3655 389 
Q 3413 275 3091 275 
Q 2553 275 2217 664 
Q 1881 1053 1881 1678 
Q 1881 2303 2218 2693 
Q 2556 3084 3091 3084 
Q 3413 3084 3656 2967 
Q 3900 2850 4084 2613 
L 4084 3022 
L 4531 3022 
L 4531 722 
Q 4988 791 5245 1139 
Q 5503 1488 5503 2041 
Q 5503 2375 5404 2669 
Q 5306 2963 5106 3213 
Q 4781 3622 4314 3839 
Q 3847 4056 3297 4056 
Q 2913 4056 2559 3954 
Q 2206 3853 1906 3653 
Q 1416 3334 1139 2817 
Q 863 2300 863 1697 
Q 863 1200 1042 765 
Q 1222 331 1563 0 
Q 1891 -325 2322 -495 
Q 2753 -666 3244 -666 
Q 3647 -666 4036 -530 
Q 4425 -394 4750 -141 
L 5031 -488 
Q 4641 -791 4180 -952 
Q 3719 -1113 3244 -1113 
Q 2666 -1113 2153 -908 
Q 1641 -703 1241 -313 
Q 841 78 631 592 
Q 422 1106 422 1697 
Q 422 2266 634 2781 
Q 847 3297 1241 3688 
Q 1644 4084 2172 4295 
Q 2700 4506 3291 4506 
Q 3953 4506 4520 4234 
Q 5088 3963 5472 3463 
Q 5706 3156 5829 2797 
Q 5953 2438 5953 2053 
Q 5953 1231 5456 756 
Q 4959 281 4084 263 
L 4084 744 
z
" transform="scale(0.015625)"/>
      <path id="DejaVuSans-36" d="M 2113 2584 
Q 1688 2584 1439 2293 
Q 1191 2003 1191 1497 
Q 1191 994 1439 701 
Q 1688 409 2113 409 
Q 2538 409 2786 701 
Q 3034 994 3034 1497 
Q 3034 2003 2786 2293 
Q 2538 2584 2113 2584 
z
M 3366 4563 
L 3366 3988 
Q 3128 4100 2886 4159 
Q 2644 4219 2406 4219 
Q 1781 4219 1451 3797 
Q 1122 3375 1075 2522 
Q 1259 2794 1537 2939 
Q 1816 3084 2150 3084 
Q 2853 3084 3261 2657 
Q 3669 2231 3669 1497 
Q 3669 778 3244 343 
Q 2819 -91 2113 -91 
Q 1303 -91 875 529 
Q 447 1150 447 2328 
Q 447 3434 972 4092 
Q 1497 4750 2381 4750 
Q 2619 4750 2861 4703 
Q 3103 4656 3366 4563 
z
" transform="scale(0.015625)"/>
      <path id="DejaVuSans-33" d="M 2597 2516 
Q 3050 2419 3304 2112 
Q 3559 1806 3559 1356 
Q 3559 666 3084 287 
Q 2609 -91 1734 -91 
Q 1441 -91 1130 -33 
Q 819 25 488 141 
L 488 750 
Q 750 597 1062 519 
Q 1375 441 1716 441 
Q 2309 441 2620 675 
Q 2931 909 2931 1356 
Q 2931 1769 2642 2001 
Q 2353 2234 1838 2234 
L 1294 2234 
L 1294 2753 
L 1863 2753 
Q 2328 2753 2575 2939 
Q 2822 3125 2822 3475 
Q 2822 3834 2567 4026 
Q 2313 4219 1838 4219 
Q 1578 4219 1281 4162 
Q 984 4106 628 3988 
L 628 4550 
Q 988 4650 1302 4700 
Q 1616 4750 1894 4750 
Q 2613 4750 3031 4423 
Q 3450 4097 3450 3541 
Q 3450 3153 3228 2886 
Q 3006 2619 2597 2516 
z
" transform="scale(0.015625)"/>
      <path id="DejaVuSans-48" d="M 628 4666 
L 1259 4666 
L 1259 2753 
L 3553 2753 
L 3553 4666 
L 4184 4666 
L 4184 0 
L 3553 0 
L 3553 2222 
L 1259 2222 
L 1259 0 
L 628 0 
L 628 4666 
z
" transform="scale(0.015625)"/>
      <path id="DejaVuSans-7a" d="M 353 3500 
L 3084 3500 
L 3084 2975 
L 922 459 
L 3084 459 
L 3084 0 
L 275 0 
L 275 525 
L 2438 3041 
L 353 3041 
L 353 3500 
z
" transform="scale(0.015625)"/>
     </defs>
     <use xlink:href="#DejaVuSans-57"/>
     <use xlink:href="#DejaVuSans-6f" transform="translate(93.001953 0)"/>
     <use xlink:href="#DejaVuSans-72" transform="translate(154.183594 0)"/>
     <use xlink:href="#DejaVuSans-73" transform="translate(195.296875 0)"/>
     <use xlink:href="#DejaVuSans-74" transform="translate(247.396484 0)"/>
     <use xlink:href="#DejaVuSans-20" transform="translate(286.605469 0)"/>
     <use xlink:href="#DejaVuSans-72" transform="translate(318.392578 0)"/>
     <use xlink:href="#DejaVuSans-65" transform="translate(357.255859 0)"/>
     <use xlink:href="#DejaVuSans-74" transform="translate(418.779297 0)"/>
     <use xlink:href="#DejaVuSans-75" transform="translate(457.988281 0)"/>
     <use xlink:href="#DejaVuSans-72" transform="translate(521.367188 0)"/>
     <use xlink:href="#DejaVuSans-6e" transform="translate(560.730469 0)"/>
     <use xlink:href="#DejaVuSans-3a" transform="translate(624.109375 0)"/>
     <use xlink:href="#DejaVuSans-20" transform="translate(657.800781 0)"/>
     <use xlink:href="#DejaVuSans-53" transform="translate(689.587891 0)"/>
     <use xlink:href="#DejaVuSans-32" transform="translate(753.064453 0)"/>
     <use xlink:href="#DejaVuSans-32" transform="translate(816.6875 0)"/>
     <use xlink:href="#DejaVuSans-20" transform="translate(880.310547 0)"/>
     <use xlink:href="#DejaVuSans-2d" transform="translate(912.097656 0)"/>
     <use xlink:href="#DejaVuSans-31" transform="translate(948.181641 0)"/>
     <use xlink:href="#DejaVuSans-39" transform="translate(1011.804688 0)"/>
     <use xlink:href="#DejaVuSans-2e" transform="translate(1075.427734 0)"/>
     <use xlink:href="#DejaVuSans-39" transform="translate(1107.214844 0)"/>
     <use xlink:href="#DejaVuSans-30" transform="translate(1170.837891 0)"/>
     <use xlink:href="#DejaVuSans-20" transform="translate(1234.460938 0)"/>
     <use xlink:href="#DejaVuSans-64" transform="translate(1266.248047 0)"/>
     <use xlink:href="#DejaVuSans-42" transform="translate(1329.724609 0)"/>
     <use xlink:href="#DejaVuSans-20" transform="translate(1398.328125 0)"/>
     <use xlink:href="#DejaVuSans-40" transform="translate(1430.115234 0)"/>
     <use xlink:href="#DejaVuSans-20" transform="translate(1530.115234 0)"/>
     <use xlink:href="#DejaVuSans-36" transform="translate(1561.902344 0)"/>
     <use xlink:href="#DejaVuSans-2e" transform="translate(1625.525391 0)"/>
     <use xlink:href="#DejaVuSans-33" transform="translate(1657.3125 0)"/>
     <use xlink:href="#DejaVuSans-35" transform="translate(1720.935547 0)"/>
     <use xlink:href="#DejaVuSans-20" transform="translate(1784.558594 0)"/>
     <use xlink:href="#DejaVuSans-47" transform="translate(1816.345703 0)"/>
     <use xlink:href="#DejaVuSans-48" transform="translate(1893.835938 0)"/>
     <use xlink:href="#DejaVuSans-7a" transform="translate(1969.03125 0)"/>
    </g>
   </g>
   <g id="text_41">
    <!-- RF_PPA_SP10T_4F4H_ENIG_V1_0_Core1_0402_20260808 Smith chart -->
    <g transform="translate(82.323041 16.318125) scale(0.12 -0.12)">
     <defs>
      <path id="DejaVuSans-46" d="M 628 4666 
L 3309 4666 
L 3309 4134 
L 1259 4134 
L 1259 2759 
L 3109 2759 
L 3109 2228 
L 1259 2228 
L 1259 0 
L 628 0 
L 628 4666 
z
" transform="scale(0.015625)"/>
      <path id="DejaVuSans-5f" d="M 3263 -1063 
L 3263 -1509 
L -63 -1509 
L -63 -1063 
L 3263 -1063 
z
" transform="scale(0.015625)"/>
      <path id="DejaVuSans-50" d="M 1259 4147 
L 1259 2394 
L 2053 2394 
Q 2494 2394 2734 2622 
Q 2975 2850 2975 3272 
Q 2975 3691 2734 3919 
Q 2494 4147 2053 4147 
L 1259 4147 
z
M 628 4666 
L 2053 4666 
Q 2838 4666 3239 4311 
Q 3641 3956 3641 3272 
Q 3641 2581 3239 2228 
Q 2838 1875 2053 1875 
L 1259 1875 
L 1259 0 
L 628 0 
L 628 4666 
z
" transform="scale(0.015625)"/>
      <path id="DejaVuSans-41" d="M 2188 4044 
L 1331 1722 
L 3047 1722 
L 2188 4044 
z
M 1831 4666 
L 2547 4666 
L 4325 0 
L 3669 0 
L 3244 1197 
L 1141 1197 
L 716 0 
L 50 0 
L 1831 4666 
z
" transform="scale(0.015625)"/>
      <path id="DejaVuSans-54" d="M -19 4666 
L 3928 4666 
L 3928 4134 
L 2272 4134 
L 2272 0 
L 1638 0 
L 1638 4134 
L -19 4134 
L -19 4666 
z
" transform="scale(0.015625)"/>
      <path id="DejaVuSans-34" d="M 2419 4116 
L 825 1625 
L 2419 1625 
L 2419 4116 
z
M 2253 4666 
L 3047 4666 
L 3047 1625 
L 3713 1625 
L 3713 1100 
L 3047 1100 
L 3047 0 
L 2419 0 
L 2419 1100 
L 313 1100 
L 313 1709 
L 2253 4666 
z
" transform="scale(0.015625)"/>
      <path id="DejaVuSans-45" d="M 628 4666 
L 3578 4666 
L 3578 4134 
L 1259 4134 
L 1259 2753 
L 3481 2753 
L 3481 2222 
L 1259 2222 
L 1259 531 
L 3634 531 
L 3634 0 
L 628 0 
L 628 4666 
z
" transform="scale(0.015625)"/>
      <path id="DejaVuSans-4e" d="M 628 4666 
L 1478 4666 
L 3547 763 
L 3547 4666 
L 4159 4666 
L 4159 0 
L 3309 0 
L 1241 3903 
L 1241 0 
L 628 0 
L 628 4666 
z
" transform="scale(0.015625)"/>
      <path id="DejaVuSans-56" d="M 1831 0 
L 50 4666 
L 709 4666 
L 2188 738 
L 3669 4666 
L 4325 4666 
L 2547 0 
L 1831 0 
z
" transform="scale(0.015625)"/>
      <path id="DejaVuSans-43" d="M 4122 4306 
L 4122 3641 
Q 3803 3938 3442 4084 
Q 3081 4231 2675 4231 
Q 1875 4231 1450 3742 
Q 1025 3253 1025 2328 
Q 1025 1406 1450 917 
Q 1875 428 2675 428 
Q 3081 428 3442 575 
Q 3803 722 4122 1019 
L 4122 359 
Q 3791 134 3420 21 
Q 3050 -91 2638 -91 
Q 1578 -91 968 557 
Q 359 1206 359 2328 
Q 359 3453 968 4101 
Q 1578 4750 2638 4750 
Q 3056 4750 3426 4639 
Q 3797 4528 4122 4306 
z
" transform="scale(0.015625)"/>
      <path id="DejaVuSans-38" d="M 2034 2216 
Q 1584 2216 1326 1975 
Q 1069 1734 1069 1313 
Q 1069 891 1326 650 
Q 1584 409 2034 409 
Q 2484 409 2743 651 
Q 3003 894 3003 1313 
Q 3003 1734 2745 1975 
Q 2488 2216 2034 2216 
z
M 1403 2484 
Q 997 2584 770 2862 
Q 544 3141 544 3541 
Q 544 4100 942 4425 
Q 1341 4750 2034 4750 
Q 2731 4750 3128 4425 
Q 3525 4100 3525 3541 
Q 3525 3141 3298 2862 
Q 3072 2584 2669 2484 
Q 3125 2378 3379 2068 
Q 3634 1759 3634 1313 
Q 3634 634 3220 271 
Q 2806 -91 2034 -91 
Q 1263 -91 848 271 
Q 434 634 434 1313 
Q 434 1759 690 2068 
Q 947 2378 1403 2484 
z
M 1172 3481 
Q 1172 3119 1398 2916 
Q 1625 2713 2034 2713 
Q 2441 2713 2670 2916 
Q 2900 3119 2900 3481 
Q 2900 3844 2670 4047 
Q 2441 4250 2034 4250 
Q 1625 4250 1398 4047 
Q 1172 3844 1172 3481 
z
" transform="scale(0.015625)"/>
      <path id="DejaVuSans-69" d="M 603 3500 
L 1178 3500 
L 1178 0 
L 603 0 
L 603 3500 
z
M 603 4863 
L 1178 4863 
L 1178 4134 
L 603 4134 
L 603 4863 
z
" transform="scale(0.015625)"/>
      <path id="DejaVuSans-68" d="M 3513 2113 
L 3513 0 
L 2938 0 
L 2938 2094 
Q 2938 2591 2744 2837 
Q 2550 3084 2163 3084 
Q 1697 3084 1428 2787 
Q 1159 2491 1159 1978 
L 1159 0 
L 581 0 
L 581 4863 
L 1159 4863 
L 1159 2956 
Q 1366 3272 1645 3428 
Q 1925 3584 2291 3584 
Q 2894 3584 3203 3211 
Q 3513 2838 3513 2113 
z
" transform="scale(0.015625)"/>
      <path id="DejaVuSans-63" d="M 3122 3366 
L 3122 2828 
Q 2878 2963 2633 3030 
Q 2388 3097 2138 3097 
Q 1578 3097 1268 2742 
Q 959 2388 959 1747 
Q 959 1106 1268 751 
Q 1578 397 2138 397 
Q 2388 397 2633 464 
Q 2878 531 3122 666 
L 3122 134 
Q 2881 22 2623 -34 
Q 2366 -91 2075 -91 
Q 1284 -91 818 406 
Q 353 903 353 1747 
Q 353 2603 823 3093 
Q 1294 3584 2113 3584 
Q 2378 3584 2631 3529 
Q 2884 3475 3122 3366 
z
" transform="scale(0.015625)"/>
     </defs>
     <use xlink:href="#DejaVuSans-52"/>
     <use xlink:href="#DejaVuSans-46" transform="translate(69.482422 0)"/>
     <use xlink:href="#DejaVuSans-5f" transform="translate(127.001953 0)"/>
     <use xlink:href="#DejaVuSans-50" transform="translate(177.001953 0)"/>
     <use xlink:href="#DejaVuSans-50" transform="translate(237.304688 0)"/>
     <use xlink:href="#DejaVuSans-41" transform="translate(291.232422 0)"/>
     <use xlink:href="#DejaVuSans-5f" transform="translate(359.640625 0)"/>
     <use xlink:href="#DejaVuSans-53" transform="translate(409.640625 0)"/>
     <use xlink:href="#DejaVuSans-50" transform="translate(473.117188 0)"/>
     <use xlink:href="#DejaVuSans-31" transform="translate(533.419922 0)"/>
     <use xlink:href="#DejaVuSans-30" transform="translate(597.042969 0)"/>
     <use xlink:href="#DejaVuSans-54" transform="translate(660.666016 0)"/>
     <use xlink:href="#DejaVuSans-5f" transform="translate(721.75 0)"/>
     <use xlink:href="#DejaVuSans-34" transform="translate(771.75 0)"/>
     <use xlink:href="#DejaVuSans-46" transform="translate(835.373047 0)"/>
     <use xlink:href="#DejaVuSans-34" transform="translate(892.892578 0)"/>
     <use xlink:href="#DejaVuSans-48" transform="translate(956.515625 0)"/>
     <use xlink:href="#DejaVuSans-5f" transform="translate(1031.710938 0)"/>
     <use xlink:href="#DejaVuSans-45" transform="translate(1081.710938 0)"/>
     <use xlink:href="#DejaVuSans-4e" transform="translate(1144.894531 0)"/>
     <use xlink:href="#DejaVuSans-49" transform="translate(1219.699219 0)"/>
     <use xlink:href="#DejaVuSans-47" transform="translate(1249.191406 0)"/>
     <use xlink:href="#DejaVuSans-5f" transform="translate(1326.681641 0)"/>
     <use xlink:href="#DejaVuSans-56" transform="translate(1376.681641 0)"/>
     <use xlink:href="#DejaVuSans-31" transform="translate(1445.089844 0)"/>
     <use xlink:href="#DejaVuSans-5f" transform="translate(1508.712891 0)"/>
     <use xlink:href="#DejaVuSans-30" transform="translate(1558.712891 0)"/>
     <use xlink:href="#DejaVuSans-5f" transform="translate(1622.335938 0)"/>
     <use xlink:href="#DejaVuSans-43" transform="translate(1672.335938 0)"/>
     <use xlink:href="#DejaVuSans-6f" transform="translate(1742.160156 0)"/>
     <use xlink:href="#DejaVuSans-72" transform="translate(1803.341797 0)"/>
     <use xlink:href="#DejaVuSans-65" transform="translate(1842.205078 0)"/>
     <use xlink:href="#DejaVuSans-31" transform="translate(1903.728516 0)"/>
     <use xlink:href="#DejaVuSans-5f" transform="translate(1967.351562 0)"/>
     <use xlink:href="#DejaVuSans-30" transform="translate(2017.351562 0)"/>
     <use xlink:href="#DejaVuSans-34" transform="translate(2080.974609 0)"/>
     <use xlink:href="#DejaVuSans-30" transform="translate(2144.597656 0)"/>
     <use xlink:href="#DejaVuSans-32" transform="translate(2208.220703 0)"/>
     <use xlink:href="#DejaVuSans-5f" transform="translate(2271.84375 0)"/>
     <use xlink:href="#DejaVuSans-32" transform="translate(2321.84375 0)"/>
     <use xlink:href="#DejaVuSans-30" transform="translate(2385.466797 0)"/>
     <use xlink:href="#DejaVuSans-32" transform="translate(2449.089844 0)"/>
     <use xlink:href="#DejaVuSans-36" transform="translate(2512.712891 0)"/>
     <use xlink:href="#DejaVuSans-30" transform="translate(2576.335938 0)"/>
     <use xlink:href="#DejaVuSans-38" transform="translate(2639.958984 0)"/>
     <use xlink:href="#DejaVuSans-30" transform="translate(2703.582031 0)"/>
     <use xlink:href="#DejaVuSans-38" transform="translate(2767.205078 0)"/>
     <use xlink:href="#DejaVuSans-20" transform="translate(2830.828125 0)"/>
     <use xlink:href="#DejaVuSans-53" transform="translate(2862.615234 0)"/>
     <use xlink:href="#DejaVuSans-6d" transform="translate(2926.091797 0)"/>
     <use xlink:href="#DejaVuSans-69" transform="translate(3023.503906 0)"/>
     <use xlink:href="#DejaVuSans-74" transform="translate(3051.287109 0)"/>
     <use xlink:href="#DejaVuSans-68" transform="translate(3090.496094 0)"/>
     <use xlink:href="#DejaVuSans-20" transform="translate(3153.875 0)"/>
     <use xlink:href="#DejaVuSans-63" transform="translate(3185.662109 0)"/>
     <use xlink:href="#DejaVuSans-68" transform="translate(3240.642578 0)"/>
     <use xlink:href="#DejaVuSans-61" transform="translate(3304.021484 0)"/>
     <use xlink:href="#DejaVuSans-72" transform="translate(3365.300781 0)"/>
     <use xlink:href="#DejaVuSans-74" transform="translate(3406.414062 0)"/>
    </g>
   </g>
   <g id="legend_1">
    <g id="patch_13">
     <path d="M 473.14077 52.203125 
L 513.99952 52.203125 
Q 515.59952 52.203125 515.59952 50.603125 
L 515.59952 27.918125 
Q 515.59952 26.318125 513.99952 26.318125 
L 473.14077 26.318125 
Q 471.54077 26.318125 471.54077 27.918125 
L 471.54077 50.603125 
Q 471.54077 52.203125 473.14077 52.203125 
z
" style="fill: #ffffff; opacity: 0.8; stroke: #cccccc; stroke-linejoin: miter"/>
    </g>
    <g id="line2d_33">
     <path d="M 474.74077 32.796875 
L 482.74077 32.796875 
L 490.74077 32.796875 
" style="fill: none; stroke: #1f77b4; stroke-width: 1.35; stroke-linecap: square"/>
    </g>
    <g id="text_42">
     <!-- S11 -->
     <g transform="translate(497.14077 35.596875) scale(0.08 -0.08)">
      <use xlink:href="#DejaVuSans-53"/>
      <use xlink:href="#DejaVuSans-31" transform="translate(63.476562 0)"/>
      <use xlink:href="#DejaVuSans-31" transform="translate(127.099609 0)"/>
     </g>
    </g>
    <g id="line2d_34">
     <path d="M 474.74077 44.539375 
L 482.74077 44.539375 
L 490.74077 44.539375 
" style="fill: none; stroke: #8172b2; stroke-width: 1.35; stroke-linecap: square"/>
    </g>
    <g id="text_43">
     <!-- S22 -->
     <g transform="translate(497.14077 47.339375) scale(0.08 -0.08)">
      <use xlink:href="#DejaVuSans-53"/>
      <use xlink:href="#DejaVuSans-32" transform="translate(63.476562 0)"/>
      <use xlink:href="#DejaVuSans-32" transform="translate(127.099609 0)"/>
     </g>
    </g>
   </g>
  </g>
 </g>
 <defs>
  <clipPath id="pbc9ee44a5a">
   <rect x="58.523438" y="22.318125" width="461.076082" height="461.076083"/>
  </clipPath>
 </defs>
</svg>
