0
SECTION
2
HEADER
9
$INSUNITS
70
4
0
ENDSEC
0
SECTION
2
ENTITIES
0
LINE
8
EM_BOUNDARY
10
-1.5
20
-4
30
0
11
31.5
21
-4
31
0
0
LINE
8
EM_BOUNDARY
10
31.5
20
-4
30
0
11
31.5
21
4
31
0
0
LINE
8
EM_BOUNDARY
10
31.5
20
4
30
0
11
-1.5
21
4
31
0
0
LINE
8
EM_BOUNDARY
10
-1.5
20
4
30
0
11
-1.5
21
-4
31
0
0
SOLID
8
cond
10
0
20
1.975
30
0
11
6.9
21
0.36195
31
0
12
6.9
22
4
32
0
13
0
23
4
33
0
0
SOLID
8
cond
10
0
20
-1.975
30
0
11
0
21
-4
31
0
12
6.9
22
-4
32
0
13
6.9
23
-0.36195
33
0
0
SOLID
8
cond
10
6.9
20
0.36195
30
0
11
30
21
0.36195
31
0
12
30
22
4
32
0
13
6.9
23
4
33
0
0
SOLID
8
cond
10
6.9
20
-4
30
0
11
30
21
-4
31
0
12
30
22
-0.36195
32
0
13
6.9
23
-0.36195
33
0
0
SOLID
8
cond
10
0
20
-0.475
30
0
11
2.8
21
-0.475
31
0
12
2.8
22
0.475
32
0
13
0
23
0.475
33
0
0
SOLID
8
cond
10
2.8
20
-0.45
30
0
11
3.3
21
-0.45
31
0
12
3.3
22
0.45
32
0
13
2.8
23
0.45
33
0
0
SOLID
8
cond
10
3.3
20
-0.45
30
0
11
6.9
21
-0.15875
31
0
12
6.9
22
0.15875
32
0
13
3.3
23
0.45
33
0
0
SOLID
8
cond
10
6.9
20
-0.15875
30
0
11
29.5
21
-0.15875
31
0
12
29.5
22
0.15875
32
0
13
6.9
23
0.15875
33
0
0
SOLID
8
cond
10
29.5
20
-0.15875
30
0
11
30
21
-0.15875
31
0
12
30
22
0.15875
32
0
13
29.5
23
0.15875
33
0
0
CIRCLE
8
pcvia1
10
0.8
20
2.9875
30
0
40
0.15
0
CIRCLE
8
cond
10
0.8
20
2.9875
30
0
40
0.275
0
CIRCLE
8
pcvia1
10
2
20
2.9875
30
0
40
0.15
0
CIRCLE
8
cond
10
2
20
2.9875
30
0
40
0.275
0
CIRCLE
8
pcvia1
10
0.8
20
-2.9875
30
0
40
0.15
0
CIRCLE
8
cond
10
0.8
20
-2.9875
30
0
40
0.275
0
CIRCLE
8
pcvia1
10
2
20
-2.9875
30
0
40
0.15
0
CIRCLE
8
cond
10
2
20
-2.9875
30
0
40
0.275
0
CIRCLE
8
pcvia1
10
7.9
20
0.63695
30
0
40
0.15
0
CIRCLE
8
cond
10
7.9
20
0.63695
30
0
40
0.275
0
CIRCLE
8
pcvia1
10
9.9
20
0.63695
30
0
40
0.15
0
CIRCLE
8
cond
10
9.9
20
0.63695
30
0
40
0.275
0
CIRCLE
8
pcvia1
10
11.9
20
0.63695
30
0
40
0.15
0
CIRCLE
8
cond
10
11.9
20
0.63695
30
0
40
0.275
0
CIRCLE
8
pcvia1
10
13.9
20
0.63695
30
0
40
0.15
0
CIRCLE
8
cond
10
13.9
20
0.63695
30
0
40
0.275
0
CIRCLE
8
pcvia1
10
15.9
20
0.63695
30
0
40
0.15
0
CIRCLE
8
cond
10
15.9
20
0.63695
30
0
40
0.275
0
CIRCLE
8
pcvia1
10
17.9
20
0.63695
30
0
40
0.15
0
CIRCLE
8
cond
10
17.9
20
0.63695
30
0
40
0.275
0
CIRCLE
8
pcvia1
10
19.9
20
0.63695
30
0
40
0.15
0
CIRCLE
8
cond
10
19.9
20
0.63695
30
0
40
0.275
0
CIRCLE
8
pcvia1
10
21.9
20
0.63695
30
0
40
0.15
0
CIRCLE
8
cond
10
21.9
20
0.63695
30
0
40
0.275
0
CIRCLE
8
pcvia1
10
23.9
20
0.63695
30
0
40
0.15
0
CIRCLE
8
cond
10
23.9
20
0.63695
30
0
40
0.275
0
CIRCLE
8
pcvia1
10
25.9
20
0.63695
30
0
40
0.15
0
CIRCLE
8
cond
10
25.9
20
0.63695
30
0
40
0.275
0
CIRCLE
8
pcvia1
10
27.9
20
0.63695
30
0
40
0.15
0
CIRCLE
8
cond
10
27.9
20
0.63695
30
0
40
0.275
0
CIRCLE
8
pcvia1
10
7.9
20
-0.63695
30
0
40
0.15
0
CIRCLE
8
cond
10
7.9
20
-0.63695
30
0
40
0.275
0
CIRCLE
8
pcvia1
10
9.9
20
-0.63695
30
0
40
0.15
0
CIRCLE
8
cond
10
9.9
20
-0.63695
30
0
40
0.275
0
CIRCLE
8
pcvia1
10
11.9
20
-0.63695
30
0
40
0.15
0
CIRCLE
8
cond
10
11.9
20
-0.63695
30
0
40
0.275
0
CIRCLE
8
pcvia1
10
13.9
20
-0.63695
30
0
40
0.15
0
CIRCLE
8
cond
10
13.9
20
-0.63695
30
0
40
0.275
0
CIRCLE
8
pcvia1
10
15.9
20
-0.63695
30
0
40
0.15
0
CIRCLE
8
cond
10
15.9
20
-0.63695
30
0
40
0.275
0
CIRCLE
8
pcvia1
10
17.9
20
-0.63695
30
0
40
0.15
0
CIRCLE
8
cond
10
17.9
20
-0.63695
30
0
40
0.275
0
CIRCLE
8
pcvia1
10
19.9
20
-0.63695
30
0
40
0.15
0
CIRCLE
8
cond
10
19.9
20
-0.63695
30
0
40
0.275
0
CIRCLE
8
pcvia1
10
21.9
20
-0.63695
30
0
40
0.15
0
CIRCLE
8
cond
10
21.9
20
-0.63695
30
0
40
0.275
0
CIRCLE
8
pcvia1
10
23.9
20
-0.63695
30
0
40
0.15
0
CIRCLE
8
cond
10
23.9
20
-0.63695
30
0
40
0.275
0
CIRCLE
8
pcvia1
10
25.9
20
-0.63695
30
0
40
0.15
0
CIRCLE
8
cond
10
25.9
20
-0.63695
30
0
40
0.275
0
CIRCLE
8
pcvia1
10
27.9
20
-0.63695
30
0
40
0.15
0
CIRCLE
8
cond
10
27.9
20
-0.63695
30
0
40
0.275
0
SOLID
8
reference_ground_plane
10
-0
20
-4
30
0
11
31.5
21
-4
31
0
12
31.5
22
-0.85
32
0
13
-0
23
-0.85
33
0
0
SOLID
8
reference_ground_plane
10
4.15
20
-0.85
30
0
11
31.5
21
-0.85
31
0
12
31.5
22
0.85
32
0
13
4.15
23
0.85
33
0
0
SOLID
8
reference_ground_plane
10
-0
20
0.85
30
0
11
31.5
21
0.85
31
0
12
31.5
22
4
32
0
13
-0
23
4
33
0
0
SOLID
8
reference_ground_cutout
10
0.15
20
-0.85
30
0
11
4.15
21
-0.85
31
0
12
4.15
22
0.85
32
0
13
0.15
23
0.85
33
0
0
SOLID
8
reference_ground_plane
10
-0
20
-4
30
0
11
31.5
21
-4
31
0
12
31.5
22
4
32
0
13
-0
23
4
33
0
0
SOLID
8
reference_ground_plane
10
-0
20
-4
30
0
11
31.5
21
-4
31
0
12
31.5
22
4
32
0
13
-0
23
4
33
0
0
ENDSEC
0
EOF
