<svg xmlns="http://www.w3.org/2000/svg" width="1200" height="852.173913" viewBox="0 0 1200 852.173913">
  <rect x="0" y="0" width="1200" height="852.173913" fill="#ffffff"/>
  <rect x="217.391304" y="410.434783" width="202.608696" height="31.304348" fill="#7c3aed" opacity="0.82"><title>feed_left</title></rect>
  <rect x="780" y="410.434783" width="202.608696" height="31.304348" fill="#7c3aed" opacity="0.82"><title>feed_right</title></rect>
  <rect x="390" y="216.086957" width="28.695652" height="28.695652" fill="#7c3aed" opacity="0.82"><title>pix_r00_c00</title></rect>
  <rect x="416.086957" y="216.086957" width="28.695652" height="28.695652" fill="#7c3aed" opacity="0.82"><title>pix_r00_c01</title></rect>
  <rect x="442.173913" y="216.086957" width="28.695652" height="28.695652" fill="#7c3aed" opacity="0.82"><title>pix_r00_c02</title></rect>
  <rect x="468.26087" y="216.086957" width="28.695652" height="28.695652" fill="#7c3aed" opacity="0.82"><title>pix_r00_c03</title></rect>
  <rect x="520.434783" y="216.086957" width="28.695652" height="28.695652" fill="#7c3aed" opacity="0.82"><title>pix_r00_c05</title></rect>
  <rect x="572.608696" y="216.086957" width="28.695652" height="28.695652" fill="#7c3aed" opacity="0.82"><title>pix_r00_c07</title></rect>
  <rect x="598.695652" y="216.086957" width="28.695652" height="28.695652" fill="#7c3aed" opacity="0.82"><title>pix_r00_c08</title></rect>
  <rect x="650.869565" y="216.086957" width="28.695652" height="28.695652" fill="#7c3aed" opacity="0.82"><title>pix_r00_c10</title></rect>
  <rect x="703.043478" y="216.086957" width="28.695652" height="28.695652" fill="#7c3aed" opacity="0.82"><title>pix_r00_c12</title></rect>
  <rect x="729.130435" y="216.086957" width="28.695652" height="28.695652" fill="#7c3aed" opacity="0.82"><title>pix_r00_c13</title></rect>
  <rect x="755.217391" y="216.086957" width="28.695652" height="28.695652" fill="#7c3aed" opacity="0.82"><title>pix_r00_c14</title></rect>
  <rect x="781.304348" y="216.086957" width="28.695652" height="28.695652" fill="#7c3aed" opacity="0.82"><title>pix_r00_c15</title></rect>
  <rect x="390" y="242.173913" width="28.695652" height="28.695652" fill="#7c3aed" opacity="0.82"><title>pix_r01_c00</title></rect>
  <rect x="416.086957" y="242.173913" width="28.695652" height="28.695652" fill="#7c3aed" opacity="0.82"><title>pix_r01_c01</title></rect>
  <rect x="442.173913" y="242.173913" width="28.695652" height="28.695652" fill="#7c3aed" opacity="0.82"><title>pix_r01_c02</title></rect>
  <rect x="494.347826" y="242.173913" width="28.695652" height="28.695652" fill="#7c3aed" opacity="0.82"><title>pix_r01_c04</title></rect>
  <rect x="572.608696" y="242.173913" width="28.695652" height="28.695652" fill="#7c3aed" opacity="0.82"><title>pix_r01_c07</title></rect>
  <rect x="598.695652" y="242.173913" width="28.695652" height="28.695652" fill="#7c3aed" opacity="0.82"><title>pix_r01_c08</title></rect>
  <rect x="676.956522" y="242.173913" width="28.695652" height="28.695652" fill="#7c3aed" opacity="0.82"><title>pix_r01_c11</title></rect>
  <rect x="729.130435" y="242.173913" width="28.695652" height="28.695652" fill="#7c3aed" opacity="0.82"><title>pix_r01_c13</title></rect>
  <rect x="755.217391" y="242.173913" width="28.695652" height="28.695652" fill="#7c3aed" opacity="0.82"><title>pix_r01_c14</title></rect>
  <rect x="781.304348" y="242.173913" width="28.695652" height="28.695652" fill="#7c3aed" opacity="0.82"><title>pix_r01_c15</title></rect>
  <rect x="390" y="268.26087" width="28.695652" height="28.695652" fill="#7c3aed" opacity="0.82"><title>pix_r02_c00</title></rect>
  <rect x="416.086957" y="268.26087" width="28.695652" height="28.695652" fill="#7c3aed" opacity="0.82"><title>pix_r02_c01</title></rect>
  <rect x="442.173913" y="268.26087" width="28.695652" height="28.695652" fill="#7c3aed" opacity="0.82"><title>pix_r02_c02</title></rect>
  <rect x="494.347826" y="268.26087" width="28.695652" height="28.695652" fill="#7c3aed" opacity="0.82"><title>pix_r02_c04</title></rect>
  <rect x="572.608696" y="268.26087" width="28.695652" height="28.695652" fill="#7c3aed" opacity="0.82"><title>pix_r02_c07</title></rect>
  <rect x="598.695652" y="268.26087" width="28.695652" height="28.695652" fill="#7c3aed" opacity="0.82"><title>pix_r02_c08</title></rect>
  <rect x="676.956522" y="268.26087" width="28.695652" height="28.695652" fill="#7c3aed" opacity="0.82"><title>pix_r02_c11</title></rect>
  <rect x="729.130435" y="268.26087" width="28.695652" height="28.695652" fill="#7c3aed" opacity="0.82"><title>pix_r02_c13</title></rect>
  <rect x="755.217391" y="268.26087" width="28.695652" height="28.695652" fill="#7c3aed" opacity="0.82"><title>pix_r02_c14</title></rect>
  <rect x="781.304348" y="268.26087" width="28.695652" height="28.695652" fill="#7c3aed" opacity="0.82"><title>pix_r02_c15</title></rect>
  <rect x="390" y="294.347826" width="28.695652" height="28.695652" fill="#7c3aed" opacity="0.82"><title>pix_r03_c00</title></rect>
  <rect x="416.086957" y="294.347826" width="28.695652" height="28.695652" fill="#7c3aed" opacity="0.82"><title>pix_r03_c01</title></rect>
  <rect x="442.173913" y="294.347826" width="28.695652" height="28.695652" fill="#7c3aed" opacity="0.82"><title>pix_r03_c02</title></rect>
  <rect x="546.521739" y="294.347826" width="28.695652" height="28.695652" fill="#7c3aed" opacity="0.82"><title>pix_r03_c06</title></rect>
  <rect x="572.608696" y="294.347826" width="28.695652" height="28.695652" fill="#7c3aed" opacity="0.82"><title>pix_r03_c07</title></rect>
  <rect x="598.695652" y="294.347826" width="28.695652" height="28.695652" fill="#7c3aed" opacity="0.82"><title>pix_r03_c08</title></rect>
  <rect x="624.782609" y="294.347826" width="28.695652" height="28.695652" fill="#7c3aed" opacity="0.82"><title>pix_r03_c09</title></rect>
  <rect x="729.130435" y="294.347826" width="28.695652" height="28.695652" fill="#7c3aed" opacity="0.82"><title>pix_r03_c13</title></rect>
  <rect x="755.217391" y="294.347826" width="28.695652" height="28.695652" fill="#7c3aed" opacity="0.82"><title>pix_r03_c14</title></rect>
  <rect x="781.304348" y="294.347826" width="28.695652" height="28.695652" fill="#7c3aed" opacity="0.82"><title>pix_r03_c15</title></rect>
  <rect x="390" y="320.434783" width="28.695652" height="28.695652" fill="#7c3aed" opacity="0.82"><title>pix_r04_c00</title></rect>
  <rect x="468.26087" y="320.434783" width="28.695652" height="28.695652" fill="#7c3aed" opacity="0.82"><title>pix_r04_c03</title></rect>
  <rect x="520.434783" y="320.434783" width="28.695652" height="28.695652" fill="#7c3aed" opacity="0.82"><title>pix_r04_c05</title></rect>
  <rect x="572.608696" y="320.434783" width="28.695652" height="28.695652" fill="#7c3aed" opacity="0.82"><title>pix_r04_c07</title></rect>
  <rect x="598.695652" y="320.434783" width="28.695652" height="28.695652" fill="#7c3aed" opacity="0.82"><title>pix_r04_c08</title></rect>
  <rect x="650.869565" y="320.434783" width="28.695652" height="28.695652" fill="#7c3aed" opacity="0.82"><title>pix_r04_c10</title></rect>
  <rect x="703.043478" y="320.434783" width="28.695652" height="28.695652" fill="#7c3aed" opacity="0.82"><title>pix_r04_c12</title></rect>
  <rect x="781.304348" y="320.434783" width="28.695652" height="28.695652" fill="#7c3aed" opacity="0.82"><title>pix_r04_c15</title></rect>
  <rect x="390" y="346.521739" width="28.695652" height="28.695652" fill="#7c3aed" opacity="0.82"><title>pix_r05_c00</title></rect>
  <rect x="416.086957" y="346.521739" width="28.695652" height="28.695652" fill="#7c3aed" opacity="0.82"><title>pix_r05_c01</title></rect>
  <rect x="468.26087" y="346.521739" width="28.695652" height="28.695652" fill="#7c3aed" opacity="0.82"><title>pix_r05_c03</title></rect>
  <rect x="494.347826" y="346.521739" width="28.695652" height="28.695652" fill="#7c3aed" opacity="0.82"><title>pix_r05_c04</title></rect>
  <rect x="546.521739" y="346.521739" width="28.695652" height="28.695652" fill="#7c3aed" opacity="0.82"><title>pix_r05_c06</title></rect>
  <rect x="572.608696" y="346.521739" width="28.695652" height="28.695652" fill="#7c3aed" opacity="0.82"><title>pix_r05_c07</title></rect>
  <rect x="598.695652" y="346.521739" width="28.695652" height="28.695652" fill="#7c3aed" opacity="0.82"><title>pix_r05_c08</title></rect>
  <rect x="624.782609" y="346.521739" width="28.695652" height="28.695652" fill="#7c3aed" opacity="0.82"><title>pix_r05_c09</title></rect>
  <rect x="676.956522" y="346.521739" width="28.695652" height="28.695652" fill="#7c3aed" opacity="0.82"><title>pix_r05_c11</title></rect>
  <rect x="703.043478" y="346.521739" width="28.695652" height="28.695652" fill="#7c3aed" opacity="0.82"><title>pix_r05_c12</title></rect>
  <rect x="755.217391" y="346.521739" width="28.695652" height="28.695652" fill="#7c3aed" opacity="0.82"><title>pix_r05_c14</title></rect>
  <rect x="781.304348" y="346.521739" width="28.695652" height="28.695652" fill="#7c3aed" opacity="0.82"><title>pix_r05_c15</title></rect>
  <rect x="390" y="372.608696" width="28.695652" height="28.695652" fill="#7c3aed" opacity="0.82"><title>pix_r06_c00</title></rect>
  <rect x="468.26087" y="372.608696" width="28.695652" height="28.695652" fill="#7c3aed" opacity="0.82"><title>pix_r06_c03</title></rect>
  <rect x="494.347826" y="372.608696" width="28.695652" height="28.695652" fill="#7c3aed" opacity="0.82"><title>pix_r06_c04</title></rect>
  <rect x="520.434783" y="372.608696" width="28.695652" height="28.695652" fill="#7c3aed" opacity="0.82"><title>pix_r06_c05</title></rect>
  <rect x="572.608696" y="372.608696" width="28.695652" height="28.695652" fill="#7c3aed" opacity="0.82"><title>pix_r06_c07</title></rect>
  <rect x="598.695652" y="372.608696" width="28.695652" height="28.695652" fill="#7c3aed" opacity="0.82"><title>pix_r06_c08</title></rect>
  <rect x="650.869565" y="372.608696" width="28.695652" height="28.695652" fill="#7c3aed" opacity="0.82"><title>pix_r06_c10</title></rect>
  <rect x="676.956522" y="372.608696" width="28.695652" height="28.695652" fill="#7c3aed" opacity="0.82"><title>pix_r06_c11</title></rect>
  <rect x="703.043478" y="372.608696" width="28.695652" height="28.695652" fill="#7c3aed" opacity="0.82"><title>pix_r06_c12</title></rect>
  <rect x="781.304348" y="372.608696" width="28.695652" height="28.695652" fill="#7c3aed" opacity="0.82"><title>pix_r06_c15</title></rect>
  <rect x="390" y="398.695652" width="28.695652" height="28.695652" fill="#7c3aed" opacity="0.82"><title>pix_r07_c00</title></rect>
  <rect x="572.608696" y="398.695652" width="28.695652" height="28.695652" fill="#7c3aed" opacity="0.82"><title>pix_r07_c07</title></rect>
  <rect x="598.695652" y="398.695652" width="28.695652" height="28.695652" fill="#7c3aed" opacity="0.82"><title>pix_r07_c08</title></rect>
  <rect x="781.304348" y="398.695652" width="28.695652" height="28.695652" fill="#7c3aed" opacity="0.82"><title>pix_r07_c15</title></rect>
  <rect x="390" y="424.782609" width="28.695652" height="28.695652" fill="#7c3aed" opacity="0.82"><title>pix_r08_c00</title></rect>
  <rect x="416.086957" y="424.782609" width="28.695652" height="28.695652" fill="#7c3aed" opacity="0.82"><title>pix_r08_c01</title></rect>
  <rect x="442.173913" y="424.782609" width="28.695652" height="28.695652" fill="#7c3aed" opacity="0.82"><title>pix_r08_c02</title></rect>
  <rect x="468.26087" y="424.782609" width="28.695652" height="28.695652" fill="#7c3aed" opacity="0.82"><title>pix_r08_c03</title></rect>
  <rect x="494.347826" y="424.782609" width="28.695652" height="28.695652" fill="#7c3aed" opacity="0.82"><title>pix_r08_c04</title></rect>
  <rect x="520.434783" y="424.782609" width="28.695652" height="28.695652" fill="#7c3aed" opacity="0.82"><title>pix_r08_c05</title></rect>
  <rect x="546.521739" y="424.782609" width="28.695652" height="28.695652" fill="#7c3aed" opacity="0.82"><title>pix_r08_c06</title></rect>
  <rect x="572.608696" y="424.782609" width="28.695652" height="28.695652" fill="#7c3aed" opacity="0.82"><title>pix_r08_c07</title></rect>
  <rect x="598.695652" y="424.782609" width="28.695652" height="28.695652" fill="#7c3aed" opacity="0.82"><title>pix_r08_c08</title></rect>
  <rect x="624.782609" y="424.782609" width="28.695652" height="28.695652" fill="#7c3aed" opacity="0.82"><title>pix_r08_c09</title></rect>
  <rect x="650.869565" y="424.782609" width="28.695652" height="28.695652" fill="#7c3aed" opacity="0.82"><title>pix_r08_c10</title></rect>
  <rect x="676.956522" y="424.782609" width="28.695652" height="28.695652" fill="#7c3aed" opacity="0.82"><title>pix_r08_c11</title></rect>
  <rect x="703.043478" y="424.782609" width="28.695652" height="28.695652" fill="#7c3aed" opacity="0.82"><title>pix_r08_c12</title></rect>
  <rect x="729.130435" y="424.782609" width="28.695652" height="28.695652" fill="#7c3aed" opacity="0.82"><title>pix_r08_c13</title></rect>
  <rect x="755.217391" y="424.782609" width="28.695652" height="28.695652" fill="#7c3aed" opacity="0.82"><title>pix_r08_c14</title></rect>
  <rect x="781.304348" y="424.782609" width="28.695652" height="28.695652" fill="#7c3aed" opacity="0.82"><title>pix_r08_c15</title></rect>
  <rect x="442.173913" y="450.869565" width="28.695652" height="28.695652" fill="#7c3aed" opacity="0.82"><title>pix_r09_c02</title></rect>
  <rect x="468.26087" y="450.869565" width="28.695652" height="28.695652" fill="#7c3aed" opacity="0.82"><title>pix_r09_c03</title></rect>
  <rect x="572.608696" y="450.869565" width="28.695652" height="28.695652" fill="#7c3aed" opacity="0.82"><title>pix_r09_c07</title></rect>
  <rect x="598.695652" y="450.869565" width="28.695652" height="28.695652" fill="#7c3aed" opacity="0.82"><title>pix_r09_c08</title></rect>
  <rect x="703.043478" y="450.869565" width="28.695652" height="28.695652" fill="#7c3aed" opacity="0.82"><title>pix_r09_c12</title></rect>
  <rect x="729.130435" y="450.869565" width="28.695652" height="28.695652" fill="#7c3aed" opacity="0.82"><title>pix_r09_c13</title></rect>
  <rect x="468.26087" y="476.956522" width="28.695652" height="28.695652" fill="#7c3aed" opacity="0.82"><title>pix_r10_c03</title></rect>
  <rect x="520.434783" y="476.956522" width="28.695652" height="28.695652" fill="#7c3aed" opacity="0.82"><title>pix_r10_c05</title></rect>
  <rect x="572.608696" y="476.956522" width="28.695652" height="28.695652" fill="#7c3aed" opacity="0.82"><title>pix_r10_c07</title></rect>
  <rect x="598.695652" y="476.956522" width="28.695652" height="28.695652" fill="#7c3aed" opacity="0.82"><title>pix_r10_c08</title></rect>
  <rect x="650.869565" y="476.956522" width="28.695652" height="28.695652" fill="#7c3aed" opacity="0.82"><title>pix_r10_c10</title></rect>
  <rect x="703.043478" y="476.956522" width="28.695652" height="28.695652" fill="#7c3aed" opacity="0.82"><title>pix_r10_c12</title></rect>
  <rect x="494.347826" y="503.043478" width="28.695652" height="28.695652" fill="#7c3aed" opacity="0.82"><title>pix_r11_c04</title></rect>
  <rect x="572.608696" y="503.043478" width="28.695652" height="28.695652" fill="#7c3aed" opacity="0.82"><title>pix_r11_c07</title></rect>
  <rect x="598.695652" y="503.043478" width="28.695652" height="28.695652" fill="#7c3aed" opacity="0.82"><title>pix_r11_c08</title></rect>
  <rect x="676.956522" y="503.043478" width="28.695652" height="28.695652" fill="#7c3aed" opacity="0.82"><title>pix_r11_c11</title></rect>
  <rect x="416.086957" y="529.130435" width="28.695652" height="28.695652" fill="#7c3aed" opacity="0.82"><title>pix_r12_c01</title></rect>
  <rect x="468.26087" y="529.130435" width="28.695652" height="28.695652" fill="#7c3aed" opacity="0.82"><title>pix_r12_c03</title></rect>
  <rect x="546.521739" y="529.130435" width="28.695652" height="28.695652" fill="#7c3aed" opacity="0.82"><title>pix_r12_c06</title></rect>
  <rect x="572.608696" y="529.130435" width="28.695652" height="28.695652" fill="#7c3aed" opacity="0.82"><title>pix_r12_c07</title></rect>
  <rect x="598.695652" y="529.130435" width="28.695652" height="28.695652" fill="#7c3aed" opacity="0.82"><title>pix_r12_c08</title></rect>
  <rect x="624.782609" y="529.130435" width="28.695652" height="28.695652" fill="#7c3aed" opacity="0.82"><title>pix_r12_c09</title></rect>
  <rect x="703.043478" y="529.130435" width="28.695652" height="28.695652" fill="#7c3aed" opacity="0.82"><title>pix_r12_c12</title></rect>
  <rect x="755.217391" y="529.130435" width="28.695652" height="28.695652" fill="#7c3aed" opacity="0.82"><title>pix_r12_c14</title></rect>
  <rect x="390" y="555.217391" width="28.695652" height="28.695652" fill="#7c3aed" opacity="0.82"><title>pix_r13_c00</title></rect>
  <rect x="416.086957" y="555.217391" width="28.695652" height="28.695652" fill="#7c3aed" opacity="0.82"><title>pix_r13_c01</title></rect>
  <rect x="468.26087" y="555.217391" width="28.695652" height="28.695652" fill="#7c3aed" opacity="0.82"><title>pix_r13_c03</title></rect>
  <rect x="520.434783" y="555.217391" width="28.695652" height="28.695652" fill="#7c3aed" opacity="0.82"><title>pix_r13_c05</title></rect>
  <rect x="546.521739" y="555.217391" width="28.695652" height="28.695652" fill="#7c3aed" opacity="0.82"><title>pix_r13_c06</title></rect>
  <rect x="572.608696" y="555.217391" width="28.695652" height="28.695652" fill="#7c3aed" opacity="0.82"><title>pix_r13_c07</title></rect>
  <rect x="598.695652" y="555.217391" width="28.695652" height="28.695652" fill="#7c3aed" opacity="0.82"><title>pix_r13_c08</title></rect>
  <rect x="624.782609" y="555.217391" width="28.695652" height="28.695652" fill="#7c3aed" opacity="0.82"><title>pix_r13_c09</title></rect>
  <rect x="650.869565" y="555.217391" width="28.695652" height="28.695652" fill="#7c3aed" opacity="0.82"><title>pix_r13_c10</title></rect>
  <rect x="703.043478" y="555.217391" width="28.695652" height="28.695652" fill="#7c3aed" opacity="0.82"><title>pix_r13_c12</title></rect>
  <rect x="755.217391" y="555.217391" width="28.695652" height="28.695652" fill="#7c3aed" opacity="0.82"><title>pix_r13_c14</title></rect>
  <rect x="781.304348" y="555.217391" width="28.695652" height="28.695652" fill="#7c3aed" opacity="0.82"><title>pix_r13_c15</title></rect>
  <rect x="390" y="581.304348" width="28.695652" height="28.695652" fill="#7c3aed" opacity="0.82"><title>pix_r14_c00</title></rect>
  <rect x="520.434783" y="581.304348" width="28.695652" height="28.695652" fill="#7c3aed" opacity="0.82"><title>pix_r14_c05</title></rect>
  <rect x="572.608696" y="581.304348" width="28.695652" height="28.695652" fill="#7c3aed" opacity="0.82"><title>pix_r14_c07</title></rect>
  <rect x="598.695652" y="581.304348" width="28.695652" height="28.695652" fill="#7c3aed" opacity="0.82"><title>pix_r14_c08</title></rect>
  <rect x="650.869565" y="581.304348" width="28.695652" height="28.695652" fill="#7c3aed" opacity="0.82"><title>pix_r14_c10</title></rect>
  <rect x="781.304348" y="581.304348" width="28.695652" height="28.695652" fill="#7c3aed" opacity="0.82"><title>pix_r14_c15</title></rect>
  <rect x="416.086957" y="607.391304" width="28.695652" height="28.695652" fill="#7c3aed" opacity="0.82"><title>pix_r15_c01</title></rect>
  <rect x="442.173913" y="607.391304" width="28.695652" height="28.695652" fill="#7c3aed" opacity="0.82"><title>pix_r15_c02</title></rect>
  <rect x="494.347826" y="607.391304" width="28.695652" height="28.695652" fill="#7c3aed" opacity="0.82"><title>pix_r15_c04</title></rect>
  <rect x="520.434783" y="607.391304" width="28.695652" height="28.695652" fill="#7c3aed" opacity="0.82"><title>pix_r15_c05</title></rect>
  <rect x="572.608696" y="607.391304" width="28.695652" height="28.695652" fill="#7c3aed" opacity="0.82"><title>pix_r15_c07</title></rect>
  <rect x="598.695652" y="607.391304" width="28.695652" height="28.695652" fill="#7c3aed" opacity="0.82"><title>pix_r15_c08</title></rect>
  <rect x="650.869565" y="607.391304" width="28.695652" height="28.695652" fill="#7c3aed" opacity="0.82"><title>pix_r15_c10</title></rect>
  <rect x="676.956522" y="607.391304" width="28.695652" height="28.695652" fill="#7c3aed" opacity="0.82"><title>pix_r15_c11</title></rect>
  <rect x="729.130435" y="607.391304" width="28.695652" height="28.695652" fill="#7c3aed" opacity="0.82"><title>pix_r15_c13</title></rect>
  <rect x="755.217391" y="607.391304" width="28.695652" height="28.695652" fill="#7c3aed" opacity="0.82"><title>pix_r15_c14</title></rect>
  <rect x="86.956522" y="86.956522" width="1026.086957" height="678.26087" fill="none" stroke="#64748b" stroke-width="1"><title>em_boundary</title></rect>
  <text x="16" y="24" font-family="Arial, sans-serif" font-size="16" fill="#111827">pixel_qr16_fr4_210um_seed0_p030_ov10 pixel QR BPF</text>
</svg>
