<?xml version="1.0" encoding="utf-8" standalone="no"?>
<!DOCTYPE svg PUBLIC "-//W3C//DTD SVG 1.1//EN"
  "http://www.w3.org/Graphics/SVG/1.1/DTD/svg11.dtd">
<svg xmlns:xlink="http://www.w3.org/1999/xlink" width="526.79952pt" height="521.272332pt" viewBox="0 0 526.79952 521.272332" xmlns="http://www.w3.org/2000/svg" version="1.1">
 <metadata>
  <rdf:RDF xmlns:dc="http://purl.org/dc/elements/1.1/" xmlns:cc="http://creativecommons.org/ns#" xmlns:rdf="http://www.w3.org/1999/02/22-rdf-syntax-ns#">
   <cc:Work>
    <dc:type rdf:resource="http://purl.org/dc/dcmitype/StillImage"/>
    <dc:date>2026-08-05T16:20:03.688094</dc:date>
    <dc:format>image/svg+xml</dc:format>
    <dc:creator>
     <cc:Agent>
      <dc:title>Matplotlib v3.11.1, https://matplotlib.org/</dc:title>
     </cc:Agent>
    </dc:creator>
   </cc:Work>
  </rdf:RDF>
 </metadata>
 <defs>
  <style type="text/css">*{stroke-linejoin: round; stroke-linecap: butt}</style>
 </defs>
 <g id="figure_1">
  <g id="patch_1">
   <path d="M 0 521.272332 
L 526.79952 521.272332 
L 526.79952 0 
L 0 0 
z
" style="fill: #ffffff"/>
  </g>
  <g id="axes_1">
   <g id="patch_2">
    <path d="M 58.845313 483.072332 
L 519.59952 483.072332 
L 519.59952 22.318125 
L 58.845313 22.318125 
z
" style="fill: #ffffff"/>
   </g>
   <g id="patch_3">
    <path d="M 289.222416 466.007362 
C 345.793455 466.007362 400.055107 443.53145 440.056872 403.529685 
C 480.058637 363.527919 502.534549 309.266268 502.534549 252.695229 
C 502.534549 196.12419 480.058637 141.862538 440.056872 101.860773 
C 400.055107 61.859008 345.793455 39.383096 289.222416 39.383096 
C 232.651377 39.383096 178.389726 61.859008 138.38796 101.860773 
C 98.386195 141.862538 75.910283 196.12419 75.910283 252.695229 
C 75.910283 309.266268 98.386195 363.527919 138.38796 403.529685 
C 178.389726 443.53145 232.651377 466.007362 289.222416 466.007362 
L 289.222416 466.007362 
z
" clip-path="url(#p976559ac8c)" style="fill: none; stroke: #303640; stroke-linejoin: miter"/>
   </g>
   <g id="patch_4">
    <path d="M 324.774438 430.45534 
C 371.916971 430.45534 417.135014 411.725413 450.469818 378.390609 
C 483.804623 345.055804 502.534549 299.837761 502.534549 252.695229 
C 502.534549 205.552696 483.804623 160.334653 450.469818 126.999849 
C 417.135014 93.665045 371.916971 74.935118 324.774438 74.935118 
C 277.631906 74.935118 232.413863 93.665045 199.079059 126.999849 
C 165.744254 160.334653 147.014328 205.552696 147.014328 252.695229 
C 147.014328 299.837761 165.744254 345.055804 199.079059 378.390609 
C 232.413863 411.725413 277.631906 430.45534 324.774438 430.45534 
L 324.774438 430.45534 
z
" clip-path="url(#p976559ac8c)" style="fill: none; opacity: 0.45; stroke: #9aa1aa; stroke-width: 0.45; stroke-linejoin: miter"/>
   </g>
   <g id="patch_5">
    <path d="M 360.326461 394.903317 
C 398.040487 394.903317 434.214921 379.919376 460.882765 353.251533 
C 487.550608 326.583689 502.534549 290.409255 502.534549 252.695229 
C 502.534549 214.981203 487.550608 178.806768 460.882765 152.138925 
C 434.214921 125.471081 398.040487 110.48714 360.326461 110.48714 
C 322.612435 110.48714 286.438 125.471081 259.770157 152.138925 
C 233.102313 178.806768 218.118372 214.981203 218.118372 252.695229 
C 218.118372 290.409255 233.102313 326.583689 259.770157 353.251533 
C 286.438 379.919376 322.612435 394.903317 360.326461 394.903317 
L 360.326461 394.903317 
z
" clip-path="url(#p976559ac8c)" style="fill: none; opacity: 0.45; stroke: #9aa1aa; stroke-width: 0.45; stroke-linejoin: miter"/>
   </g>
   <g id="patch_6">
    <path d="M 395.878483 359.351295 
C 424.164002 359.351295 451.294828 348.113339 471.295711 328.112457 
C 491.296593 308.111574 502.534549 280.980748 502.534549 252.695229 
C 502.534549 224.409709 491.296593 197.278883 471.295711 177.278001 
C 451.294828 157.277118 424.164002 146.039162 395.878483 146.039162 
C 367.592963 146.039162 340.462138 157.277118 320.461255 177.278001 
C 300.460372 197.278883 289.222416 224.409709 289.222416 252.695229 
C 289.222416 280.980748 300.460372 308.111574 320.461255 328.112457 
C 340.462138 348.113339 367.592963 359.351295 395.878483 359.351295 
L 395.878483 359.351295 
z
" clip-path="url(#p976559ac8c)" style="fill: none; opacity: 0.45; stroke: #9aa1aa; stroke-width: 0.45; stroke-linejoin: miter"/>
   </g>
   <g id="patch_7">
    <path d="M 431.430505 323.799273 
C 450.287518 323.799273 468.374735 316.307302 481.708657 302.973381 
C 495.042579 289.639459 502.534549 271.552242 502.534549 252.695229 
C 502.534549 233.838216 495.042579 215.750999 481.708657 202.417077 
C 468.374735 189.083155 450.287518 181.591184 431.430505 181.591184 
C 412.573492 181.591184 394.486275 189.083155 381.152353 202.417077 
C 367.818431 215.750999 360.326461 233.838216 360.326461 252.695229 
C 360.326461 271.552242 367.818431 289.639459 381.152353 302.973381 
C 394.486275 316.307302 412.573492 323.799273 431.430505 323.799273 
L 431.430505 323.799273 
z
" clip-path="url(#p976559ac8c)" style="fill: none; opacity: 0.45; stroke: #9aa1aa; stroke-width: 0.45; stroke-linejoin: miter"/>
   </g>
   <g id="patch_8">
    <path d="M 466.982527 288.247251 
C 476.411034 288.247251 485.454642 284.501266 492.121603 277.834305 
C 498.788564 271.167344 502.534549 262.123735 502.534549 252.695229 
C 502.534549 243.266722 498.788564 234.223114 492.121603 227.556153 
C 485.454642 220.889192 476.411034 217.143207 466.982527 217.143207 
C 457.554021 217.143207 448.510412 220.889192 441.843451 227.556153 
C 435.17649 234.223114 431.430505 243.266722 431.430505 252.695229 
C 431.430505 262.123735 435.17649 271.167344 441.843451 277.834305 
C 448.510412 284.501266 457.554021 288.247251 466.982527 288.247251 
L 466.982527 288.247251 
z
" clip-path="url(#p976559ac8c)" style="fill: none; opacity: 0.45; stroke: #9aa1aa; stroke-width: 0.45; stroke-linejoin: miter"/>
   </g>
   <g id="PathCollection_1">
    <defs>
     <path id="m6f7fd25401" d="M 0 2.12132 
C 0.562581 2.12132 1.102195 1.897805 1.5 1.5 
C 1.897805 1.102195 2.12132 0.562581 2.12132 0 
C 2.12132 -0.562581 1.897805 -1.102195 1.5 -1.5 
C 1.102195 -1.897805 0.562581 -2.12132 0 -2.12132 
C -0.562581 -2.12132 -1.102195 -1.897805 -1.5 -1.5 
C -1.897805 -1.102195 -2.12132 -0.562581 -2.12132 0 
C -2.12132 0.562581 -1.897805 1.102195 -1.5 1.5 
C -1.102195 1.897805 -0.562581 2.12132 0 2.12132 
z
" style="stroke: #1f77b4"/>
    </defs>
    <g clip-path="url(#p976559ac8c)">
     <use xlink:href="#m6f7fd25401" x="276.9925" y="263.289641" style="fill: #1f77b4; stroke: #1f77b4"/>
    </g>
   </g>
   <g id="PathCollection_2">
    <defs>
     <path id="mf0b61502f8" d="M -2.12132 2.12132 
L 2.12132 2.12132 
L 2.12132 -2.12132 
L -2.12132 -2.12132 
z
" style="stroke: #1f77b4"/>
    </defs>
    <g clip-path="url(#p976559ac8c)">
     <use xlink:href="#mf0b61502f8" x="244.03183" y="268.10937" style="fill: #1f77b4; stroke: #1f77b4"/>
    </g>
   </g>
   <g id="PathCollection_3">
    <defs>
     <path id="m8e9cfbfe97" d="M 0 2.12132 
C 0.562581 2.12132 1.102195 1.897805 1.5 1.5 
C 1.897805 1.102195 2.12132 0.562581 2.12132 0 
C 2.12132 -0.562581 1.897805 -1.102195 1.5 -1.5 
C 1.102195 -1.897805 0.562581 -2.12132 0 -2.12132 
C -0.562581 -2.12132 -1.102195 -1.897805 -1.5 -1.5 
C -1.897805 -1.102195 -2.12132 -0.562581 -2.12132 0 
C -2.12132 0.562581 -1.897805 1.102195 -1.5 1.5 
C -1.102195 1.897805 -0.562581 2.12132 0 2.12132 
z
" style="stroke: #8172b2"/>
    </defs>
    <g clip-path="url(#p976559ac8c)">
     <use xlink:href="#m8e9cfbfe97" x="279.427059" y="265.708526" style="fill: #8172b2; stroke: #8172b2"/>
    </g>
   </g>
   <g id="PathCollection_4">
    <defs>
     <path id="ma92c5b8bf8" d="M -2.12132 2.12132 
L 2.12132 2.12132 
L 2.12132 -2.12132 
L -2.12132 -2.12132 
z
" style="stroke: #8172b2"/>
    </defs>
    <g clip-path="url(#p976559ac8c)">
     <use xlink:href="#ma92c5b8bf8" x="220.206527" y="277.335051" style="fill: #8172b2; stroke: #8172b2"/>
    </g>
   </g>
   <g id="PathCollection_5">
    <defs>
     <path id="mdf7d1d3161" d="M -3.605551 3.605551 
L 3.605551 -3.605551 
M -3.605551 -3.605551 
L 3.605551 3.605551 
" style="stroke: #c44e52; stroke-width: 1.5"/>
    </defs>
    <g clip-path="url(#p976559ac8c)">
     <use xlink:href="#mdf7d1d3161" x="303.729426" y="333.970072" style="fill: #c44e52; stroke: #c44e52; stroke-width: 1.5"/>
    </g>
   </g>
   <g id="matplotlib.axis_1">
    <g id="xtick_1">
     <g id="line2d_1">
      <defs>
       <path id="m4e6ebdac17" d="M 0 0 
L 0 3.5 
" style="stroke: #000000; stroke-width: 0.8"/>
      </defs>
      <g>
       <use xlink:href="#m4e6ebdac17" x="75.910283" y="483.072332" style="stroke: #000000; stroke-width: 0.8"/>
      </g>
     </g>
     <g id="text_1">
      <!-- −1.00 -->
      <g transform="translate(60.587627 497.669989) scale(0.1 -0.1)">
       <defs>
        <path id="DejaVuSans-c9c" d="M 678 2272 
L 4684 2272 
L 4684 1741 
L 678 1741 
L 678 2272 
z
" transform="scale(0.015625)"/>
        <path id="DejaVuSans-14" d="M 794 531 
L 1825 531 
L 1825 4091 
L 703 3866 
L 703 4441 
L 1819 4666 
L 2450 4666 
L 2450 531 
L 3481 531 
L 3481 0 
L 794 0 
L 794 531 
z
" transform="scale(0.015625)"/>
        <path id="DejaVuSans-11" d="M 684 794 
L 1344 794 
L 1344 0 
L 684 0 
L 684 794 
z
" transform="scale(0.015625)"/>
        <path id="DejaVuSans-13" d="M 2034 4250 
Q 1547 4250 1301 3770 
Q 1056 3291 1056 2328 
Q 1056 1369 1301 889 
Q 1547 409 2034 409 
Q 2525 409 2770 889 
Q 3016 1369 3016 2328 
Q 3016 3291 2770 3770 
Q 2525 4250 2034 4250 
z
M 2034 4750 
Q 2819 4750 3233 4129 
Q 3647 3509 3647 2328 
Q 3647 1150 3233 529 
Q 2819 -91 2034 -91 
Q 1250 -91 836 529 
Q 422 1150 422 2328 
Q 422 3509 836 4129 
Q 1250 4750 2034 4750 
z
" transform="scale(0.015625)"/>
       </defs>
       <use xlink:href="#DejaVuSans-c9c"/>
       <use xlink:href="#DejaVuSans-14" transform="translate(83.796875 0)"/>
       <use xlink:href="#DejaVuSans-11" transform="translate(147.421875 0)"/>
       <use xlink:href="#DejaVuSans-13" transform="translate(179.203125 0)"/>
       <use xlink:href="#DejaVuSans-13" transform="translate(242.828125 0)"/>
      </g>
     </g>
    </g>
    <g id="xtick_2">
     <g id="line2d_2">
      <g>
       <use xlink:href="#m4e6ebdac17" x="129.238316" y="483.072332" style="stroke: #000000; stroke-width: 0.8"/>
      </g>
     </g>
     <g id="text_2">
      <!-- −0.75 -->
      <g transform="translate(113.91566 497.669989) scale(0.1 -0.1)">
       <defs>
        <path id="DejaVuSans-1a" d="M 525 4666 
L 3525 4666 
L 3525 4397 
L 1831 0 
L 1172 0 
L 2766 4134 
L 525 4134 
L 525 4666 
z
" transform="scale(0.015625)"/>
        <path id="DejaVuSans-18" d="M 691 4666 
L 3169 4666 
L 3169 4134 
L 1269 4134 
L 1269 2991 
Q 1406 3038 1543 3061 
Q 1681 3084 1819 3084 
Q 2600 3084 3056 2656 
Q 3513 2228 3513 1497 
Q 3513 744 3044 326 
Q 2575 -91 1722 -91 
Q 1428 -91 1123 -41 
Q 819 9 494 109 
L 494 744 
Q 775 591 1075 516 
Q 1375 441 1709 441 
Q 2250 441 2565 725 
Q 2881 1009 2881 1497 
Q 2881 1984 2565 2268 
Q 2250 2553 1709 2553 
Q 1456 2553 1204 2497 
Q 953 2441 691 2322 
L 691 4666 
z
" transform="scale(0.015625)"/>
       </defs>
       <use xlink:href="#DejaVuSans-c9c"/>
       <use xlink:href="#DejaVuSans-13" transform="translate(83.796875 0)"/>
       <use xlink:href="#DejaVuSans-11" transform="translate(147.421875 0)"/>
       <use xlink:href="#DejaVuSans-1a" transform="translate(179.203125 0)"/>
       <use xlink:href="#DejaVuSans-18" transform="translate(242.828125 0)"/>
      </g>
     </g>
    </g>
    <g id="xtick_3">
     <g id="line2d_3">
      <g>
       <use xlink:href="#m4e6ebdac17" x="182.56635" y="483.072332" style="stroke: #000000; stroke-width: 0.8"/>
      </g>
     </g>
     <g id="text_3">
      <!-- −0.50 -->
      <g transform="translate(167.243693 497.669989) scale(0.1 -0.1)">
       <use xlink:href="#DejaVuSans-c9c"/>
       <use xlink:href="#DejaVuSans-13" transform="translate(83.796875 0)"/>
       <use xlink:href="#DejaVuSans-11" transform="translate(147.421875 0)"/>
       <use xlink:href="#DejaVuSans-18" transform="translate(179.203125 0)"/>
       <use xlink:href="#DejaVuSans-13" transform="translate(242.828125 0)"/>
      </g>
     </g>
    </g>
    <g id="xtick_4">
     <g id="line2d_4">
      <g>
       <use xlink:href="#m4e6ebdac17" x="235.894383" y="483.072332" style="stroke: #000000; stroke-width: 0.8"/>
      </g>
     </g>
     <g id="text_4">
      <!-- −0.25 -->
      <g transform="translate(220.571727 497.669989) scale(0.1 -0.1)">
       <defs>
        <path id="DejaVuSans-15" d="M 1228 531 
L 3431 531 
L 3431 0 
L 469 0 
L 469 531 
Q 828 903 1448 1529 
Q 2069 2156 2228 2338 
Q 2531 2678 2651 2914 
Q 2772 3150 2772 3378 
Q 2772 3750 2511 3984 
Q 2250 4219 1831 4219 
Q 1534 4219 1204 4116 
Q 875 4013 500 3803 
L 500 4441 
Q 881 4594 1212 4672 
Q 1544 4750 1819 4750 
Q 2544 4750 2975 4387 
Q 3406 4025 3406 3419 
Q 3406 3131 3298 2873 
Q 3191 2616 2906 2266 
Q 2828 2175 2409 1742 
Q 1991 1309 1228 531 
z
" transform="scale(0.015625)"/>
       </defs>
       <use xlink:href="#DejaVuSans-c9c"/>
       <use xlink:href="#DejaVuSans-13" transform="translate(83.796875 0)"/>
       <use xlink:href="#DejaVuSans-11" transform="translate(147.421875 0)"/>
       <use xlink:href="#DejaVuSans-15" transform="translate(179.203125 0)"/>
       <use xlink:href="#DejaVuSans-18" transform="translate(242.828125 0)"/>
      </g>
     </g>
    </g>
    <g id="xtick_5">
     <g id="line2d_5">
      <g>
       <use xlink:href="#m4e6ebdac17" x="289.222416" y="483.072332" style="stroke: #000000; stroke-width: 0.8"/>
      </g>
     </g>
     <g id="text_5">
      <!-- 0.00 -->
      <g transform="translate(278.089604 497.669989) scale(0.1 -0.1)">
       <use xlink:href="#DejaVuSans-13"/>
       <use xlink:href="#DejaVuSans-11" transform="translate(63.625 0)"/>
       <use xlink:href="#DejaVuSans-13" transform="translate(95.40625 0)"/>
       <use xlink:href="#DejaVuSans-13" transform="translate(159.03125 0)"/>
      </g>
     </g>
    </g>
    <g id="xtick_6">
     <g id="line2d_6">
      <g>
       <use xlink:href="#m4e6ebdac17" x="342.55045" y="483.072332" style="stroke: #000000; stroke-width: 0.8"/>
      </g>
     </g>
     <g id="text_6">
      <!-- 0.25 -->
      <g transform="translate(331.417637 497.669989) scale(0.1 -0.1)">
       <use xlink:href="#DejaVuSans-13"/>
       <use xlink:href="#DejaVuSans-11" transform="translate(63.625 0)"/>
       <use xlink:href="#DejaVuSans-15" transform="translate(95.40625 0)"/>
       <use xlink:href="#DejaVuSans-18" transform="translate(159.03125 0)"/>
      </g>
     </g>
    </g>
    <g id="xtick_7">
     <g id="line2d_7">
      <g>
       <use xlink:href="#m4e6ebdac17" x="395.878483" y="483.072332" style="stroke: #000000; stroke-width: 0.8"/>
      </g>
     </g>
     <g id="text_7">
      <!-- 0.50 -->
      <g transform="translate(384.74567 497.669989) scale(0.1 -0.1)">
       <use xlink:href="#DejaVuSans-13"/>
       <use xlink:href="#DejaVuSans-11" transform="translate(63.625 0)"/>
       <use xlink:href="#DejaVuSans-18" transform="translate(95.40625 0)"/>
       <use xlink:href="#DejaVuSans-13" transform="translate(159.03125 0)"/>
      </g>
     </g>
    </g>
    <g id="xtick_8">
     <g id="line2d_8">
      <g>
       <use xlink:href="#m4e6ebdac17" x="449.206516" y="483.072332" style="stroke: #000000; stroke-width: 0.8"/>
      </g>
     </g>
     <g id="text_8">
      <!-- 0.75 -->
      <g transform="translate(438.073704 497.669989) scale(0.1 -0.1)">
       <use xlink:href="#DejaVuSans-13"/>
       <use xlink:href="#DejaVuSans-11" transform="translate(63.625 0)"/>
       <use xlink:href="#DejaVuSans-1a" transform="translate(95.40625 0)"/>
       <use xlink:href="#DejaVuSans-18" transform="translate(159.03125 0)"/>
      </g>
     </g>
    </g>
    <g id="xtick_9">
     <g id="line2d_9">
      <g>
       <use xlink:href="#m4e6ebdac17" x="502.534549" y="483.072332" style="stroke: #000000; stroke-width: 0.8"/>
      </g>
     </g>
     <g id="text_9">
      <!-- 1.00 -->
      <g transform="translate(491.401737 497.669989) scale(0.1 -0.1)">
       <use xlink:href="#DejaVuSans-14"/>
       <use xlink:href="#DejaVuSans-11" transform="translate(63.625 0)"/>
       <use xlink:href="#DejaVuSans-13" transform="translate(95.40625 0)"/>
       <use xlink:href="#DejaVuSans-13" transform="translate(159.03125 0)"/>
      </g>
     </g>
    </g>
    <g id="text_10">
     <!-- Re(Gamma) -->
     <g transform="translate(259.251323 511.669989) scale(0.1 -0.1)">
      <defs>
       <path id="DejaVuSans-35" d="M 2841 2188 
Q 3044 2119 3236 1894 
Q 3428 1669 3622 1275 
L 4263 0 
L 3584 0 
L 2988 1197 
Q 2756 1666 2539 1819 
Q 2322 1972 1947 1972 
L 1259 1972 
L 1259 0 
L 628 0 
L 628 4666 
L 2053 4666 
Q 2853 4666 3247 4331 
Q 3641 3997 3641 3322 
Q 3641 2881 3436 2590 
Q 3231 2300 2841 2188 
z
M 1259 4147 
L 1259 2491 
L 2053 2491 
Q 2509 2491 2742 2702 
Q 2975 2913 2975 3322 
Q 2975 3731 2742 3939 
Q 2509 4147 2053 4147 
L 1259 4147 
z
" transform="scale(0.015625)"/>
       <path id="DejaVuSans-48" d="M 3597 1894 
L 3597 1613 
L 953 1613 
Q 991 1019 1311 708 
Q 1631 397 2203 397 
Q 2534 397 2845 478 
Q 3156 559 3463 722 
L 3463 178 
Q 3153 47 2828 -22 
Q 2503 -91 2169 -91 
Q 1331 -91 842 396 
Q 353 884 353 1716 
Q 353 2575 817 3079 
Q 1281 3584 2069 3584 
Q 2775 3584 3186 3129 
Q 3597 2675 3597 1894 
z
M 3022 2063 
Q 3016 2534 2758 2815 
Q 2500 3097 2075 3097 
Q 1594 3097 1305 2825 
Q 1016 2553 972 2059 
L 3022 2063 
z
" transform="scale(0.015625)"/>
       <path id="DejaVuSans-b" d="M 1984 4856 
Q 1566 4138 1362 3434 
Q 1159 2731 1159 2009 
Q 1159 1288 1364 580 
Q 1569 -128 1984 -844 
L 1484 -844 
Q 1016 -109 783 600 
Q 550 1309 550 2009 
Q 550 2706 781 3412 
Q 1013 4119 1484 4856 
L 1984 4856 
z
" transform="scale(0.015625)"/>
       <path id="DejaVuSans-2a" d="M 3809 666 
L 3809 1919 
L 2778 1919 
L 2778 2438 
L 4434 2438 
L 4434 434 
Q 4069 175 3628 42 
Q 3188 -91 2688 -91 
Q 1594 -91 976 548 
Q 359 1188 359 2328 
Q 359 3472 976 4111 
Q 1594 4750 2688 4750 
Q 3144 4750 3555 4637 
Q 3966 4525 4313 4306 
L 4313 3634 
Q 3963 3931 3569 4081 
Q 3175 4231 2741 4231 
Q 1884 4231 1454 3753 
Q 1025 3275 1025 2328 
Q 1025 1384 1454 906 
Q 1884 428 2741 428 
Q 3075 428 3337 486 
Q 3600 544 3809 666 
z
" transform="scale(0.015625)"/>
       <path id="DejaVuSans-44" d="M 2194 1759 
Q 1497 1759 1228 1600 
Q 959 1441 959 1056 
Q 959 750 1161 570 
Q 1363 391 1709 391 
Q 2188 391 2477 730 
Q 2766 1069 2766 1631 
L 2766 1759 
L 2194 1759 
z
M 3341 1997 
L 3341 0 
L 2766 0 
L 2766 531 
Q 2569 213 2275 61 
Q 1981 -91 1556 -91 
Q 1019 -91 701 211 
Q 384 513 384 1019 
Q 384 1609 779 1909 
Q 1175 2209 1959 2209 
L 2766 2209 
L 2766 2266 
Q 2766 2663 2505 2880 
Q 2244 3097 1772 3097 
Q 1472 3097 1187 3025 
Q 903 2953 641 2809 
L 641 3341 
Q 956 3463 1253 3523 
Q 1550 3584 1831 3584 
Q 2591 3584 2966 3190 
Q 3341 2797 3341 1997 
z
" transform="scale(0.015625)"/>
       <path id="DejaVuSans-50" d="M 3328 2828 
Q 3544 3216 3844 3400 
Q 4144 3584 4550 3584 
Q 5097 3584 5394 3201 
Q 5691 2819 5691 2113 
L 5691 0 
L 5113 0 
L 5113 2094 
Q 5113 2597 4934 2840 
Q 4756 3084 4391 3084 
Q 3944 3084 3684 2787 
Q 3425 2491 3425 1978 
L 3425 0 
L 2847 0 
L 2847 2094 
Q 2847 2600 2669 2842 
Q 2491 3084 2119 3084 
Q 1678 3084 1418 2786 
Q 1159 2488 1159 1978 
L 1159 0 
L 581 0 
L 581 3500 
L 1159 3500 
L 1159 2956 
Q 1356 3278 1631 3431 
Q 1906 3584 2284 3584 
Q 2666 3584 2933 3390 
Q 3200 3197 3328 2828 
z
" transform="scale(0.015625)"/>
       <path id="DejaVuSans-c" d="M 513 4856 
L 1013 4856 
Q 1481 4119 1714 3412 
Q 1947 2706 1947 2009 
Q 1947 1309 1714 600 
Q 1481 -109 1013 -844 
L 513 -844 
Q 928 -128 1133 580 
Q 1338 1288 1338 2009 
Q 1338 2731 1133 3434 
Q 928 4138 513 4856 
z
" transform="scale(0.015625)"/>
      </defs>
      <use xlink:href="#DejaVuSans-35"/>
      <use xlink:href="#DejaVuSans-48" transform="translate(65 0)"/>
      <use xlink:href="#DejaVuSans-b" transform="translate(126.53125 0)"/>
      <use xlink:href="#DejaVuSans-2a" transform="translate(165.546875 0)"/>
      <use xlink:href="#DejaVuSans-44" transform="translate(243.03125 0)"/>
      <use xlink:href="#DejaVuSans-50" transform="translate(304.3125 0)"/>
      <use xlink:href="#DejaVuSans-50" transform="translate(401.71875 0)"/>
      <use xlink:href="#DejaVuSans-44" transform="translate(499.125 0)"/>
      <use xlink:href="#DejaVuSans-c" transform="translate(560.40625 0)"/>
     </g>
    </g>
   </g>
   <g id="matplotlib.axis_2">
    <g id="ytick_1">
     <g id="line2d_10">
      <defs>
       <path id="mfabc28becb" d="M 0 0 
L -3.5 0 
" style="stroke: #000000; stroke-width: 0.8"/>
      </defs>
      <g>
       <use xlink:href="#mfabc28becb" x="58.845313" y="466.007362" style="stroke: #000000; stroke-width: 0.8"/>
      </g>
     </g>
     <g id="text_11">
      <!-- −1.00 -->
      <g transform="translate(21.2 469.80619) scale(0.1 -0.1)">
       <use xlink:href="#DejaVuSans-c9c"/>
       <use xlink:href="#DejaVuSans-14" transform="translate(83.796875 0)"/>
       <use xlink:href="#DejaVuSans-11" transform="translate(147.421875 0)"/>
       <use xlink:href="#DejaVuSans-13" transform="translate(179.203125 0)"/>
       <use xlink:href="#DejaVuSans-13" transform="translate(242.828125 0)"/>
      </g>
     </g>
    </g>
    <g id="ytick_2">
     <g id="line2d_11">
      <g>
       <use xlink:href="#mfabc28becb" x="58.845313" y="412.679329" style="stroke: #000000; stroke-width: 0.8"/>
      </g>
     </g>
     <g id="text_12">
      <!-- −0.75 -->
      <g transform="translate(21.2 416.478157) scale(0.1 -0.1)">
       <use xlink:href="#DejaVuSans-c9c"/>
       <use xlink:href="#DejaVuSans-13" transform="translate(83.796875 0)"/>
       <use xlink:href="#DejaVuSans-11" transform="translate(147.421875 0)"/>
       <use xlink:href="#DejaVuSans-1a" transform="translate(179.203125 0)"/>
       <use xlink:href="#DejaVuSans-18" transform="translate(242.828125 0)"/>
      </g>
     </g>
    </g>
    <g id="ytick_3">
     <g id="line2d_12">
      <g>
       <use xlink:href="#mfabc28becb" x="58.845313" y="359.351295" style="stroke: #000000; stroke-width: 0.8"/>
      </g>
     </g>
     <g id="text_13">
      <!-- −0.50 -->
      <g transform="translate(21.2 363.150123) scale(0.1 -0.1)">
       <use xlink:href="#DejaVuSans-c9c"/>
       <use xlink:href="#DejaVuSans-13" transform="translate(83.796875 0)"/>
       <use xlink:href="#DejaVuSans-11" transform="translate(147.421875 0)"/>
       <use xlink:href="#DejaVuSans-18" transform="translate(179.203125 0)"/>
       <use xlink:href="#DejaVuSans-13" transform="translate(242.828125 0)"/>
      </g>
     </g>
    </g>
    <g id="ytick_4">
     <g id="line2d_13">
      <g>
       <use xlink:href="#mfabc28becb" x="58.845313" y="306.023262" style="stroke: #000000; stroke-width: 0.8"/>
      </g>
     </g>
     <g id="text_14">
      <!-- −0.25 -->
      <g transform="translate(21.2 309.82209) scale(0.1 -0.1)">
       <use xlink:href="#DejaVuSans-c9c"/>
       <use xlink:href="#DejaVuSans-13" transform="translate(83.796875 0)"/>
       <use xlink:href="#DejaVuSans-11" transform="translate(147.421875 0)"/>
       <use xlink:href="#DejaVuSans-15" transform="translate(179.203125 0)"/>
       <use xlink:href="#DejaVuSans-18" transform="translate(242.828125 0)"/>
      </g>
     </g>
    </g>
    <g id="ytick_5">
     <g id="line2d_14">
      <g>
       <use xlink:href="#mfabc28becb" x="58.845313" y="252.695229" style="stroke: #000000; stroke-width: 0.8"/>
      </g>
     </g>
     <g id="text_15">
      <!-- 0.00 -->
      <g transform="translate(29.579688 256.494057) scale(0.1 -0.1)">
       <use xlink:href="#DejaVuSans-13"/>
       <use xlink:href="#DejaVuSans-11" transform="translate(63.625 0)"/>
       <use xlink:href="#DejaVuSans-13" transform="translate(95.40625 0)"/>
       <use xlink:href="#DejaVuSans-13" transform="translate(159.03125 0)"/>
      </g>
     </g>
    </g>
    <g id="ytick_6">
     <g id="line2d_15">
      <g>
       <use xlink:href="#mfabc28becb" x="58.845313" y="199.367195" style="stroke: #000000; stroke-width: 0.8"/>
      </g>
     </g>
     <g id="text_16">
      <!-- 0.25 -->
      <g transform="translate(29.579688 203.166024) scale(0.1 -0.1)">
       <use xlink:href="#DejaVuSans-13"/>
       <use xlink:href="#DejaVuSans-11" transform="translate(63.625 0)"/>
       <use xlink:href="#DejaVuSans-15" transform="translate(95.40625 0)"/>
       <use xlink:href="#DejaVuSans-18" transform="translate(159.03125 0)"/>
      </g>
     </g>
    </g>
    <g id="ytick_7">
     <g id="line2d_16">
      <g>
       <use xlink:href="#mfabc28becb" x="58.845313" y="146.039162" style="stroke: #000000; stroke-width: 0.8"/>
      </g>
     </g>
     <g id="text_17">
      <!-- 0.50 -->
      <g transform="translate(29.579688 149.83799) scale(0.1 -0.1)">
       <use xlink:href="#DejaVuSans-13"/>
       <use xlink:href="#DejaVuSans-11" transform="translate(63.625 0)"/>
       <use xlink:href="#DejaVuSans-18" transform="translate(95.40625 0)"/>
       <use xlink:href="#DejaVuSans-13" transform="translate(159.03125 0)"/>
      </g>
     </g>
    </g>
    <g id="ytick_8">
     <g id="line2d_17">
      <g>
       <use xlink:href="#mfabc28becb" x="58.845313" y="92.711129" style="stroke: #000000; stroke-width: 0.8"/>
      </g>
     </g>
     <g id="text_18">
      <!-- 0.75 -->
      <g transform="translate(29.579688 96.509957) scale(0.1 -0.1)">
       <use xlink:href="#DejaVuSans-13"/>
       <use xlink:href="#DejaVuSans-11" transform="translate(63.625 0)"/>
       <use xlink:href="#DejaVuSans-1a" transform="translate(95.40625 0)"/>
       <use xlink:href="#DejaVuSans-18" transform="translate(159.03125 0)"/>
      </g>
     </g>
    </g>
    <g id="ytick_9">
     <g id="line2d_18">
      <g>
       <use xlink:href="#mfabc28becb" x="58.845313" y="39.383096" style="stroke: #000000; stroke-width: 0.8"/>
      </g>
     </g>
     <g id="text_19">
      <!-- 1.00 -->
      <g transform="translate(29.579688 43.181924) scale(0.1 -0.1)">
       <use xlink:href="#DejaVuSans-14"/>
       <use xlink:href="#DejaVuSans-11" transform="translate(63.625 0)"/>
       <use xlink:href="#DejaVuSans-13" transform="translate(95.40625 0)"/>
       <use xlink:href="#DejaVuSans-13" transform="translate(159.03125 0)"/>
      </g>
     </g>
    </g>
    <g id="text_20">
     <!-- Im(Gamma) -->
     <g transform="translate(14.797656 282.685072) rotate(-90) scale(0.1 -0.1)">
      <defs>
       <path id="DejaVuSans-2c" d="M 628 4666 
L 1259 4666 
L 1259 0 
L 628 0 
L 628 4666 
z
" transform="scale(0.015625)"/>
      </defs>
      <use xlink:href="#DejaVuSans-2c"/>
      <use xlink:href="#DejaVuSans-50" transform="translate(29.5 0)"/>
      <use xlink:href="#DejaVuSans-b" transform="translate(126.90625 0)"/>
      <use xlink:href="#DejaVuSans-2a" transform="translate(165.921875 0)"/>
      <use xlink:href="#DejaVuSans-44" transform="translate(243.40625 0)"/>
      <use xlink:href="#DejaVuSans-50" transform="translate(304.6875 0)"/>
      <use xlink:href="#DejaVuSans-50" transform="translate(402.09375 0)"/>
      <use xlink:href="#DejaVuSans-44" transform="translate(499.5 0)"/>
      <use xlink:href="#DejaVuSans-c" transform="translate(560.78125 0)"/>
     </g>
    </g>
   </g>
   <g id="line2d_19">
    <path d="M 58.845313 252.695229 
L 519.59952 252.695229 
" clip-path="url(#p976559ac8c)" style="fill: none; stroke: #7b818a; stroke-opacity: 0.55; stroke-width: 0.7; stroke-linecap: square"/>
   </g>
   <g id="line2d_20">
    <path d="M 289.222416 483.072332 
L 289.222416 22.318125 
" clip-path="url(#p976559ac8c)" style="fill: none; stroke: #7b818a; stroke-opacity: 0.25; stroke-width: 0.45; stroke-linecap: square"/>
   </g>
   <g id="line2d_21">
    <path d="M 92.318909 170.652101 
L 156.622982 195.043301 
L 223.08634 215.435468 
L 291.334418 231.575216 
L 360.9557 243.256639 
L 431.509422 250.327724 
L 469.725064 252.190467 
" clip-path="url(#p976559ac8c)" style="fill: none; stroke: #9aa1aa; stroke-opacity: 0.45; stroke-width: 0.45; stroke-linecap: square"/>
   </g>
   <g id="line2d_22">
    <path d="M 92.318909 334.738357 
L 156.622982 310.347157 
L 223.08634 289.95499 
L 291.334418 273.815242 
L 360.9557 262.133819 
L 431.509422 255.062733 
L 469.725064 253.19999 
" clip-path="url(#p976559ac8c)" style="fill: none; stroke: #9aa1aa; stroke-opacity: 0.45; stroke-width: 0.45; stroke-linecap: square"/>
   </g>
   <g id="line2d_23">
    <path d="M 161.235136 82.045522 
L 199.606076 126.475032 
L 246.55999 167.370376 
L 301.770189 202.504139 
L 364.169922 229.634458 
L 431.920878 246.810756 
L 469.765773 251.434891 
" clip-path="url(#p976559ac8c)" style="fill: none; stroke: #9aa1aa; stroke-opacity: 0.45; stroke-width: 0.45; stroke-linecap: square"/>
   </g>
   <g id="line2d_24">
    <path d="M 161.235136 423.344935 
L 199.606076 378.915426 
L 246.55999 338.020082 
L 301.770189 302.886319 
L 364.169922 275.756 
L 431.920878 258.579701 
L 469.765773 253.955566 
" clip-path="url(#p976559ac8c)" style="fill: none; stroke: #9aa1aa; stroke-opacity: 0.45; stroke-width: 0.45; stroke-linecap: square"/>
   </g>
   <g id="line2d_25">
    <path d="M 289.222416 39.383096 
L 292.719336 77.849218 
L 305.631042 121.426224 
L 331.884843 167.370376 
L 374.547269 210.032802 
L 433.352236 241.164843 
L 469.910341 250.185674 
" clip-path="url(#p976559ac8c)" style="fill: none; stroke: #9aa1aa; stroke-opacity: 0.45; stroke-width: 0.45; stroke-linecap: square"/>
   </g>
   <g id="line2d_26">
    <path d="M 289.222416 466.007362 
L 292.719336 427.541239 
L 305.631042 383.964234 
L 331.884843 338.020082 
L 374.547269 295.357655 
L 433.352236 264.225614 
L 469.910341 255.204783 
" clip-path="url(#p976559ac8c)" style="fill: none; stroke: #9aa1aa; stroke-opacity: 0.45; stroke-width: 0.45; stroke-linecap: square"/>
   </g>
   <g id="line2d_27">
    <path d="M 417.209696 82.045522 
L 408.426255 95.848072 
L 400.144725 116.175464 
L 395.878483 146.039162 
L 404.082796 187.060726 
L 438.540909 231.364015 
L 470.476078 247.763156 
" clip-path="url(#p976559ac8c)" style="fill: none; stroke: #9aa1aa; stroke-opacity: 0.45; stroke-width: 0.45; stroke-linecap: square"/>
   </g>
   <g id="line2d_28">
    <path d="M 417.209696 423.344935 
L 408.426255 409.542385 
L 400.144725 389.214994 
L 395.878483 359.351295 
L 404.082796 318.329731 
L 438.540909 274.026442 
L 470.476078 257.627301 
" clip-path="url(#p976559ac8c)" style="fill: none; stroke: #9aa1aa; stroke-opacity: 0.45; stroke-width: 0.45; stroke-linecap: square"/>
   </g>
   <g id="line2d_29">
    <path d="M 486.125924 170.652101 
L 483.171875 172.017417 
L 479.050645 174.415547 
L 473.112186 179.139321 
L 464.891232 189.956366 
L 460.571507 217.726027 
L 473.946325 241.699758 
" clip-path="url(#p976559ac8c)" style="fill: none; stroke: #9aa1aa; stroke-opacity: 0.45; stroke-width: 0.45; stroke-linecap: square"/>
   </g>
   <g id="line2d_30">
    <path d="M 486.125924 334.738357 
L 483.171875 333.37304 
L 479.050645 330.974911 
L 473.112186 326.251137 
L 464.891232 315.434091 
L 460.571507 287.664431 
L 473.946325 263.6907 
" clip-path="url(#p976559ac8c)" style="fill: none; stroke: #9aa1aa; stroke-opacity: 0.45; stroke-width: 0.45; stroke-linecap: square"/>
   </g>
   <g id="line2d_31">
    <path d="M 276.9925 263.289641 
L 273.06317 262.410498 
L 269.381432 260.364229 
L 266.258719 257.249438 
L 263.970207 253.240231 
L 262.738106 248.574837 
L 262.718031 243.540579 
L 263.989422 238.456101 
L 266.550488 233.652032 
L 270.317827 229.451208 
L 275.130536 226.149474 
L 280.758566 223.997997 
L 286.914861 223.187883 
L 293.270783 223.837894 
L 299.474116 225.985926 
L 305.168825 229.584861 
L 310.015513 234.503219 
L 313.711411 240.530773 
L 316.008613 247.389016 
L 316.729307 254.745937 
L 315.77689 262.234243 
L 313.142163 269.4718 
L 308.904165 276.082875 
L 303.225698 281.718691 
L 296.344014 286.075901 
L 288.557536 288.911838 
L 280.209746 290.055747 
L 271.671477 289.415627 
L 263.322845 286.980676 
L 255.535868 282.81969 
L 248.658627 277.075985 
L 243.001515 269.959567 
L 238.825896 261.737255 
L 236.335241 252.721455 
L 235.668664 243.258139 
L 236.896677 233.714455 
L 240.018948 224.46625 
L 244.963868 215.885675 
L 251.589796 208.328947 
L 259.687937 202.124289 
L 268.986899 197.560106 
L 279.159066 194.873459 
L 289.828991 194.239045 
L 300.584008 195.759 
L 310.987267 199.453999 
L 320.593236 205.256314 
L 328.965556 213.005617 
L 335.69684 222.448389 
L 340.429685 233.241803 
L 342.877794 244.962781 
L 342.845773 257.122624 
L 340.245907 269.187161 
L 335.110178 280.601775 
L 327.595906 290.82003 
L 317.98382 299.334042 
L 306.668015 305.704309 
L 294.138025 309.586545 
L 280.954107 310.753227 
L 267.717527 309.108029 
L 255.038191 304.692015 
L 243.502098 297.681341 
L 233.640996 288.377 
L 225.90618 277.18784 
L 220.64779 264.608509 
L 218.100295 251.194165 
L 218.374272 237.533662 
L 221.454114 224.222732 
L 227.201027 211.838247 
L 235.360558 200.914352 
L 245.573972 191.920903 
L 257.392898 185.244456 
L 270.296862 181.171999 
L 283.713478 179.877604 
L 297.041134 181.412366 
L 309.674022 185.698121 
L 321.029191 192.525674 
L 330.575047 201.558346 
L 337.860369 212.341708 
L 342.542484 224.320194 
L 344.412858 236.860976 
L 343.418052 249.284905 
L 339.673875 260.903566 
L 333.470807 271.060241 
L 325.269923 279.170316 
L 315.69449 284.751036 
L 305.555418 287.42083 
L 296.119692 286.925281 
L 289.824158 284.474175 
L 284.775215 285.234703 
L 275.372069 284.344087 
L 267.118445 278.079837 
L 264.099405 269.195023 
L 267.744728 263.271289 
L 271.84075 267.984395 
L 260.792049 276.206503 
L 244.03183 268.10937 
" clip-path="url(#p976559ac8c)" style="fill: none; stroke: #1f77b4; stroke-width: 1.35; stroke-linecap: square"/>
   </g>
   <g id="line2d_32">
    <path d="M 279.427059 265.708526 
L 276.026245 266.289735 
L 272.611596 266.076474 
L 269.365987 265.121352 
L 266.445496 263.516381 
L 263.972411 261.384072 
L 262.030172 258.867623 
L 260.660572 256.1203 
L 259.86353 253.294452 
L 259.599625 250.530828 
L 259.795263 247.948927 
L 260.350165 245.639085 
L 261.146614 243.656843 
L 262.059816 242.019986 
L 262.968636 240.708449 
L 263.765951 239.667096 
L 264.367888 238.811182 
L 264.721266 238.034144 
L 264.808652 237.217197 
L 264.650597 236.240024 
L 264.304783 234.991769 
L 263.862092 233.381427 
L 263.439819 231.346756 
L 263.172593 228.860909 
L 263.201748 225.936196 
L 263.664082 222.624627 
L 264.680995 219.015239 
L 266.348943 215.228493 
L 268.731968 211.408333 
L 271.856822 207.712662 
L 275.710944 204.303079 
L 280.243241 201.334724 
L 285.367429 198.946947 
L 290.967498 197.255377 
L 296.904808 196.34582 
L 303.026243 196.270189 
L 309.172908 197.044607 
L 315.188838 198.649631 
L 320.929279 201.032531 
L 326.26809 204.111419 
L 331.103908 207.781001 
L 335.3647 211.919632 
L 339.010459 216.397285 
L 342.033792 221.083963 
L 344.458346 225.858028 
L 346.335078 230.613885 
L 347.736581 235.268436 
L 348.74982 239.765793 
L 349.467787 244.079831 
L 349.980718 248.21431 
L 350.367571 252.200489 
L 350.6885 256.092374 
L 350.978981 259.959955 
L 351.246145 263.880984 
L 351.467677 267.931997 
L 351.593405 272.179388 
L 351.549464 276.671332 
L 351.24465 281.431314 
L 350.578365 286.453831 
L 349.449404 291.702638 
L 347.764759 297.111611 
L 345.447657 302.588055 
L 342.444173 308.018024 
L 338.727979 313.273067 
L 334.302993 318.217741 
L 329.203969 322.717244 
L 323.495213 326.644638 
L 317.267752 329.887264 
L 310.635309 332.352118 
L 303.729426 333.970072 
L 296.694 334.698926 
L 289.679446 334.52527 
L 282.836665 333.465143 
L 276.311022 331.563433 
L 270.236604 328.891946 
L 264.731175 325.546176 
L 259.892313 321.640966 
L 255.795259 317.30557 
L 252.492845 312.679065 
L 250.017395 307.907572 
L 248.383401 303.145302 
L 247.587405 298.561471 
L 247.597046 294.35239 
L 248.31739 290.745196 
L 249.546599 287.948882 
L 251.057983 286.038805 
L 252.955505 285.228092 
L 254.626741 287.244345 
L 250.615942 290.934726 
L 244.478077 287.57303 
L 243.719845 282.103681 
L 246.220745 279.515397 
L 248.798262 281.953327 
L 244.721723 289.319465 
L 230.030809 289.520957 
L 220.206527 277.335051 
" clip-path="url(#p976559ac8c)" style="fill: none; stroke: #8172b2; stroke-width: 1.35; stroke-linecap: square"/>
   </g>
   <g id="patch_9">
    <path d="M 58.845313 483.072332 
L 58.845313 22.318125 
" style="fill: none; stroke: #000000; stroke-width: 0.8; stroke-linejoin: miter; stroke-linecap: square"/>
   </g>
   <g id="patch_10">
    <path d="M 519.59952 483.072332 
L 519.59952 22.318125 
" style="fill: none; stroke: #000000; stroke-width: 0.8; stroke-linejoin: miter; stroke-linecap: square"/>
   </g>
   <g id="patch_11">
    <path d="M 58.845313 483.072332 
L 519.59952 483.072332 
" style="fill: none; stroke: #000000; stroke-width: 0.8; stroke-linejoin: miter; stroke-linecap: square"/>
   </g>
   <g id="patch_12">
    <path d="M 58.845313 22.318125 
L 519.59952 22.318125 
" style="fill: none; stroke: #000000; stroke-width: 0.8; stroke-linejoin: miter; stroke-linecap: square"/>
   </g>
   <g id="text_21">
    <!-- r=0.2 -->
    <g style="fill: #6f7782" transform="translate(150.21401 247.362425) scale(0.06 -0.06)">
     <defs>
      <path id="DejaVuSans-55" d="M 2631 2963 
Q 2534 3019 2420 3045 
Q 2306 3072 2169 3072 
Q 1681 3072 1420 2755 
Q 1159 2438 1159 1844 
L 1159 0 
L 581 0 
L 581 3500 
L 1159 3500 
L 1159 2956 
Q 1341 3275 1631 3429 
Q 1922 3584 2338 3584 
Q 2397 3584 2469 3576 
Q 2541 3569 2628 3553 
L 2631 2963 
z
" transform="scale(0.015625)"/>
      <path id="DejaVuSans-20" d="M 678 2906 
L 4684 2906 
L 4684 2381 
L 678 2381 
L 678 2906 
z
M 678 1631 
L 4684 1631 
L 4684 1100 
L 678 1100 
L 678 1631 
z
" transform="scale(0.015625)"/>
     </defs>
     <use xlink:href="#DejaVuSans-55"/>
     <use xlink:href="#DejaVuSans-20" transform="translate(41.109375 0)"/>
     <use xlink:href="#DejaVuSans-13" transform="translate(124.90625 0)"/>
     <use xlink:href="#DejaVuSans-11" transform="translate(188.53125 0)"/>
     <use xlink:href="#DejaVuSans-15" transform="translate(220.3125 0)"/>
    </g>
   </g>
   <g id="text_22">
    <!-- r=0.5 -->
    <g style="fill: #6f7782" transform="translate(221.318054 247.362425) scale(0.06 -0.06)">
     <use xlink:href="#DejaVuSans-55"/>
     <use xlink:href="#DejaVuSans-20" transform="translate(41.109375 0)"/>
     <use xlink:href="#DejaVuSans-13" transform="translate(124.90625 0)"/>
     <use xlink:href="#DejaVuSans-11" transform="translate(188.53125 0)"/>
     <use xlink:href="#DejaVuSans-18" transform="translate(220.3125 0)"/>
    </g>
   </g>
   <g id="text_23">
    <!-- r=1 -->
    <g style="fill: #6f7782" transform="translate(292.422098 247.362425) scale(0.06 -0.06)">
     <use xlink:href="#DejaVuSans-55"/>
     <use xlink:href="#DejaVuSans-20" transform="translate(41.109375 0)"/>
     <use xlink:href="#DejaVuSans-14" transform="translate(124.90625 0)"/>
    </g>
   </g>
   <g id="text_24">
    <!-- r=2 -->
    <g style="fill: #6f7782" transform="translate(363.526143 247.362425) scale(0.06 -0.06)">
     <use xlink:href="#DejaVuSans-55"/>
     <use xlink:href="#DejaVuSans-20" transform="translate(41.109375 0)"/>
     <use xlink:href="#DejaVuSans-15" transform="translate(124.90625 0)"/>
    </g>
   </g>
   <g id="text_25">
    <!-- r=5 -->
    <g style="fill: #6f7782" transform="translate(434.630187 247.362425) scale(0.06 -0.06)">
     <use xlink:href="#DejaVuSans-55"/>
     <use xlink:href="#DejaVuSans-20" transform="translate(41.109375 0)"/>
     <use xlink:href="#DejaVuSans-18" transform="translate(124.90625 0)"/>
    </g>
   </g>
   <g id="text_26">
    <!-- +j0.2 -->
    <g style="fill: #6f7782" transform="translate(431.509422 250.327724) scale(0.06 -0.06)">
     <defs>
      <path id="DejaVuSans-e" d="M 2944 4013 
L 2944 2272 
L 4684 2272 
L 4684 1741 
L 2944 1741 
L 2944 0 
L 2419 0 
L 2419 1741 
L 678 1741 
L 678 2272 
L 2419 2272 
L 2419 4013 
L 2944 4013 
z
" transform="scale(0.015625)"/>
      <path id="DejaVuSans-4d" d="M 603 3500 
L 1178 3500 
L 1178 -63 
Q 1178 -731 923 -1031 
Q 669 -1331 103 -1331 
L -116 -1331 
L -116 -844 
L 38 -844 
Q 366 -844 484 -692 
Q 603 -541 603 -63 
L 603 3500 
z
M 603 4863 
L 1178 4863 
L 1178 4134 
L 603 4134 
L 603 4863 
z
" transform="scale(0.015625)"/>
     </defs>
     <use xlink:href="#DejaVuSans-e"/>
     <use xlink:href="#DejaVuSans-4d" transform="translate(83.796875 0)"/>
     <use xlink:href="#DejaVuSans-13" transform="translate(111.578125 0)"/>
     <use xlink:href="#DejaVuSans-11" transform="translate(175.203125 0)"/>
     <use xlink:href="#DejaVuSans-15" transform="translate(206.984375 0)"/>
    </g>
   </g>
   <g id="text_27">
    <!-- -j0.2 -->
    <g style="fill: #6f7782" transform="translate(431.509422 255.062733) scale(0.06 -0.06)">
     <defs>
      <path id="DejaVuSans-10" d="M 313 2009 
L 1997 2009 
L 1997 1497 
L 313 1497 
L 313 2009 
z
" transform="scale(0.015625)"/>
     </defs>
     <use xlink:href="#DejaVuSans-10"/>
     <use xlink:href="#DejaVuSans-4d" transform="translate(36.078125 0)"/>
     <use xlink:href="#DejaVuSans-13" transform="translate(63.859375 0)"/>
     <use xlink:href="#DejaVuSans-11" transform="translate(127.484375 0)"/>
     <use xlink:href="#DejaVuSans-15" transform="translate(159.265625 0)"/>
    </g>
   </g>
   <g id="text_28">
    <!-- +j0.5 -->
    <g style="fill: #6f7782" transform="translate(431.920878 246.810756) scale(0.06 -0.06)">
     <use xlink:href="#DejaVuSans-e"/>
     <use xlink:href="#DejaVuSans-4d" transform="translate(83.796875 0)"/>
     <use xlink:href="#DejaVuSans-13" transform="translate(111.578125 0)"/>
     <use xlink:href="#DejaVuSans-11" transform="translate(175.203125 0)"/>
     <use xlink:href="#DejaVuSans-18" transform="translate(206.984375 0)"/>
    </g>
   </g>
   <g id="text_29">
    <!-- -j0.5 -->
    <g style="fill: #6f7782" transform="translate(431.920878 258.579701) scale(0.06 -0.06)">
     <use xlink:href="#DejaVuSans-10"/>
     <use xlink:href="#DejaVuSans-4d" transform="translate(36.078125 0)"/>
     <use xlink:href="#DejaVuSans-13" transform="translate(63.859375 0)"/>
     <use xlink:href="#DejaVuSans-11" transform="translate(127.484375 0)"/>
     <use xlink:href="#DejaVuSans-18" transform="translate(159.265625 0)"/>
    </g>
   </g>
   <g id="text_30">
    <!-- +j1 -->
    <g style="fill: #6f7782" transform="translate(433.352236 241.164843) scale(0.06 -0.06)">
     <use xlink:href="#DejaVuSans-e"/>
     <use xlink:href="#DejaVuSans-4d" transform="translate(83.796875 0)"/>
     <use xlink:href="#DejaVuSans-14" transform="translate(111.578125 0)"/>
    </g>
   </g>
   <g id="text_31">
    <!-- -j1 -->
    <g style="fill: #6f7782" transform="translate(433.352236 264.225614) scale(0.06 -0.06)">
     <use xlink:href="#DejaVuSans-10"/>
     <use xlink:href="#DejaVuSans-4d" transform="translate(36.078125 0)"/>
     <use xlink:href="#DejaVuSans-14" transform="translate(63.859375 0)"/>
    </g>
   </g>
   <g id="text_32">
    <!-- +j2 -->
    <g style="fill: #6f7782" transform="translate(438.540909 231.364015) scale(0.06 -0.06)">
     <use xlink:href="#DejaVuSans-e"/>
     <use xlink:href="#DejaVuSans-4d" transform="translate(83.796875 0)"/>
     <use xlink:href="#DejaVuSans-15" transform="translate(111.578125 0)"/>
    </g>
   </g>
   <g id="text_33">
    <!-- -j2 -->
    <g style="fill: #6f7782" transform="translate(438.540909 274.026442) scale(0.06 -0.06)">
     <use xlink:href="#DejaVuSans-10"/>
     <use xlink:href="#DejaVuSans-4d" transform="translate(36.078125 0)"/>
     <use xlink:href="#DejaVuSans-15" transform="translate(63.859375 0)"/>
    </g>
   </g>
   <g id="text_34">
    <!-- +j5 -->
    <g style="fill: #6f7782" transform="translate(460.571507 217.726027) scale(0.06 -0.06)">
     <use xlink:href="#DejaVuSans-e"/>
     <use xlink:href="#DejaVuSans-4d" transform="translate(83.796875 0)"/>
     <use xlink:href="#DejaVuSans-18" transform="translate(111.578125 0)"/>
    </g>
   </g>
   <g id="text_35">
    <!-- -j5 -->
    <g style="fill: #6f7782" transform="translate(460.571507 287.664431) scale(0.06 -0.06)">
     <use xlink:href="#DejaVuSans-10"/>
     <use xlink:href="#DejaVuSans-4d" transform="translate(36.078125 0)"/>
     <use xlink:href="#DejaVuSans-18" transform="translate(63.859375 0)"/>
    </g>
   </g>
   <g id="text_36">
    <!--  S11 0.5G -->
    <g style="fill: #1f77b4" transform="translate(276.9925 263.289641) scale(0.07 -0.07)">
     <defs>
      <path id="DejaVuSans-3" transform="scale(0.015625)"/>
      <path id="DejaVuSans-36" d="M 3425 4513 
L 3425 3897 
Q 3066 4069 2747 4153 
Q 2428 4238 2131 4238 
Q 1616 4238 1336 4038 
Q 1056 3838 1056 3469 
Q 1056 3159 1242 3001 
Q 1428 2844 1947 2747 
L 2328 2669 
Q 3034 2534 3370 2195 
Q 3706 1856 3706 1288 
Q 3706 609 3251 259 
Q 2797 -91 1919 -91 
Q 1588 -91 1214 -16 
Q 841 59 441 206 
L 441 856 
Q 825 641 1194 531 
Q 1563 422 1919 422 
Q 2459 422 2753 634 
Q 3047 847 3047 1241 
Q 3047 1584 2836 1778 
Q 2625 1972 2144 2069 
L 1759 2144 
Q 1053 2284 737 2584 
Q 422 2884 422 3419 
Q 422 4038 858 4394 
Q 1294 4750 2059 4750 
Q 2388 4750 2728 4690 
Q 3069 4631 3425 4513 
z
" transform="scale(0.015625)"/>
     </defs>
     <use xlink:href="#DejaVuSans-3"/>
     <use xlink:href="#DejaVuSans-36" transform="translate(31.78125 0)"/>
     <use xlink:href="#DejaVuSans-14" transform="translate(95.265625 0)"/>
     <use xlink:href="#DejaVuSans-14" transform="translate(158.890625 0)"/>
     <use xlink:href="#DejaVuSans-3" transform="translate(222.515625 0)"/>
     <use xlink:href="#DejaVuSans-13" transform="translate(254.296875 0)"/>
     <use xlink:href="#DejaVuSans-11" transform="translate(317.921875 0)"/>
     <use xlink:href="#DejaVuSans-18" transform="translate(349.703125 0)"/>
     <use xlink:href="#DejaVuSans-2a" transform="translate(413.328125 0)"/>
    </g>
   </g>
   <g id="text_37">
    <!--  10G -->
    <g style="fill: #1f77b4" transform="translate(244.03183 268.10937) scale(0.07 -0.07)">
     <use xlink:href="#DejaVuSans-3"/>
     <use xlink:href="#DejaVuSans-14" transform="translate(31.78125 0)"/>
     <use xlink:href="#DejaVuSans-13" transform="translate(95.40625 0)"/>
     <use xlink:href="#DejaVuSans-2a" transform="translate(159.03125 0)"/>
    </g>
   </g>
   <g id="text_38">
    <!--  S22 0.5G -->
    <g style="fill: #8172b2" transform="translate(279.427059 265.708526) scale(0.07 -0.07)">
     <use xlink:href="#DejaVuSans-3"/>
     <use xlink:href="#DejaVuSans-36" transform="translate(31.78125 0)"/>
     <use xlink:href="#DejaVuSans-15" transform="translate(95.265625 0)"/>
     <use xlink:href="#DejaVuSans-15" transform="translate(158.890625 0)"/>
     <use xlink:href="#DejaVuSans-3" transform="translate(222.515625 0)"/>
     <use xlink:href="#DejaVuSans-13" transform="translate(254.296875 0)"/>
     <use xlink:href="#DejaVuSans-11" transform="translate(317.921875 0)"/>
     <use xlink:href="#DejaVuSans-18" transform="translate(349.703125 0)"/>
     <use xlink:href="#DejaVuSans-2a" transform="translate(413.328125 0)"/>
    </g>
   </g>
   <g id="text_39">
    <!--  10G -->
    <g style="fill: #8172b2" transform="translate(220.206527 277.335051) scale(0.07 -0.07)">
     <use xlink:href="#DejaVuSans-3"/>
     <use xlink:href="#DejaVuSans-14" transform="translate(31.78125 0)"/>
     <use xlink:href="#DejaVuSans-13" transform="translate(95.40625 0)"/>
     <use xlink:href="#DejaVuSans-2a" transform="translate(159.03125 0)"/>
    </g>
   </g>
   <g id="text_40">
    <!-- Worst return: S22 -8.24 dB @ 7.4 GHz -->
    <g style="fill: #303640" transform="translate(67.377798 474.539847) scale(0.08 -0.08)">
     <defs>
      <path id="DejaVuSans-3a" d="M 213 4666 
L 850 4666 
L 1831 722 
L 2809 4666 
L 3519 4666 
L 4500 722 
L 5478 4666 
L 6119 4666 
L 4947 0 
L 4153 0 
L 3169 4050 
L 2175 0 
L 1381 0 
L 213 4666 
z
" transform="scale(0.015625)"/>
      <path id="DejaVuSans-52" d="M 1959 3097 
Q 1497 3097 1228 2736 
Q 959 2375 959 1747 
Q 959 1119 1226 758 
Q 1494 397 1959 397 
Q 2419 397 2687 759 
Q 2956 1122 2956 1747 
Q 2956 2369 2687 2733 
Q 2419 3097 1959 3097 
z
M 1959 3584 
Q 2709 3584 3137 3096 
Q 3566 2609 3566 1747 
Q 3566 888 3137 398 
Q 2709 -91 1959 -91 
Q 1206 -91 779 398 
Q 353 888 353 1747 
Q 353 2609 779 3096 
Q 1206 3584 1959 3584 
z
" transform="scale(0.015625)"/>
      <path id="DejaVuSans-56" d="M 2834 3397 
L 2834 2853 
Q 2591 2978 2328 3040 
Q 2066 3103 1784 3103 
Q 1356 3103 1142 2972 
Q 928 2841 928 2578 
Q 928 2378 1081 2264 
Q 1234 2150 1697 2047 
L 1894 2003 
Q 2506 1872 2764 1633 
Q 3022 1394 3022 966 
Q 3022 478 2636 193 
Q 2250 -91 1575 -91 
Q 1294 -91 989 -36 
Q 684 19 347 128 
L 347 722 
Q 666 556 975 473 
Q 1284 391 1588 391 
Q 1994 391 2212 530 
Q 2431 669 2431 922 
Q 2431 1156 2273 1281 
Q 2116 1406 1581 1522 
L 1381 1569 
Q 847 1681 609 1914 
Q 372 2147 372 2553 
Q 372 3047 722 3315 
Q 1072 3584 1716 3584 
Q 2034 3584 2315 3537 
Q 2597 3491 2834 3397 
z
" transform="scale(0.015625)"/>
      <path id="DejaVuSans-57" d="M 1172 4494 
L 1172 3500 
L 2356 3500 
L 2356 3053 
L 1172 3053 
L 1172 1153 
Q 1172 725 1289 603 
Q 1406 481 1766 481 
L 2356 481 
L 2356 0 
L 1766 0 
Q 1100 0 847 248 
Q 594 497 594 1153 
L 594 3053 
L 172 3053 
L 172 3500 
L 594 3500 
L 594 4494 
L 1172 4494 
z
" transform="scale(0.015625)"/>
      <path id="DejaVuSans-58" d="M 544 1381 
L 544 3500 
L 1119 3500 
L 1119 1403 
Q 1119 906 1312 657 
Q 1506 409 1894 409 
Q 2359 409 2629 706 
Q 2900 1003 2900 1516 
L 2900 3500 
L 3475 3500 
L 3475 0 
L 2900 0 
L 2900 538 
Q 2691 219 2414 64 
Q 2138 -91 1772 -91 
Q 1169 -91 856 284 
Q 544 659 544 1381 
z
M 1991 3584 
L 1991 3584 
z
" transform="scale(0.015625)"/>
      <path id="DejaVuSans-51" d="M 3513 2113 
L 3513 0 
L 2938 0 
L 2938 2094 
Q 2938 2591 2744 2837 
Q 2550 3084 2163 3084 
Q 1697 3084 1428 2787 
Q 1159 2491 1159 1978 
L 1159 0 
L 581 0 
L 581 3500 
L 1159 3500 
L 1159 2956 
Q 1366 3272 1645 3428 
Q 1925 3584 2291 3584 
Q 2894 3584 3203 3211 
Q 3513 2838 3513 2113 
z
" transform="scale(0.015625)"/>
      <path id="DejaVuSans-1d" d="M 750 794 
L 1409 794 
L 1409 0 
L 750 0 
L 750 794 
z
M 750 3309 
L 1409 3309 
L 1409 2516 
L 750 2516 
L 750 3309 
z
" transform="scale(0.015625)"/>
      <path id="DejaVuSans-1b" d="M 2034 2216 
Q 1584 2216 1326 1975 
Q 1069 1734 1069 1313 
Q 1069 891 1326 650 
Q 1584 409 2034 409 
Q 2484 409 2743 651 
Q 3003 894 3003 1313 
Q 3003 1734 2745 1975 
Q 2488 2216 2034 2216 
z
M 1403 2484 
Q 997 2584 770 2862 
Q 544 3141 544 3541 
Q 544 4100 942 4425 
Q 1341 4750 2034 4750 
Q 2731 4750 3128 4425 
Q 3525 4100 3525 3541 
Q 3525 3141 3298 2862 
Q 3072 2584 2669 2484 
Q 3125 2378 3379 2068 
Q 3634 1759 3634 1313 
Q 3634 634 3220 271 
Q 2806 -91 2034 -91 
Q 1263 -91 848 271 
Q 434 634 434 1313 
Q 434 1759 690 2068 
Q 947 2378 1403 2484 
z
M 1172 3481 
Q 1172 3119 1398 2916 
Q 1625 2713 2034 2713 
Q 2441 2713 2670 2916 
Q 2900 3119 2900 3481 
Q 2900 3844 2670 4047 
Q 2441 4250 2034 4250 
Q 1625 4250 1398 4047 
Q 1172 3844 1172 3481 
z
" transform="scale(0.015625)"/>
      <path id="DejaVuSans-17" d="M 2419 4116 
L 825 1625 
L 2419 1625 
L 2419 4116 
z
M 2253 4666 
L 3047 4666 
L 3047 1625 
L 3713 1625 
L 3713 1100 
L 3047 1100 
L 3047 0 
L 2419 0 
L 2419 1100 
L 313 1100 
L 313 1709 
L 2253 4666 
z
" transform="scale(0.015625)"/>
      <path id="DejaVuSans-47" d="M 2906 2969 
L 2906 4863 
L 3481 4863 
L 3481 0 
L 2906 0 
L 2906 525 
Q 2725 213 2448 61 
Q 2172 -91 1784 -91 
Q 1150 -91 751 415 
Q 353 922 353 1747 
Q 353 2572 751 3078 
Q 1150 3584 1784 3584 
Q 2172 3584 2448 3432 
Q 2725 3281 2906 2969 
z
M 947 1747 
Q 947 1113 1208 752 
Q 1469 391 1925 391 
Q 2381 391 2643 752 
Q 2906 1113 2906 1747 
Q 2906 2381 2643 2742 
Q 2381 3103 1925 3103 
Q 1469 3103 1208 2742 
Q 947 2381 947 1747 
z
" transform="scale(0.015625)"/>
      <path id="DejaVuSans-25" d="M 1259 2228 
L 1259 519 
L 2272 519 
Q 2781 519 3026 730 
Q 3272 941 3272 1375 
Q 3272 1813 3026 2020 
Q 2781 2228 2272 2228 
L 1259 2228 
z
M 1259 4147 
L 1259 2741 
L 2194 2741 
Q 2656 2741 2882 2914 
Q 3109 3088 3109 3444 
Q 3109 3797 2882 3972 
Q 2656 4147 2194 4147 
L 1259 4147 
z
M 628 4666 
L 2241 4666 
Q 2963 4666 3353 4366 
Q 3744 4066 3744 3513 
Q 3744 3084 3544 2831 
Q 3344 2578 2956 2516 
Q 3422 2416 3680 2098 
Q 3938 1781 3938 1306 
Q 3938 681 3513 340 
Q 3088 0 2303 0 
L 628 0 
L 628 4666 
z
" transform="scale(0.015625)"/>
      <path id="DejaVuSans-23" d="M 2381 1678 
Q 2381 1231 2603 976 
Q 2825 722 3213 722 
Q 3597 722 3817 978 
Q 4038 1234 4038 1678 
Q 4038 2116 3813 2373 
Q 3588 2631 3206 2631 
Q 2828 2631 2604 2375 
Q 2381 2119 2381 1678 
z
M 4084 744 
Q 3897 503 3655 389 
Q 3413 275 3091 275 
Q 2553 275 2217 664 
Q 1881 1053 1881 1678 
Q 1881 2303 2218 2693 
Q 2556 3084 3091 3084 
Q 3413 3084 3656 2967 
Q 3900 2850 4084 2613 
L 4084 3022 
L 4531 3022 
L 4531 722 
Q 4988 791 5245 1139 
Q 5503 1488 5503 2041 
Q 5503 2375 5404 2669 
Q 5306 2963 5106 3213 
Q 4781 3622 4314 3839 
Q 3847 4056 3297 4056 
Q 2913 4056 2559 3954 
Q 2206 3853 1906 3653 
Q 1416 3334 1139 2817 
Q 863 2300 863 1697 
Q 863 1200 1042 765 
Q 1222 331 1563 0 
Q 1891 -325 2322 -495 
Q 2753 -666 3244 -666 
Q 3647 -666 4036 -530 
Q 4425 -394 4750 -141 
L 5031 -488 
Q 4641 -791 4180 -952 
Q 3719 -1113 3244 -1113 
Q 2666 -1113 2153 -908 
Q 1641 -703 1241 -313 
Q 841 78 631 592 
Q 422 1106 422 1697 
Q 422 2266 634 2781 
Q 847 3297 1241 3688 
Q 1644 4084 2172 4295 
Q 2700 4506 3291 4506 
Q 3953 4506 4520 4234 
Q 5088 3963 5472 3463 
Q 5706 3156 5829 2797 
Q 5953 2438 5953 2053 
Q 5953 1231 5456 756 
Q 4959 281 4084 263 
L 4084 744 
z
" transform="scale(0.015625)"/>
      <path id="DejaVuSans-2b" d="M 628 4666 
L 1259 4666 
L 1259 2753 
L 3553 2753 
L 3553 4666 
L 4184 4666 
L 4184 0 
L 3553 0 
L 3553 2222 
L 1259 2222 
L 1259 0 
L 628 0 
L 628 4666 
z
" transform="scale(0.015625)"/>
      <path id="DejaVuSans-5d" d="M 353 3500 
L 3084 3500 
L 3084 2975 
L 922 459 
L 3084 459 
L 3084 0 
L 275 0 
L 275 525 
L 2438 3041 
L 353 3041 
L 353 3500 
z
" transform="scale(0.015625)"/>
     </defs>
     <use xlink:href="#DejaVuSans-3a"/>
     <use xlink:href="#DejaVuSans-52" transform="translate(93.015625 0)"/>
     <use xlink:href="#DejaVuSans-55" transform="translate(154.203125 0)"/>
     <use xlink:href="#DejaVuSans-56" transform="translate(195.3125 0)"/>
     <use xlink:href="#DejaVuSans-57" transform="translate(247.40625 0)"/>
     <use xlink:href="#DejaVuSans-3" transform="translate(286.609375 0)"/>
     <use xlink:href="#DejaVuSans-55" transform="translate(318.390625 0)"/>
     <use xlink:href="#DejaVuSans-48" transform="translate(357.296875 0)"/>
     <use xlink:href="#DejaVuSans-57" transform="translate(418.828125 0)"/>
     <use xlink:href="#DejaVuSans-58" transform="translate(458.03125 0)"/>
     <use xlink:href="#DejaVuSans-55" transform="translate(521.40625 0)"/>
     <use xlink:href="#DejaVuSans-51" transform="translate(560.765625 0)"/>
     <use xlink:href="#DejaVuSans-1d" transform="translate(624.140625 0)"/>
     <use xlink:href="#DejaVuSans-3" transform="translate(657.828125 0)"/>
     <use xlink:href="#DejaVuSans-36" transform="translate(689.609375 0)"/>
     <use xlink:href="#DejaVuSans-15" transform="translate(753.09375 0)"/>
     <use xlink:href="#DejaVuSans-15" transform="translate(816.71875 0)"/>
     <use xlink:href="#DejaVuSans-3" transform="translate(880.34375 0)"/>
     <use xlink:href="#DejaVuSans-10" transform="translate(912.125 0)"/>
     <use xlink:href="#DejaVuSans-1b" transform="translate(948.203125 0)"/>
     <use xlink:href="#DejaVuSans-11" transform="translate(1011.828125 0)"/>
     <use xlink:href="#DejaVuSans-15" transform="translate(1043.609375 0)"/>
     <use xlink:href="#DejaVuSans-17" transform="translate(1107.234375 0)"/>
     <use xlink:href="#DejaVuSans-3" transform="translate(1170.859375 0)"/>
     <use xlink:href="#DejaVuSans-47" transform="translate(1202.640625 0)"/>
     <use xlink:href="#DejaVuSans-25" transform="translate(1266.125 0)"/>
     <use xlink:href="#DejaVuSans-3" transform="translate(1334.734375 0)"/>
     <use xlink:href="#DejaVuSans-23" transform="translate(1366.515625 0)"/>
     <use xlink:href="#DejaVuSans-3" transform="translate(1466.515625 0)"/>
     <use xlink:href="#DejaVuSans-1a" transform="translate(1498.296875 0)"/>
     <use xlink:href="#DejaVuSans-11" transform="translate(1561.921875 0)"/>
     <use xlink:href="#DejaVuSans-17" transform="translate(1593.703125 0)"/>
     <use xlink:href="#DejaVuSans-3" transform="translate(1657.328125 0)"/>
     <use xlink:href="#DejaVuSans-2a" transform="translate(1689.109375 0)"/>
     <use xlink:href="#DejaVuSans-2b" transform="translate(1766.59375 0)"/>
     <use xlink:href="#DejaVuSans-5d" transform="translate(1841.796875 0)"/>
    </g>
   </g>
   <g id="text_41">
    <!-- SINGLE_END_SMA_CPW_30MM L3 full plane Smith chart -->
    <g transform="translate(121.989291 16.318125) scale(0.12 -0.12)">
     <defs>
      <path id="DejaVuSans-31" d="M 628 4666 
L 1478 4666 
L 3547 763 
L 3547 4666 
L 4159 4666 
L 4159 0 
L 3309 0 
L 1241 3903 
L 1241 0 
L 628 0 
L 628 4666 
z
" transform="scale(0.015625)"/>
      <path id="DejaVuSans-2f" d="M 628 4666 
L 1259 4666 
L 1259 531 
L 3531 531 
L 3531 0 
L 628 0 
L 628 4666 
z
" transform="scale(0.015625)"/>
      <path id="DejaVuSans-28" d="M 628 4666 
L 3578 4666 
L 3578 4134 
L 1259 4134 
L 1259 2753 
L 3481 2753 
L 3481 2222 
L 1259 2222 
L 1259 531 
L 3634 531 
L 3634 0 
L 628 0 
L 628 4666 
z
" transform="scale(0.015625)"/>
      <path id="DejaVuSans-42" d="M 3263 -1063 
L 3263 -1509 
L -63 -1509 
L -63 -1063 
L 3263 -1063 
z
" transform="scale(0.015625)"/>
      <path id="DejaVuSans-27" d="M 1259 4147 
L 1259 519 
L 2022 519 
Q 2988 519 3436 956 
Q 3884 1394 3884 2338 
Q 3884 3275 3436 3711 
Q 2988 4147 2022 4147 
L 1259 4147 
z
M 628 4666 
L 1925 4666 
Q 3281 4666 3915 4102 
Q 4550 3538 4550 2338 
Q 4550 1131 3912 565 
Q 3275 0 1925 0 
L 628 0 
L 628 4666 
z
" transform="scale(0.015625)"/>
      <path id="DejaVuSans-30" d="M 628 4666 
L 1569 4666 
L 2759 1491 
L 3956 4666 
L 4897 4666 
L 4897 0 
L 4281 0 
L 4281 4097 
L 3078 897 
L 2444 897 
L 1241 4097 
L 1241 0 
L 628 0 
L 628 4666 
z
" transform="scale(0.015625)"/>
      <path id="DejaVuSans-24" d="M 2188 4044 
L 1331 1722 
L 3047 1722 
L 2188 4044 
z
M 1831 4666 
L 2547 4666 
L 4325 0 
L 3669 0 
L 3244 1197 
L 1141 1197 
L 716 0 
L 50 0 
L 1831 4666 
z
" transform="scale(0.015625)"/>
      <path id="DejaVuSans-26" d="M 4122 4306 
L 4122 3641 
Q 3803 3938 3442 4084 
Q 3081 4231 2675 4231 
Q 1875 4231 1450 3742 
Q 1025 3253 1025 2328 
Q 1025 1406 1450 917 
Q 1875 428 2675 428 
Q 3081 428 3442 575 
Q 3803 722 4122 1019 
L 4122 359 
Q 3791 134 3420 21 
Q 3050 -91 2638 -91 
Q 1578 -91 968 557 
Q 359 1206 359 2328 
Q 359 3453 968 4101 
Q 1578 4750 2638 4750 
Q 3056 4750 3426 4639 
Q 3797 4528 4122 4306 
z
" transform="scale(0.015625)"/>
      <path id="DejaVuSans-33" d="M 1259 4147 
L 1259 2394 
L 2053 2394 
Q 2494 2394 2734 2622 
Q 2975 2850 2975 3272 
Q 2975 3691 2734 3919 
Q 2494 4147 2053 4147 
L 1259 4147 
z
M 628 4666 
L 2053 4666 
Q 2838 4666 3239 4311 
Q 3641 3956 3641 3272 
Q 3641 2581 3239 2228 
Q 2838 1875 2053 1875 
L 1259 1875 
L 1259 0 
L 628 0 
L 628 4666 
z
" transform="scale(0.015625)"/>
      <path id="DejaVuSans-16" d="M 2597 2516 
Q 3050 2419 3304 2112 
Q 3559 1806 3559 1356 
Q 3559 666 3084 287 
Q 2609 -91 1734 -91 
Q 1441 -91 1130 -33 
Q 819 25 488 141 
L 488 750 
Q 750 597 1062 519 
Q 1375 441 1716 441 
Q 2309 441 2620 675 
Q 2931 909 2931 1356 
Q 2931 1769 2642 2001 
Q 2353 2234 1838 2234 
L 1294 2234 
L 1294 2753 
L 1863 2753 
Q 2328 2753 2575 2939 
Q 2822 3125 2822 3475 
Q 2822 3834 2567 4026 
Q 2313 4219 1838 4219 
Q 1578 4219 1281 4162 
Q 984 4106 628 3988 
L 628 4550 
Q 988 4650 1302 4700 
Q 1616 4750 1894 4750 
Q 2613 4750 3031 4423 
Q 3450 4097 3450 3541 
Q 3450 3153 3228 2886 
Q 3006 2619 2597 2516 
z
" transform="scale(0.015625)"/>
      <path id="DejaVuSans-49" d="M 2375 4863 
L 2375 4384 
L 1825 4384 
Q 1516 4384 1395 4259 
Q 1275 4134 1275 3809 
L 1275 3500 
L 2222 3500 
L 2222 3053 
L 1275 3053 
L 1275 0 
L 697 0 
L 697 3053 
L 147 3053 
L 147 3500 
L 697 3500 
L 697 3744 
Q 697 4328 969 4595 
Q 1241 4863 1831 4863 
L 2375 4863 
z
" transform="scale(0.015625)"/>
      <path id="DejaVuSans-4f" d="M 603 4863 
L 1178 4863 
L 1178 0 
L 603 0 
L 603 4863 
z
" transform="scale(0.015625)"/>
      <path id="DejaVuSans-53" d="M 1159 525 
L 1159 -1331 
L 581 -1331 
L 581 3500 
L 1159 3500 
L 1159 2969 
Q 1341 3281 1617 3432 
Q 1894 3584 2278 3584 
Q 2916 3584 3314 3078 
Q 3713 2572 3713 1747 
Q 3713 922 3314 415 
Q 2916 -91 2278 -91 
Q 1894 -91 1617 61 
Q 1341 213 1159 525 
z
M 3116 1747 
Q 3116 2381 2855 2742 
Q 2594 3103 2138 3103 
Q 1681 3103 1420 2742 
Q 1159 2381 1159 1747 
Q 1159 1113 1420 752 
Q 1681 391 2138 391 
Q 2594 391 2855 752 
Q 3116 1113 3116 1747 
z
" transform="scale(0.015625)"/>
      <path id="DejaVuSans-4c" d="M 603 3500 
L 1178 3500 
L 1178 0 
L 603 0 
L 603 3500 
z
M 603 4863 
L 1178 4863 
L 1178 4134 
L 603 4134 
L 603 4863 
z
" transform="scale(0.015625)"/>
      <path id="DejaVuSans-4b" d="M 3513 2113 
L 3513 0 
L 2938 0 
L 2938 2094 
Q 2938 2591 2744 2837 
Q 2550 3084 2163 3084 
Q 1697 3084 1428 2787 
Q 1159 2491 1159 1978 
L 1159 0 
L 581 0 
L 581 4863 
L 1159 4863 
L 1159 2956 
Q 1366 3272 1645 3428 
Q 1925 3584 2291 3584 
Q 2894 3584 3203 3211 
Q 3513 2838 3513 2113 
z
" transform="scale(0.015625)"/>
      <path id="DejaVuSans-46" d="M 3122 3366 
L 3122 2828 
Q 2878 2963 2633 3030 
Q 2388 3097 2138 3097 
Q 1578 3097 1268 2742 
Q 959 2388 959 1747 
Q 959 1106 1268 751 
Q 1578 397 2138 397 
Q 2388 397 2633 464 
Q 2878 531 3122 666 
L 3122 134 
Q 2881 22 2623 -34 
Q 2366 -91 2075 -91 
Q 1284 -91 818 406 
Q 353 903 353 1747 
Q 353 2603 823 3093 
Q 1294 3584 2113 3584 
Q 2378 3584 2631 3529 
Q 2884 3475 3122 3366 
z
" transform="scale(0.015625)"/>
     </defs>
     <use xlink:href="#DejaVuSans-36"/>
     <use xlink:href="#DejaVuSans-2c" transform="translate(63.484375 0)"/>
     <use xlink:href="#DejaVuSans-31" transform="translate(92.984375 0)"/>
     <use xlink:href="#DejaVuSans-2a" transform="translate(167.796875 0)"/>
     <use xlink:href="#DejaVuSans-2f" transform="translate(245.28125 0)"/>
     <use xlink:href="#DejaVuSans-28" transform="translate(301 0)"/>
     <use xlink:href="#DejaVuSans-42" transform="translate(364.1875 0)"/>
     <use xlink:href="#DejaVuSans-28" transform="translate(414.1875 0)"/>
     <use xlink:href="#DejaVuSans-31" transform="translate(477.375 0)"/>
     <use xlink:href="#DejaVuSans-27" transform="translate(552.1875 0)"/>
     <use xlink:href="#DejaVuSans-42" transform="translate(629.1875 0)"/>
     <use xlink:href="#DejaVuSans-36" transform="translate(679.1875 0)"/>
     <use xlink:href="#DejaVuSans-30" transform="translate(742.671875 0)"/>
     <use xlink:href="#DejaVuSans-24" transform="translate(828.953125 0)"/>
     <use xlink:href="#DejaVuSans-42" transform="translate(897.359375 0)"/>
     <use xlink:href="#DejaVuSans-26" transform="translate(947.359375 0)"/>
     <use xlink:href="#DejaVuSans-33" transform="translate(1017.1875 0)"/>
     <use xlink:href="#DejaVuSans-3a" transform="translate(1077.484375 0)"/>
     <use xlink:href="#DejaVuSans-42" transform="translate(1176.359375 0)"/>
     <use xlink:href="#DejaVuSans-16" transform="translate(1226.359375 0)"/>
     <use xlink:href="#DejaVuSans-13" transform="translate(1289.984375 0)"/>
     <use xlink:href="#DejaVuSans-30" transform="translate(1353.609375 0)"/>
     <use xlink:href="#DejaVuSans-30" transform="translate(1439.890625 0)"/>
     <use xlink:href="#DejaVuSans-3" transform="translate(1526.171875 0)"/>
     <use xlink:href="#DejaVuSans-2f" transform="translate(1557.953125 0)"/>
     <use xlink:href="#DejaVuSans-16" transform="translate(1613.671875 0)"/>
     <use xlink:href="#DejaVuSans-3" transform="translate(1677.296875 0)"/>
     <use xlink:href="#DejaVuSans-49" transform="translate(1709.078125 0)"/>
     <use xlink:href="#DejaVuSans-58" transform="translate(1744.28125 0)"/>
     <use xlink:href="#DejaVuSans-4f" transform="translate(1807.65625 0)"/>
     <use xlink:href="#DejaVuSans-4f" transform="translate(1835.4375 0)"/>
     <use xlink:href="#DejaVuSans-3" transform="translate(1863.21875 0)"/>
     <use xlink:href="#DejaVuSans-53" transform="translate(1895 0)"/>
     <use xlink:href="#DejaVuSans-4f" transform="translate(1958.484375 0)"/>
     <use xlink:href="#DejaVuSans-44" transform="translate(1986.265625 0)"/>
     <use xlink:href="#DejaVuSans-51" transform="translate(2047.546875 0)"/>
     <use xlink:href="#DejaVuSans-48" transform="translate(2110.921875 0)"/>
     <use xlink:href="#DejaVuSans-3" transform="translate(2172.453125 0)"/>
     <use xlink:href="#DejaVuSans-36" transform="translate(2204.234375 0)"/>
     <use xlink:href="#DejaVuSans-50" transform="translate(2267.71875 0)"/>
     <use xlink:href="#DejaVuSans-4c" transform="translate(2365.125 0)"/>
     <use xlink:href="#DejaVuSans-57" transform="translate(2392.90625 0)"/>
     <use xlink:href="#DejaVuSans-4b" transform="translate(2432.109375 0)"/>
     <use xlink:href="#DejaVuSans-3" transform="translate(2495.484375 0)"/>
     <use xlink:href="#DejaVuSans-46" transform="translate(2527.265625 0)"/>
     <use xlink:href="#DejaVuSans-4b" transform="translate(2582.25 0)"/>
     <use xlink:href="#DejaVuSans-44" transform="translate(2645.625 0)"/>
     <use xlink:href="#DejaVuSans-55" transform="translate(2706.90625 0)"/>
     <use xlink:href="#DejaVuSans-57" transform="translate(2748.015625 0)"/>
    </g>
   </g>
   <g id="legend_1">
    <g id="patch_13">
     <path d="M 473.14077 52.719375 
L 513.99952 52.719375 
Q 515.59952 52.719375 515.59952 51.119375 
L 515.59952 27.918125 
Q 515.59952 26.318125 513.99952 26.318125 
L 473.14077 26.318125 
Q 471.54077 26.318125 471.54077 27.918125 
L 471.54077 51.119375 
Q 471.54077 52.719375 473.14077 52.719375 
z
" style="fill: #ffffff; opacity: 0.8; stroke: #cccccc; stroke-linejoin: miter"/>
    </g>
    <g id="line2d_33">
     <path d="M 474.74077 32.796875 
L 482.74077 32.796875 
L 490.74077 32.796875 
" style="fill: none; stroke: #1f77b4; stroke-width: 1.35; stroke-linecap: square"/>
    </g>
    <g id="text_42">
     <!-- S11 -->
     <g transform="translate(497.14077 35.596875) scale(0.08 -0.08)">
      <use xlink:href="#DejaVuSans-36"/>
      <use xlink:href="#DejaVuSans-14" transform="translate(63.484375 0)"/>
      <use xlink:href="#DejaVuSans-14" transform="translate(127.109375 0)"/>
     </g>
    </g>
    <g id="line2d_34">
     <path d="M 474.74077 44.7975 
L 482.74077 44.7975 
L 490.74077 44.7975 
" style="fill: none; stroke: #8172b2; stroke-width: 1.35; stroke-linecap: square"/>
    </g>
    <g id="text_43">
     <!-- S22 -->
     <g transform="translate(497.14077 47.5975) scale(0.08 -0.08)">
      <use xlink:href="#DejaVuSans-36"/>
      <use xlink:href="#DejaVuSans-15" transform="translate(63.484375 0)"/>
      <use xlink:href="#DejaVuSans-15" transform="translate(127.109375 0)"/>
     </g>
    </g>
   </g>
  </g>
 </g>
 <defs>
  <clipPath id="p976559ac8c">
   <rect x="58.845313" y="22.318125" width="460.754208" height="460.754208"/>
  </clipPath>
 </defs>
</svg>
